<svg id="LINE" enable-background="new 0 0 36 36" height="512" viewBox="0 0 36 36" width="512" xmlns="http://www.w3.org/2000/svg"><g><path d="m34.928 20.591c-3.693-5.848-3.199-11.778-4.979-14.596s-7.138-7.714-20.103.473-9.84 17.35-7.882 20.45c9.166 14.515 39.504 4.031 32.964-6.327z" fill="#efefef"/></g><g><path d="m11.429 5.348h2v1h-2z" fill="#a4afc1" transform="matrix(.707 -.707 .707 .707 -.495 10.502)"/></g><g><path d="m7.363 9.414h2v1h-2z" fill="#a4afc1" transform="matrix(.707 -.707 .707 .707 -4.56 8.817)"/></g><g><path d="m7.863 4.671h1v2h-1z" fill="#a4afc1" transform="matrix(.707 -.707 .707 .707 -1.56 7.575)"/></g><g><path d="m27.77 25.25c-.827 0-1.5-.673-1.5-1.5s.673-1.5 1.5-1.5 1.5.673 1.5 1.5-.673 1.5-1.5 1.5zm0-2c-.276 0-.5.224-.5.5s.224.5.5.5.5-.224.5-.5-.225-.5-.5-.5z" fill="#a4afc1"/></g><g><path d="m22.508 8.78-3.139-1.816c-.457-.264-1.024-.285-1.502-.055l-4.264 2.056c-.685.33-1.013 1.088-.777 1.786 1.125 3.318 5.084 12.594 9.469 17.558 0 0-2.835-10.779.781-17.579.371-.697.132-1.545-.568-1.95z" fill="#2fdf84"/></g><g><path d="m14.289 14.741c1.03 5.894-.008 10.199-.541 12.241-.198.758.236 1.535 1.011 1.782l1.415.41c.256.082.53.098.795.047l5.326-.912z" fill="#f3f3f1"/></g><g><path d="m22.295 28.309c-4.817-8.404-3.661-21.332-3.661-21.332z" fill="#2fdf84"/></g><g><path d="m14.701 10.626c-.237-.698.092-1.456.777-1.786l3.89-1.875c-.457-.264-1.024-.285-1.501-.055l-4.264 2.056c-.685.33-1.013 1.088-.777 1.786 1.125 3.318 5.084 12.594 9.469 17.558 0 0-.369-1.408-.671-3.523-3.3-5.026-6.021-11.503-6.923-14.161z" fill="#00b871"/></g><g><path d="m16.759 28.764c-.775-.247-1.209-1.023-1.011-1.782.4-1.532 1.084-4.338.966-8.132l-2.425-4.109c1.03 5.894-.008 10.199-.541 12.241-.198.758.236 1.535 1.011 1.782l1.415.41c.256.082.53.098.795.047l.86-.147z" fill="#d5dbe1"/></g><g><path d="m22.296 29.059c-.21 0-.417-.088-.562-.253-4.385-4.964-8.373-14.146-9.618-17.814-.355-1.05.144-2.212 1.161-2.703l4.265-2.056c.705-.338 1.529-.308 2.203.083l3.139 1.815c1.04.602 1.415 1.897.855 2.951-.412.775-.757 1.65-1.024 2.602l-1.444-.406c.296-1.055.682-2.031 1.144-2.9.185-.348.066-.747-.282-.948l-3.14-1.816c-.241-.14-.548-.15-.8-.029l-4.264 2.055c-.342.165-.507.531-.392.871.985 2.903 3.972 9.876 7.407 14.831-.366-2.37-.678-5.773-.251-9.154l1.488.188c-.722 5.71.824 11.683.839 11.743.088.336-.065.689-.372.853-.111.058-.232.087-.352.087z"/></g><g><path d="m16.668 30c-.242 0-.487-.037-.722-.112l-1.396-.405c-1.163-.37-1.825-1.55-1.527-2.691.428-1.639 1.564-5.993.528-11.923l1.478-.258c1.093 6.251-.104 10.834-.554 12.56-.098.376.123.753.513.878l1.396.404c.156.049.304.058.445.031l5.341-.915.253 1.479-5.326.912c-.14.027-.284.04-.429.04z"/></g><g><path d="m17.299 29.413-1.463-.331c1.264-5.58-2.204-13.967-2.239-14.051l1.384-.58c.151.361 3.689 8.911 2.318 14.962z"/></g><g><path d="m21.645 28.682c-4.878-8.511-3.805-21.235-3.757-21.772l1.494.133c-.011.127-1.076 12.796 3.565 20.893z"/></g></svg>