<svg id="LINE" enable-background="new 0 0 36 36" height="512" viewBox="0 0 36 36" width="512" xmlns="http://www.w3.org/2000/svg"><g><path d="m8.377 4.167c6.917 0 11.667-3.583 15-3.583s10.333 1.916 10.333 17.249-9.417 17.583-13.083 17.583c-17.167.001-24.5-31.249-12.25-31.249z" fill="#efefef"/></g><g><path d="m8.033 5.632h2v1h-2z" fill="#a4afc1" transform="matrix(.707 -.707 .707 .707 -1.69 8.183)"/></g><g><path d="m3.967 9.698h2v1h-2z" fill="#a4afc1" transform="matrix(.707 -.707 .707 .707 -5.756 6.499)"/></g><g><path d="m4.467 4.955h1v2h-1z" fill="#a4afc1" transform="matrix(.707 -.707 .707 .707 -2.756 5.256)"/></g><g><path d="m28.626 14.138c-.827 0-1.5-.673-1.5-1.5s.673-1.5 1.5-1.5 1.5.673 1.5 1.5-.673 1.5-1.5 1.5zm0-2c-.275 0-.5.224-.5.5s.225.5.5.5.5-.224.5-.5-.225-.5-.5-.5z" fill="#a4afc1"/></g><g><circle cx="18" cy="13" fill="#2fdf84" r="6.25"/></g><g><path d="m22.808 9c-.894 1.087-1.442 2.481-1.442 4s.548 2.913 1.442 4z" fill="#2fdf84"/></g><g><path d="m13.192 9c.894 1.087 1.442 2.481 1.442 4s-.548 2.913-1.442 4z" fill="#2fdf84"/></g><g><path d="m18 6.75v12.5z" fill="#2fdf84"/></g><g><path d="m11.75 13h12.5z" fill="#2fdf84"/></g><g><path d="m24.25 29.25h-12.5v-2.5c0-.552.448-1 1-1h10.5c.552 0 1 .448 1 1z" fill="#f3f3f1"/></g><g><path d="m22.25 25.75h-8.5l.811-3.243c.111-.445.511-.757.97-.757h4.938c.459 0 .859.312.97.757z" fill="#f3f3f1"/></g><g><path d="m18 19.5.017 2z" fill="#2fdf84"/></g><g><path d="m13.75 13c0-3.111 2.275-5.683 5.25-6.163-.326-.053-.659-.087-1-.087-3.452 0-6.25 2.798-6.25 6.25s2.798 6.25 6.25 6.25c.341 0 .674-.035 1-.087-2.975-.48-5.25-3.052-5.25-6.163z" fill="#00b871"/></g><g><path d="m17.531 21.75h-2c-.459 0-.859.312-.97.757l-.811 3.243h2l.811-3.243c.111-.445.511-.757.97-.757z" fill="#d5dbe1"/></g><g><path d="m14.75 25.75h-2c-.552 0-1 .448-1 1v2.5h2v-2.5c0-.552.448-1 1-1z" fill="#d5dbe1"/></g><g><path d="m18 20c-3.859 0-7-3.14-7-7 0-2.398 1.207-4.604 3.229-5.898l.809 1.263c-1.589 1.017-2.538 2.75-2.538 4.635 0 3.033 2.468 5.5 5.5 5.5.534 0 1.063-.077 1.57-.227l.428 1.438c-.646.192-1.318.289-1.998.289z"/></g><g><path d="m21.581 19.016-.768-1.288c1.657-.989 2.687-2.8 2.687-4.728 0-3.033-2.468-5.5-5.5-5.5-.537 0-1.065.077-1.571.228l-.43-1.438c.646-.192 1.318-.29 2.001-.29 3.859 0 7 3.14 7 7 0 2.453-1.31 4.758-3.419 6.016z"/></g><g><path d="m22.229 17.477c-1.04-1.264-1.613-2.854-1.613-4.477s.573-3.213 1.613-4.477l1.158.953c-.82.996-1.271 2.247-1.271 3.523s.451 2.527 1.271 3.523z"/></g><g><path d="m13.771 17.477-1.158-.953c.82-.996 1.271-2.247 1.271-3.523s-.451-2.527-1.271-3.523l1.158-.953c1.04 1.264 1.613 2.854 1.613 4.477s-.572 3.211-1.613 4.475z"/></g><g><path d="m17.25 6.75h1.5v12.5h-1.5z"/></g><g><path d="m11.75 12.25h12.5v1.5h-12.5z"/></g><g><path d="m24.25 30h-12.5c-.414 0-.75-.336-.75-.75v-2.5c0-.965.785-1.75 1.75-1.75h10.5c.965 0 1.75.785 1.75 1.75v2.5c0 .414-.336.75-.75.75zm-11.75-1.5h11v-1.75c0-.138-.112-.25-.25-.25h-10.5c-.138 0-.25.112-.25.25z"/></g><g><path d="m22.25 26.5h-8.5c-.23 0-.449-.106-.591-.289-.143-.182-.192-.419-.137-.643l.811-3.243c.195-.78.893-1.325 1.697-1.325h4.939c.805 0 1.502.545 1.697 1.325l.811 3.243c.056.224.006.461-.137.643-.141.183-.36.289-.59.289zm-7.539-1.5h6.578l-.577-2.311c-.028-.111-.128-.189-.242-.189h-4.94c-.114 0-.214.078-.242.189z"/></g><g><path d="m17.258 19.5h1.5v2h-1.5z" transform="matrix(1 -.008 .008 1 -.17 .15)"/></g><g><path d="m2 28.91h32v1.09h-32z"/></g></svg>