<svg id="LINE" enable-background="new 0 0 36 36" height="512" viewBox="0 0 36 36" width="512" xmlns="http://www.w3.org/2000/svg"><g><path d="m27.417 3.914c-6.915.129-11.732-3.365-15.064-3.302s-10.296 2.109-10.009 17.44 9.744 17.404 13.41 17.336c17.163-.321 23.911-31.703 11.663-31.474z" fill="#efefef"/></g><g><path d="m19.875 4.041h2v1h-2z" fill="#a4afc1"/></g><g><path d="m14.125 4.041h2v1h-2z" fill="#a4afc1"/></g><g><path d="m17.625.541h1v2h-1z" fill="#a4afc1"/></g><g><path d="m31 32.5c-.827 0-1.5-.673-1.5-1.5s.673-1.5 1.5-1.5 1.5.673 1.5 1.5-.673 1.5-1.5 1.5zm0-2c-.276 0-.5.224-.5.5s.224.5.5.5.5-.224.5-.5-.224-.5-.5-.5z" fill="#a4afc1"/></g><g><path d="m16.75 20.75h1.667c.46 0 .833.41.833.917v3.667c0 .506-.373.917-.833.917h-1.667z" fill="#2fdf84"/></g><g><path d="m19.163 16.845-5.913-10.095h-4.5l5.95 10.8z" fill="#f3f3f1"/></g><g><path d="m18.13 15.08 4.62-8.33h4.5l-5.95 10.8z" fill="#f3f3f1"/></g><g><circle cx="18" cy="23" fill="#2fdf84" r="6.25"/></g><g><path d="m13.75 23c0-3.111 2.275-5.683 5.25-6.163-.326-.053-.659-.087-1-.087-3.452 0-6.25 2.798-6.25 6.25s2.798 6.25 6.25 6.25c.341 0 .674-.035 1-.087-2.975-.48-5.25-3.052-5.25-6.163z" fill="#00b871"/></g><g><path d="m10.75 6.75h-2l5.95 10.8 1.84-.291z" fill="#d5dbe1"/></g><g><path d="m20.74 17.114.56.436.172-.312z" fill="#d5dbe1"/></g><g><path d="m20.13 15.08 4.62-8.33h-2l-4.62 8.33 1.401 1.092z" fill="#d5dbe1"/></g><g><path d="m18.417 27h-2.417v-1.5h2.417c.021 0 .083-.059.083-.167v-3.667c0-.107-.062-.167-.083-.167h-2.417v-1.499h2.417c.873 0 1.583.748 1.583 1.667v3.667c0 .918-.71 1.666-1.583 1.666z"/></g><g><path d="m16 22.75h4v1.5h-4z"/></g><g><path d="m14.043 17.912-5.95-10.8c-.128-.233-.124-.515.011-.743.135-.229.381-.369.646-.369h4.5c.266 0 .513.141.647.371l5.913 10.095-1.294.758-5.696-9.724h-2.8l5.337 9.688z"/></g><g><path d="m21.957 17.912-1.313-.724 5.336-9.688h-2.789l-4.406 7.944-1.312-.728 4.62-8.33c.134-.238.385-.386.657-.386h4.5c.265 0 .511.14.646.369.135.228.139.511.011.743z"/></g><g><path d="m18 30c-3.86 0-7-3.14-7-7s3.14-7 7-7 7 3.14 7 7c0 .527-.059 1.054-.175 1.564l-1.463-.333c.092-.401.138-.815.138-1.231 0-3.033-2.467-5.5-5.5-5.5s-5.5 2.467-5.5 5.5 2.467 5.5 5.5 5.5c1.754 0 3.362-.808 4.413-2.216l1.202.896c-1.316 1.766-3.415 2.82-5.615 2.82z"/></g></svg>