<svg id="LINE" enable-background="new 0 0 36 36" height="512" viewBox="0 0 36 36" width="512" xmlns="http://www.w3.org/2000/svg"><g><path d="m8.114 5.564c-1.805 6.677-6.504 10.327-7.374 13.545s-.847 10.475 13.955 14.477 19.432-4.501 20.388-8.041c4.481-16.572-23.772-31.807-26.969-19.981z" fill="#efefef"/></g><g><path d="m31 6.5c-.827 0-1.5-.673-1.5-1.5s.673-1.5 1.5-1.5 1.5.673 1.5 1.5-.673 1.5-1.5 1.5zm0-2c-.275 0-.5.225-.5.5s.225.5.5.5.5-.225.5-.5-.225-.5-.5-.5z" fill="#a4afc1"/></g><g><path d="m3.5 0h1v2h-1z" fill="#a4afc1"/></g><g><path d="m3.5 5.75h1v2h-1z" fill="#a4afc1"/></g><g><path d="m0 3.25h2v1h-2z" fill="#a4afc1"/></g><g><path d="m5.75 3.25h2v1h-2z" fill="#a4afc1"/></g><g><path d="m27.25 28.25h-18.531c-1.105 0-2-.895-2-2v-15h22.531v15c0 1.105-.895 2-2 2z" fill="#f3f3f1"/></g><g><path d="m8.719 26.25v-15h-2v15c0 1.105.895 2 2 2h2c-1.105 0-2-.895-2-2z" fill="#d5dbe1"/></g><g><path d="m6.75 11.25h22.5z" fill="#2fdf84"/></g><g><circle cx="17.993" cy="18" fill="#2fdf84" r="3.25"/></g><g><path d="m15.813 20.42-2.063 3.51 1.613-.101.713 1.421 1.922-3.264z" fill="#2fdf84"/></g><g><path d="m20.181 20.409 2.069 3.521-1.613-.101-.717 1.421-1.922-3.264-.439-.76z" fill="#2fdf84"/></g><g><path d="m29.25 11.25h-22.531v-1.5c0-1.105.895-2 2-2h18.531c1.105 0 2 .895 2 2z" fill="#2fdf84"/></g><g><path d="m10.719 7.75h-2c-1.105 0-2 .895-2 2v1.5h2v-1.5c0-1.105.895-2 2-2z" fill="#00b871"/></g><g><path d="m16.743 18c0-1.444.948-2.653 2.25-3.077-.317-.103-.649-.173-1-.173-1.795 0-3.25 1.455-3.25 3.25s1.455 3.25 3.25 3.25c.351 0 .683-.07 1-.173-1.302-.424-2.25-1.633-2.25-3.077z" fill="#00b871"/></g><g><path d="m27.25 29h-18.5c-1.517 0-2.75-1.233-2.75-2.75v-16.5c0-1.517 1.233-2.75 2.75-2.75h18.5c1.517 0 2.75 1.233 2.75 2.75v6.667h-1.5v-6.667c0-.689-.561-1.25-1.25-1.25h-18.5c-.689 0-1.25.561-1.25 1.25v16.5c0 .689.561 1.25 1.25 1.25h18.5c.689 0 1.25-.561 1.25-1.25v-6.5h1.5v6.5c0 1.517-1.233 2.75-2.75 2.75z"/></g><g><path d="m6.75 10.5h22.5v1.5h-22.5z"/></g><g><path d="m17.993 22c-2.206 0-4-1.794-4-4s1.794-4 4-4 4 1.794 4 4-1.794 4-4 4zm0-6.5c-1.379 0-2.5 1.121-2.5 2.5s1.121 2.5 2.5 2.5 2.5-1.121 2.5-2.5-1.121-2.5-2.5-2.5z"/></g><g><path d="m16.075 26c-.009 0-.017 0-.025 0-.274-.01-.522-.168-.646-.414l-.489-.978-1.118.07c-.27.02-.541-.119-.686-.355-.146-.236-.148-.533-.008-.772l2.063-3.511 1.293.76-1.348 2.294.204-.013c.298-.04.583.143.718.412l.095.188 1.223-2.076 1.293.762-1.923 3.264c-.135.229-.381.369-.646.369z"/></g><g><path d="m19.92 26c-.265 0-.511-.14-.646-.369l-2.364-4.03 1.299-.75 1.661 2.835.098-.194c.135-.268.415-.448.717-.41l.205.013-1.354-2.306 1.293-.76 2.069 3.522c.141.239.138.536-.008.772-.145.236-.41.393-.686.355l-1.12-.07-.493.979c-.124.245-.371.402-.646.412-.008.001-.017.001-.025.001z"/></g></svg>