<svg id="LINE" enable-background="new 0 0 512 512" height="512" viewBox="0 0 512 512" width="512" xmlns="http://www.w3.org/2000/svg"><g><g><path d="m130.128 85.256c-24.783 91.674-89.299 141.789-101.245 185.971-11.945 44.184-11.629 143.821 191.602 198.768 203.229 54.949 266.8-61.798 279.925-110.401 61.525-227.533-326.388-436.709-370.282-274.338z" fill="#efefef"/></g><g><path d="m467.828 460.248c-11.354 0-20.595-9.24-20.595-20.595s9.241-20.596 20.595-20.596 20.595 9.241 20.595 20.596-9.226 20.595-20.595 20.595zm0-27.46c-3.789 0-6.865 3.09-6.865 6.865 0 3.776 3.076 6.864 6.865 6.864s6.865-3.088 6.865-6.864c0-3.775-3.076-6.865-6.865-6.865z" fill="#a4afc1"/></g><g><path d="m53.048 27.617h13.73v27.459h-13.73z" fill="#a4afc1"/></g><g><path d="m53.048 106.565h13.73v27.459h-13.73z" fill="#a4afc1"/></g><g><path d="m4.993 72.24h27.46v13.729h-27.46z" fill="#a4afc1"/></g><g><path d="m83.94 72.24h27.459v13.729h-27.459z" fill="#a4afc1"/></g><g><path d="m395.321 396.733h-258.92c-13.811 0-25.002-11.191-25.002-25.003v-208.406h308.924v208.406c0 13.812-11.19 25.003-25.002 25.003z" fill="#f3f3f1"/></g><g><path d="m111.399 163.324h308.924z" fill="#2fdf84"/></g><g><circle cx="265.861" cy="256.001" fill="#2fdf84" r="44.623"/></g><g><path d="m289.889 293.593v61.95l-24.027-17.821-24.027 17.821v-61.414z" fill="#f3f3f1"/></g><g><path d="m420.323 163.324h-308.924v-24.261c0-13.139 10.655-23.793 23.794-23.793h260.25c13.744 0 24.879 11.135 24.879 24.878v23.176z" fill="#2fdf84"/></g><g><path d="m138.859 371.73v-208.406h-27.46v208.406c0 13.812 11.191 25.003 25.002 25.003h27.461c-13.812 0-25.003-11.191-25.003-25.003z" fill="#d5dbe1"/></g><g><path d="m162.654 115.269h-27.46c-13.139 0-23.794 10.654-23.794 23.793v24.261h27.46v-24.261c-.001-13.138 10.655-23.793 23.794-23.793z" fill="#00b871"/></g><g><path d="m248.699 256.001c0-19.825 13.016-36.425 30.893-42.247-4.354-1.414-8.911-2.375-13.73-2.375-24.646 0-44.623 19.978-44.623 44.622 0 24.646 19.977 44.623 44.623 44.623 4.819 0 9.377-.962 13.73-2.376-17.877-5.821-30.893-22.436-30.893-42.247z" fill="#00b871"/></g><g><path d="m111.399 153.027h308.924v20.595h-308.924z"/></g><g><path d="m265.861 310.922c-30.288 0-54.919-24.633-54.919-54.921s24.631-54.92 54.919-54.92 54.919 24.632 54.919 54.92c0 30.289-24.631 54.921-54.919 54.921zm0-89.246c-18.919 0-34.325 15.392-34.325 34.325 0 18.934 15.405 34.325 34.325 34.325 18.919 0 34.325-15.392 34.325-34.325.001-18.933-15.406-34.325-34.325-34.325z"/></g><g><path d="m289.889 365.841c-2.17 0-4.325-.687-6.138-2.019l-17.89-13.276-17.89 13.276c-3.13 2.334-7.277 2.678-10.764.92-3.473-1.744-5.67-5.313-5.67-9.199v-61.414h20.594v40.943l7.593-5.63c3.652-2.704 8.623-2.704 12.275 0l7.593 5.643v-41.478h20.595v61.949c0 3.886-2.198 7.456-5.671 9.199-1.469.728-3.048 1.086-4.627 1.086z"/></g><g><path d="m392.863 407.03h-254.004c-20.829 0-37.757-16.929-37.757-37.757v-226.544c0-20.828 16.928-37.758 37.757-37.758h254.004c20.828 0 37.758 16.93 37.758 37.758v91.537h-20.596v-91.537c0-9.459-7.702-17.162-17.162-17.162h-254.004c-9.46 0-17.162 7.703-17.162 17.162v226.544c0 9.46 7.702 17.162 17.162 17.162h254.004c9.46 0 17.162-7.702 17.162-17.162v-89.244h20.596v89.244c0 20.828-16.93 37.757-37.758 37.757z"/></g></g></svg>