<svg id="LINE" enable-background="new 0 0 36 36" height="512" viewBox="0 0 36 36" width="512" xmlns="http://www.w3.org/2000/svg"><g><path d="m4.167 27.623c0-6.917-3.583-11.667-3.583-15s1.916-10.333 17.249-10.333 17.583 9.417 17.583 13.083c.001 17.167-31.249 24.5-31.249 12.25z" fill="#efefef"/></g><g><path d="m7.033 3.824h2v1h-2z" fill="#a4afc1" transform="matrix(.707 -.707 .707 .707 -.705 6.947)"/></g><g><path d="m2.967 7.89h2v1h-2z" fill="#a4afc1" transform="matrix(.707 -.707 .707 .707 -4.771 5.262)"/></g><g><path d="m3.467 3.148h1v2h-1z" fill="#a4afc1" transform="matrix(.707 -.707 .707 .707 -1.771 4.02)"/></g><g><path d="m30.682 32.362c-.827 0-1.5-.673-1.5-1.5s.673-1.5 1.5-1.5 1.5.673 1.5 1.5-.673 1.5-1.5 1.5zm0-2c-.275 0-.5.224-.5.5s.225.5.5.5.5-.224.5-.5-.225-.5-.5-.5z" fill="#a4afc1"/></g><g><path d="m26.25 29.25h-16.5v-2.5c0-1.105.895-2 2-2h12.5c1.105 0 2 .895 2 2z" fill="#f3f3f1"/></g><g><path d="m16.5 24.5v-1.68l.04-14.32-6.04 4 .26 1.57.14.81.19 1.16.38 2.28.71 4.613.278 1.817h4.082z" fill="#2fdf84"/></g><g><path d="m18.5 24.5v-18l8 3-.36 1.79-.28 1.42-.13.64-.45 2.25-1.288 7.298-.2 1.602z" fill="#2fdf84"/></g><g><path d="m18.5 6.5v18h2v-17.25z" fill="#00b871"/></g><g><path d="m16.5 23.75h-2.317l-.278-1.817-.71-4.613-.38-2.28-.19-1.16-.14-.81-.26-1.57 4.315-2.857v-.143l-6.04 4 .26 1.57.14.81.19 1.16.38 2.28.71 4.613.278 1.817h4.082l-.04-.25z" fill="#00b871"/></g><g><path d="m13.75 24.75h-2c-1.105 0-2 .895-2 2v2.5h2v-2.5c0-1.105.895-2 2-2z" fill="#d5dbe1"/></g><g><path d="m26.25 30h-16.5c-.414 0-.75-.336-.75-.75v-2.5c0-1.517 1.233-2.75 2.75-2.75h12.5c1.517 0 2.75 1.233 2.75 2.75v2.5c0 .414-.336.75-.75.75zm-15.75-1.5h15v-1.75c0-.689-.561-1.25-1.25-1.25h-12.5c-.689 0-1.25.561-1.25 1.25z"/></g><g><path d="m16.54 25.5h-4.082c-.37 0-.686-.271-.741-.636l-1.957-12.241c-.048-.292.08-.584.326-.748l6.04-4c.229-.152.526-.167.77-.035.244.131.396.386.395.662l-.041 15.938.03.191c.035.217-.027.438-.17.605-.141.168-.35.264-.57.264zm-3.438-1.5h2.648l.036-14.101-4.467 2.958.891 5.34z"/></g><g><path d="m23.792 25.25h-5.292c-.414 0-.75-.336-.75-.75v-18c0-.246.121-.477.323-.616.202-.141.459-.172.69-.086l2.446.917-.526 1.405-1.433-.537v16.167h3.88l.118-.945 1.294-7.335 1.097-5.492-2.335-.875.527-1.404 2.933 1.1c.345.129.544.489.472.85l-1.22 6.099-1.285 7.282-.194 1.564c-.048.374-.367.656-.745.656z"/></g><g><path d="m15.986 25.41-.728-.183c-1.78-.448-3.422-1.345-4.748-2.596-2.833-2.67-4.004-6.674-3.057-10.447l.183-.728 1.455.365-.182.729c-.815 3.247.192 6.692 2.631 8.99 1.14 1.076 2.553 1.848 4.084 2.232l.728.183z"/></g><g><path d="m7.671 17.25h3.601v1.5h-3.601z" transform="matrix(.306 -.952 .952 .306 -10.562 21.515)"/></g><g><path d="m7.637 18.838h1.5v3.66h-1.5z" transform="matrix(.195 -.981 .981 .195 -13.518 24.872)"/></g><g><path d="m9.781 20.684h3.515v1.499h-3.515z" transform="matrix(.121 -.993 .993 .121 -11.136 30.29)"/></g><g><path d="m10.649 21.265h1.5v4.025h-1.5z" transform="matrix(.045 -.999 .999 .045 -12.364 33.626)"/></g><g><path d="m13.231 21.373h1.5v3.388h-1.5z"/></g><g><path d="m6.797 15.946h1.5v3.484h-1.5z" transform="matrix(.428 -.904 .904 .428 -11.669 16.932)"/></g><g><path d="m7.132 14.504h3.392v1.5h-3.392z" transform="matrix(.466 -.885 .885 .466 -8.783 15.96)"/></g><g><path d="m6.439 12.075h1.5v3.705h-1.5z" transform="matrix(.781 -.625 .625 .781 -7.13 7.552)"/></g><g><path d="m20.014 25.41-.365-1.455.728-.183c1.531-.385 2.944-1.157 4.084-2.232 2.438-2.299 3.446-5.744 2.631-8.991l-.183-.728 1.455-.365.183.728c.947 3.773-.224 7.776-3.057 10.447-1.326 1.25-2.968 2.148-4.748 2.596z"/></g><g><path d="m25.269 16.463h1.5v3.6h-1.5z" transform="matrix(.952 -.305 .305 .952 -4.335 8.82)"/></g><g><path d="m25.727 19.918h3.659v1.5h-3.659z" transform="matrix(.981 -.195 .195 .981 -3.496 5.76)"/></g><g><path d="m23.712 19.676h1.499v3.515h-1.499z" transform="matrix(.993 -.121 .121 .993 -2.416 3.121)"/></g><g><path d="m22.588 22.528h4.025v1.5h-4.025z" transform="matrix(.999 -.045 .045 .999 -1.021 1.129)"/></g><g><path d="m21.269 21.373h1.5v3.388h-1.5z"/></g><g><path d="m26.711 16.938h3.484v1.5h-3.484z" transform="matrix(.904 -.428 .428 .904 -4.834 13.893)"/></g><g><path d="m26.366 13.804h1.5v3.392h-1.5z" transform="matrix(.885 -.466 .466 .885 -4.098 14.408)"/></g><g><path d="m26.959 13.178h3.705v1.5h-3.705z" transform="matrix(.625 -.781 .781 .625 -.068 27.713)"/></g></svg>