<svg id="LINE" enable-background="new 0 0 36 36" height="512" viewBox="0 0 36 36" width="512" xmlns="http://www.w3.org/2000/svg"><g><path d="m4.167 27.623c0-6.917-3.583-11.667-3.583-15s1.916-10.333 17.249-10.333 17.583 9.417 17.583 13.083c.001 17.167-31.249 24.5-31.249 12.25z" fill="#efefef"/></g><g><path d="m19.875 3.562h2v1h-2z" fill="#a4afc1"/></g><g><path d="m14.125 3.562h2v1h-2z" fill="#a4afc1"/></g><g><path d="m17.625.062h1v2h-1z" fill="#a4afc1"/></g><g><path d="m3.29 26.25c-.827 0-1.5-.673-1.5-1.5s.673-1.5 1.5-1.5 1.5.673 1.5 1.5-.673 1.5-1.5 1.5zm0-2c-.275 0-.5.224-.5.5s.225.5.5.5.5-.224.5-.5-.225-.5-.5-.5z" fill="#a4afc1"/></g><g><path d="m22.598 25.25c.949-2.47.548-5.819-1.321-8.871-.9-1.471-2.035-2.71-3.277-3.636-2.671-1.998-5.821-2.609-8.217-1.304-3.512 1.915-4.05 7.234-1.213 11.878.43.703.91 1.351 1.438 1.933z" fill="#2fdf84"/></g><g><path d="m13.402 25.25c-.949-2.47-.548-5.819 1.321-8.871.9-1.471 2.035-2.71 3.277-3.636 2.671-1.998 5.821-2.609 8.217-1.304 3.512 1.915 4.05 7.234 1.213 11.878-.43.703-.91 1.351-1.438 1.933z" fill="#2fdf84"/></g><g><circle cx="18" cy="8" fill="#2fdf84" r="1.25"/></g><g><path d="m27.5 29.25h-19c-.966 0-1.75-.784-1.75-1.75 0-.966.784-1.75 1.75-1.75h19c.966 0 1.75.784 1.75 1.75 0 .967-.784 1.75-1.75 1.75z" fill="#f3f3f1"/></g><g><path d="m11.783 11.439c.569-.309 1.182-.503 1.818-.604-1.355-.194-2.673-.019-3.818.604-3.512 1.915-4.05 7.234-1.213 11.878.43.703.91 1.351 1.438 1.933h2c-.528-.583-1.008-1.23-1.438-1.933-2.838-4.644-2.299-9.963 1.213-11.878z" fill="#00b871"/></g><g><path d="m26.217 11.439c-1.145-.623-2.464-.798-3.818-.604.637.101 1.25.295 1.818.604 3.512 1.915 4.05 7.234 1.213 11.878-.43.703-.91 1.351-1.438 1.933h2c.528-.583 1.008-1.23 1.438-1.933 2.838-4.644 2.299-9.963-1.213-11.878z" fill="#00b871"/></g><g><path d="m9.452 25.753c-.552-.608-1.063-1.296-1.522-2.045-1.762-2.884-2.357-6.087-1.634-8.79.499-1.863 1.58-3.294 3.127-4.138 2.571-1.4 6.03-.879 9.026 1.362 1.339.997 2.539 2.327 3.468 3.844 1.94 3.17 2.456 6.734 1.381 9.532l-1.4-.538c.896-2.331.413-5.477-1.26-8.211-.83-1.356-1.897-2.541-3.086-3.425-2.521-1.887-5.361-2.361-7.411-1.247-1.177.642-2.006 1.751-2.396 3.208-.609 2.273-.062 5.122 1.464 7.619.41.668.865 1.281 1.354 1.821z"/></g><g><path d="m12.702 25.519c-.832-2.164-.702-4.899.356-7.506l1.391.564c-.917 2.257-1.043 4.592-.346 6.404z"/></g><g><path d="m26.548 25.753-1.111-1.007c.489-.54.944-1.153 1.354-1.822 1.525-2.497 2.072-5.345 1.464-7.619-.39-1.457-1.219-2.567-2.396-3.208-2.05-1.116-4.89-.64-7.409 1.246-1.189.886-2.257 2.07-3.087 3.426-.164.268-.316.538-.456.811l-1.334-.688c.157-.304.327-.606.511-.906.929-1.518 2.129-2.848 3.469-3.846 2.995-2.239 6.452-2.761 9.024-1.361 1.548.844 2.629 2.274 3.128 4.138.724 2.703.128 5.906-1.634 8.79-.46.75-.971 1.438-1.523 2.046z"/></g><g><path d="m17.25 10h1.5v1.98h-1.5z"/></g><g><circle cx="18" cy="8" fill="#f3f3f1" r="1.25"/><path d="m18 10c-1.103 0-2-.897-2-2s.897-2 2-2 2 .897 2 2-.897 2-2 2zm0-2.5c-.275 0-.5.224-.5.5s.225.5.5.5.5-.224.5-.5-.225-.5-.5-.5z"/></g><g><path d="m27.5 30h-19c-1.379 0-2.5-1.122-2.5-2.5s1.121-2.5 2.5-2.5h19c1.379 0 2.5 1.122 2.5 2.5s-1.121 2.5-2.5 2.5zm-19-3.5c-.552 0-1 .449-1 1s.448 1 1 1h19c.552 0 1-.449 1-1s-.448-1-1-1z"/></g></svg>