<svg id="LINE" enable-background="new 0 0 36 36" height="512" viewBox="0 0 36 36" width="512" xmlns="http://www.w3.org/2000/svg"><g><path d="m7.678 5.564c-1.805 6.677-6.504 10.327-7.374 13.545s-.847 10.475 13.955 14.477 19.432-4.501 20.388-8.041c4.481-16.572-23.772-31.807-26.969-19.981z" fill="#efefef"/></g><g><path d="m14.606 2.878h2v1h-2z" fill="#a4afc1" transform="matrix(.707 -.707 .707 .707 2.183 12.025)"/></g><g><path d="m10.54 6.944h2v1h-2z" fill="#a4afc1" transform="matrix(.707 -.707 .707 .707 -1.883 10.34)"/></g><g><path d="m11.04 2.201h1v2h-1z" fill="#a4afc1" transform="matrix(.707 -.707 .707 .707 1.116 9.096)"/></g><g><path d="m32.287 28.762c-.827 0-1.5-.673-1.5-1.5s.673-1.5 1.5-1.5 1.5.673 1.5 1.5-.673 1.5-1.5 1.5zm0-2c-.275 0-.5.224-.5.5s.225.5.5.5.5-.224.5-.5-.225-.5-.5-.5z" fill="#a4afc1"/></g><g><path d="m21.678 13.968c1.976-1.292 4.098-1.62 5.653-.656 2.514 1.562 2.563 5.93.117 9.759-.528.82-1.125 1.552-1.77 2.179h-4.928z" fill="#f3f3f1"/></g><g><path d="m27.5 29.25h-19c-.966 0-1.75-.784-1.75-1.75 0-.966.784-1.75 1.75-1.75h19c.966 0 1.75.784 1.75 1.75 0 .967-.784 1.75-1.75 1.75z" fill="#f3f3f1"/></g><g><path d="m14.322 13.968c-1.976-1.292-4.098-1.62-5.653-.656-2.514 1.562-2.563 5.93-.117 9.759.528.82 1.125 1.552 1.77 2.179h4.595z" fill="#f3f3f1"/></g><g><path d="m13.902 25.25c-.792-1.427-1.281-3.288-1.281-5.304 0-2.353.655-4.484 1.702-5.979.959-1.379 2.25-2.218 3.678-2.218s2.719.839 3.678 2.218c1.047 1.495 1.702 3.626 1.702 5.979 0 2.015-.489 3.876-1.281 5.304z" fill="#2fdf84"/></g><g><path d="m10.669 13.312c.337-.209.704-.346 1.086-.437-1.124-.23-2.199-.114-3.086.437-2.514 1.562-2.563 5.93-.117 9.759.528.82 1.125 1.552 1.77 2.179h2c-.646-.627-1.242-1.36-1.77-2.179-2.446-3.829-2.397-8.197.117-9.759z" fill="#d5dbe1"/></g><g><path d="m16.322 13.968c.729-1.048 1.65-1.782 2.678-2.075-.324-.092-.658-.143-1-.143-1.428 0-2.719.839-3.678 2.218-1.047 1.495-1.702 3.626-1.702 5.979 0 2.015.489 3.876 1.281 5.304h2c-.792-1.427-1.281-3.288-1.281-5.304 0-2.353.656-4.485 1.702-5.979z" fill="#00b871"/></g><g><path d="m27.331 13.312c-.888-.55-1.962-.667-3.086-.437.383.091.75.228 1.086.437 2.514 1.562 2.563 5.93.117 9.759-.528.82-1.125 1.552-1.77 2.179h2c.646-.627 1.242-1.36 1.77-2.179 2.446-3.829 2.397-8.197-.117-9.759z" fill="#d5dbe1"/></g><g><circle cx="18" cy="9" fill="#2fdf84" r="2.25"/></g><g><path d="m17.75 9c0-.881.512-1.637 1.25-2.006-.302-.151-.639-.244-1-.244-1.243 0-2.25 1.007-2.25 2.25s1.007 2.25 2.25 2.25c.361 0 .698-.093 1-.244-.738-.369-1.25-1.125-1.25-2.006z" fill="#00b871"/></g><g><path d="m8.75 27.5c0-.966.784-1.75 1.75-1.75h-2c-.966 0-1.75.784-1.75 1.75s.784 1.75 1.75 1.75h2c-.966 0-1.75-.784-1.75-1.75z" fill="#d5dbe1"/></g><g><path d="m18 12c-1.654 0-3-1.346-3-3s1.346-3 3-3 3 1.346 3 3-1.346 3-3 3zm0-4.5c-.827 0-1.5.673-1.5 1.5s.673 1.5 1.5 1.5 1.5-.673 1.5-1.5-.673-1.5-1.5-1.5z"/></g><g><path d="m22.755 25.614-1.312-.728c.766-1.379 1.188-3.134 1.188-4.94 0-.551-.038-1.101-.114-1.633l1.483-.212c.086.603.13 1.223.13 1.845 0 2.057-.488 4.07-1.375 5.668z"/></g><g><path d="m13.245 25.614c-.887-1.598-1.375-3.611-1.375-5.667 0-2.441.652-4.717 1.838-6.409 1.138-1.636 2.662-2.538 4.292-2.538s3.154.902 4.294 2.54c.569.815 1.02 1.772 1.335 2.842l-1.439.424c-.27-.914-.648-1.725-1.126-2.408-.852-1.225-1.94-1.898-3.064-1.898s-2.212.673-3.062 1.896c-.997 1.423-1.568 3.446-1.568 5.55 0 1.806.422 3.561 1.188 4.94z"/></g><g><path d="m26.2 25.788-1.045-1.076c.607-.59 1.167-1.279 1.663-2.047 1.397-2.188 1.976-4.63 1.544-6.53-.224-.989-.718-1.745-1.427-2.186-1.242-.77-3.052-.527-4.848.646l-.82-1.255c2.296-1.501 4.711-1.749 6.459-.666 1.059.658 1.784 1.739 2.099 3.128.519 2.283-.135 5.15-1.745 7.672-.559.867-1.19 1.645-1.88 2.314z"/></g><g><path d="m9.8 25.788c-.689-.669-1.321-1.447-1.878-2.311-1.612-2.524-2.266-5.392-1.747-7.674.314-1.389 1.04-2.47 2.099-3.128 1.747-1.083 4.164-.836 6.459.666l-.82 1.255c-1.795-1.173-3.605-1.414-4.848-.646-.709.441-1.203 1.197-1.427 2.186-.432 1.9.146 4.342 1.546 6.532.494.766 1.054 1.455 1.661 2.045z"/></g><g><path d="m27.5 30h-19c-1.379 0-2.5-1.122-2.5-2.5s1.121-2.5 2.5-2.5h19c1.379 0 2.5 1.122 2.5 2.5s-1.121 2.5-2.5 2.5zm-19-3.5c-.552 0-1 .449-1 1s.448 1 1 1h19c.552 0 1-.449 1-1s-.448-1-1-1z"/></g></svg>