<svg id="LINE" enable-background="new 0 0 512 512" height="512" viewBox="0 0 512 512" width="512" xmlns="http://www.w3.org/2000/svg"><g><g><path d="m389.931 61.945c-98.347 1.835-166.855-47.857-214.244-46.962-47.388.897-146.432 29.995-142.35 248.036s138.582 247.523 190.72 246.557c244.096-4.566 340.067-450.888 165.874-447.631z" fill="#efefef"/></g><g><path d="m353.777 54.777h28.445v14.223h-28.445z" fill="#a4afc1"/></g><g><path d="m272 54.777h28.444v14.223h-28.444z" fill="#a4afc1"/></g><g><path d="m321.777 5h14.223v28.444h-14.223z" fill="#a4afc1"/></g><g><path d="m96.228 443.613c-11.762 0-21.333-9.571-21.333-21.334 0-11.762 9.572-21.333 21.333-21.333s21.333 9.571 21.333 21.333c0 11.763-9.572 21.334-21.333 21.334zm0-28.445c-3.925 0-7.111 3.187-7.111 7.111 0 3.926 3.186 7.111 7.111 7.111s7.111-3.186 7.111-7.111-3.186-7.111-7.111-7.111z" fill="#a4afc1"/></g><g><path d="m316.444 258.723v163.556l-60.444-46.222-60.444 46.222v-162.631z" fill="#f3f3f1"/></g><g><path d="m224 259.648 92.444-.711v-.214l-120.889.925v162.631l28.445-21.745z" fill="#d5dbe1"/></g><g><path d="m284.444 376.057-14.222 10.88 46.222 35.342v-21.745z" fill="#d5dbe1"/></g><g><circle cx="256" cy="191.168" fill="#2fdf84" r="88.889"/></g><g><circle cx="256" cy="191.183" fill="#f3f3f1" r="46.222"/></g><g><path d="m238.222 191.182c0-20.537 13.483-37.731 32-43.762-4.509-1.465-9.23-2.46-14.223-2.46-25.529 0-46.222 20.692-46.222 46.222s20.693 46.223 46.222 46.223c4.992 0 9.714-.996 14.223-2.461-18.517-6.03-32-23.239-32-43.762z" fill="#d5dbe1"/></g><g><path d="m195.556 191.169c0-44.246 32.355-80.825 74.667-87.652-4.637-.754-9.373-1.237-14.223-1.237-49.095 0-88.889 39.794-88.889 88.89 0 49.095 39.793 88.889 88.889 88.889 4.85 0 9.586-.498 14.223-1.237-42.312-6.829-74.667-43.408-74.667-87.653z" fill="#00b871"/></g><g><path d="m256 248.057c-31.374 0-56.889-25.515-56.889-56.889 0-31.375 25.515-56.89 56.889-56.89s56.889 25.515 56.889 56.89-25.515 56.889-56.889 56.889zm0-92.444c-19.598 0-35.556 15.957-35.556 35.556 0 19.598 15.958 35.555 35.556 35.555s35.556-15.957 35.556-35.555c0-19.599-15.958-35.556-35.556-35.556z"/></g><g><path d="m316.444 432.946c-2.304 0-4.579-.739-6.485-2.19l-53.959-41.273-53.959 41.259c-3.229 2.475-7.581 2.901-11.207 1.095-3.641-1.792-5.945-5.504-5.945-9.558v-162.631h21.333v141.042l43.292-33.109c3.826-2.93 9.146-2.93 12.956 0l43.293 33.109v-141.967h21.348v163.556c0 4.054-2.305 7.766-5.945 9.558-1.493.754-3.114 1.109-4.722 1.109z"/></g><g><path d="m255.844 290.723c-15.189 0-30.592-3.484-45.042-10.837-48.91-24.917-68.438-84.992-43.52-133.902 24.917-48.925 85.006-68.423 133.902-43.52 6.685 3.413 12.971 7.552 18.688 12.33l-13.668 16.37c-4.494-3.755-9.458-7.012-14.72-9.699-38.4-19.584-85.604-4.253-105.173 34.189-19.584 38.443-4.252 85.633 34.176 105.202 38.442 19.556 85.632 4.238 105.201-34.176 11.321-22.229 11.478-47.83.413-70.229l19.129-9.443c13.866 28.074 13.667 61.482-.526 89.358-17.564 34.489-52.594 54.357-88.86 54.357z"/></g></g></svg>