<svg id="LINE" enable-background="new 0 0 36 36" height="512" viewBox="0 0 36 36" width="512" xmlns="http://www.w3.org/2000/svg"><g><path d="m27.417 3.914c-6.915.129-11.732-3.365-15.064-3.302s-10.296 2.109-10.009 17.44 9.744 17.404 13.41 17.336c17.163-.321 23.911-31.703 11.663-31.474z" fill="#efefef"/></g><g><path d="m8.67 2.306h2v1h-2z" fill="#a4afc1" transform="matrix(.707 -.707 .707 .707 .848 7.659)"/></g><g><path d="m4.603 6.372h2v1h-2z" fill="#a4afc1" transform="matrix(.707 -.707 .707 .707 -3.218 5.975)"/></g><g><path d="m5.104 1.63h1v2h-1z" fill="#a4afc1" transform="matrix(.707 -.707 .707 .707 -.218 4.732)"/></g><g><path d="m21.577 30.75c-.827 0-1.5-.673-1.5-1.5s.673-1.5 1.5-1.5 1.5.673 1.5 1.5-.673 1.5-1.5 1.5zm0-2c-.276 0-.5.224-.5.5s.224.5.5.5.5-.224.5-.5-.224-.5-.5-.5z" fill="#a4afc1"/></g><g><circle cx="18" cy="23" fill="#2fdf84" r="6.25"/></g><g><circle cx="18" cy="23" fill="#f3f3f1" r="3.25"/></g><g><path d="m19.163 16.845-5.913-10.095h-4.5l5.95 10.8z" fill="#f3f3f1"/></g><g><path d="m18.13 15.08 4.62-8.33h4.5l-5.95 10.8z" fill="#f3f3f1"/></g><g><path d="m16.75 23c0-1.444.948-2.653 2.25-3.077-.317-.103-.649-.173-1-.173-1.795 0-3.25 1.455-3.25 3.25s1.455 3.25 3.25 3.25c.351 0 .683-.07 1-.173-1.302-.424-2.25-1.633-2.25-3.077z" fill="#d5dbe1"/></g><g><path d="m10.75 6.75h-2l5.95 10.8 1.84-.291z" fill="#d5dbe1"/></g><g><path d="m20.13 15.08 4.62-8.33h-2l-4.62 8.33 1.384 1.079z" fill="#d5dbe1"/></g><g><path d="m13.75 23c0-3.111 2.275-5.683 5.25-6.163-.326-.053-.659-.087-1-.087-3.452 0-6.25 2.798-6.25 6.25s2.798 6.25 6.25 6.25c.341 0 .674-.035 1-.087-2.975-.48-5.25-3.052-5.25-6.163z" fill="#00b871"/></g><g><path d="m18 27c-2.206 0-4-1.794-4-4s1.794-4 4-4 4 1.794 4 4-1.794 4-4 4zm0-6.5c-1.378 0-2.5 1.122-2.5 2.5s1.122 2.5 2.5 2.5 2.5-1.122 2.5-2.5-1.122-2.5-2.5-2.5z"/></g><g><path d="m14.043 17.912-5.95-10.8c-.128-.233-.124-.515.011-.743.135-.229.381-.369.646-.369h4.5c.266 0 .513.141.647.371l5.913 10.095-1.294.758-5.696-9.724h-2.8l5.337 9.688z"/></g><g><path d="m21.957 17.912-1.313-.724 5.336-9.688h-2.789l-4.406 7.944-1.312-.728 4.62-8.33c.134-.238.385-.386.657-.386h4.5c.265 0 .511.14.646.369.135.228.139.511.011.743z"/></g><g><path d="m18 30c-3.86 0-7-3.14-7-7s3.14-7 7-7 7 3.14 7 7c0 .527-.059 1.054-.175 1.564l-1.463-.333c.092-.401.138-.815.138-1.231 0-3.033-2.467-5.5-5.5-5.5s-5.5 2.467-5.5 5.5 2.467 5.5 5.5 5.5c1.754 0 3.362-.808 4.413-2.216l1.202.896c-1.316 1.766-3.415 2.82-5.615 2.82z"/></g></svg>