<svg id="LINE" enable-background="new 0 0 36 36" height="512" viewBox="0 0 36 36" width="512" xmlns="http://www.w3.org/2000/svg"><g><path d="m27.417 3.914c-6.915.129-11.732-3.365-15.064-3.302s-10.296 2.109-10.009 17.44 9.744 17.404 13.41 17.336c17.163-.321 23.911-31.703 11.663-31.474z" fill="#efefef"/></g><g><path d="m19.875 3.562h2v1h-2z" fill="#a4afc1"/></g><g><path d="m14.125 3.562h2v1h-2z" fill="#a4afc1"/></g><g><path d="m17.625.062h1v2h-1z" fill="#a4afc1"/></g><g><path d="m32 25.338c-.827 0-1.5-.673-1.5-1.5s.673-1.5 1.5-1.5 1.5.673 1.5 1.5-.673 1.5-1.5 1.5zm0-2c-.276 0-.5.225-.5.5s.224.5.5.5.5-.225.5-.5-.224-.5-.5-.5z" fill="#a4afc1"/></g><g><ellipse cx="8.217" cy="10.888" fill="#2fdf84" rx="1.467" ry="1.461"/></g><g><ellipse cx="27.783" cy="10.888" fill="#f3f3f1" rx="1.467" ry="1.461"/></g><g><path d="m16.865 9.126c-1.477.467-2.71 1.831-3.678 3.71 0 0 2.747.414 4.813 7.611l4.813-7.611c-.968-1.879-2.201-3.242-3.678-3.71z" fill="#f3f3f1"/></g><g><ellipse cx="18" cy="8.211" fill="#f3f3f1" rx="1.467" ry="1.461"/></g><g><path d="m27.5 29.25h-19c-.966 0-1.75-.784-1.75-1.75 0-.966.784-1.75 1.75-1.75h19c.966 0 1.75.784 1.75 1.75 0 .967-.784 1.75-1.75 1.75z" fill="#f3f3f1"/></g><g><path d="m18 25.25c0-6.981-3.033-13.077-8.364-13.992l-1.024 1.577s1.482 4.008-.268 12.414h8.875l.424-.598z" fill="#2fdf84"/></g><g><path d="m27.389 12.836-1.024-1.577c-5.332.914-8.365 7.01-8.365 13.991h9.389c-1.33-5.25 0-12.414 0-12.414z" fill="#2fdf84"/></g><g><path d="m10.612 12.836.701-1.08c-.532-.222-1.088-.396-1.677-.497l-1.024 1.577s1.482 4.008-.268 12.414h2c1.75-8.406.268-12.414.268-12.414z" fill="#00b871"/></g><g><path d="m26.687 11.755-.323-.497c-5.331.915-8.364 7.011-8.364 13.992h2c0-6.21 2.404-11.709 6.687-13.495z" fill="#00b871"/></g><g><path d="m16.865 9.126c-1.477.467-2.71 1.831-3.678 3.71 0 0 2.747.414 4.813 7.611l4.813-7.611c-.968-1.879-2.201-3.242-3.678-3.71z" fill="#f3f3f1"/></g><g><path d="m8.75 27.5c0-.966.784-1.75 1.75-1.75h-2c-.966 0-1.75.784-1.75 1.75s.784 1.75 1.75 1.75h2c-.966 0-1.75-.784-1.75-1.75z" fill="#d5dbe1"/></g><g><path d="m8.938 25.458-1.441-.416c1.166-4.046 1.255-8.154.272-12.56l1.464-.326c1.038 4.656.942 9.008-.295 13.302z"/></g><g><path d="m18.75 25.25h-1.5c0-3.371-.741-6.533-2.087-8.904l1.305-.74c1.471 2.592 2.282 6.017 2.282 9.644z"/></g><g><path d="m14.436 15.221c-1.327-1.806-2.985-2.89-4.927-3.224l.254-1.479c2.305.396 4.339 1.715 5.882 3.813z"/></g><g><ellipse cx="8.217" cy="10.888" fill="#f3f3f1" rx="1.467" ry="1.461"/><path d="m8.217 13.099c-1.222 0-2.217-.993-2.217-2.211s.995-2.21 2.217-2.21 2.217.991 2.217 2.21-.994 2.211-2.217 2.211zm0-2.921c-.396 0-.717.318-.717.71s.322.711.717.711.717-.319.717-.711-.321-.71-.717-.71z"/></g><g><path d="m18.75 25.25h-1.5c0-7.888 3.612-13.808 8.987-14.731l.254 1.479c-4.63.795-7.741 6.12-7.741 13.252z"/></g><g><path d="m27.062 25.458c-1.237-4.294-1.333-8.646-.295-13.302l1.464.326c-.982 4.405-.894 8.514.272 12.56z"/></g><g><path d="m27.783 13.099c-1.223 0-2.217-.992-2.217-2.211s.995-2.21 2.217-2.21 2.217.991 2.217 2.21-.995 2.211-2.217 2.211zm0-2.921c-.396 0-.717.318-.717.71s.322.711.717.711.717-.319.717-.711-.322-.71-.717-.71z"/></g><g><path d="m18.01 25.757h-.01v-1.5z"/></g><g><path d="m22.146 13.18c-.932-1.81-2.051-2.964-3.237-3.339l.452-1.43c1.598.505 2.984 1.878 4.119 4.081z"/></g><g><path d="m13.854 13.18-1.334-.688c1.135-2.203 2.521-3.576 4.119-4.081l.452 1.43c-1.186.375-2.305 1.529-3.237 3.339z"/></g><g><path d="m18 25.757h-.01v-1.5z"/></g><g><path d="m18 10.421c-1.223 0-2.217-.991-2.217-2.21s.994-2.211 2.217-2.211 2.217.992 2.217 2.211-.994 2.21-2.217 2.21zm0-2.921c-.396 0-.717.319-.717.711s.322.71.717.71.717-.318.717-.71-.321-.711-.717-.711z"/></g><g><path d="m27.5 30h-19c-1.378 0-2.5-1.121-2.5-2.5s1.122-2.5 2.5-2.5h19c1.378 0 2.5 1.121 2.5 2.5s-1.122 2.5-2.5 2.5zm-19-3.5c-.551 0-1 .448-1 1s.449 1 1 1h19c.551 0 1-.448 1-1s-.449-1-1-1z"/></g></svg>