<svg id="LINE" enable-background="new 0 0 36 36" height="512" viewBox="0 0 36 36" width="512" xmlns="http://www.w3.org/2000/svg"><g><path d="m3.442 23.883c6.061 3.333 8.497 8.761 11.417 10.367 2.921 1.606 9.978 3.299 17.366-10.137s.221-19.945-2.992-21.712c-15.042-8.27-36.525 15.58-25.791 21.482z" fill="#efefef"/></g><g><path d="m31.937 10.179c-.827 0-1.5-.673-1.5-1.5s.673-1.5 1.5-1.5 1.5.673 1.5 1.5-.673 1.5-1.5 1.5zm0-2c-.276 0-.5.225-.5.5s.224.5.5.5.5-.225.5-.5-.225-.5-.5-.5z" fill="#a4afc1"/></g><g><path d="m10.571 0h1v2h-1z" fill="#a4afc1"/></g><g><path d="m10.571 5.75h1v2h-1z" fill="#a4afc1"/></g><g><path d="m7.071 3.25h2v1h-2z" fill="#a4afc1"/></g><g><path d="m12.821 3.25h2v1h-2z" fill="#a4afc1"/></g><g><path d="m24.75 10.75h3.5c.552 0 1 .448 1 1v12.5c0 .552-.448 1-1 1h-20.5c-.552 0-1-.448-1-1v-12.5c0-.552.448-1 1-1h3.5z" fill="#f3f3f1"/></g><g><circle cx="17.993" cy="10" fill="#2fdf84" r="3.25"/></g><g><path d="m15.813 12.42-2.063 3.51 1.613-.101.713 1.421 1.922-3.264z" fill="#2fdf84"/></g><g><path d="m20.181 12.409 2.069 3.521-1.613-.101-.717 1.421-1.922-3.264-.439-.76z" fill="#2fdf84"/></g><g><path d="m16.743 10c0-1.444.948-2.653 2.25-3.077-.317-.103-.649-.173-1-.173-1.795 0-3.25 1.455-3.25 3.25s1.455 3.25 3.25 3.25c.351 0 .683-.07 1-.173-1.302-.424-2.25-1.633-2.25-3.077z" fill="#00b871"/></g><g><path d="m28.25 26h-20.5c-.965 0-1.75-.785-1.75-1.75v-12.5c0-.965.785-1.75 1.75-1.75h3.5v1.5h-3.5c-.138 0-.25.112-.25.25v12.5c0 .138.112.25.25.25h20.5c.138 0 .25-.112.25-.25v-6.415h1.5v6.415c0 .965-.785 1.75-1.75 1.75z"/></g><g><path d="m30 14.992h-1.5v-3.242c0-.138-.112-.25-.25-.25h-3.5v-1.5h3.5c.965 0 1.75.785 1.75 1.75z"/></g><g><path d="m13.75 28.5h8.5v1.5h-8.5z"/></g><g><path d="m17.25 25.25h1.5v4h-1.5z"/></g><g><path d="m17.993 14c-2.206 0-4-1.794-4-4s1.794-4 4-4 4 1.794 4 4-1.795 4-4 4zm0-6.5c-1.378 0-2.5 1.121-2.5 2.5s1.122 2.5 2.5 2.5 2.5-1.121 2.5-2.5-1.122-2.5-2.5-2.5z"/></g><g><path d="m16.076 18c-.008 0-.017 0-.025 0-.274-.01-.522-.168-.645-.414l-.49-.978-1.118.07c-.277.023-.541-.119-.687-.355-.145-.236-.148-.533-.007-.772l2.063-3.511 1.293.76-1.348 2.294.205-.013c.303-.037.583.144.717.412l.095.188 1.223-2.076 1.293.762-1.922 3.264c-.136.229-.382.369-.647.369z"/></g><g><path d="m19.92 18c-.265 0-.511-.14-.646-.369l-2.365-4.03 1.3-.75 1.66 2.835.098-.194c.135-.269.414-.452.716-.41l.205.013-1.354-2.306 1.293-.76 2.069 3.522c.141.239.138.536-.008.772-.145.236-.401.395-.686.355l-1.119-.07-.494.979c-.124.245-.371.402-.645.412-.008.001-.016.001-.024.001z"/></g></svg>