<svg id="LINE" enable-background="new 0 0 36 36" height="512" viewBox="0 0 36 36" width="512" xmlns="http://www.w3.org/2000/svg"><g><path d="m8.114 5.564c-1.805 6.677-6.504 10.327-7.374 13.545s-.847 10.475 13.955 14.477 19.432-4.501 20.388-8.041c4.481-16.572-23.772-31.807-26.969-19.981z" fill="#efefef"/></g><g><path d="m25.767 30.25c-.827 0-1.5-.673-1.5-1.5s.673-1.5 1.5-1.5 1.5.673 1.5 1.5-.673 1.5-1.5 1.5zm0-2c-.275 0-.5.225-.5.5s.225.5.5.5.5-.225.5-.5-.225-.5-.5-.5z" fill="#a4afc1"/></g><g><path d="m3.625 4.074h1v2h-1z" fill="#a4afc1"/></g><g><path d="m3.625 9.824h1v2h-1z" fill="#a4afc1"/></g><g><path d="m.125 7.324h2v1h-2z" fill="#a4afc1"/></g><g><path d="m5.875 7.324h2v1h-2z" fill="#a4afc1"/></g><g><path d="m24.75 10.75h3.5c.552 0 1 .448 1 1v12.5c0 .552-.448 1-1 1h-20.5c-.552 0-1-.448-1-1v-12.5c0-.552.448-1 1-1h3.5z" fill="#f3f3f1"/></g><g><circle cx="18" cy="10" fill="#2fdf84" r="3.25"/></g><g><path d="m19.75 12.739v4.511l-1.75-1.298-1.75 1.298v-4.473z" fill="#2fdf84"/></g><g><path d="m16.75 10c0-1.444.948-2.653 2.25-3.077-.317-.103-.649-.173-1-.173-1.795 0-3.25 1.455-3.25 3.25s1.455 3.25 3.25 3.25c.351 0 .683-.07 1-.173-1.302-.424-2.25-1.633-2.25-3.077z" fill="#00b871"/></g><g><path d="m13.75 28.5h8.5v1.5h-8.5z"/></g><g><path d="m17.25 25.25h1.5v4h-1.5z"/></g><g><path d="m18 14c-2.206 0-4-1.794-4-4s1.794-4 4-4 4 1.794 4 4-1.794 4-4 4zm0-6.5c-1.379 0-2.5 1.121-2.5 2.5s1.121 2.5 2.5 2.5 2.5-1.121 2.5-2.5-1.121-2.5-2.5-2.5z"/></g><g><path d="m19.75 18c-.158 0-.315-.05-.446-.147l-1.304-.967-1.304.967c-.226.169-.53.194-.783.067s-.413-.387-.413-.67v-4.473h1.5v2.982l.554-.41c.264-.197.629-.197.893 0l.553.411v-3.021h1.5v4.512c0 .283-.16.543-.413.67-.107.053-.222.079-.337.079z"/></g><g><path d="m28.25 26h-20.5c-.965 0-1.75-.785-1.75-1.75v-12.5c0-.965.785-1.75 1.75-1.75h3.5v1.5h-3.5c-.138 0-.25.112-.25.25v12.5c0 .138.112.25.25.25h20.5c.138 0 .25-.112.25-.25v-6.415h1.5v6.415c0 .965-.785 1.75-1.75 1.75z"/></g><g><path d="m30 14.992h-1.5v-3.242c0-.138-.112-.25-.25-.25h-3.5v-1.5h3.5c.965 0 1.75.785 1.75 1.75z"/></g></svg>