<svg id="LINE" enable-background="new 0 0 36 36" height="512" viewBox="0 0 36 36" width="512" xmlns="http://www.w3.org/2000/svg"><g><path d="m4.167 27.623c0-6.917-3.583-11.667-3.583-15s1.916-10.333 17.249-10.333 17.583 9.417 17.583 13.083c.001 17.167-31.249 24.5-31.249 12.25z" fill="#efefef"/></g><g><path d="m2.971 26.967h1v2h-1z" fill="#a4afc1" transform="matrix(.707 -.707 .707 .707 -18.759 10.645)"/></g><g><path d="m7.037 31.033h1v2h-1z" fill="#a4afc1" transform="matrix(.707 -.707 .707 .707 -20.449 14.721)"/></g><g><path d="m2.294 31.533h2v1h-2z" fill="#a4afc1" transform="matrix(.707 -.707 .707 .707 -21.686 11.712)"/></g><g><path d="m32 26.732c-.827 0-1.5-.673-1.5-1.5s.673-1.5 1.5-1.5 1.5.673 1.5 1.5-.673 1.5-1.5 1.5zm0-2c-.275 0-.5.225-.5.5s.225.5.5.5.5-.225.5-.5-.225-.5-.5-.5z" fill="#a4afc1"/></g><g><circle cx="18" cy="8" fill="#2fdf84" r="1.25"/></g><g><path d="m12.5 22.125v7.125h-2.7v-4.797c-1.026-.219-1.8-1.179-1.8-2.328 0-1.311 1.008-2.375 2.25-2.375 1.089 0 1.998.817 2.205 1.9.027.152.045.313.045.475z" fill="#2fdf84"/></g><g><path d="m23.5 22.125v7.125h2.7v-4.797c1.026-.219 1.8-1.178 1.8-2.328 0-1.311-1.008-2.375-2.25-2.375-1.089 0-1.998.817-2.205 1.9-.027.152-.045.313-.045.475z" fill="#2fdf84"/></g><g><path d="m12.717 23.25h10.566z" fill="#2fdf84"/></g><g><path d="m12.717 26.25h10.566z" fill="#2fdf84"/></g><g><path d="m12.25 23.25h11.5v3h-11.5z" fill="#f3f3f1"/></g><g><path d="m25.25 11.225-6.135-4.122c-.674-.453-1.556-.453-2.231 0l-6.135 4.122 1.5 9.197v2.828h11.5v-2.828z" fill="#f3f3f1"/></g><g><path d="m12.75 11.225 6.135-4.122c.036-.024.078-.032.115-.054-.658-.383-1.477-.374-2.115.055l-6.135 4.122 1.5 9.197v2.828h2v-2.828z" fill="#d5dbe1"/></g><g><path d="m9.75 22.125c0-.931.513-1.729 1.252-2.118-.302-.16-.64-.257-1.002-.257-1.242 0-2.25 1.064-2.25 2.375 0 1.149.774 2.109 1.8 2.328v4.797h2v-4.797c-1.026-.219-1.8-1.179-1.8-2.328z" fill="#00b871"/></g><g><path d="m26 19.75c-.362 0-.7.097-1.002.257.739.389 1.252 1.187 1.252 2.118 0 1.149-.774 2.109-1.8 2.328v4.797h2v-4.797c1.026-.219 1.8-1.178 1.8-2.328 0-1.311-1.008-2.375-2.25-2.375z" fill="#00b871"/></g><g><path d="m12.25 23.25h2v3h-2z" fill="#d5dbe1"/></g><g><path d="m24.355 21.371-1.48-.242 1.558-9.549-1.834-1.233.836-1.244 2.233 1.501c.244.163.369.453.322.743z"/></g><g><path d="m11.645 21.371-1.635-10.024c-.047-.29.078-.58.322-.743l6.135-4.122c.932-.627 2.135-.626 3.066-.001l2.889 1.94-.836 1.246-2.889-1.94c-.424-.285-.971-.285-1.395 0l-5.735 3.854 1.558 9.549z"/></g><g><path d="m18 10c-1.103 0-2-.897-2-2s.897-2 2-2 2 .897 2 2-.897 2-2 2zm0-2.5c-.275 0-.5.225-.5.5s.225.5.5.5.5-.225.5-.5-.225-.5-.5-.5z"/></g><g><path d="m17.25 11.75h1.5v4.5h-1.5z" fill="#2fdf84"/></g><g><path d="m15.75 13.25h4.5v1.5h-4.5z" fill="#2fdf84"/></g><g><path d="m12.5 30h-2.7c-.414 0-.75-.336-.75-.75v-4.26c-1.071-.488-1.8-1.607-1.8-2.865 0-1.723 1.346-3.125 3-3.125 1.427 0 2.664 1.056 2.941 2.51.037.201.059.409.059.615v7.125c0 .414-.336.75-.75.75zm-1.95-1.5h1.2v-6.375c0-.116-.014-.232-.033-.341-.142-.741-.759-1.284-1.467-1.284-.827 0-1.5.729-1.5 1.625 0 .775.507 1.445 1.206 1.594.346.073.594.379.594.733z"/></g><g><path d="m26.2 30h-2.7c-.414 0-.75-.336-.75-.75v-7.125c0-.206.021-.414.057-.608.279-1.461 1.516-2.517 2.943-2.517 1.654 0 3 1.402 3 3.125 0 1.258-.729 2.377-1.8 2.865v4.26c0 .414-.336.75-.75.75zm-1.95-1.5h1.2v-4.048c0-.354.248-.66.594-.733.699-.148 1.206-.818 1.206-1.594 0-.896-.673-1.625-1.5-1.625-.708 0-1.325.543-1.469 1.291-.018.102-.031.218-.031.334z"/></g><g><path d="m12.717 22.5h10.566v1.5h-10.566z"/></g><g><path d="m12.717 25.5h10.566v1.5h-10.566z"/></g></svg>