<svg id="LINE" enable-background="new 0 0 36 36" height="512" viewBox="0 0 36 36" width="512" xmlns="http://www.w3.org/2000/svg"><g><path d="m8.114 5.564c-1.805 6.677-6.504 10.327-7.374 13.545s-.847 10.475 13.955 14.477 19.432-4.501 20.388-8.041c4.481-16.572-23.772-31.807-26.969-19.981z" fill="#efefef"/></g><g><path d="m30.078 16.158h1v2h-1z" fill="#a4afc1" transform="matrix(.707 -.707 .707 .707 -3.178 26.642)"/></g><g><path d="m26.012 12.092h1v2h-1z" fill="#a4afc1" transform="matrix(.707 -.707 .707 .707 -1.494 22.577)"/></g><g><path d="m29.755 12.592h2v1h-2z" fill="#a4afc1" transform="matrix(.707 -.707 .707 .707 -.25 25.582)"/></g><g><path d="m11.146 7.5c-.827 0-1.5-.673-1.5-1.5s.673-1.5 1.5-1.5 1.5.673 1.5 1.5-.673 1.5-1.5 1.5zm0-2c-.276 0-.5.224-.5.5s.224.5.5.5.5-.224.5-.5-.225-.5-.5-.5z" fill="#a4afc1"/></g><g><path d="m27.5 29.25h-19c-.966 0-1.75-.784-1.75-1.75 0-.966.784-1.75 1.75-1.75h19c.966 0 1.75.784 1.75 1.75 0 .967-.784 1.75-1.75 1.75z" fill="#f3f3f1"/></g><g><path d="m28.25 21.896c0-3.201-2.47-5.846-5.633-6.191l.011.022c-1.158-1.214-2.8-1.977-4.628-1.977-1.819 0-3.455.756-4.612 1.959l-.006-.004c-3.163.345-5.633 2.99-5.633 6.191 0 1.129.321 2.179.85 3.091l-.407.79 19.74-.027v-1.917l-.004-.009c.203-.608.322-1.253.322-1.928z" fill="#2fdf84"/></g><g><path d="m10.194 25.774.406-.788c-.529-.912-.85-1.962-.85-3.091 0-3.201 2.47-5.846 5.633-6.191l.006.004c.94-.978 2.198-1.652 3.611-1.873-.326-.051-.658-.086-1-.086-1.819 0-3.455.756-4.612 1.959l-.006-.004c-3.163.345-5.633 2.99-5.633 6.191 0 1.129.321 2.179.85 3.091l-.407.79z" fill="#00b871"/></g><g><path d="m8.75 27.5c0-.966.784-1.75 1.75-1.75h-2c-.966 0-1.75.784-1.75 1.75s.784 1.75 1.75 1.75h2c-.966 0-1.75-.784-1.75-1.75z" fill="#d5dbe1"/></g><g><path d="m27.5 30h-19c-1.378 0-2.5-1.122-2.5-2.5s1.122-2.5 2.5-2.5h19c1.378 0 2.5 1.122 2.5 2.5s-1.122 2.5-2.5 2.5zm-19-3.5c-.551 0-1 .449-1 1s.449 1 1 1h19c.551 0 1-.449 1-1s-.449-1-1-1z"/></g><g><path d="m8.115 25.907c-.729-1.131-1.115-2.431-1.115-3.761 0-3.563 2.709-6.545 6.302-6.937l.162 1.491c-2.83.309-4.964 2.65-4.964 5.446 0 1.041.303 2.06.876 2.947z"/></g><g><path d="m27.885 25.907-1.261-.813c.573-.888.876-1.907.876-2.947 0-.713-.138-1.406-.41-2.06l1.385-.576c.348.836.525 1.723.525 2.635 0 1.33-.386 2.63-1.115 3.761z"/></g><g><path d="m26.067 18.486c-.92-1.003-2.174-1.638-3.531-1.786l.162-1.491c1.719.188 3.308.991 4.474 2.263z"/></g><g><path d="m25.095 20.229h-1.5c0-3.021-2.51-5.479-5.595-5.479s-5.595 2.458-5.595 5.479h-1.5c0-3.848 3.183-6.979 7.095-6.979s7.095 3.131 7.095 6.979z"/></g><g><path d="m17.25 6.75h1.5v7h-1.5z"/></g><g><path d="m15.75 8.5h4.5v1.5h-4.5z"/></g></svg>