<svg id="LINE" enable-background="new 0 0 36 36" height="512" viewBox="0 0 36 36" width="512" xmlns="http://www.w3.org/2000/svg"><g><path d="m1.063 15.31c3.655 5.872 3.123 11.798 4.885 14.628s7.088 7.76 20.105-.343 9.951-17.286 8.014-20.399c-9.072-14.574-39.477-4.285-33.004 6.114z" fill="#efefef"/></g><g><path d="m31.477 29.467c-.827 0-1.5-.673-1.5-1.5s.673-1.5 1.5-1.5 1.5.673 1.5 1.5-.673 1.5-1.5 1.5zm0-2c-.275 0-.5.225-.5.5s.225.5.5.5.5-.225.5-.5-.225-.5-.5-.5z" fill="#a4afc1"/></g><g><path d="m3.75 2h1v2h-1z" fill="#a4afc1"/></g><g><path d="m3.75 7.75h1v2h-1z" fill="#a4afc1"/></g><g><path d="m.25 5.25h2v1h-2z" fill="#a4afc1"/></g><g><path d="m6 5.25h2v1h-2z" fill="#a4afc1"/></g><g><path d="m23.8 6.75c-.802 0-1.45.631-1.45 1.413v.471c-2.9-1.269-5.8-1.27-8.7 0v-.471c0-.782-.648-1.413-1.45-1.413s-1.45.631-1.45 1.413v3.609 6.696.532 4.25h14.5v-4.781h-.009l.009-6.611c0-.047 0-.094 0-.141v-3.554c0-.782-.648-1.413-1.45-1.413z" fill="#f3f3f1"/></g><g><path d="m14.489 16.25-.739-4.333 2.402 1.177 1.848-3.344 1.848 3.344 2.402-1.177-.739 4.333z" fill="#2fdf84"/></g><g><path d="m12.5 23.25h11.05z" fill="#2fdf84"/></g><g><path d="m12.5 26.25h11.05z" fill="#2fdf84"/></g><g><path d="m12.25 23.25h11.5v3h-11.5z" fill="#f3f3f1"/></g><g><path d="m12.75 18.469v-6.696-3.61c0-.403.174-.764.45-1.021-.26-.242-.611-.393-1-.393-.802 0-1.45.631-1.45 1.413v3.609 6.696.533 4.25h2v-4.25z" fill="#d5dbe1"/></g><g><path d="m13.75 11.917.739 4.333h2l-.557-3.263z" fill="#00b871"/></g><g><path d="m12.25 22.125v7.125h-2.7v-4.797c-1.026-.219-1.8-1.178-1.8-2.328 0-1.311 1.008-2.375 2.25-2.375 1.089 0 1.998.817 2.205 1.9.027.152.045.313.045.475z" fill="#2fdf84"/></g><g><path d="m23.75 22.125v7.125h2.7v-4.797c1.026-.219 1.8-1.178 1.8-2.328 0-1.311-1.008-2.375-2.25-2.375-1.089 0-1.998.817-2.205 1.9-.027.152-.045.313-.045.475z" fill="#2fdf84"/></g><g><path d="m9.75 22.125c0-.931.513-1.729 1.252-2.118-.302-.16-.64-.257-1.002-.257-1.242 0-2.25 1.064-2.25 2.375 0 1.149.774 2.109 1.8 2.328v4.797h2v-4.797c-1.026-.219-1.8-1.179-1.8-2.328z" fill="#00b871"/></g><g><path d="m26 19.75c-.362 0-.7.097-1.002.257.739.389 1.252 1.187 1.252 2.118 0 1.149-.774 2.109-1.8 2.328v4.797h2v-4.797c1.026-.219 1.8-1.178 1.8-2.328 0-1.311-1.008-2.375-2.25-2.375z" fill="#00b871"/></g><g><path d="m12.25 23.25h2v3h-2z" fill="#d5dbe1"/></g><g><path d="m10 14.083h1.5v5.167h-1.5z"/></g><g><path d="m25.99 19.251-1.5-.002.01-11.057c0-.382-.314-.692-.7-.692s-.7.311-.7.692v.48c0 .254-.129.491-.342.629-.212.138-.481.16-.714.056-2.724-1.215-5.368-1.215-8.088 0-.232.104-.501.082-.714-.056s-.342-.374-.342-.628v-.48c0-.382-.314-.692-.7-.692s-.7.311-.7.692v4.67h-1.5v-4.67c0-1.21.987-2.193 2.2-2.193 1.007 0 1.858.678 2.118 1.6 2.446-.861 4.915-.861 7.363 0 .26-.922 1.112-1.6 2.119-1.6 1.213 0 2.2.983 2.2 2.192z"/></g><g><path d="m21.511 17h-7.021c-.365 0-.678-.264-.739-.624l-.739-4.333c-.048-.277.064-.558.29-.727.225-.168.526-.196.779-.073l1.761.863 1.503-2.719c.264-.479 1.049-.479 1.312 0l1.503 2.719 1.761-.863c.253-.123.555-.095.779.073.226.169.338.449.29.727l-.739 4.333c-.063.36-.375.624-.74.624zm-6.389-1.5h5.756l.387-2.265-1.087.532c-.362.177-.794.038-.986-.312l-1.192-2.154-1.191 2.155c-.192.35-.623.488-.986.312l-1.087-.532z"/></g><g><path d="m12.25 30h-2.7c-.414 0-.75-.336-.75-.75v-4.26c-1.071-.488-1.8-1.607-1.8-2.865 0-1.723 1.346-3.125 3-3.125 1.427 0 2.664 1.056 2.941 2.51.038.201.059.409.059.615v7.125c0 .414-.336.75-.75.75zm-1.95-1.5h1.2v-6.375c0-.116-.014-.232-.033-.341-.142-.741-.759-1.284-1.467-1.284-.827 0-1.5.729-1.5 1.625 0 .775.507 1.445 1.206 1.594.346.073.594.379.594.733z"/></g><g><path d="m26.45 30h-2.7c-.414 0-.75-.336-.75-.75v-7.125c0-.206.021-.414.057-.608.279-1.461 1.516-2.517 2.943-2.517 1.654 0 3 1.402 3 3.125 0 1.258-.729 2.377-1.8 2.865v4.26c0 .414-.336.75-.75.75zm-1.95-1.5h1.2v-4.048c0-.354.248-.66.594-.733.699-.149 1.206-.819 1.206-1.594 0-.896-.673-1.625-1.5-1.625-.708 0-1.325.543-1.469 1.291-.018.102-.031.218-.031.334z"/></g><g><path d="m12.5 22.5h11.05v1.5h-11.05z"/></g><g><path d="m12.5 25.5h11.05v1.5h-11.05z"/></g></svg>