<svg id="LINE" enable-background="new 0 0 36 36" height="512" viewBox="0 0 36 36" width="512" xmlns="http://www.w3.org/2000/svg"><g><path d="m34.904 20.355c-3.782-5.791-3.38-11.727-5.203-14.518s-7.256-7.603-20.093.782-9.572 17.5-7.566 20.569c9.388 14.372 39.561 3.423 32.862-6.833z" fill="#efefef"/></g><g><path d="m9.033 4.305h2v1h-2z" fill="#a4afc1" transform="matrix(.707 -.707 .707 .707 -.459 8.502)"/></g><g><path d="m4.967 8.371h2v1h-2z" fill="#a4afc1" transform="matrix(.707 -.707 .707 .707 -4.525 6.818)"/></g><g><path d="m5.467 3.629h1v2h-1z" fill="#a4afc1" transform="matrix(.707 -.707 .707 .707 -1.526 5.574)"/></g><g><path d="m29.981 29.979c-.827 0-1.5-.673-1.5-1.5s.673-1.5 1.5-1.5 1.5.673 1.5 1.5-.672 1.5-1.5 1.5zm0-2c-.275 0-.5.224-.5.5s.225.5.5.5.5-.224.5-.5-.224-.5-.5-.5z" fill="#a4afc1"/></g><g><path d="m11.902 15.25-.652-3.667 2.12.997 1.63-2.83 1.63 2.83 2.12-.997-.652 3.667z" fill="#2fdf84"/></g><g><path d="m26.25 29.25h-16.5v-2.5c0-1.105.895-2 2-2h12.5c1.105 0 2 .895 2 2z" fill="#f3f3f1"/></g><g><circle cx="15" cy="13" fill="#2fdf84" r="6.25"/></g><g><path d="m11.75 18.48 8.97-8.58.01.01 2.88 1.34c.39.15.64.52.64.94v12.56h-12.5z" fill="#2fdf84"/></g><g><path d="m22.062 10.53-1.332-.62-.01-.01-8.97 8.58v6.27h2v-6.27z" fill="#00b871"/></g><g><path d="m13.75 24.75h-2c-1.105 0-2 .895-2 2v2.5h2v-2.5c0-1.105.895-2 2-2z" fill="#d5dbe1"/></g><g><path d="m24.25 25.5h-12.5c-.414 0-.75-.336-.75-.75v-6.27c0-.205.084-.4.231-.542l8.97-8.58c.252-.239.628-.272.91-.098l2.815 1.31c.635.242 1.074.886 1.074 1.62v12.56c0 .414-.336.75-.75.75zm-11.75-1.5h11v-11.81c0-.11-.061-.202-.159-.24l-2.477-1.151-8.364 8.001z"/></g><g><path d="m26.25 30h-16.5c-.414 0-.75-.336-.75-.75v-2.5c0-1.517 1.233-2.75 2.75-2.75h12.5c1.517 0 2.75 1.233 2.75 2.75v2.5c0 .414-.336.75-.75.75zm-15.75-1.5h15v-1.75c0-.689-.561-1.25-1.25-1.25h-12.5c-.689 0-1.25.561-1.25 1.25z"/></g><g><circle cx="15" cy="13" fill="#f3f3f1" r="6.25"/></g><g><path d="m10.75 13c0-3.111 2.275-5.683 5.25-6.163-.326-.053-.659-.087-1-.087-3.452 0-6.25 2.798-6.25 6.25s2.798 6.25 6.25 6.25c.341 0 .674-.035 1-.087-2.975-.48-5.25-3.052-5.25-6.163z" fill="#d5dbe1"/></g><g><path d="m15 20c-3.859 0-7-3.14-7-7s3.141-7 7-7 7 3.14 7 7-3.141 7-7 7zm0-12.5c-3.032 0-5.5 2.467-5.5 5.5s2.468 5.5 5.5 5.5 5.5-2.467 5.5-5.5-2.468-5.5-5.5-5.5z"/></g><g><path d="m11.902 15.25-.652-3.667 2.12.997 1.63-2.83 1.63 2.83 2.12-.997-.652 3.667z" fill="#2fdf84"/><path d="m18.098 16h-6.195c-.363 0-.675-.261-.738-.619l-.652-3.667c-.049-.276.06-.556.282-.727s.522-.202.775-.083l1.494.703 1.287-2.232c.268-.465 1.031-.465 1.299 0l1.287 2.232 1.494-.703c.254-.12.554-.088.775.083.223.17.331.451.282.727l-.652 3.667c-.064.358-.375.619-.738.619zm-5.568-1.5h4.939l.288-1.622-.808.38c-.354.165-.774.034-.969-.304l-.98-1.702-.981 1.702c-.194.338-.614.469-.969.304l-.808-.38z"/></g></svg>