<svg id="LINE" enable-background="new 0 0 36 36" height="512" viewBox="0 0 36 36" width="512" xmlns="http://www.w3.org/2000/svg"><g><path d="m34.904 20.355c-3.782-5.791-3.38-11.727-5.203-14.518s-7.256-7.603-20.093.782-9.572 17.5-7.566 20.569c9.388 14.372 39.561 3.423 32.862-6.833z" fill="#efefef"/></g><g><path d="m7.011 4.227h2v1h-2z" fill="#a4afc1" transform="matrix(.707 -.707 .707 .707 -.996 7.05)"/></g><g><path d="m2.946 8.293h2v1h-2z" fill="#a4afc1" transform="matrix(.707 -.707 .707 .707 -5.062 5.366)"/></g><g><path d="m3.446 3.55h1v2.001h-1z" fill="#a4afc1" transform="matrix(.707 -.707 .707 .707 -2.062 4.123)"/></g><g><path d="m32.688 12.438c-.827 0-1.5-.673-1.5-1.5s.673-1.5 1.5-1.5 1.5.673 1.5 1.5-.673 1.5-1.5 1.5zm0-2c-.275 0-.5.225-.5.5s.225.5.5.5.5-.225.5-.5-.225-.5-.5-.5z" fill="#a4afc1"/></g><g><path d="m27.25 28.25h-18.531c-1.105 0-2-.895-2-2v-15h22.531v15c0 1.105-.895 2-2 2z" fill="#f3f3f1"/></g><g><path d="m14.489 22.25-.739-4.334 2.402 1.178 1.848-3.344 1.848 3.344 2.402-1.178-.739 4.334z" fill="#2fdf84"/></g><g><path d="m6.75 11.25h22.5z" fill="#2fdf84"/></g><g><path d="m29.25 11.25h-22.531v-1.5c0-1.105.895-2 2-2h18.531c1.105 0 2 .895 2 2z" fill="#2fdf84"/></g><g><path d="m8.719 26.25v-15h-2v15c0 1.105.895 2 2 2h2c-1.105 0-2-.895-2-2z" fill="#d5dbe1"/></g><g><path d="m10.719 7.75h-2c-1.105 0-2 .895-2 2v1.5h2v-1.5c0-1.105.895-2 2-2z" fill="#00b871"/></g><g><path d="m13.75 17.916.739 4.334h2l-.557-3.264z" fill="#00b871"/></g><g><path d="m21.511 23h-7.021c-.365 0-.678-.264-.739-.624l-.739-4.334c-.048-.277.064-.558.29-.727.225-.168.526-.196.779-.073l1.761.864 1.503-2.719c.264-.479 1.049-.479 1.312 0l1.503 2.719 1.761-.864c.253-.123.555-.095.779.073.226.169.338.449.29.727l-.739 4.334c-.063.36-.375.624-.74.624zm-6.389-1.5h5.756l.387-2.266-1.087.533c-.363.177-.794.038-.986-.312l-1.192-2.154-1.191 2.155c-.192.35-.624.488-.986.312l-1.087-.533z"/></g><g><path d="m6.75 10.5h22.5v1.5h-22.5z"/></g><g><path d="m27.25 29h-18.5c-1.517 0-2.75-1.233-2.75-2.75v-16.5c0-1.517 1.233-2.75 2.75-2.75h18.5c1.517 0 2.75 1.233 2.75 2.75v6.667h-1.5v-6.667c0-.689-.561-1.25-1.25-1.25h-18.5c-.689 0-1.25.561-1.25 1.25v16.5c0 .689.561 1.25 1.25 1.25h18.5c.689 0 1.25-.561 1.25-1.25v-6.5h1.5v6.5c0 1.517-1.233 2.75-2.75 2.75z"/></g></svg>