<svg id="LINE" enable-background="new 0 0 36 36" height="512" viewBox="0 0 36 36" width="512" xmlns="http://www.w3.org/2000/svg"><g><path d="m8.114 5.564c-1.805 6.677-6.504 10.327-7.374 13.545s-.847 10.475 13.955 14.477 19.432-4.501 20.388-8.041c4.481-16.572-23.772-31.807-26.969-19.981z" fill="#efefef"/></g><g><path d="m22.993 31.409h2v.999h-2z" fill="#a4afc1" transform="matrix(.796 -.606 .606 .796 -14.428 21.062)"/></g><g><path d="m27.568 27.926h2v.999h-2z" fill="#a4afc1" transform="matrix(.796 -.606 .606 .796 -11.382 23.123)"/></g><g><path d="m27.498 31.63h1v2h-1z" fill="#a4afc1" transform="matrix(.796 -.606 .606 .796 -14.045 23.632)"/></g><g><path d="m7.75 8.267c-.827 0-1.5-.673-1.5-1.5s.673-1.5 1.5-1.5 1.5.673 1.5 1.5-.673 1.5-1.5 1.5zm0-2c-.276 0-.5.225-.5.5s.224.5.5.5.5-.225.5-.5-.224-.5-.5-.5z" fill="#a4afc1"/></g><g><circle cx="18" cy="18" fill="#2fdf84" r="11.25"/></g><g><path d="m12.837 22.25-1.087-6.333 3.533 1.721 2.717-4.888 2.717 4.888 3.533-1.721-1.087 6.333z" fill="#f3f3f1"/></g><g><path d="m11.75 15.917 1.087 6.333h2l-.905-5.27z" fill="#d5dbe1"/></g><g><path d="m8.75 18c0-5.876 4.506-10.693 10.25-11.199-.33-.029-.662-.051-1-.051-6.213 0-11.25 5.037-11.25 11.25s5.037 11.25 11.25 11.25c.338 0 .67-.021 1-.051-5.744-.506-10.25-5.323-10.25-11.199z" fill="#00b871"/></g><g><path d="m18 30c-6.617 0-12-5.383-12-12s5.383-12 12-12c1.881 0 3.683.424 5.355 1.259l-.671 1.342c-1.461-.731-3.038-1.101-4.684-1.101-5.79 0-10.5 4.71-10.5 10.5s4.71 10.5 10.5 10.5 10.5-4.71 10.5-10.5c0-3.112-1.369-6.046-3.757-8.05l.964-1.148c2.729 2.289 4.293 5.641 4.293 9.198 0 6.617-5.383 12-12 12z"/></g><g><path d="m23.163 23h-10.326c-.365 0-.677-.263-.739-.623l-1.087-6.333c-.047-.277.064-.558.289-.727.225-.17.526-.197.779-.074l2.894 1.409 2.372-4.267c.264-.477 1.047-.477 1.311 0l2.372 4.267 2.894-1.409c.253-.123.554-.096.779.074.225.169.336.449.289.727l-1.087 6.333c-.063.36-.375.623-.74.623zm-9.694-1.5h9.062l.732-4.269-2.217 1.08c-.36.177-.791.039-.984-.31l-2.062-3.707-2.062 3.708c-.193.349-.625.486-.984.31l-2.217-1.08z"/></g></svg>