<svg id="LINE" enable-background="new 0 0 36 36" height="512" viewBox="0 0 36 36" width="512" xmlns="http://www.w3.org/2000/svg"><g><path d="m3.442 23.883c6.061 3.333 8.497 8.761 11.417 10.367 2.921 1.606 9.978 3.299 17.366-10.137s.221-19.945-2.992-21.712c-15.042-8.27-36.525 15.58-25.791 21.482z" fill="#efefef"/></g><g><path d="m7.75 9.25c-.827 0-1.5-.673-1.5-1.5s.673-1.5 1.5-1.5 1.5.673 1.5 1.5-.673 1.5-1.5 1.5zm0-2c-.276 0-.5.225-.5.5s.224.5.5.5.5-.225.5-.5-.224-.5-.5-.5z" fill="#a4afc1"/></g><g><path d="m31.75 3.333h1v2h-1z" fill="#a4afc1"/></g><g><path d="m31.75 9.083h1v2h-1z" fill="#a4afc1"/></g><g><path d="m28.25 6.583h2v1h-2z" fill="#a4afc1"/></g><g><path d="m34 6.583h2v1h-2z" fill="#a4afc1"/></g><g><path d="m24.75 10.75h3.5c.552 0 1 .448 1 1v12.5c0 .552-.448 1-1 1h-20.5c-.552 0-1-.448-1-1v-12.5c0-.552.448-1 1-1h3.5z" fill="#f3f3f1"/></g><g><path d="m14.489 13.25-.739-4.333 2.402 1.177 1.848-3.344 1.848 3.344 2.402-1.177-.739 4.333z" fill="#2fdf84"/></g><g><path d="m13.75 8.917.739 4.333h2l-.557-3.263z" fill="#00b871"/></g><g><path d="m8.75 24.25v-12.5c0-.552.448-1 1-1h-2c-.552 0-1 .448-1 1v12.5c0 .552.448 1 1 1h2c-.552 0-1-.448-1-1z" fill="#d5dbe1"/></g><g><path d="m21.511 14h-7.021c-.366 0-.678-.264-.739-.624l-.739-4.333c-.047-.277.064-.558.29-.727.226-.168.526-.196.779-.073l1.761.863 1.502-2.719c.264-.479 1.049-.479 1.312 0l1.502 2.719 1.761-.863c.254-.123.554-.095.779.073.226.169.337.449.29.727l-.739 4.333c-.061.36-.373.624-.738.624zm-6.389-1.5h5.756l.386-2.265-1.086.532c-.359.175-.793.039-.986-.312l-1.192-2.154-1.191 2.155c-.194.351-.627.486-.986.312l-1.086-.532z"/></g><g><path d="m13.75 28.5h8.5v1.5h-8.5z"/></g><g><path d="m17.25 25.25h1.5v4h-1.5z"/></g><g><path d="m28.25 26h-20.5c-.965 0-1.75-.785-1.75-1.75v-12.5c0-.965.785-1.75 1.75-1.75h3.5v1.5h-3.5c-.138 0-.25.112-.25.25v12.5c0 .138.112.25.25.25h20.5c.138 0 .25-.112.25-.25v-6.415h1.5v6.415c0 .965-.785 1.75-1.75 1.75z"/></g><g><path d="m30 14.992h-1.5v-3.242c0-.138-.112-.25-.25-.25h-3.5v-1.5h3.5c.965 0 1.75.785 1.75 1.75z"/></g></svg>