<svg id="LINE" enable-background="new 0 0 36 36" height="512" viewBox="0 0 36 36" width="512" xmlns="http://www.w3.org/2000/svg"><g><path d="m34.928 20.591c-3.693-5.848-3.199-11.778-4.979-14.596s-7.138-7.714-20.103.473-9.84 17.35-7.882 20.45c9.166 14.515 39.504 4.031 32.964-6.327z" fill="#efefef"/></g><g><path d="m7.033 3.556h2v1h-2z" fill="#a4afc1" transform="matrix(.707 -.707 .707 .707 -.515 6.868)"/></g><g><path d="m2.967 7.621h2v1h-2z" fill="#a4afc1" transform="matrix(.707 -.707 .707 .707 -4.581 5.184)"/></g><g><path d="m3.467 2.879h1v2h-1z" fill="#a4afc1" transform="matrix(.707 -.707 .707 .707 -1.581 3.942)"/></g><g><path d="m33.511 26.821c-.827 0-1.5-.673-1.5-1.5s.673-1.5 1.5-1.5 1.5.673 1.5 1.5-.673 1.5-1.5 1.5zm0-2c-.276 0-.5.225-.5.5s.224.5.5.5.5-.225.5-.5-.224-.5-.5-.5z" fill="#a4afc1"/></g><g><path d="m19.75 26.25s.245 1.765 1.48 3h.02-6.5c1.25-1.25 1.48-3 1.48-3z" fill="#2fdf84"/></g><g><path d="m28.25 26.25h-20.563c-.552 0-1-.448-1-1v-2.5h22.563v2.5c0 .552-.448 1-1 1z" fill="#2fdf84"/></g><g><path d="m29.25 22.75h-22.563v-11c0-.552.448-1 1-1h20.563c.552 0 1 .448 1 1z" fill="#f3f3f1"/></g><g><path d="m14.489 13.25-.739-4.333 2.402 1.177 1.848-3.344 1.848 3.344 2.402-1.177-.739 4.333z" fill="#2fdf84"/></g><g><path d="m13.75 8.917.739 4.333h2l-.557-3.263z" fill="#00b871"/></g><g><path d="m9.687 10.75h-2c-.552 0-1 .448-1 1v11h2v-11c0-.552.448-1 1-1z" fill="#d5dbe1"/></g><g><path d="m8.687 25.25v-2.5h-2v2.5c0 .552.448 1 1 1h2c-.552 0-1-.448-1-1z" fill="#00b871"/></g><g><path d="m16.23 26.25s-.23 1.75-1.48 3h2c1.25-1.25 1.48-3 1.48-3z" fill="#00b871"/></g><g><path d="m21.511 14h-7.021c-.366 0-.678-.264-.739-.624l-.739-4.333c-.047-.277.064-.558.29-.727.226-.168.526-.196.779-.073l1.761.863 1.502-2.719c.264-.479 1.049-.479 1.312 0l1.502 2.719 1.761-.863c.254-.123.554-.095.779.073.226.169.337.449.29.727l-.739 4.333c-.061.36-.373.624-.738.624zm-6.389-1.5h5.756l.386-2.265-1.086.532c-.359.175-.793.039-.986-.312l-1.192-2.154-1.191 2.155c-.194.351-.628.486-.986.312l-1.086-.532z"/></g><g><path d="m28.25 27h-20.5c-.965 0-1.75-.785-1.75-1.75v-13.5c0-.965.785-1.75 1.75-1.75h3.5v1.5h-3.5c-.138 0-.25.112-.25.25v13.5c0 .138.112.25.25.25h20.5c.138 0 .25-.112.25-.25v-13.5c0-.138-.112-.25-.25-.25h-3.5v-1.5h3.5c.965 0 1.75.785 1.75 1.75v13.5c0 .965-.785 1.75-1.75 1.75z"/></g><g><path d="m21.25 30h-6.5c-.303 0-.577-.183-.693-.463s-.052-.603.163-.817c1.041-1.041 1.265-2.553 1.267-2.567l1.487.195c-.008.059-.147 1.066-.744 2.152h3.523c-.591-1.08-.738-2.088-.746-2.147l1.485-.208c.002.015.221 1.458 1.184 2.488.196.136.324.361.324.617 0 .414-.336.75-.75.75z"/></g><g><path d="m25.211 22h4.039v1.5h-4.039z"/></g><g><path d="m6.75 22h15.323v1.5h-15.323z"/></g></svg>