<svg id="LINE" enable-background="new 0 0 36 36" height="512" viewBox="0 0 36 36" width="512" xmlns="http://www.w3.org/2000/svg"><g><path d="m1.003 14.311c3.253 6.104 2.324 11.981 3.891 14.923s6.551 8.218 20.083 1.008 11.09-16.579 9.365-19.815c-8.072-15.151-39.1-6.927-33.339 3.884z" fill="#efefef"/></g><g><path d="m11.806 4.306h2v1h-2z" fill="#a4afc1" transform="matrix(.707 -.707 .707 .707 .353 10.463)"/></g><g><path d="m7.74 8.372h2v1h-2z" fill="#a4afc1" transform="matrix(.707 -.707 .707 .707 -3.714 8.779)"/></g><g><path d="m8.24 3.629h1v2h-1z" fill="#a4afc1" transform="matrix(.707 -.707 .707 .707 -.713 7.536)"/></g><g><path d="m30 24c-.827 0-1.5-.673-1.5-1.5s.673-1.5 1.5-1.5 1.5.673 1.5 1.5-.673 1.5-1.5 1.5zm0-2c-.275 0-.5.225-.5.5s.225.5.5.5.5-.225.5-.5-.225-.5-.5-.5z" fill="#a4afc1"/></g><g><path d="m13.622 17.532-4.872 8.765 3.585-.277 1.59 3.23 4.04-7.17z" fill="#f3f3f1"/></g><g><path d="m22.31 17.541 4.94 8.76-3.645-.281-1.6 3.23-4.04-7.17-1.778-3.137z" fill="#f3f3f1"/></g><g><path d="m19.965 22.08-1.778-3.137 4.352-.997-.229-.405-6.123 1.402 1.778 3.137 4.04 7.17.936-1.889z" fill="#d5dbe1"/></g><g><path d="m14.886 18.856-1.264-1.324-4.872 8.765 2.09-.161z" fill="#d5dbe1"/></g><g><circle cx="18" cy="13" fill="#2fdf84" r="6.25"/></g><g><path d="m14.902 15.25-.652-3.667 2.12.997 1.63-2.83 1.63 2.83 2.12-.997-.652 3.667z" fill="#f3f3f1"/></g><g><path d="m13.75 13c0-3.111 2.275-5.683 5.25-6.163-.326-.053-.659-.087-1-.087-3.452 0-6.25 2.798-6.25 6.25s2.798 6.25 6.25 6.25c.341 0 .674-.035 1-.087-2.975-.48-5.25-3.052-5.25-6.163z" fill="#00b871"/></g><g><path d="m16.37 12.58-2.12-.997.652 3.667h2l-.488-2.747z" fill="#d5dbe1"/></g><g><path d="m21.098 16h-6.195c-.363 0-.675-.261-.738-.618l-.652-3.667c-.049-.276.06-.557.282-.728.224-.169.522-.202.775-.083l1.494.703 1.287-2.231c.268-.465 1.031-.465 1.299 0l1.287 2.231 1.494-.703c.254-.119.553-.087.775.083.223.171.331.451.282.728l-.652 3.667c-.064.357-.375.618-.738.618zm-5.568-1.5h4.939l.288-1.621-.808.38c-.351.163-.774.035-.969-.305l-.98-1.702-.981 1.702c-.195.34-.619.472-.969.305l-.808-.38z"/></g><g><path d="m13.925 30c-.007 0-.014 0-.021 0-.278-.008-.529-.169-.652-.419l-1.365-2.774-3.079.238c-.267.015-.54-.11-.688-.343-.149-.232-.159-.528-.024-.77l4.872-8.766 1.311.729-4.193 7.546 2.193-.17c.32-.015.596.143.73.417l.962 1.954 3.342-5.931 1.307.736-4.04 7.17c-.135.237-.385.383-.655.383z"/></g><g><path d="m22.005 30c-.271 0-.521-.146-.653-.382l-5.816-10.305 1.305-.74 5.122 9.073.972-1.96c.136-.273.418-.429.729-.415l2.243.174-4.25-7.536 1.307-.736 4.94 8.76c.136.241.128.537-.021.771-.149.233-.418.355-.69.345l-3.14-.242-1.376 2.776c-.123.249-.374.409-.652.417-.006 0-.013 0-.02 0z"/></g><g><path d="m18 20c-3.859 0-7-3.141-7-7s3.141-7 7-7c2.499 0 4.826 1.348 6.073 3.517l-1.301.748c-.979-1.705-2.808-2.765-4.772-2.765-3.032 0-5.5 2.468-5.5 5.5s2.468 5.5 5.5 5.5 5.5-2.468 5.5-5.5c0-.524-.073-1.043-.219-1.541l1.439-.42c.186.635.28 1.294.28 1.961 0 3.859-3.141 7-7 7z"/></g></svg>