<svg id="LINE" enable-background="new 0 0 36 36" height="512" viewBox="0 0 36 36" width="512" xmlns="http://www.w3.org/2000/svg"><g><path d="m27.417 3.914c-6.915.129-11.732-3.365-15.064-3.302s-10.296 2.109-10.009 17.44 9.744 17.404 13.41 17.336c17.163-.321 23.911-31.703 11.663-31.474z" fill="#efefef"/></g><g><path d="m19.875 3.5h2v1h-2z" fill="#a4afc1"/></g><g><path d="m14.125 3.5h2v1h-2z" fill="#a4afc1"/></g><g><path d="m17.625 0h1v2h-1z" fill="#a4afc1"/></g><g><path d="m7 30.5c-.827 0-1.5-.673-1.5-1.5s.673-1.5 1.5-1.5 1.5.673 1.5 1.5-.673 1.5-1.5 1.5zm0-2c-.275 0-.5.225-.5.5s.225.5.5.5.5-.225.5-.5-.225-.5-.5-.5z" fill="#a4afc1"/></g><g><path d="m22.25 17.75v11.5l-4.25-3.25-4.25 3.25v-11.435z" fill="#f3f3f1"/></g><g><path d="m15.75 17.815 6.5-.05v-.015l-8.5.065v11.435l2-1.529z" fill="#d5dbe1"/></g><g><path d="m20 26-1 .765 3.25 2.485v-1.529z" fill="#d5dbe1"/></g><g><circle cx="18" cy="13" fill="#2fdf84" r="6.25"/></g><g><path d="m14.902 15.25-.652-3.667 2.12.997 1.63-2.83 1.63 2.83 2.12-.997-.652 3.667z" fill="#f3f3f1"/></g><g><path d="m13.75 13c0-3.111 2.275-5.683 5.25-6.163-.326-.053-.659-.087-1-.087-3.452 0-6.25 2.798-6.25 6.25s2.798 6.25 6.25 6.25c.341 0 .674-.035 1-.087-2.975-.48-5.25-3.052-5.25-6.163z" fill="#00b871"/></g><g><path d="m16.37 12.58-2.12-.997.652 3.667h2l-.488-2.747z" fill="#d5dbe1"/></g><g><path d="m22.25 30c-.162 0-.322-.053-.456-.154l-3.794-2.902-3.794 2.901c-.228.173-.532.202-.788.077-.256-.126-.418-.387-.418-.672v-11.435h1.5v9.917l3.044-2.328c.27-.205.643-.205.912 0l3.044 2.328v-9.982h1.5v11.5c0 .285-.162.546-.418.673-.105.052-.219.077-.332.077z"/></g><g><path d="m21.098 16h-6.195c-.363 0-.675-.261-.738-.618l-.652-3.667c-.049-.276.06-.557.282-.728.224-.169.522-.202.775-.083l1.494.703 1.287-2.231c.268-.465 1.031-.465 1.299 0l1.287 2.231 1.494-.703c.254-.119.553-.087.775.083.223.171.331.451.282.728l-.652 3.667c-.064.357-.375.618-.738.618zm-5.568-1.5h4.939l.288-1.621-.808.38c-.352.163-.774.035-.969-.305l-.98-1.702-.981 1.702c-.194.34-.619.472-.969.305l-.808-.38z"/></g><g><path d="m18.007 19.997c-2.041.001-4.065-.886-5.447-2.592-2.429-3-1.965-7.416 1.035-9.845 1.94-1.573 4.6-1.991 6.933-1.09l-.539 1.4c-1.836-.709-3.924-.381-5.45.855-1.142.924-1.854 2.238-2.008 3.699s.271 2.895 1.195 4.036c1.91 2.356 5.379 2.722 7.736.812 2.356-1.908 2.721-5.378.812-7.735-.33-.407-.714-.765-1.141-1.061l.855-1.232c.543.377 1.031.831 1.451 1.35 2.429 3 1.965 7.416-1.035 9.845-1.292 1.049-2.849 1.558-4.397 1.558z"/></g></svg>