<svg id="LINE" enable-background="new 0 0 36 36" height="512" viewBox="0 0 36 36" width="512" xmlns="http://www.w3.org/2000/svg"><g><path d="m4.167 27.623c0-6.917-3.583-11.667-3.583-15s1.916-10.333 17.249-10.333 17.583 9.417 17.583 13.083c.001 17.167-31.249 24.5-31.249 12.25z" fill="#efefef"/></g><g><path d="m19.875 3.5h2v1h-2z" fill="#a4afc1"/></g><g><path d="m14.125 3.5h2v1h-2z" fill="#a4afc1"/></g><g><path d="m17.625 0h1v2h-1z" fill="#a4afc1"/></g><g><path d="m31 25.393c-.827 0-1.5-.673-1.5-1.5s.673-1.5 1.5-1.5 1.5.673 1.5 1.5-.673 1.5-1.5 1.5zm0-2c-.275 0-.5.225-.5.5s.225.5.5.5.5-.225.5-.5-.225-.5-.5-.5z" fill="#a4afc1"/></g><g><path d="m9.75 27.25c0 1.105.895 2 2 2h12.5c1.105 0 2-.895 2-2v-18.5c0-1.105-.895-2-2-2h-12.5c-1.105 0-2 .895-2 2z" fill="#f3f3f1"/></g><g><path d="m14.489 21.25-.739-4.333 2.402 1.177 1.848-3.344 1.848 3.344 2.402-1.177-.739 4.333z" fill="#2fdf84"/></g><g><path d="m11.75 27.25v-18.5c0-1.105.895-2 2-2h-2c-1.105 0-2 .895-2 2v18.5c0 1.105.895 2 2 2h2c-1.105 0-2-.895-2-2z" fill="#d5dbe1"/></g><g><path d="m13.75 16.917.739 4.333h2l-.557-3.263z" fill="#00b871"/></g><g><path d="m24.25 30h-12.5c-1.517 0-2.75-1.233-2.75-2.75v-18.5c0-1.517 1.233-2.75 2.75-2.75h12.5c1.517 0 2.75 1.233 2.75 2.75v3.688h-1.5v-3.688c0-.689-.561-1.25-1.25-1.25h-12.5c-.689 0-1.25.561-1.25 1.25v18.5c0 .689.561 1.25 1.25 1.25h12.5c.689 0 1.25-.561 1.25-1.25v-10.999h1.5v10.999c0 1.517-1.233 2.75-2.75 2.75z"/></g><g><path d="m21.511 22h-7.021c-.365 0-.678-.264-.739-.624l-.739-4.333c-.048-.277.064-.558.29-.727.225-.168.526-.195.779-.073l1.761.863 1.503-2.719c.264-.479 1.049-.479 1.312 0l1.503 2.719 1.761-.863c.253-.122.555-.095.779.073.226.169.338.449.29.727l-.739 4.333c-.063.36-.375.624-.74.624zm-6.389-1.5h5.756l.387-2.265-1.087.532c-.362.177-.794.039-.986-.312l-1.192-2.154-1.191 2.155c-.192.351-.623.488-.986.312l-1.087-.532z"/></g></svg>