<svg id="LINE" enable-background="new 0 0 36 36" height="512" viewBox="0 0 36 36" width="512" xmlns="http://www.w3.org/2000/svg"><g><path d="m8.377 4.167c6.917 0 11.667-3.583 15-3.583s10.333 1.916 10.333 17.249-9.417 17.583-13.083 17.583c-17.167.001-24.5-31.249-12.25-31.249z" fill="#efefef"/></g><g><path d="m33.71 18.417c-.827 0-1.5-.673-1.5-1.5s.673-1.5 1.5-1.5 1.5.673 1.5 1.5-.673 1.5-1.5 1.5zm0-2c-.275 0-.5.225-.5.5s.225.5.5.5.5-.225.5-.5-.225-.5-.5-.5z" fill="#a4afc1"/></g><g><path d="m3.5 2.875h1v2h-1z" fill="#a4afc1"/></g><g><path d="m3.5 8.625h1v2h-1z" fill="#a4afc1"/></g><g><path d="m0 6.125h2v1h-2z" fill="#a4afc1"/></g><g><path d="m5.75 6.125h2v1h-2z" fill="#a4afc1"/></g><g><path d="m29.25 19.75v4.5c0 1.105-.895 2-2 2h-18.5c-1.105 0-2-.895-2-2v-12.5c0-1.105.895-2 2-2h5.25l2 2h3.25 10z" fill="#f3f3f1"/></g><g><path d="m8.75 24.25v-12.5c0-1.105.895-2 2-2h-2c-1.105 0-2 .895-2 2v12.5c0 1.105.895 2 2 2h2c-1.105 0-2-.895-2-2z" fill="#d5dbe1"/></g><g><path d="m21.489 13.25-.739-4.333 2.402 1.177 1.848-3.344 1.848 3.344 2.402-1.177-.739 4.333z" fill="#2fdf84"/></g><g><path d="m20.75 8.917.739 4.333h2l-.557-3.264z" fill="#00b871"/></g><g><path d="m28.511 14h-7.021c-.365 0-.678-.264-.739-.624l-.739-4.333c-.048-.277.064-.558.29-.727.225-.168.526-.196.779-.073l1.761.863 1.503-2.719c.264-.479 1.049-.479 1.312 0l1.503 2.719 1.761-.863c.252-.123.555-.095.779.073.226.169.338.449.29.727l-.739 4.333c-.063.36-.375.624-.74.624zm-6.389-1.5h5.756l.387-2.265-1.087.532c-.362.177-.794.038-.986-.312l-1.192-2.154-1.191 2.155c-.192.35-.623.488-.986.312l-1.087-.532z"/></g><g><path d="m27.25 27h-18.5c-1.517 0-2.75-1.233-2.75-2.75v-12.5c0-1.517 1.233-2.75 2.75-2.75h5.25c.199 0 .39.079.53.22l1.78 1.78h1.939v1.5h-2.249c-.199 0-.39-.079-.53-.22l-1.78-1.78h-4.94c-.689 0-1.25.561-1.25 1.25v12.5c0 .689.561 1.25 1.25 1.25h18.5c.689 0 1.25-.561 1.25-1.25v-7.5h1.5v7.5c0 1.517-1.233 2.75-2.75 2.75z"/></g></svg>