<svg id="LINE" enable-background="new 0 0 36 36" height="512" viewBox="0 0 36 36" width="512" xmlns="http://www.w3.org/2000/svg"><g><path d="m8.114 5.564c-1.805 6.677-6.504 10.327-7.374 13.545s-.847 10.475 13.955 14.477 19.432-4.501 20.388-8.041c4.481-16.572-23.772-31.807-26.969-19.981z" fill="#efefef"/></g><g><path d="m3.5 14.125h1v2h-1z" fill="#a4afc1"/></g><g><path d="m3.5 19.875h1v2h-1z" fill="#a4afc1"/></g><g><path d="m0 17.375h2v1h-2z" fill="#a4afc1"/></g><g><path d="m29.25 8.5c-.827 0-1.5-.673-1.5-1.5s.673-1.5 1.5-1.5 1.5.673 1.5 1.5-.673 1.5-1.5 1.5zm0-2c-.276 0-.5.225-.5.5s.224.5.5.5.5-.225.5-.5-.224-.5-.5-.5z" fill="#a4afc1"/></g><g><path d="m8.75 11.75h18.5v12.5h-18.5z" fill="#f3f3f1"/></g><g><path d="m14.489 14.25-.739-4.333 2.402 1.177 1.848-3.344 1.848 3.344 2.402-1.177-.739 4.333z" fill="#2fdf84"/></g><g><path d="m13.75 9.917.739 4.333h2l-.557-3.263z" fill="#00b871"/></g><g><path d="m8.75 11.75h2v12.5h-2z" fill="#d5dbe1"/></g><g><path d="m21.511 15h-7.021c-.366 0-.678-.264-.739-.624l-.739-4.333c-.047-.277.064-.558.29-.727.226-.168.526-.196.779-.073l1.761.863 1.502-2.719c.264-.479 1.049-.479 1.312 0l1.502 2.719 1.761-.863c.254-.123.554-.095.779.073.226.169.337.449.29.727l-.739 4.333c-.061.36-.373.624-.738.624zm-6.389-1.5h5.756l.386-2.265-1.086.532c-.359.176-.793.039-.986-.312l-1.192-2.154-1.191 2.155c-.194.351-.627.487-.986.312l-1.086-.532z"/></g><g><path d="m6.75 23.5h22.5v1.5h-22.5z"/></g><g><path d="m28 24.25h-1.5v-11.5c0-.138-.112-.25-.25-.25h-1.5v-1.5h1.5c.965 0 1.75.785 1.75 1.75z"/></g><g><path d="m9.5 24.25h-1.5v-11.5c0-.965.785-1.75 1.75-1.75h1.5v1.5h-1.5c-.138 0-.25.112-.25.25z"/></g></svg>