<svg id="LINE" enable-background="new 0 0 36 36" height="512" viewBox="0 0 36 36" width="512" xmlns="http://www.w3.org/2000/svg"><g><path d="m27.417 3.914c-6.915.129-11.732-3.365-15.064-3.302s-10.296 2.109-10.009 17.44 9.744 17.404 13.41 17.336c17.163-.321 23.911-31.703 11.663-31.474z" fill="#efefef"/></g><g><path d="m14.125 31.59h2v1h-2z" fill="#a4afc1"/></g><g><path d="m19.875 31.59h2v1h-2z" fill="#a4afc1"/></g><g><path d="m17.375 34.09h1v2h-1z" fill="#a4afc1"/></g><g><path d="m31.482 6.155c-.827 0-1.5-.673-1.5-1.5s.673-1.5 1.5-1.5 1.5.673 1.5 1.5-.673 1.5-1.5 1.5zm0-2c-.276 0-.5.225-.5.5s.224.5.5.5.5-.225.5-.5-.224-.5-.5-.5z" fill="#a4afc1"/></g><g><circle cx="18" cy="23" fill="#2fdf84" r="6.25"/></g><g><path d="m14.902 25.25-.652-3.667 2.12.996 1.63-2.829 1.63 2.829 2.12-.996-.652 3.667z" fill="#f3f3f1"/></g><g><path d="m19.163 16.845-5.913-10.095h-4.5l5.95 10.8z" fill="#f3f3f1"/></g><g><path d="m18.13 15.08 4.62-8.33h4.5l-5.95 10.8z" fill="#f3f3f1"/></g><g><path d="m13.75 23c0-3.111 2.275-5.683 5.25-6.163-.326-.053-.659-.087-1-.087-3.452 0-6.25 2.798-6.25 6.25s2.798 6.25 6.25 6.25c.341 0 .674-.035 1-.087-2.975-.48-5.25-3.052-5.25-6.163z" fill="#00b871"/></g><g><path d="m10.75 6.75h-2l5.95 10.8 1.84-.291z" fill="#d5dbe1"/></g><g><path d="m20.13 15.08 4.62-8.33h-2l-4.62 8.33 1.401 1.092z" fill="#d5dbe1"/></g><g><path d="m16.37 22.579-2.12-.996.652 3.667h2l-.488-2.747z" fill="#d5dbe1"/></g><g><path d="m18 30c-3.86 0-7-3.141-7-7s3.14-7 7-7c2.5 0 4.827 1.348 6.073 3.517l-1.301.748c-.979-1.705-2.808-2.765-4.772-2.765-3.033 0-5.5 2.468-5.5 5.5s2.467 5.5 5.5 5.5 5.5-2.468 5.5-5.5c0-.523-.074-1.043-.219-1.543l1.44-.418c.185.636.279 1.296.279 1.961 0 3.859-3.14 7-7 7z"/></g><g><path d="m21.098 26h-6.195c-.364 0-.675-.261-.738-.618l-.652-3.667c-.049-.276.06-.557.282-.728.223-.169.521-.202.775-.083l1.496.702 1.286-2.23c.268-.465 1.032-.465 1.3 0l1.286 2.23 1.496-.702c.253-.119.553-.086.775.083.223.171.332.451.282.728l-.652 3.667c-.067.357-.378.618-.741.618zm-5.567-1.5h4.938l.289-1.622-.809.38c-.353.167-.774.034-.969-.305l-.98-1.701-.98 1.701c-.195.339-.617.472-.969.305l-.809-.38z"/></g><g><path d="m14.043 17.912-5.95-10.8c-.128-.232-.124-.515.011-.744.135-.228.381-.368.646-.368h4.5c.266 0 .513.142.647.371l5.913 10.095-1.294.758-5.696-9.724h-2.8l5.337 9.688z"/></g><g><path d="m21.957 17.912-1.313-.725 5.336-9.687h-2.789l-4.406 7.944-1.312-.728 4.62-8.33c.134-.239.385-.386.657-.386h4.5c.265 0 .511.14.646.368.135.229.139.512.011.744z"/></g></svg>