<svg id="LINE" enable-background="new 0 0 36 36" height="512" viewBox="0 0 36 36" width="512" xmlns="http://www.w3.org/2000/svg"><g><path d="m27.417 3.914c-6.915.129-11.732-3.365-15.064-3.302s-10.296 2.109-10.009 17.44 9.744 17.404 13.41 17.336c17.163-.321 23.911-31.703 11.663-31.474z" fill="#efefef"/></g><g><path d="m28.25 30.75c-.827 0-1.5-.673-1.5-1.5s.673-1.5 1.5-1.5 1.5.673 1.5 1.5-.673 1.5-1.5 1.5zm0-2c-.276 0-.5.225-.5.5s.224.5.5.5.5-.225.5-.5-.224-.5-.5-.5z" fill="#a4afc1"/></g><g><path d="m5.375 2.125h1v2h-1z" fill="#a4afc1"/></g><g><path d="m5.375 7.875h1v2h-1z" fill="#a4afc1"/></g><g><path d="m1.875 5.375h2v1h-2z" fill="#a4afc1"/></g><g><path d="m7.625 5.375h2v1h-2z" fill="#a4afc1"/></g><g><path d="m23.25 29.25h-10.5c-1.105 0-2-.895-2-2v-18.5c0-1.105.895-2 2-2h10.5c1.105 0 2 .895 2 2v18.5c0 1.105-.895 2-2 2z" fill="#f3f3f1"/></g><g><path d="m12.75 27.25v-18.5c0-1.105.895-2 2-2h-2c-1.105 0-2 .895-2 2v18.5c0 1.105.895 2 2 2h2c-1.105 0-2-.895-2-2z" fill="#d5dbe1"/></g><g><path d="m14.489 19.25-.739-4.333 2.402 1.177 1.848-3.344 1.848 3.344 2.402-1.177-.739 4.333z" fill="#2fdf84"/></g><g><path d="m24.461 29.25h-12.922c-.436 0-.789-.353-.789-.789v-1.922c0-.436.353-.789.789-.789h12.922c.436 0 .789.353.789.789v1.922c0 .436-.353.789-.789.789z" fill="#2fdf84"/></g><g><path d="m12.75 28.461v-1.922c0-.436.353-.789.789-.789h-2c-.436 0-.789.353-.789.789v1.922c0 .436.353.789.789.789h2c-.436 0-.789-.353-.789-.789z" fill="#00b871"/></g><g><path d="m13.75 14.917.739 4.333h2l-.557-3.264z" fill="#00b871"/></g><g><path d="m21.511 20h-7.021c-.366 0-.678-.264-.739-.624l-.739-4.333c-.047-.277.064-.558.29-.727.226-.168.526-.196.779-.073l1.761.863 1.502-2.719c.264-.479 1.049-.479 1.312 0l1.502 2.719 1.761-.863c.254-.123.553-.095.779.073.226.169.337.449.29.727l-.739 4.333c-.061.36-.373.624-.738.624zm-6.389-1.5h5.756l.386-2.265-1.086.532c-.358.176-.793.039-.986-.312l-1.192-2.154-1.191 2.155c-.193.351-.626.487-.986.312l-1.086-.532z"/></g><g><path d="m23.25 30h-10.5c-1.517 0-2.75-1.233-2.75-2.75v-18.5c0-1.517 1.233-2.75 2.75-2.75h10.5c1.517 0 2.75 1.233 2.75 2.75v18.5c0 1.517-1.233 2.75-2.75 2.75zm-10.5-22.5c-.689 0-1.25.561-1.25 1.25v18.5c0 .689.561 1.25 1.25 1.25h10.5c.689 0 1.25-.561 1.25-1.25v-18.5c0-.689-.561-1.25-1.25-1.25z"/></g><g><path d="m16.74 25h8.51v1.5h-8.51z"/></g><g><path d="m10.75 25h3.66v1.5h-3.66z"/></g></svg>