<svg id="LINE" enable-background="new 0 0 36 36" height="512" viewBox="0 0 36 36" width="512" xmlns="http://www.w3.org/2000/svg"><g><path d="m1.063 15.31c3.655 5.872 3.123 11.798 4.885 14.628s7.088 7.76 20.105-.343 9.951-17.286 8.014-20.399c-9.072-14.574-39.477-4.285-33.004 6.114z" fill="#efefef"/></g><g><path d="m7.783 2.674h2v1h-2z" fill="#a4afc1" transform="matrix(.707 -.707 .707 .707 .328 7.14)"/></g><g><path d="m3.717 6.739h2v1h-2z" fill="#a4afc1" transform="matrix(.707 -.707 .707 .707 -3.737 5.456)"/></g><g><path d="m4.217 1.997h1v2h-1z" fill="#a4afc1" transform="matrix(.707 -.707 .707 .707 -.738 4.213)"/></g><g><path d="m28.68 21.274c-.827 0-1.5-.673-1.5-1.5s.673-1.5 1.5-1.5 1.5.673 1.5 1.5-.673 1.5-1.5 1.5zm0-2c-.275 0-.5.225-.5.5s.225.5.5.5.5-.225.5-.5-.225-.5-.5-.5z" fill="#a4afc1"/></g><g><path d="m24.25 6.821h-12.5c-1.657 0-3 1.343-3 3v19.408h13.21c1.265 0 2.29-1.025 2.29-2.29z" fill="#f3f3f1"/></g><g><path d="m13.75 6.821h-2c-1.657 0-3 1.343-3 3v19.408h2v-19.408c0-1.657 1.343-3 3-3z" fill="#d5dbe1"/></g><g><path d="m24.25 10.771h5v-1.5c0-1.381-1.119-2.5-2.5-2.5-1.381 0-2.5 1.119-2.5 2.5z" fill="#2fdf84"/></g><g><path d="m12.989 19.25-.739-4.333 2.402 1.177 1.848-3.344 1.848 3.344 2.402-1.177-.739 4.333z" fill="#2fdf84"/></g><g><path d="m21.875 29.229h-5.25-7.875c-1.105 0-2-.895-2-2v-2.958h12.5v2.333c0 1.45 1.175 2.625 2.625 2.625z" fill="#2fdf84"/></g><g><path d="m8.75 27.229v-2.958h-2v2.958c0 1.105.895 2 2 2h2c-1.105 0-2-.895-2-2z" fill="#00b871"/></g><g><path d="m27.75 6.982c-.307-.134-.644-.211-1-.211-1.381 0-2.5 1.119-2.5 2.5v1.5h2v-1.5c0-1.025.618-1.903 1.5-2.289z" fill="#00b871"/></g><g><path d="m12.25 14.917.739 4.333h2l-.556-3.264z" fill="#00b871"/></g><g><path d="m8 14.214h1.5v10.057h-1.5z"/></g><g><path d="m9.5 10.771h-1.5v-1c0-2.067 1.683-3.75 3.75-3.75h15.5c.414 0 .75.336.75.75l-.75.025v.725h-15.5c-1.24 0-2.25 1.01-2.25 2.25z"/></g><g><path d="m29.25 11.521h-5c-.414 0-.75-.336-.75-.75v-1.5c0-1.792 1.458-3.25 3.25-3.25s3.25 1.458 3.25 3.25v1.5c0 .414-.336.75-.75.75zm-4.25-1.5h3.5v-.75c0-.965-.785-1.75-1.75-1.75s-1.75.785-1.75 1.75z"/></g><g><path d="m22 29.979h-13.25c-1.517 0-2.75-1.233-2.75-2.75v-2.959c0-.414.336-.75.75-.75h12.5c.414 0 .75.336.75.75v2.459c0 .965.785 1.75 1.75 1.75s1.75-.785 1.75-1.75v-15.958h1.5v15.959c0 1.708-1.324 3.112-3 3.24zm-14.5-4.958v2.209c0 .689.561 1.25 1.25 1.25h10.263c-.324-.506-.513-1.106-.513-1.75v-1.709z"/></g><g><path d="m20.011 20h-7.021c-.365 0-.678-.264-.739-.624l-.739-4.333c-.048-.277.064-.558.29-.727.225-.168.526-.196.779-.073l1.761.863 1.503-2.719c.264-.479 1.049-.479 1.312 0l1.503 2.719 1.761-.863c.253-.123.554-.095.779.073.226.169.338.449.29.727l-.739 4.333c-.063.36-.375.624-.74.624zm-6.389-1.5h5.756l.387-2.265-1.087.532c-.362.177-.794.038-.986-.312l-1.192-2.154-1.191 2.155c-.192.35-.623.488-.986.312l-1.087-.532z"/></g></svg>