<svg id="LINE" enable-background="new 0 0 36 36" height="512" viewBox="0 0 36 36" width="512" xmlns="http://www.w3.org/2000/svg"><g><path d="m11.532 34.802c6.645-1.919 12.203.206 15.405-.719s9.396-4.708 5.142-19.44-13.924-14.28-17.447-13.263c-16.493 4.763-14.869 36.821-3.1 33.422z" fill="#efefef"/></g><g><path d="m15.588 5.306h2v1h-2z" fill="#a4afc1" transform="matrix(.707 -.707 .707 .707 .753 13.43)"/></g><g><path d="m11.522 9.371h2v1h-2z" fill="#a4afc1" transform="matrix(.707 -.707 .707 .707 -3.313 11.745)"/></g><g><path d="m12.022 4.629h1v2h-1z" fill="#a4afc1" transform="matrix(.707 -.707 .707 .707 -.313 10.503)"/></g><g><path d="m7.75 27.422c-.827 0-1.5-.673-1.5-1.5s.673-1.5 1.5-1.5 1.5.673 1.5 1.5-.673 1.5-1.5 1.5zm0-2c-.275 0-.5.225-.5.5s.225.5.5.5.5-.225.5-.5-.225-.5-.5-.5z" fill="#a4afc1"/></g><g><path d="m17.837 16.25-1.087-6.333 3.533 1.721 2.717-4.888 2.717 4.888 3.533-1.721-1.087 6.333z" fill="#2fdf84"/></g><g><path d="m6.75 18.75v8.5h2.75l2-7.386s-1.458-1.114-4.75-1.114z" fill="#f3f3f1"/></g><g><path d="m15.5 24.5s2.75 1 4.75 1 4.5-1.5 6.5-1.5 2.5 1.25 2.5 1.25-7.25 4-10.25 4c-2.39 0-7.31-2.22-9.22-3.12l1.49-5.42 9.63 1.97c.93.19 1.6 1.01 1.6 1.96v.45z" fill="#f3f3f1"/></g><g><path d="m26.89 24.011h-.272c-1.268.039-2.72.631-4.118 1.06v-.431c0-.219-.039-.43-.105-.629h-12.032l-.583 2.119c1.91.9 6.83 3.12 9.22 3.12 3 0 10.25-4 10.25-4s-.486-1.178-2.36-1.239zm-11.39.489 6.95.586c-.765.232-1.513.414-2.2.414-2 0-4.75-1-4.75-1z" fill="#d5dbe1"/></g><g><path d="m6.75 24.011v3.239h2.75l.877-3.239z" fill="#d5dbe1"/></g><g><path d="m16.75 9.917 1.087 6.333h2l-.905-5.27z" fill="#00b871"/></g><g><path d="m28.163 17h-10.326c-.365 0-.678-.263-.739-.623l-1.087-6.333c-.048-.277.064-.558.289-.727.227-.17.528-.197.778-.074l2.894 1.409 2.373-4.267c.264-.477 1.047-.477 1.311 0l2.373 4.267 2.894-1.409c.25-.123.551-.096.778.074.225.169.337.449.289.727l-1.087 6.333c-.062.36-.375.623-.74.623zm-9.694-1.5h9.062l.732-4.269-2.218 1.08c-.359.175-.79.039-.983-.31l-2.062-3.708-2.062 3.709c-.194.349-.624.485-.983.31l-2.218-1.08z"/></g><g><path d="m9.5 28h-2.75c-.414 0-.75-.336-.75-.75v-8.5c0-.414.336-.75.75-.75 3.506 0 5.138 1.217 5.205 1.269.242.185.349.498.269.792l-2 7.386c-.088.326-.385.553-.724.553zm-2-1.5h1.426l1.698-6.271c-.523-.247-1.545-.615-3.124-.707z"/></g><g><path d="m12.782 28.272c-1.04-.424-2.189-.931-3.321-1.464l.639-1.357c1.109.522 2.232 1.018 3.249 1.433z"/></g><g><path d="m19 30c-1.076 0-2.615-.373-4.704-1.14l.518-1.408c2.358.866 3.578 1.048 4.186 1.048 2.028 0 6.632-2.19 9.045-3.454-.278-.159-.692-.296-1.295-.296-.878 0-1.964.361-3.013.712-1.163.388-2.365.788-3.487.788-2.107 0-4.889-1.003-5.006-1.045l.512-1.41c.026.01 2.652.955 4.494.955.878 0 1.964-.361 3.013-.712 1.163-.388 2.365-.788 3.487-.788 2.479 0 3.168 1.651 3.196 1.722.141.352-.003.752-.334.935-.302.167-7.455 4.093-10.612 4.093z"/></g><g><path d="m23.25 25.09h-1.5v-.45c0-.591-.421-1.106-1-1.226l-9.631-1.97.301-1.469 9.631 1.97c1.274.261 2.199 1.394 2.199 2.694z"/></g></svg>