<svg id="LINE" enable-background="new 0 0 36 36" height="512" viewBox="0 0 36 36" width="512" xmlns="http://www.w3.org/2000/svg"><g><path d="m34.904 20.355c-3.782-5.791-3.38-11.727-5.203-14.518s-7.256-7.603-20.093.782-9.572 17.5-7.566 20.569c9.388 14.372 39.561 3.423 32.862-6.833z" fill="#efefef"/></g><g><path d="m7.888 7.015h2v1h-2z" fill="#a4afc1" transform="matrix(.707 -.707 .707 .707 -2.71 8.486)"/></g><g><path d="m3.822 11.08h2v1h-2z" fill="#a4afc1" transform="matrix(.707 -.707 .707 .707 -6.776 6.802)"/></g><g><path d="m4.322 6.338h1v2h-1z" fill="#a4afc1" transform="matrix(.707 -.707 .707 .707 -3.776 5.559)"/></g><g><path d="m26.423 30.438c-.827 0-1.5-.673-1.5-1.5s.673-1.5 1.5-1.5 1.5.673 1.5 1.5-.673 1.5-1.5 1.5zm0-2c-.276 0-.5.225-.5.5s.224.5.5.5.5-.225.5-.5-.224-.5-.5-.5z" fill="#a4afc1"/></g><g><path d="m18 29.25s9.25-2.446 9.25-11.075c0-4.821 0-8.001 0-8.001l-9.25-3.424-9.25 3.424v8.001c0 8.629 9.25 11.075 9.25 11.075z" fill="#2fdf84"/></g><g><path d="m12.837 21.25-1.087-6.333 3.533 1.721 2.717-4.888 2.717 4.888 3.533-1.721-1.087 6.333z" fill="#f3f3f1"/></g><g><path d="m11.75 15.917 1.087 6.333h2l-.905-5.27z" fill="#d5dbe1"/></g><g><path d="m10.75 18.175c0-4.821 0-8.001 0-8.001l8.25-3.054-1-.37-9.25 3.424v8.001c0 8.629 9.25 11.075 9.25 11.075s.393-.108 1-.341c-2.385-.914-8.25-3.856-8.25-10.734z" fill="#00b871"/></g><g><path d="m18 30c-.064 0-.129-.009-.192-.025-.098-.026-9.808-2.698-9.808-11.8v-8.001c0-.314.195-.595.49-.703l9.25-3.424c.168-.062.353-.062.521 0l3.026 1.12-.521 1.406-2.766-1.023-8.5 3.146v7.479c0 7.298 7.232 9.895 8.503 10.294 1.32-.402 8.497-2.93 8.497-10.294v-7.479l-4.067-1.506.521-1.406 4.557 1.687c.294.108.489.389.489.703v8.001c0 9.103-9.71 11.774-9.808 11.8-.063.016-.128.025-.192.025z"/></g><g><path d="m23.163 22h-10.326c-.365 0-.677-.263-.739-.623l-1.087-6.333c-.047-.277.064-.558.289-.727.226-.17.525-.197.779-.074l2.894 1.409 2.372-4.267c.264-.477 1.047-.477 1.311 0l2.372 4.267 2.894-1.409c.253-.123.554-.096.779.074.225.169.336.449.289.727l-1.087 6.333c-.063.36-.375.623-.74.623zm-9.694-1.5h9.062l.732-4.269-2.217 1.08c-.359.176-.791.039-.984-.31l-2.062-3.707-2.062 3.708c-.193.349-.625.485-.984.31l-2.217-1.08z"/></g></svg>