<svg id="LINE" enable-background="new 0 0 36 36" height="512" viewBox="0 0 36 36" width="512" xmlns="http://www.w3.org/2000/svg"><g><path d="m13.411 34.999c6.298-2.859 12.105-1.559 15.14-2.936 3.035-1.378 8.617-6.016 2.28-19.978s-15.841-12.12-19.18-10.605c-15.632 7.095-9.395 38.582 1.76 33.519z" fill="#efefef"/></g><g><path d="m6.75 8.25c-.827 0-1.5-.673-1.5-1.5s.673-1.5 1.5-1.5 1.5.673 1.5 1.5-.673 1.5-1.5 1.5zm0-2c-.275 0-.5.225-.5.5s.225.5.5.5.5-.225.5-.5-.225-.5-.5-.5z" fill="#a4afc1"/></g><g><path d="m28 21.125h1v2h-1z" fill="#a4afc1"/></g><g><path d="m28 26.875h1v2h-1z" fill="#a4afc1"/></g><g><path d="m24.5 24.375h2v1h-2z" fill="#a4afc1"/></g><g><path d="m30.25 24.375h2v1h-2z" fill="#a4afc1"/></g><g><path d="m24.283 6.75h-12.566c-.534 0-.967.435-.967.971v7.279c.039 5.823 7.25 8.25 7.25 8.25s7.25-2.426 7.25-8.25v-7.279c0-.536-.433-.971-.967-.971z" fill="#2fdf84"/></g><g><path d="m14.489 16.25-.739-4.333 2.402 1.177 1.848-3.344 1.848 3.344 2.402-1.177-.739 4.333z" fill="#f3f3f1"/></g><g><path d="m22.25 29.25h-8.5v-.5c0-1.105.895-2 2-2h4.5c1.105 0 2 .895 2 2z" fill="#f3f3f1"/></g><g><path d="m17.75 26.75h-2c-1.105 0-2 .895-2 2v.5h2v-.5c0-1.105.895-2 2-2z" fill="#d5dbe1"/></g><g><path d="m12.75 15v-7.279c0-.536.433-.971.967-.971h-2c-.534 0-.967.435-.967.971v7.279c.039 5.823 7.25 8.25 7.25 8.25s.401-.137 1.002-.412c-1.976-.906-6.222-3.368-6.252-7.838z" fill="#00b871"/></g><g><path d="m13.75 11.917.739 4.333h2l-.557-3.263z" fill="#d5dbe1"/></g><g><path d="m21.511 17h-7.021c-.365 0-.678-.264-.739-.624l-.739-4.333c-.048-.277.064-.558.29-.727.225-.168.526-.196.779-.073l1.761.863 1.503-2.719c.264-.479 1.049-.479 1.312 0l1.503 2.719 1.761-.863c.253-.123.555-.095.779.073.226.169.338.449.29.727l-.739 4.333c-.063.36-.375.624-.74.624zm-6.389-1.5h5.756l.387-2.265-1.087.532c-.363.177-.795.038-.986-.312l-1.192-2.154-1.191 2.155c-.192.35-.624.488-.986.312l-1.087-.532z"/></g><g><path d="m22.25 30h-8.5c-.414 0-.75-.336-.75-.75v-.5c0-1.517 1.233-2.75 2.75-2.75h4.5c1.517 0 2.75 1.233 2.75 2.75v.5c0 .414-.336.75-.75.75zm-7.725-1.5h6.949c-.116-.57-.621-1-1.225-1h-4.5c-.603 0-1.107.43-1.224 1z"/></g><g><path d="m17.25 23.25h1.5v3.5h-1.5z"/></g><g><path d="m18 24c-.081 0-.161-.013-.239-.039-.315-.106-7.719-2.67-7.761-8.956v-7.284c0-.95.771-1.721 1.717-1.721h12.566c.946 0 1.717.771 1.717 1.721v1.819h-1.5v-1.819c0-.122-.098-.221-.217-.221h-12.566c-.119 0-.217.099-.217.221v7.279c.031 4.639 5.304 6.979 6.501 7.449 1.2-.47 6.499-2.809 6.499-7.449v-4.25h1.5v4.25c0 6.291-7.445 8.855-7.762 8.961-.077.026-.158.039-.238.039z"/></g></svg>