<svg id="LINE" enable-background="new 0 0 36 36" height="512" viewBox="0 0 36 36" width="512" xmlns="http://www.w3.org/2000/svg"><g><path d="m34.904 20.355c-3.782-5.791-3.38-11.727-5.203-14.518s-7.256-7.603-20.093.782-9.572 17.5-7.566 20.569c9.388 14.372 39.561 3.423 32.862-6.833z" fill="#efefef"/></g><g><path d="m19.955 3.5h2v1h-2z" fill="#a4afc1"/></g><g><path d="m14.205 3.5h2v1h-2z" fill="#a4afc1"/></g><g><path d="m17.705 0h1v2h-1z" fill="#a4afc1"/></g><g><path d="m6.75 30.75c-.827 0-1.5-.673-1.5-1.5s.673-1.5 1.5-1.5 1.5.673 1.5 1.5-.673 1.5-1.5 1.5zm0-2c-.276 0-.5.225-.5.5s.224.5.5.5.5-.225.5-.5-.224-.5-.5-.5z" fill="#a4afc1"/></g><g><path d="m23.25 29.25h-10.5c-1.105 0-2-.895-2-2v-18.5c0-1.105.895-2 2-2h10.5c1.105 0 2 .895 2 2v18.5c0 1.105-.895 2-2 2z" fill="#f3f3f1"/></g><g><path d="m12.75 27.25v-18.5c0-1.105.895-2 2-2h-2c-1.105 0-2 .895-2 2v18.5c0 1.105.895 2 2 2h2c-1.105 0-2-.895-2-2z" fill="#d5dbe1"/></g><g><path d="m14.489 21.25-.739-4.334 2.402 1.178 1.848-3.344 1.848 3.344 2.402-1.178-.739 4.334z" fill="#2fdf84"/></g><g><path d="m12.75 6.75h.5c.828 0 1.5.672 1.5 1.5 0 .552.448 1 1 1h4.5c.552 0 1-.448 1-1 0-.828.672-1.5 1.5-1.5h.5z" fill="#2fdf84"/></g><g><path d="m20.797 9.25h-5.607c-.247 0-.446-.2-.446-.446v-1.608c0-.247.2-.446.446-.446h5.607c.247 0 .446.2.446.446v1.607c0 .247-.2.447-.446.447z" fill="#2fdf84"/></g><g><path d="m16.743 8.804v-1.608c0-.247.2-.446.446-.446h-2c-.247 0-.446.2-.446.446v1.607c0 .247.2.446.446.446h2c-.246.001-.446-.199-.446-.445z" fill="#00b871"/></g><g><path d="m13.75 16.916.739 4.334h2l-.557-3.264z" fill="#00b871"/></g><g><path d="m21.511 22h-7.021c-.366 0-.678-.264-.739-.624l-.739-4.334c-.047-.277.064-.558.29-.727.226-.168.527-.195.779-.073l1.761.864 1.502-2.719c.264-.479 1.049-.479 1.312 0l1.502 2.719 1.761-.864c.253-.122.553-.095.779.073.226.169.337.449.29.727l-.739 4.334c-.061.36-.373.624-.738.624zm-6.389-1.5h5.756l.386-2.266-1.086.533c-.36.176-.793.039-.986-.312l-1.192-2.154-1.191 2.155c-.193.351-.628.487-.986.312l-1.086-.533z"/></g><g><path d="m20.25 10h-4.5c-.965 0-1.75-.785-1.75-1.75 0-.413-.336-.75-.75-.75h-.5v-1.5h.5c1.241 0 2.25 1.01 2.25 2.25 0 .138.112.25.25.25h4.5c.138 0 .25-.112.25-.25 0-1.24 1.009-2.25 2.25-2.25h.5v1.5h-.5c-.414 0-.75.337-.75.75 0 .965-.785 1.75-1.75 1.75z"/></g><g><path d="m23.25 30h-10.5c-1.517 0-2.75-1.233-2.75-2.75v-18.5c0-1.517 1.233-2.75 2.75-2.75h10.5c1.517 0 2.75 1.233 2.75 2.75v4.295h-1.5v-4.295c0-.689-.561-1.25-1.25-1.25h-10.5c-.689 0-1.25.561-1.25 1.25v18.5c0 .689.561 1.25 1.25 1.25h10.5c.689 0 1.25-.561 1.25-1.25v-11.506h1.5v11.506c0 1.517-1.233 2.75-2.75 2.75z"/></g></svg>