<svg id="LINE" enable-background="new 0 0 36 36" height="512" viewBox="0 0 36 36" width="512" xmlns="http://www.w3.org/2000/svg"><g><path d="m13.411 34.999c6.298-2.859 12.105-1.559 15.14-2.936 3.035-1.378 8.617-6.016 2.28-19.978s-15.841-12.12-19.18-10.605c-15.632 7.095-9.395 38.582 1.76 33.519z" fill="#efefef"/></g><g><path d="m28.279 4.301h2v1h-2z" fill="#a4afc1" transform="matrix(.029 -1 1 .029 23.623 33.927)"/></g><g><path d="m31.448 6.631h1v2h-1z" fill="#a4afc1" transform="matrix(.029 -1 1 .029 23.384 39.341)"/></g><g><path d="m3.402 32.5c-.827 0-1.5-.673-1.5-1.5s.673-1.5 1.5-1.5 1.5.673 1.5 1.5-.673 1.5-1.5 1.5zm0-2c-.275 0-.5.225-.5.5s.225.5.5.5.5-.225.5-.5-.224-.5-.5-.5z" fill="#a4afc1"/></g><g><path d="m27.25 29.25h-18.531c-1.105 0-2-.895-2-2v-12.5h22.531v12.5c0 1.105-.895 2-2 2z" fill="#f3f3f1"/></g><g><path d="m14.489 24.249-.739-4.333 2.402 1.178 1.848-3.345 1.848 3.345 2.402-1.178-.739 4.333z" fill="#2fdf84"/></g><g><path d="m29.25 14.75h-22.531v-4c0-1.105.895-2 2-2h18.531c1.105 0 2 .895 2 2z" fill="#2fdf84"/></g><g><path d="m10.719 8.75h-2c-1.105 0-2 .895-2 2v4h2v-4c0-1.105.895-2 2-2z" fill="#00b871"/></g><g><path d="m8.719 27.25v-12.5h-2v12.5c0 1.105.895 2 2 2h2c-1.105 0-2-.895-2-2z" fill="#d5dbe1"/></g><g><path d="m13.75 19.916.739 4.333h2l-.557-3.263z" fill="#00b871"/></g><g><path d="m21.511 24.999h-7.021c-.365 0-.678-.264-.739-.624l-.739-4.333c-.048-.277.064-.558.29-.727.225-.169.526-.196.779-.073l1.761.863 1.503-2.719c.264-.479 1.049-.479 1.312 0l1.503 2.719 1.761-.863c.253-.123.555-.096.779.073.226.169.338.449.29.727l-.739 4.333c-.063.36-.375.624-.74.624zm-6.389-1.5h5.756l.387-2.265-1.087.533c-.363.176-.795.038-.986-.312l-1.192-2.155-1.191 2.156c-.192.35-.624.487-.986.312l-1.087-.533z"/></g><g><path d="m27.25 30h-18.5c-1.517 0-2.75-1.233-2.75-2.75v-16.5c0-1.517 1.233-2.75 2.75-2.75h18.5c1.517 0 2.75 1.233 2.75 2.75v16.5c0 1.517-1.233 2.75-2.75 2.75zm-18.5-20.5c-.689 0-1.25.561-1.25 1.25v16.5c0 .689.561 1.25 1.25 1.25h18.5c.689 0 1.25-.561 1.25-1.25v-16.5c0-.689-.561-1.25-1.25-1.25z"/></g><g><path d="m11 6.75h1.5v4.5h-1.5z"/></g><g><path d="m23.5 6.75h1.5v4.5h-1.5z"/></g><g><path d="m25.783 14h3.467v1.5h-3.467z"/></g><g><path d="m6.75 14h16.358v1.5h-16.358z"/></g></svg>