<svg id="LINE" enable-background="new 0 0 36 36" height="512" viewBox="0 0 36 36" width="512" xmlns="http://www.w3.org/2000/svg"><g><path d="m27.417 3.914c-6.915.129-11.732-3.365-15.064-3.302s-10.296 2.109-10.009 17.44 9.744 17.404 13.41 17.336c17.163-.321 23.911-31.703 11.663-31.474z" fill="#efefef"/></g><g><path d="m19.875 3.5h2v1h-2z" fill="#a4afc1"/></g><g><path d="m14.125 3.5h2v1h-2z" fill="#a4afc1"/></g><g><path d="m17.625 0h1v2h-1z" fill="#a4afc1"/></g><g><path d="m33.665 29.75c-.827 0-1.5-.673-1.5-1.5s.673-1.5 1.5-1.5 1.5.673 1.5 1.5-.673 1.5-1.5 1.5zm0-2c-.276 0-.5.225-.5.5s.224.5.5.5.5-.225.5-.5-.225-.5-.5-.5z" fill="#a4afc1"/></g><g><path d="m27.568 29.25h-19.136c-.929 0-1.682-.753-1.682-1.682v-12.818h22.5v12.818c0 .929-.753 1.682-1.682 1.682z" fill="#f3f3f1"/></g><g><circle cx="18" cy="20" fill="#2fdf84" r="3.25"/></g><g><path d="m19.75 22.739v4.511l-1.75-1.298-1.75 1.298v-4.473z" fill="#f3f3f1"/></g><g><path d="m29.25 14.75h-22.5v-3.968c0-1.122.91-2.032 2.032-2.032h18.7c.977 0 1.769.792 1.769 1.769v4.231z" fill="#2fdf84"/></g><g><path d="m10.782 8.75h-2c-1.122 0-2.032.91-2.032 2.032v3.968h2v-3.968c0-1.122.91-2.032 2.032-2.032z" fill="#00b871"/></g><g><path d="m8.75 27.568v-12.818h-2v12.818c0 .929.753 1.682 1.682 1.682h2c-.929 0-1.682-.753-1.682-1.682z" fill="#d5dbe1"/></g><g><path d="m16.75 20c0-1.444.948-2.653 2.25-3.077-.317-.103-.649-.173-1-.173-1.795 0-3.25 1.455-3.25 3.25s1.455 3.25 3.25 3.25c.351 0 .683-.07 1-.173-1.302-.424-2.25-1.633-2.25-3.077z" fill="#00b871"/></g><g><path d="m27.25 30h-18.5c-1.517 0-2.75-1.233-2.75-2.75v-16.5c0-1.517 1.233-2.75 2.75-2.75h18.5c1.517 0 2.75 1.233 2.75 2.75v16.5c0 1.517-1.233 2.75-2.75 2.75zm-18.5-20.5c-.689 0-1.25.561-1.25 1.25v16.5c0 .689.561 1.25 1.25 1.25h18.5c.689 0 1.25-.561 1.25-1.25v-16.5c0-.689-.561-1.25-1.25-1.25z"/></g><g><path d="m25.783 14h3.467v1.5h-3.467z"/></g><g><path d="m6.75 14h16.359v1.5h-16.359z"/></g><g><path d="m11 6.75h1.5v4.5h-1.5z"/></g><g><path d="m23.5 6.75h1.5v4.5h-1.5z"/></g><g><path d="m18 24c-2.206 0-4-1.794-4-4s1.794-4 4-4 4 1.794 4 4-1.794 4-4 4zm0-6.5c-1.378 0-2.5 1.121-2.5 2.5s1.122 2.5 2.5 2.5 2.5-1.121 2.5-2.5-1.122-2.5-2.5-2.5z"/></g><g><path d="m19.75 28c-.158 0-.315-.05-.447-.147l-1.303-.967-1.303.967c-.228.17-.53.195-.784.067-.253-.127-.413-.387-.413-.67v-4.473h1.5v2.982l.553-.41c.266-.197.628-.197.894 0l.553.411v-3.021h1.5v4.512c0 .283-.16.543-.413.67-.107.053-.222.079-.337.079z"/></g></svg>