<svg id="LINE" enable-background="new 0 0 36 36" height="512" viewBox="0 0 36 36" width="512" xmlns="http://www.w3.org/2000/svg"><g><path d="m34.904 20.355c-3.782-5.791-3.38-11.727-5.203-14.518s-7.256-7.603-20.093.782-9.572 17.5-7.566 20.569c9.388 14.372 39.561 3.423 32.862-6.833z" fill="#efefef"/></g><g><path d="m6.765 5.19h2v1h-2z" fill="#a4afc1" transform="matrix(.707 -.707 .707 .707 -1.749 7.157)"/></g><g><path d="m2.699 9.255h2v1h-2z" fill="#a4afc1" transform="matrix(.707 -.707 .707 .707 -5.814 5.473)"/></g><g><path d="m3.199 4.513h1v2h-1z" fill="#a4afc1" transform="matrix(.707 -.707 .707 .707 -2.815 4.23)"/></g><g><path d="m32.46 31.204c-.827 0-1.5-.673-1.5-1.5s.673-1.5 1.5-1.5 1.5.673 1.5 1.5-.673 1.5-1.5 1.5zm0-2c-.275 0-.5.225-.5.5s.225.5.5.5.5-.225.5-.5-.225-.5-.5-.5z" fill="#a4afc1"/></g><g><path d="m27.568 29.25h-19.136c-.929 0-1.682-.753-1.682-1.682v-12.818h22.5v12.818c0 .929-.753 1.682-1.682 1.682z" fill="#f3f3f1"/></g><g><path d="m8.75 27.568v-12.818h-2v12.818c0 .929.753 1.682 1.682 1.682h2c-.929 0-1.682-.753-1.682-1.682z" fill="#d5dbe1"/></g><g><circle cx="17.993" cy="19.999" fill="#2fdf84" r="3.25"/></g><g><path d="m15.813 22.42-2.063 3.51 1.613-.101.713 1.421 1.922-3.264z" fill="#2fdf84"/></g><g><path d="m20.181 22.408 2.069 3.522-1.613-.101-.717 1.421-1.922-3.264-.439-.761z" fill="#2fdf84"/></g><g><path d="m29.25 14.75h-22.5v-3.968c0-1.122.91-2.032 2.032-2.032h18.7c.977 0 1.769.792 1.769 1.769v4.231z" fill="#2fdf84"/></g><g><path d="m10.782 8.75h-2c-1.122 0-2.032.91-2.032 2.032v3.968h2v-3.968c0-1.122.91-2.032 2.032-2.032z" fill="#00b871"/></g><g><path d="m16.743 19.999c0-1.444.948-2.653 2.25-3.077-.317-.103-.649-.173-1-.173-1.795 0-3.25 1.455-3.25 3.25s1.455 3.25 3.25 3.25c.351 0 .683-.07 1-.173-1.302-.423-2.25-1.633-2.25-3.077z" fill="#00b871"/></g><g><path d="m27.25 30h-18.5c-1.517 0-2.75-1.233-2.75-2.75v-16.5c0-1.517 1.233-2.75 2.75-2.75h18.5c1.517 0 2.75 1.233 2.75 2.75v16.5c0 1.517-1.233 2.75-2.75 2.75zm-18.5-20.5c-.689 0-1.25.561-1.25 1.25v16.5c0 .689.561 1.25 1.25 1.25h18.5c.689 0 1.25-.561 1.25-1.25v-16.5c0-.689-.561-1.25-1.25-1.25z"/></g><g><path d="m11 6.75h1.5v4.5h-1.5z"/></g><g><path d="m23.5 6.75h1.5v4.5h-1.5z"/></g><g><path d="m17.993 23.999c-2.206 0-4-1.794-4-4s1.794-4 4-4 4 1.794 4 4-1.794 4-4 4zm0-6.5c-1.379 0-2.5 1.121-2.5 2.5s1.121 2.5 2.5 2.5 2.5-1.121 2.5-2.5-1.121-2.5-2.5-2.5z"/></g><g><path d="m16.075 28c-.009 0-.017 0-.025 0-.274-.01-.522-.168-.646-.414l-.489-.978-1.118.07c-.274.02-.54-.12-.686-.356s-.148-.533-.008-.772l2.063-3.51 1.293.76-1.349 2.294.205-.014c.297-.02.583.145.718.413l.094.188 1.224-2.077 1.293.762-1.923 3.265c-.135.229-.381.369-.646.369z"/></g><g><path d="m19.92 28c-.265 0-.512-.14-.646-.369l-2.364-4.029 1.299-.752 1.661 2.836.098-.194c.135-.268.415-.428.717-.411l.205.014-1.354-2.306 1.293-.76 2.069 3.521c.141.239.138.536-.008.772-.145.236-.407.376-.686.356l-1.119-.07-.494.979c-.124.245-.371.402-.646.412-.008.001-.017.001-.025.001z"/></g><g><path d="m25.783 14h3.467v1.5h-3.467z"/></g><g><path d="m6.75 14h16.358v1.5h-16.358z"/></g></svg>