<svg id="LINE" enable-background="new 0 0 36 36" height="512" viewBox="0 0 36 36" width="512" xmlns="http://www.w3.org/2000/svg"><g><path d="m27.417 3.914c-6.915.129-11.732-3.365-15.064-3.302s-10.296 2.109-10.009 17.44 9.744 17.404 13.41 17.336c17.163-.321 23.911-31.703 11.663-31.474z" fill="#efefef"/></g><g><path d="m33.092 12.554c-.827 0-1.5-.673-1.5-1.5s.673-1.5 1.5-1.5 1.5.673 1.5 1.5-.673 1.5-1.5 1.5zm0-2c-.275 0-.5.225-.5.5s.225.5.5.5.5-.225.5-.5-.225-.5-.5-.5z" fill="#a4afc1"/></g><g><path d="m3.494 4.199h1v2h-1z" fill="#a4afc1"/></g><g><path d="m3.494 9.949h1v2h-1z" fill="#a4afc1"/></g><g><path d="m-.006 7.449h2v1h-2z" fill="#a4afc1"/></g><g><path d="m5.744 7.449h2v1h-2z" fill="#a4afc1"/></g><g><path d="m6.75 10.75h22.5v12h-22.5z" fill="#f3f3f1"/></g><g><path d="m19.75 26.25s.245 1.765 1.48 3h.02-6.5c1.25-1.25 1.48-3 1.48-3z" fill="#2fdf84"/></g><g><path d="m6.75 22.75h22.5v3.5h-22.5z" fill="#2fdf84"/></g><g><path d="m6.75 22.75h2v3.5h-2z" fill="#00b871"/></g><g><path d="m6.75 10.75h2v12h-2z" fill="#d5dbe1"/></g><g><path d="m16.23 26.25s-.23 1.75-1.48 3h2c1.25-1.25 1.48-3 1.48-3z" fill="#00b871"/></g><g><circle cx="18" cy="10" fill="#2fdf84" r="3.25"/></g><g><path d="m19.75 12.739v4.511l-1.75-1.298-1.75 1.298v-4.473z" fill="#2fdf84"/></g><g><path d="m16.75 10c0-1.444.948-2.653 2.25-3.077-.317-.103-.649-.173-1-.173-1.795 0-3.25 1.455-3.25 3.25s1.455 3.25 3.25 3.25c.351 0 .683-.07 1-.173-1.302-.424-2.25-1.633-2.25-3.077z" fill="#00b871"/></g><g><path d="m28.25 27h-20.5c-.965 0-1.75-.785-1.75-1.75v-13.5c0-.965.785-1.75 1.75-1.75h3.5v1.5h-3.5c-.138 0-.25.112-.25.25v13.5c0 .138.112.25.25.25h20.5c.138 0 .25-.112.25-.25v-13.5c0-.138-.112-.25-.25-.25h-3.5v-1.5h3.5c.965 0 1.75.785 1.75 1.75v13.5c0 .965-.785 1.75-1.75 1.75z"/></g><g><path d="m21.25 30h-6.5c-.304 0-.577-.183-.693-.463-.115-.28-.052-.603.163-.817 1.046-1.046 1.266-2.555 1.268-2.57l1.486.198c-.007.059-.147 1.066-.743 2.152h3.522c-.591-1.08-.737-2.088-.746-2.146l1.485-.209c.003.015.223 1.459 1.186 2.489.195.136.322.361.322.616 0 .414-.336.75-.75.75z"/></g><g><path d="m18 14c-2.206 0-4-1.794-4-4s1.794-4 4-4 4 1.794 4 4-1.794 4-4 4zm0-6.5c-1.379 0-2.5 1.121-2.5 2.5s1.121 2.5 2.5 2.5 2.5-1.121 2.5-2.5-1.121-2.5-2.5-2.5z"/></g><g><path d="m19.75 18c-.158 0-.315-.05-.446-.147l-1.304-.967-1.304.967c-.227.169-.531.194-.783.067-.253-.127-.413-.387-.413-.67v-4.473h1.5v2.982l.554-.41c.264-.197.629-.197.893 0l.553.411v-3.021h1.5v4.512c0 .283-.16.543-.413.67-.107.053-.222.079-.337.079z"/></g><g><path d="m25.211 22h4.039v1.5h-4.039z"/></g><g><path d="m6.75 22h15.323v1.5h-15.323z"/></g></svg>