<svg id="LINE" enable-background="new 0 0 36 36" height="512" viewBox="0 0 36 36" width="512" xmlns="http://www.w3.org/2000/svg"><g><path d="m8.377 4.167c6.917 0 11.667-3.583 15-3.583s10.333 1.916 10.333 17.249-9.417 17.583-13.083 17.583c-17.167.001-24.5-31.249-12.25-31.249z" fill="#efefef"/></g><g><path d="m9.703 2.815h2v1h-2z" fill="#a4afc1" transform="matrix(.707 -.707 .707 .707 .791 8.539)"/></g><g><path d="m5.638 6.881h2v1h-2z" fill="#a4afc1" transform="matrix(.707 -.707 .707 .707 -3.275 6.855)"/></g><g><path d="m6.138 2.138h1v2h-1z" fill="#a4afc1" transform="matrix(.707 -.707 .707 .707 -.275 5.613)"/></g><g><path d="m33.71 14.583c-.827 0-1.5-.673-1.5-1.5s.673-1.5 1.5-1.5 1.5.673 1.5 1.5-.673 1.5-1.5 1.5zm0-2c-.275 0-.5.225-.5.5s.225.5.5.5.5-.225.5-.5-.225-.5-.5-.5z" fill="#a4afc1"/></g><g><path d="m18 28.25 11.25-13.334-3.944-7.166h-7.304-7.308l-3.944 7.166z" fill="#2fdf84"/></g><g><path d="m13 15 5-7.25 5 7.25z" fill="#2fdf84"/></g><g><path d="m6.75 15h22.5z" fill="#2fdf84"/></g><g><path d="m25.306 7.75-7.306 20.5-7.306-20.5z" fill="#2fdf84"/></g><g><path d="m8.75 14.916 3.944-7.166h-2l-3.944 7.166 11.25 13.334 1-1.185z" fill="#00b871"/></g><g><path d="m18 29c-.221 0-.431-.098-.573-.267l-11.25-13.334c-.2-.237-.233-.573-.084-.845l3.943-7.166c.132-.24.384-.388.657-.388h14.613c.273 0 .525.148.657.389l3.943 7.166c.149.271.116.607-.084.845l-11.25 13.334c-.141.168-.351.266-.572.266zm-10.345-14.174 10.345 12.261 10.345-12.261-3.482-6.326h-13.726z"/></g><g><path d="m22.383 15.426-4.383-6.355-4.383 6.354-1.234-.852 5-7.25c.279-.406.955-.406 1.234 0l5 7.25z"/></g><g><path d="m6.75 14.25h22.5v1.5h-22.5z"/></g><g><path d="m18 29c-.317 0-.6-.199-.706-.498l-7.307-20.5 1.412-.504 6.601 18.518 2.381-6.68 1.412.504-3.087 8.662c-.106.299-.389.498-.706.498z"/></g><g><path d="m18.039 12.125h10.882v1.499h-10.882z" transform="matrix(.336 -.942 .942 .336 3.463 30.662)"/></g></svg>