<svg id="LINE" enable-background="new 0 0 36 36" height="512" viewBox="0 0 36 36" width="512" xmlns="http://www.w3.org/2000/svg"><g><path d="m34.904 20.355c-3.782-5.791-3.38-11.727-5.203-14.518s-7.256-7.603-20.093.782-9.572 17.5-7.566 20.569c9.388 14.372 39.561 3.423 32.862-6.833z" fill="#efefef"/></g><g><path d="m29.245 9.233h1v2h-1z" fill="#a4afc1" transform="matrix(.707 -.707 .707 .707 1.477 24.03)"/></g><g><path d="m25.179 5.166h1v2h-1z" fill="#a4afc1" transform="matrix(.707 -.707 .707 .707 3.156 19.956)"/></g><g><path d="m28.922 5.667h2v1h-2z" fill="#a4afc1" transform="matrix(.707 -.707 .707 .707 4.404 22.964)"/></g><g><path d="m6.418 9.81c-.827 0-1.5-.673-1.5-1.5s.673-1.5 1.5-1.5 1.5.673 1.5 1.5-.672 1.5-1.5 1.5zm0-2c-.276 0-.5.225-.5.5s.224.5.5.5.5-.225.5-.5-.224-.5-.5-.5z" fill="#a4afc1"/></g><g><path d="m26.25 18.75v8.591c0 1.054-.448 1.909-1 1.909h-7.25-7.25c-.552 0-1-.855-1-1.909v-8.591z" fill="#2fdf84"/></g><g><path d="m18 15.268 5.25-5.665-2.199-2.835h-6.102l-2.199 2.835z" fill="#2fdf84"/></g><g><path d="m11.75 27.341v-8.591h-2v8.591c0 1.054.448 1.909 1 1.909h2c-.552 0-1-.855-1-1.909z" fill="#00b871"/></g><g><path d="m29.25 23.75h-7.684c-.351 0-.677-.184-.857-.486l-2.709-4.514h8.25z" fill="#f3f3f1"/></g><g><path d="m6.75 23.75h7.684c.351 0 .677-.184.857-.486l2.709-4.514h-8.25z" fill="#f3f3f1"/></g><g><path d="m14.75 9.603 2.199-2.835h-2l-2.199 2.835 5.25 5.665 1-1.079z" fill="#00b871"/></g><g><path d="m9.75 18.75-3 5h2l3-5z" fill="#d5dbe1"/></g><g><path d="m22.709 23.264-2.709-4.514h-2l2.709 4.514c.181.301.506.486.857.486h2c-.351 0-.677-.184-.857-.486z" fill="#d5dbe1"/></g><g><path d="m9.75 18h16.5v1.5h-16.5z"/></g><g><path d="m20.783 30h-10.033c-.965 0-1.75-.785-1.75-1.75v-4.5h1.5v4.5c0 .138.112.25.25.25h10.033z"/></g><g><path d="m25.25 30h-2.461v-1.5h2.461c.138 0 .25-.112.25-.25v-4.5h1.5v4.5c0 .965-.785 1.75-1.75 1.75z"/></g><g><path d="m17.25 18.75h1.5v10.5h-1.5z"/></g><g><path d="m29.25 24.5h-7.684c-.61 0-1.185-.325-1.5-.849l-2.709-4.516c-.139-.231-.143-.521-.01-.755s.383-.38.653-.38h8.25c.264 0 .508.139.643.364l3 5c.139.231.143.521.01.755-.133.235-.383.381-.653.381zm-9.925-5 2.027 3.379c.044.074.127.121.214.121h6.359l-2.1-3.5z"/></g><g><path d="m14.434 24.5h-7.684c-.27 0-.52-.146-.653-.381-.133-.234-.129-.523.01-.755l3-5c.135-.225.379-.364.643-.364h8.25c.27 0 .52.146.653.381.133.234.129.523-.01.755l-2.708 4.515c-.316.524-.891.849-1.501.849zm-6.359-1.5h6.359c.087 0 .17-.047.215-.122l2.026-3.378h-6.5z"/></g><g><path d="m18 16.018c-.209 0-.408-.087-.55-.24l-5.25-5.665c-.25-.27-.267-.68-.042-.97l2.199-2.835c.142-.183.361-.29.593-.29h6.103c.232 0 .451.107.593.29l2.199 2.835c.225.29.207.7-.042.97l-5.25 5.665c-.145.153-.344.24-.553.24zm-4.268-6.458 4.268 4.604 4.268-4.604-1.584-2.042h-5.367z"/></g><g><path d="m12.75 8.853h10.5v1.5h-10.5z"/></g><g><path d="m17.25 6.768h1.5v8.5h-1.5z"/></g></svg>