<svg id="LINE" enable-background="new 0 0 36 36" height="512" viewBox="0 0 36 36" width="512" xmlns="http://www.w3.org/2000/svg"><g><path d="m8.114 5.564c-1.805 6.677-6.504 10.327-7.374 13.545s-.847 10.475 13.955 14.477 19.432-4.501 20.388-8.041c4.481-16.572-23.772-31.807-26.969-19.981z" fill="#efefef"/></g><g><path d="m4.75 32.855c-.827 0-1.5-.673-1.5-1.5s.673-1.5 1.5-1.5 1.5.673 1.5 1.5-.673 1.5-1.5 1.5zm0-2c-.276 0-.5.225-.5.5s.224.5.5.5.5-.225.5-.5-.224-.5-.5-.5z" fill="#a4afc1"/></g><g><path d="m33 3.5h2v1h-2z" fill="#a4afc1"/></g><g><path d="m27.25 3.5h2v1h-2z" fill="#a4afc1"/></g><g><path d="m30.75 0h1v2h-1z" fill="#a4afc1"/></g><g><path d="m30.75 5.75h1v2h-1z" fill="#a4afc1"/></g><g><path d="m8.75 18.5-2 4.749h22.5l-2-4.749z" fill="#f3f3f1"/></g><g><path d="m6.75 23.25v4c0 1.105.895 2 2 2h18.5c1.105 0 2-.895 2-2v-4.001.001h-17.73z" fill="#2fdf84"/></g><g><path d="m29.25 11.75h-22.5v-3c0-1.105.895-2 2-2h18.5c1.105 0 2 .895 2 2z" fill="#2fdf84"/></g><g><path d="m8.75 18.5-2 4.749z" fill="#2fdf84"/></g><g><path d="m29.25 23.249-2-4.749z" fill="#2fdf84"/></g><g><path d="m8.75 18.5-2-6.75z" fill="#2fdf84"/></g><g><path d="m29.25 11.75-2 6.75z" fill="#2fdf84"/></g><g><path d="m18.002 20.25 3.248-3.513-1.361-1.987h-3.778l-1.361 1.987z" fill="#2fdf84"/></g><g><path d="m10.75 6.75h-2c-1.105 0-2 .895-2 2v3h2v-3c0-1.105.895-2 2-2z" fill="#00b871"/></g><g><path d="m8.75 27.25v-4h-2v4c0 1.105.895 2 2 2h2c-1.105 0-2-.895-2-2z" fill="#00b871"/></g><g><path d="m6.75 11.75 2 6.75h2l-2-6.75z" fill="#d5dbe1"/></g><g><path d="m8.75 18.5-2 4.749h2l2-4.749z" fill="#d5dbe1"/></g><g><path d="m16.75 16.737 1.361-1.987h-2l-1.361 1.987 3.252 3.513.999-1.081z" fill="#00b871"/></g><g><path d="m27.25 30h-18.5c-1.517 0-2.75-1.233-2.75-2.75v-4c0-.414.336-.75.75-.75h22.5c.414 0 .75.336.75.75v4c0 1.517-1.233 2.75-2.75 2.75zm-19.75-6v3.25c0 .689.561 1.25 1.25 1.25h18.5c.689 0 1.25-.561 1.25-1.25v-3.251z"/></g><g><path d="m29.25 12.5h-22.5c-.414 0-.75-.336-.75-.75v-3c0-1.517 1.233-2.75 2.75-2.75h2.96v1.5h-2.96c-.689 0-1.25.561-1.25 1.25v2.25h21v-2.25c0-.689-.561-1.25-1.25-1.25h-12.965v-1.5h12.965c1.517 0 2.75 1.233 2.75 2.75v3c0 .414-.336.75-.75.75z"/></g><g><path d="m29.25 23.999h-22.5c-.251 0-.486-.126-.625-.335-.139-.21-.164-.475-.066-.706l2-4.749 1.383.582-1.562 3.708h20.24l-1.562-3.708 1.383-.582 2 4.749c.097.231.072.496-.066.706-.139.209-.374.335-.625.335z"/></g><g><path d="m7 11.605h1.5v7.04h-1.5z" transform="matrix(.959 -.284 .284 .959 -3.978 2.825)"/></g><g><path d="m24.73 14.375h7.04v1.5h-7.04z" transform="matrix(.284 -.959 .959 .284 5.729 37.921)"/></g><g><path d="m14.769 19.5h6.462v1.5h-6.462z"/></g><g><path d="m27.25 19.25h-3.5v-1.5h2.94l1.556-5.25h-20.492l1.556 5.25h2.94v1.5h-3.5c-.332 0-.625-.219-.719-.537l-2-6.75c-.067-.227-.023-.472.118-.661.142-.191.364-.302.601-.302h22.5c.237 0 .459.111.601.302.142.189.185.435.118.661l-2 6.75c-.094.318-.387.537-.719.537z"/></g><g><path d="m18.002 21c-.209 0-.408-.087-.55-.24l-3.252-3.514c-.238-.258-.266-.645-.068-.934l1.361-1.986c.139-.204.371-.326.618-.326h3.777c.248 0 .479.122.619.326l1.361 1.986c.198.289.17.676-.068.933l-3.248 3.514c-.141.154-.341.241-.55.241zm-2.295-4.334 2.294 2.479 2.292-2.479-.799-1.166h-2.987z"/></g></svg>