<svg id="LINE" enable-background="new 0 0 36 36" height="512" viewBox="0 0 36 36" width="512" xmlns="http://www.w3.org/2000/svg"><g><path d="m34.904 20.355c-3.782-5.791-3.38-11.727-5.203-14.518s-7.256-7.603-20.093.782-9.572 17.5-7.566 20.569c9.388 14.372 39.561 3.423 32.862-6.833z" fill="#efefef"/></g><g><path d="m7.783 8.548h2v1h-2z" fill="#a4afc1" transform="matrix(.707 -.707 .707 .707 -3.825 8.861)"/></g><g><path d="m3.717 12.614h2v1h-2z" fill="#a4afc1" transform="matrix(.707 -.707 .707 .707 -7.892 7.177)"/></g><g><path d="m4.217 7.871h1v2h-1z" fill="#a4afc1" transform="matrix(.707 -.707 .707 .707 -4.892 5.935)"/></g><g><path d="m24.75 20.5c-.827 0-1.5-.673-1.5-1.5s.673-1.5 1.5-1.5 1.5.673 1.5 1.5-.673 1.5-1.5 1.5zm0-2c-.276 0-.5.225-.5.5s.224.5.5.5.5-.225.5-.5-.224-.5-.5-.5z" fill="#a4afc1"/></g><g><path d="m24.359 25.25 4.891-5.806-1.957-5.878-3.524 2.081-5.925 9.603z" fill="#f3f3f1"/></g><g><path d="m27.5 29.25h-19c-.966 0-1.75-.784-1.75-1.75 0-.966.784-1.75 1.75-1.75h19c.966 0 1.75.784 1.75 1.75 0 .967-.784 1.75-1.75 1.75z" fill="#f3f3f1"/></g><g><path d="m12.231 15.647-3.524-2.081-1.957 5.878 4.891 5.806h4.484l-2.906-9z" fill="#f3f3f1"/></g><g><path d="m10.378 14.553-1.671-.987-1.957 5.878 4.891 5.806h2l-4.891-5.806z" fill="#d5dbe1"/></g><g><path d="m27.294 13.566-1.672.987 1.628 4.891-4.891 5.806h2l4.891-5.806z" fill="#d5dbe1"/></g><g><path d="m15.065 25.25-3.741-12.675c-.105-.366.014-.759.304-1.007l5.098-4.349c.733-.625 1.814-.625 2.547 0l5.098 4.349c.29.248.409.641.304 1.007l-3.74 12.675z" fill="#2fdf84"/></g><g><circle cx="18" cy="14" fill="#f3f3f1" r="2.25"/></g><g><path d="m13.629 11.568 5.098-4.349c.086-.074.178-.137.273-.194-.71-.421-1.627-.358-2.273.193l-5.098 4.349c-.29.248-.409.641-.304 1.007l3.741 12.675h2l-3.741-12.675c-.106-.365.013-.758.304-1.006z" fill="#00b871"/></g><g><path d="m17.75 14c0-.881.512-1.637 1.25-2.006-.302-.151-.639-.244-1-.244-1.243 0-2.25 1.007-2.25 2.25s1.007 2.25 2.25 2.25c.361 0 .698-.093 1-.244-.738-.369-1.25-1.125-1.25-2.006z" fill="#d5dbe1"/></g><g><path d="m8.75 27.5c0-.966.784-1.75 1.75-1.75h-2c-.966 0-1.75.784-1.75 1.75s.784 1.75 1.75 1.75h2c-.966 0-1.75-.784-1.75-1.75z" fill="#d5dbe1"/></g><g><path d="m19.131 22.088h5.031v1.5h-5.031z" transform="matrix(.283 -.959 .959 .283 -6.378 37.147)"/></g><g><path d="m14.346 25.462-3.741-12.675c-.188-.652.024-1.353.537-1.79l5.098-4.349c1.021-.871 2.5-.871 3.521 0l5.098 4.35c.512.437.724 1.137.538 1.784l-1.856 6.289-1.438-.424 1.854-6.284c.022-.078-.005-.168-.071-.224l-5.099-4.351c-.456-.389-1.117-.389-1.573 0l-5.098 4.35c-.066.057-.093.146-.069.229l3.739 12.67z"/></g><g><path d="m11.067 25.733-4.891-5.806c-.168-.2-.22-.473-.138-.721l1.957-5.879c.071-.215.236-.386.449-.465.211-.08.449-.06.644.057l3.524 2.081-.763 1.291-2.725-1.608-1.531 4.599 4.621 5.484z"/></g><g><path d="m18 17c-1.654 0-3-1.346-3-3s1.346-3 3-3 3 1.346 3 3-1.346 3-3 3zm0-4.5c-.827 0-1.5.673-1.5 1.5s.673 1.5 1.5 1.5 1.5-.673 1.5-1.5-.673-1.5-1.5-1.5z"/></g><g><path d="m24.933 25.733-1.147-.967 4.621-5.484-1.531-4.599-2.725 1.608-.763-1.291 3.524-2.081c.195-.116.433-.137.644-.057.212.079.377.25.449.465l1.957 5.879c.083.248.03.521-.138.721z"/></g><g><path d="m27.5 30h-19c-1.378 0-2.5-1.121-2.5-2.5s1.122-2.5 2.5-2.5h19c1.378 0 2.5 1.121 2.5 2.5s-1.122 2.5-2.5 2.5zm-19-3.5c-.551 0-1 .448-1 1s.449 1 1 1h19c.551 0 1-.448 1-1s-.449-1-1-1z"/></g></svg>