<svg id="LINE" enable-background="new 0 0 36 36" height="512" viewBox="0 0 36 36" width="512" xmlns="http://www.w3.org/2000/svg"><g><path d="m27.417 3.914c-6.915.129-11.732-3.365-15.064-3.302s-10.296 2.109-10.009 17.44 9.744 17.404 13.41 17.336c17.163-.321 23.911-31.703 11.663-31.474z" fill="#efefef"/></g><g><path d="m2.937 24.227h1v2.001h-1z" fill="#a4afc1" transform="matrix(.707 -.707 .707 .707 -16.829 9.816)"/></g><g><path d="m7.002 28.293h1v2h-1z" fill="#a4afc1" transform="matrix(.707 -.707 .707 .707 -18.516 13.885)"/></g><g><path d="m2.26 28.793h2v1h-2z" fill="#a4afc1" transform="matrix(.707 -.707 .707 .707 -19.758 10.885)"/></g><g><path d="m27.078 12.518c-.827 0-1.5-.673-1.5-1.5s.673-1.5 1.5-1.5 1.5.673 1.5 1.5-.673 1.5-1.5 1.5zm0-2c-.276 0-.5.225-.5.5s.224.5.5.5.5-.225.5-.5-.224-.5-.5-.5z" fill="#a4afc1"/></g><g><circle cx="18" cy="11.5" fill="#2fdf84" r="4.75"/></g><g><path d="m26.25 18.75v8.591c0 1.054-.448 1.909-1 1.909h-7.25-7.25c-.552 0-1-.855-1-1.909v-8.591z" fill="#2fdf84"/></g><g><path d="m11.75 27.341v-8.591h-2v8.591c0 1.054.448 1.909 1 1.909h2c-.552 0-1-.855-1-1.909z" fill="#00b871"/></g><g><path d="m29.25 23.75h-7.684c-.351 0-.677-.184-.857-.486l-2.709-4.514h8.25z" fill="#f3f3f1"/></g><g><path d="m6.75 23.75h7.684c.351 0 .677-.184.857-.486l2.709-4.514h-8.25z" fill="#f3f3f1"/></g><g><path d="m9.75 18.75-3 5h2l3-5z" fill="#d5dbe1"/></g><g><path d="m22.709 23.264-2.709-4.514h-2l2.709 4.514c.181.301.506.486.857.486h2c-.351 0-.677-.184-.857-.486z" fill="#d5dbe1"/></g><g><path d="m15.25 11.5c0-2.28 1.608-4.18 3.75-4.64-.323-.069-.656-.11-1-.11-2.623 0-4.75 2.127-4.75 4.75s2.127 4.75 4.75 4.75c.344 0 .677-.04 1-.11-2.142-.46-3.75-2.36-3.75-4.64z" fill="#00b871"/></g><g><path d="m18 17c-3.033 0-5.5-2.468-5.5-5.5s2.467-5.5 5.5-5.5 5.5 2.468 5.5 5.5-2.467 5.5-5.5 5.5zm0-9.5c-2.206 0-4 1.794-4 4s1.794 4 4 4 4-1.794 4-4-1.794-4-4-4z"/></g><g><path d="m18.208 14.5h-1.458v-1.5h1.458c.158 0 .292-.172.292-.375s-.133-.375-.292-.375h-.417c-.988 0-1.792-.841-1.792-1.875s.805-1.875 1.793-1.875h1.458v1.5h-1.458c-.158 0-.292.172-.292.375s.133.375.292.375h.417c.988 0 1.792.841 1.792 1.875s-.805 1.875-1.793 1.875z"/></g><g><path d="m17.25 13.89h1.5v.86h-1.5z"/></g><g><path d="m17.25 8.25h1.5v.86h-1.5z"/></g><g><path d="m9.75 18h16.5v1.5h-16.5z"/></g><g><path d="m17.25 18.75h1.5v10.5h-1.5z"/></g><g><path d="m29.25 24.5h-7.684c-.61 0-1.185-.325-1.5-.849l-2.709-4.516c-.139-.231-.143-.521-.01-.755s.383-.38.653-.38h8.25c.264 0 .508.139.643.364l3 5c.139.231.143.521.01.755-.133.235-.383.381-.653.381zm-9.925-5 2.027 3.379c.044.074.127.121.214.121h6.359l-2.1-3.5z"/></g><g><path d="m14.434 24.5h-7.684c-.27 0-.52-.146-.653-.381-.133-.234-.129-.523.01-.755l3-5c.135-.225.379-.364.643-.364h8.25c.27 0 .52.146.653.381.133.234.129.523-.01.755l-2.708 4.515c-.316.524-.891.849-1.501.849zm-6.359-1.5h6.359c.087 0 .17-.047.215-.122l2.026-3.378h-6.5z"/></g><g><path d="m20.783 30h-10.033c-.965 0-1.75-.785-1.75-1.75v-4.5h1.5v4.5c0 .138.112.25.25.25h10.033z"/></g><g><path d="m25.25 30h-2.461v-1.5h2.461c.138 0 .25-.112.25-.25v-4.5h1.5v4.5c0 .965-.785 1.75-1.75 1.75z"/></g></svg>