<svg id="LINE" enable-background="new 0 0 36 36" height="512" viewBox="0 0 36 36" width="512" xmlns="http://www.w3.org/2000/svg"><g><path d="m34.904 20.355c-3.782-5.791-3.38-11.727-5.203-14.518s-7.256-7.603-20.093.782-9.572 17.5-7.566 20.569c9.388 14.372 39.561 3.423 32.862-6.833z" fill="#efefef"/></g><g><path d="m6.543 3.727h2v1h-2z" fill="#a4afc1" transform="matrix(.707 -.707 .707 .707 -.78 6.572)"/></g><g><path d="m2.477 7.793h2v1h-2z" fill="#a4afc1" transform="matrix(.707 -.707 .707 .707 -4.846 4.888)"/></g><g><path d="m2.977 3.05h1v2h-1z" fill="#a4afc1" transform="matrix(.707 -.707 .707 .707 -1.845 3.643)"/></g><g><path d="m30.917 13.002c-.827 0-1.5-.673-1.5-1.5s.673-1.5 1.5-1.5 1.5.673 1.5 1.5-.673 1.5-1.5 1.5zm0-2c-.276 0-.5.225-.5.5s.224.5.5.5.5-.225.5-.5-.225-.5-.5-.5z" fill="#a4afc1"/></g><g><path d="m9.75 6.75h16.5v22.5h-16.5z" fill="#f3f3f1"/></g><g><path d="m9.75 6.75h2v22.5h-2z" fill="#d5dbe1"/></g><g><circle cx="10" cy="10" fill="#2fdf84" r="3.25"/></g><g><path d="m11.75 12.739v4.511l-1.75-1.298-1.75 1.298v-4.473z" fill="#2fdf84"/></g><g><path d="m8.75 10c0-1.444.948-2.653 2.25-3.077-.317-.103-.649-.173-1-.173-1.795 0-3.25 1.455-3.25 3.25s1.455 3.25 3.25 3.25c.351 0 .683-.07 1-.173-1.302-.424-2.25-1.633-2.25-3.077z" fill="#00b871"/></g><g><path d="m24.25 30h-12.5c-1.517 0-2.75-1.233-2.75-2.75v-6.5h1.5v6.5c0 .689.561 1.25 1.25 1.25h12.5c.689 0 1.25-.561 1.25-1.25v-18.5c0-.689-.561-1.25-1.25-1.25h-7.5v-1.5h7.5c1.517 0 2.75 1.233 2.75 2.75v18.5c0 1.517-1.233 2.75-2.75 2.75z"/></g><g><path d="m10 14c-2.206 0-4-1.794-4-4s1.794-4 4-4 4 1.794 4 4-1.794 4-4 4zm0-6.5c-1.378 0-2.5 1.121-2.5 2.5s1.122 2.5 2.5 2.5 2.5-1.121 2.5-2.5-1.122-2.5-2.5-2.5z"/></g><g><path d="m11.75 18c-.158 0-.315-.05-.447-.147l-1.303-.967-1.303.967c-.228.169-.53.195-.784.067-.253-.127-.413-.387-.413-.67v-4.473h1.5v2.982l.553-.41c.266-.197.628-.197.894 0l.553.411v-3.021h1.5v4.512c0 .283-.16.543-.413.67-.107.053-.222.079-.337.079z"/></g></svg>