<svg id="LINE" enable-background="new 0 0 36 36" height="512" viewBox="0 0 36 36" width="512" xmlns="http://www.w3.org/2000/svg"><g><path d="m8.377 4.167c6.917 0 11.667-3.583 15-3.583s10.333 1.916 10.333 17.249-9.417 17.583-13.083 17.583c-17.167.001-24.5-31.249-12.25-31.249z" fill="#efefef"/></g><g><path d="m7.74 3.179h2v1h-2z" fill="#a4afc1" transform="matrix(.707 -.707 .707 .707 -.041 7.258)"/></g><g><path d="m3.674 7.245h2v1h-2z" fill="#a4afc1" transform="matrix(.707 -.707 .707 .707 -4.107 5.573)"/></g><g><path d="m4.174 2.502h1v2h-1z" fill="#a4afc1" transform="matrix(.707 -.707 .707 .707 -1.107 4.331)"/></g><g><path d="m29.609 18.844c-.827 0-1.5-.673-1.5-1.5s.673-1.5 1.5-1.5 1.5.673 1.5 1.5-.672 1.5-1.5 1.5zm0-2c-.275 0-.5.225-.5.5s.225.5.5.5.5-.225.5-.5-.224-.5-.5-.5z" fill="#a4afc1"/></g><g><path d="m9.75 6.75h16.5v22.5h-16.5z" fill="#f3f3f1"/></g><g><path d="m9.75 6.75h2v22.5h-2z" fill="#d5dbe1"/></g><g><circle cx="10.993" cy="10" fill="#2fdf84" r="3.25"/></g><g><path d="m8.813 12.42-2.063 3.51 1.613-.101.713 1.421 1.922-3.264z" fill="#2fdf84"/></g><g><path d="m13.181 12.409 2.069 3.521-1.613-.101-.717 1.421-1.922-3.264-.439-.76z" fill="#2fdf84"/></g><g><path d="m9.743 10c0-1.444.948-2.653 2.25-3.077-.317-.103-.649-.173-1-.173-1.795 0-3.25 1.455-3.25 3.25s1.455 3.25 3.25 3.25c.351 0 .683-.07 1-.173-1.302-.424-2.25-1.633-2.25-3.077z" fill="#00b871"/></g><g><path d="m24.25 30h-12.5c-1.517 0-2.75-1.233-2.75-2.75v-6.5h1.5v6.5c0 .689.561 1.25 1.25 1.25h12.5c.689 0 1.25-.561 1.25-1.25v-18.5c0-.689-.561-1.25-1.25-1.25h-7.5v-1.5h7.5c1.517 0 2.75 1.233 2.75 2.75v18.5c0 1.517-1.233 2.75-2.75 2.75z"/></g><g><path d="m10.993 14c-2.206 0-4-1.794-4-4s1.794-4 4-4 4 1.794 4 4-1.794 4-4 4zm0-6.5c-1.379 0-2.5 1.121-2.5 2.5s1.121 2.5 2.5 2.5 2.5-1.121 2.5-2.5-1.121-2.5-2.5-2.5z"/></g><g><path d="m9.075 18c-.009 0-.017 0-.025 0-.274-.01-.522-.168-.646-.414l-.489-.978-1.118.07c-.274.019-.54-.119-.686-.355s-.148-.533-.008-.772l2.063-3.511 1.294.76-1.348 2.294.204-.013c.297-.035.583.143.718.412l.095.188 1.223-2.076 1.293.762-1.923 3.264c-.136.229-.382.369-.647.369z"/></g><g><path d="m12.92 18c-.265 0-.511-.14-.646-.369l-2.364-4.03 1.299-.75 1.661 2.835.098-.194c.135-.269.415-.443.717-.41l.205.013-1.354-2.306 1.293-.76 2.069 3.522c.141.239.138.536-.008.772-.145.236-.406.393-.686.355l-1.12-.07-.493.979c-.124.245-.371.402-.646.412-.008.001-.017.001-.025.001z"/></g></svg>