<svg id="LINE" enable-background="new 0 0 36 36" height="512" viewBox="0 0 36 36" width="512" xmlns="http://www.w3.org/2000/svg"><g><path d="m8.377 4.167c6.917 0 11.667-3.583 15-3.583s10.333 1.916 10.333 17.249-9.417 17.583-13.083 17.583c-17.167.001-24.5-31.249-12.25-31.249z" fill="#efefef"/></g><g><path d="m11.264 6.134h2v1h-2z" fill="#a4afc1" transform="matrix(.707 -.707 .707 .707 -1.099 10.615)"/></g><g><path d="m7.198 10.2h2v1h-2z" fill="#a4afc1" transform="matrix(.707 -.707 .707 .707 -5.165 8.931)"/></g><g><path d="m7.698 5.457h1v2h-1z" fill="#a4afc1" transform="matrix(.707 -.707 .707 .707 -2.165 7.688)"/></g><g><path d="m27.248 10.1c-.827 0-1.5-.673-1.5-1.5s.673-1.5 1.5-1.5 1.5.673 1.5 1.5-.673 1.5-1.5 1.5zm0-2c-.275 0-.5.224-.5.5s.225.5.5.5.5-.224.5-.5-.225-.5-.5-.5z" fill="#a4afc1"/></g><g><path d="m16.75 10.751h1.667c.46 0 .833.41.833.917v3.667c0 .506-.373.917-.833.917h-1.667z" fill="#2fdf84"/></g><g><path d="m13.997 16.859-5.247 9.438 3.585-.277 1.59 3.23 4.04-7.17z" fill="#f3f3f1"/></g><g><path d="m21.944 16.892 5.306 9.409-3.645-.281-1.6 3.23-4.04-7.17-1.631-2.878z" fill="#f3f3f1"/></g><g><path d="m19.965 22.08-1.778-3.137 4.352-.997-.229-.405-6.123 1.402 1.778 3.137 4.04 7.17.936-1.889z" fill="#d5dbe1"/></g><g><path d="m14.886 18.856-1.264-1.324-4.872 8.765 2.09-.161z" fill="#d5dbe1"/></g><g><path d="m18.498 7.356 1.094-.497c.635-.288 1.381.021 1.625.673l.422 1.125c.122.325.379.582.704.704l1.125.422c.653.245.962.991.673 1.625l-.497 1.094c-.144.316-.144.68 0 .996l.497 1.094c.288.635-.021 1.381-.673 1.625l-1.125.422c-.325.122-.582.379-.704.704l-.422 1.125c-.245.653-.991.962-1.625.673l-1.094-.497c-.316-.144-.68-.144-.996 0l-1.094.497c-.635.288-1.381-.021-1.625-.673l-.422-1.125c-.122-.325-.379-.582-.704-.704l-1.125-.422c-.653-.245-.962-.991-.673-1.625l.497-1.094c.144-.316.144-.68 0-.996l-.497-1.094c-.288-.635.021-1.381.673-1.625l1.125-.422c.325-.122.582-.379.704-.704l.422-1.125c.245-.653.991-.962 1.625-.673l1.094.497c.316.144.68.144.996 0z" fill="#2fdf84"/></g><g><path d="m20.498 18.645c-.317-.144-.68-.144-.996 0l-.502.228.592.269c.488.221 1.036.086 1.377-.283z" fill="#00b871"/></g><g><path d="m19.502 7.356c.317.144.68.144.996 0l.471-.214c-.341-.369-.89-.505-1.377-.283l-.592.269z" fill="#00b871"/></g><g><path d="m16.783 18.469-.422-1.125c-.122-.326-.379-.582-.704-.704l-1.125-.422c-.653-.245-.962-.991-.673-1.625l.497-1.094c.144-.316.144-.68 0-.996l-.497-1.094c-.288-.635.021-1.381.673-1.625l1.125-.422c.326-.122.582-.379.704-.704l.422-1.125c.057-.151.145-.279.248-.39l-.623-.283c-.635-.288-1.381.021-1.625.673l-.422 1.125c-.122.325-.379.582-.704.704l-1.125.422c-.653.245-.962.991-.673 1.625l.497 1.094c.144.316.144.68 0 .996l-.497 1.094c-.288.635.021 1.381.673 1.625l1.125.422c.326.122.582.379.704.704l.422 1.125c.245.653.991.962 1.625.673l.623-.283c-.103-.111-.192-.239-.248-.39z" fill="#00b871"/></g><g><path d="m15.909 20c-.254 0-.508-.049-.747-.148-.498-.207-.893-.614-1.082-1.119l-.422-1.125c-.046-.123-.143-.22-.266-.266l-1.125-.422c-.504-.189-.912-.583-1.118-1.081-.206-.499-.197-1.066.026-1.557l.497-1.094c.054-.119.054-.256 0-.375l-.497-1.093c-.224-.492-.232-1.059-.026-1.558.206-.498.614-.892 1.118-1.081l1.125-.422c.123-.046.22-.143.266-.266l.422-1.125c.189-.505.584-.913 1.082-1.119.5-.207 1.065-.196 1.557.027l1.094.497c.118.053.255.054.375 0l1.094-.497c.49-.223 1.057-.233 1.557-.027.498.207.893.614 1.082 1.119l.422 1.125c.046.123.143.22.266.266l1.125.422c.504.189.912.583 1.118 1.081.206.499.197 1.066-.026 1.557l-.497 1.094c-.054.119-.054.256 0 .375l.497 1.093c.224.492.232 1.059.026 1.558-.206.498-.614.892-1.118 1.081l-1.125.422c-.123.046-.22.143-.266.266l-.422 1.125c-.189.505-.584.913-1.082 1.119-.501.206-1.067.195-1.557-.027l-1.093-.496c-.122-.055-.258-.054-.376 0l-1.095.497c-.255.115-.531.174-.809.174zm.002-12.5c-.075 0-.136.019-.175.035-.068.028-.191.099-.252.26l-.422 1.125c-.198.528-.614.945-1.143 1.143l-1.125.422c-.16.06-.231.183-.26.251s-.064.206.006.362l.497 1.093c.233.514.233 1.103 0 1.617l-.497 1.094c-.07.156-.034.294-.006.362s.1.191.26.251l1.125.422c.528.198.944.615 1.143 1.144l.422 1.124c.061.161.184.232.252.26s.202.066.361-.006l1.095-.497c.511-.233 1.102-.234 1.616 0l1.093.496c.158.072.295.034.362.006.068-.028.191-.099.252-.26l.422-1.125c.198-.528.614-.945 1.143-1.143l1.125-.422c.16-.06.231-.183.26-.251s.064-.206-.006-.362l-.497-1.093c-.233-.514-.233-1.103 0-1.617l.497-1.094c.07-.156.034-.294.006-.362s-.1-.191-.26-.251l-1.125-.422c-.528-.198-.944-.615-1.143-1.144l-.422-1.124c-.061-.161-.184-.232-.252-.26-.067-.028-.203-.066-.361.006l-1.094.497h-.001c-.514.232-1.102.232-1.615 0l-1.095-.498c-.066-.028-.13-.039-.186-.039z"/></g><g><path d="m13.925 30c-.007 0-.014 0-.021 0-.278-.007-.529-.168-.652-.418l-1.365-2.774-3.079.237c-.268.027-.54-.11-.688-.343-.149-.232-.159-.528-.024-.769l5.247-9.438 1.311.729-4.568 8.219 2.193-.169c.319-.035.595.142.73.417l.962 1.954 3.342-5.931 1.307.736-4.04 7.17c-.135.234-.385.38-.655.38z"/></g><g><path d="m22.005 30c-.271 0-.521-.146-.653-.382l-5.67-10.047 1.305-.739 4.976 8.814.972-1.959c.136-.273.412-.443.729-.415l2.243.172-4.617-8.184 1.307-.737 5.307 9.409c.136.241.128.538-.021.771s-.4.373-.69.345l-3.14-.242-1.376 2.776c-.123.249-.374.409-.652.417-.006.001-.013.001-.02.001z"/></g><g><path d="m18.417 17h-2.417v-1.5h2.417c.021 0 .083-.059.083-.167v-3.667c0-.107-.062-.167-.083-.167h-2.417v-1.499h2.417c.873 0 1.583.748 1.583 1.667v3.667c0 .919-.71 1.666-1.583 1.666z"/></g><g><path d="m16 12.75h4v1.5h-4z"/></g></svg>