<svg id="LINE" enable-background="new 0 0 36 36" height="512" viewBox="0 0 36 36" width="512" xmlns="http://www.w3.org/2000/svg"><g><path d="m3.442 23.883c6.061 3.333 8.497 8.761 11.417 10.367 2.921 1.606 9.978 3.299 17.366-10.137s.221-19.945-2.992-21.712c-15.042-8.27-36.525 15.58-25.791 21.482z" fill="#efefef"/></g><g><path d="m7.033 5.477h2v1h-2z" fill="#a4afc1" transform="matrix(.707 -.707 .707 .707 -1.874 7.431)"/></g><g><path d="m2.967 9.543h2v1h-2z" fill="#a4afc1" transform="matrix(.707 -.707 .707 .707 -5.94 5.747)"/></g><g><path d="m3.467 4.8h1v2h-1z" fill="#a4afc1" transform="matrix(.707 -.707 .707 .707 -2.94 4.505)"/></g><g><path d="m31.389 8.5c-.827 0-1.5-.673-1.5-1.5s.673-1.5 1.5-1.5 1.5.673 1.5 1.5-.673 1.5-1.5 1.5zm0-2c-.276 0-.5.224-.5.5s.224.5.5.5.5-.224.5-.5-.224-.5-.5-.5z" fill="#a4afc1"/></g><g><path d="m21.944 16.892 5.306 9.409-3.645-.281-1.6 3.23-4.04-7.17-1.631-2.878z" fill="#f3f3f1"/></g><g><path d="m13.997 16.859-5.247 9.438 3.585-.277 1.59 3.23 4.04-7.17z" fill="#f3f3f1"/></g><g><path d="m19.965 22.08-1.778-3.137 4.352-.997-.229-.405-6.123 1.402 1.778 3.137 4.04 7.17.936-1.889z" fill="#d5dbe1"/></g><g><path d="m14.886 18.856-1.264-1.324-4.872 8.765 2.09-.161z" fill="#d5dbe1"/></g><g><path d="m18.498 7.356 1.094-.497c.635-.288 1.381.021 1.625.673l.422 1.125c.122.325.379.582.704.704l1.125.422c.653.245.962.991.673 1.625l-.497 1.094c-.144.316-.144.68 0 .996l.497 1.094c.288.635-.021 1.381-.673 1.625l-1.125.422c-.325.122-.582.379-.704.704l-.422 1.125c-.245.653-.991.962-1.625.673l-1.094-.497c-.316-.144-.68-.144-.996 0l-1.094.497c-.635.288-1.381-.021-1.625-.673l-.422-1.125c-.122-.325-.379-.582-.704-.704l-1.125-.422c-.653-.245-.962-.991-.673-1.625l.497-1.094c.144-.316.144-.68 0-.996l-.497-1.094c-.288-.635.021-1.381.673-1.625l1.125-.422c.325-.122.582-.379.704-.704l.422-1.125c.245-.653.991-.962 1.625-.673l1.094.497c.316.144.68.144.996 0z" fill="#2fdf84"/></g><g><circle cx="18" cy="13.001" fill="#f3f3f1" r="3.25"/></g><g><path d="m17.702 15.299c-1.269-1.269-1.269-3.327 0-4.596.376-.376.823-.626 1.296-.779-.316-.104-.647-.173-.998-.173-1.795 0-3.25 1.455-3.25 3.25s1.455 3.25 3.25 3.25c.351 0 .682-.07.998-.172-.473-.154-.921-.405-1.296-.78z" fill="#d5dbe1"/></g><g><path d="m16.783 18.469-.422-1.125c-.122-.325-.379-.582-.704-.704l-1.125-.422c-.653-.245-.962-.991-.673-1.625l.497-1.094c.144-.316.144-.68 0-.996l-.497-1.094c-.288-.635.021-1.381.673-1.625l1.125-.422c.326-.122.582-.379.704-.704l.422-1.125c.057-.151.145-.279.248-.39l-.623-.283c-.635-.288-1.381.021-1.625.673l-.422 1.125c-.122.326-.379.582-.704.704l-1.125.422c-.653.245-.962.991-.673 1.625l.497 1.094c.144.317.144.68 0 .996l-.497 1.094c-.288.635.021 1.381.673 1.625l1.125.422c.326.122.582.379.704.704l.422 1.125c.245.653.991.962 1.625.673l.623-.283c-.103-.111-.192-.239-.248-.39z" fill="#00b871"/></g><g><path d="m19.502 7.356c.317.144.68.144.996 0l.471-.214c-.341-.369-.89-.505-1.377-.283l-.592.269z" fill="#00b871"/></g><g><path d="m20.498 18.645c-.317-.144-.68-.144-.996 0l-.502.228.592.269c.488.221 1.036.086 1.377-.283z" fill="#00b871"/></g><g><path d="m13.925 30c-.007 0-.014 0-.021 0-.278-.007-.529-.168-.652-.418l-1.366-2.774-3.079.237c-.274.027-.54-.11-.689-.343s-.158-.528-.024-.769l5.247-9.438 1.312.729-4.569 8.219 2.194-.169c.308-.027.595.142.73.417l.962 1.954 3.342-5.931 1.307.736-4.04 7.17c-.134.234-.384.38-.654.38z"/></g><g><path d="m22.005 30c-.271 0-.521-.146-.653-.382l-5.67-10.047 1.305-.739 4.976 8.814.971-1.959c.135-.274.418-.448.729-.415l2.244.172-4.616-8.185 1.307-.737 5.306 9.409c.136.241.128.538-.021.771s-.409.371-.69.345l-3.14-.242-1.375 2.776c-.123.249-.374.409-.652.417-.008.002-.015.002-.021.002z"/></g><g><path d="m18 17c-2.206 0-4-1.794-4-4s1.794-4 4-4 4 1.794 4 4-1.794 4-4 4zm0-6.5c-1.378 0-2.5 1.122-2.5 2.5s1.122 2.5 2.5 2.5 2.5-1.122 2.5-2.5-1.122-2.5-2.5-2.5z"/></g><g><path d="m15.91 20c-.254 0-.509-.049-.748-.148-.498-.206-.893-.614-1.082-1.119l-.422-1.124c-.046-.123-.143-.22-.266-.266l-1.125-.422c-.504-.189-.913-.583-1.119-1.082-.207-.498-.197-1.065.026-1.557l.496-1.093c.055-.12.055-.256 0-.375l-.497-1.094c-.223-.491-.232-1.058-.026-1.556s.614-.893 1.119-1.082l1.124-.422c.123-.046.22-.143.266-.266l.422-1.125c.189-.504.583-.913 1.082-1.119.497-.208 1.065-.198 1.557.026l1.094.497c.118.054.256.054.375 0l1.094-.497c.491-.224 1.059-.234 1.557-.026.498.206.893.614 1.082 1.119l.422 1.124c.046.123.143.22.266.266l1.125.422c.504.189.913.583 1.119 1.082.207.498.197 1.065-.026 1.557l-.496 1.093c-.055.12-.055.256 0 .375l.497 1.094c.223.491.232 1.058.026 1.556s-.614.893-1.119 1.082l-1.124.422c-.123.046-.22.143-.266.266l-.422 1.125c-.189.504-.583.913-1.082 1.119-.497.206-1.066.197-1.557-.026l-1.093-.496c-.12-.055-.256-.054-.375 0l-1.094.497c-.257.114-.534.173-.81.173zm.001-12.5c-.075 0-.136.019-.175.035-.068.028-.191.099-.251.26l-.422 1.125c-.198.528-.615.945-1.144 1.143l-1.124.422c-.161.061-.232.183-.26.251s-.065.205.006.361l.497 1.094c.233.513.233 1.103 0 1.617l-.496 1.093c-.071.157-.035.294-.006.362.028.068.099.191.26.251l1.125.422c.528.198.945.615 1.143 1.144l.422 1.124c.061.161.183.232.251.26s.206.065.361-.006l1.094-.497c.513-.233 1.103-.234 1.617 0l1.093.496c.158.073.295.035.362.006.068-.028.191-.099.251-.26l.422-1.125c.198-.528.615-.945 1.144-1.143l1.124-.422c.161-.061.232-.183.26-.251s.065-.205-.006-.361l-.497-1.094c-.233-.513-.233-1.103 0-1.617l.496-1.093c.071-.157.035-.294.006-.362-.028-.068-.099-.191-.26-.251l-1.125-.422c-.528-.198-.945-.615-1.143-1.144l-.422-1.124c-.061-.161-.183-.232-.251-.26-.067-.027-.205-.064-.361.006l-1.094.497c-.514.232-1.103.232-1.616 0l-1.094-.498c-.067-.028-.131-.039-.187-.039z"/></g><g><path d="m18 17c-2.206 0-4-1.794-4-4s1.794-4 4-4 4 1.794 4 4-1.794 4-4 4zm0-6.5c-1.378 0-2.5 1.122-2.5 2.5s1.122 2.5 2.5 2.5 2.5-1.122 2.5-2.5-1.122-2.5-2.5-2.5z"/></g><g><path d="m18 17c-2.206 0-4-1.794-4-4s1.794-4 4-4 4 1.794 4 4-1.794 4-4 4zm0-6.5c-1.378 0-2.5 1.122-2.5 2.5s1.122 2.5 2.5 2.5 2.5-1.122 2.5-2.5-1.122-2.5-2.5-2.5z"/></g></svg>