<svg id="LINE" enable-background="new 0 0 36 36" height="512" viewBox="0 0 36 36" width="512" xmlns="http://www.w3.org/2000/svg"><g><path d="m27.417 3.914c-6.915.129-11.732-3.365-15.064-3.302s-10.296 2.109-10.009 17.44 9.744 17.404 13.41 17.336c17.163-.321 23.911-31.703 11.663-31.474z" fill="#efefef"/></g><g><path d="m26.523 6.998h1v2h-1z" fill="#a4afc1" transform="matrix(.707 -.707 .707 .707 2.264 21.459)"/></g><g><path d="m22.457 2.933h1v2h-1z" fill="#a4afc1" transform="matrix(.707 -.707 .707 .707 3.943 17.385)"/></g><g><path d="m26.199 3.433h2v1h-2z" fill="#a4afc1" transform="matrix(.707 -.707 .707 .707 5.186 20.385)"/></g><g><path d="m6.75 28.491c-.827 0-1.5-.673-1.5-1.5s.673-1.5 1.5-1.5 1.5.673 1.5 1.5-.673 1.5-1.5 1.5zm0-2c-.275 0-.5.224-.5.5s.225.5.5.5.5-.224.5-.5-.225-.5-.5-.5z" fill="#a4afc1"/></g><g><path d="m18.25 16.25v-5.5h-.5z" fill="#2fdf84"/></g><g><path d="m22.25 16.968v12.282l-4.25-3.25-4.25 3.25v-12.217z" fill="#f3f3f1"/></g><g><path d="m15.75 17.815 6.5-.05v-.015l-8.5.065v11.435l2-1.529z" fill="#d5dbe1"/></g><g><path d="m20 26-1 .765 3.25 2.485v-1.529z" fill="#d5dbe1"/></g><g><path d="m18.498 7.356 1.094-.497c.635-.288 1.381.021 1.625.673l.422 1.125c.122.325.379.582.704.704l1.125.422c.653.245.962.991.673 1.625l-.497 1.094c-.144.316-.144.68 0 .996l.497 1.094c.288.635-.021 1.381-.673 1.625l-1.125.422c-.325.122-.582.379-.704.704l-.422 1.125c-.245.653-.991.962-1.625.673l-1.094-.497c-.316-.144-.68-.144-.996 0l-1.094.497c-.635.288-1.381-.021-1.625-.673l-.422-1.125c-.122-.325-.379-.582-.704-.704l-1.125-.422c-.653-.245-.962-.991-.673-1.625l.497-1.094c.144-.316.144-.68 0-.996l-.497-1.094c-.288-.635.021-1.381.673-1.625l1.125-.422c.325-.122.582-.379.704-.704l.422-1.125c.245-.653.991-.962 1.625-.673l1.094.497c.316.144.68.144.996 0z" fill="#2fdf84"/></g><g><path d="m16.783 18.469-.422-1.125c-.122-.325-.379-.582-.704-.704l-1.125-.422c-.653-.245-.962-.991-.673-1.625l.497-1.094c.144-.316.144-.68 0-.996l-.497-1.094c-.288-.635.021-1.381.673-1.625l1.125-.422c.326-.122.582-.379.704-.704l.422-1.125c.057-.151.145-.279.248-.39l-.623-.283c-.635-.288-1.381.021-1.625.673l-.422 1.125c-.122.326-.379.582-.704.704l-1.125.422c-.653.245-.962.991-.673 1.625l.497 1.094c.144.317.144.68 0 .996l-.497 1.094c-.288.635.021 1.381.673 1.625l1.125.422c.326.122.582.379.704.704l.422 1.125c.245.653.991.962 1.625.673l.623-.283c-.103-.111-.192-.239-.248-.39z" fill="#00b871"/></g><g><path d="m19.502 7.356c.317.144.68.144.996 0l.471-.214c-.341-.369-.89-.505-1.377-.283l-.592.269z" fill="#00b871"/></g><g><path d="m20.498 18.645c-.317-.144-.68-.144-.996 0l-.502.228.592.269c.488.221 1.036.086 1.377-.283z" fill="#00b871"/></g><g><path d="m15.909 20c-.254 0-.508-.049-.747-.148-.498-.207-.893-.614-1.082-1.119l-.422-1.125c-.046-.123-.143-.22-.266-.266l-1.125-.422c-.504-.189-.912-.583-1.118-1.081-.206-.499-.197-1.066.026-1.557l.497-1.094c.054-.119.054-.256 0-.375l-.497-1.093c-.224-.492-.232-1.059-.026-1.558.206-.498.614-.892 1.118-1.081l1.125-.422c.123-.046.22-.143.266-.266l.422-1.125c.189-.505.584-.913 1.082-1.119.5-.207 1.066-.195 1.557.027l1.094.497c.118.053.255.054.375 0l1.094-.497c.49-.222 1.057-.233 1.557-.027.498.207.893.614 1.082 1.119l.422 1.125c.046.123.143.22.266.266l1.125.422c.504.189.912.583 1.118 1.081.206.499.197 1.066-.026 1.557l-.497 1.094c-.054.119-.054.256 0 .375l.497 1.093c.224.492.232 1.059.026 1.558-.206.498-.614.892-1.118 1.081l-1.125.422c-.123.046-.22.143-.266.266l-.422 1.125c-.189.505-.584.913-1.082 1.119-.501.206-1.067.195-1.557-.027l-1.093-.496c-.122-.055-.258-.054-.376 0l-1.095.497c-.255.115-.531.174-.809.174zm.002-12.5c-.075 0-.136.019-.175.035-.068.028-.191.099-.252.26l-.422 1.125c-.198.528-.614.945-1.143 1.143l-1.125.422c-.16.06-.231.183-.26.251s-.064.206.006.362l.497 1.093c.233.514.233 1.103 0 1.617l-.497 1.094c-.07.156-.034.294-.006.362s.1.191.26.251l1.125.422c.528.198.944.615 1.143 1.144l.422 1.124c.061.161.184.232.252.26s.203.065.361-.006l1.095-.497c.511-.233 1.102-.234 1.616 0l1.093.496c.159.072.295.034.362.006.068-.028.191-.099.252-.26l.422-1.125c.198-.528.614-.945 1.143-1.143l1.125-.422c.16-.06.231-.183.26-.251s.064-.206-.006-.362l-.497-1.093c-.233-.514-.233-1.103 0-1.617l.497-1.094c.07-.156.034-.294.006-.362s-.1-.191-.26-.251l-1.125-.422c-.528-.198-.944-.615-1.143-1.144l-.422-1.124c-.061-.161-.184-.232-.252-.26-.067-.028-.202-.066-.361.006l-1.094.497h-.001c-.514.232-1.102.232-1.615 0l-1.095-.498c-.066-.028-.13-.039-.186-.039z"/></g><g><path d="m22.25 30c-.162 0-.322-.052-.456-.154l-3.794-2.902-3.794 2.901c-.228.174-.532.203-.788.077s-.418-.387-.418-.672v-12.217h1.5v10.7l3.044-2.328c.27-.206.643-.206.912 0l3.044 2.328v-10.765h1.5v12.282c0 .285-.162.546-.418.672-.105.053-.219.078-.332.078z"/></g><g><path d="m19 17h-1.5v-5.5h-.5v-1.5h1.25c.414 0 .75.336.75.75z"/></g></svg>