<svg id="LINE" enable-background="new 0 0 36 36" height="512" viewBox="0 0 36 36" width="512" xmlns="http://www.w3.org/2000/svg"><g><path d="m34.904 20.355c-3.782-5.791-3.38-11.727-5.203-14.518s-7.256-7.603-20.093.782-9.572 17.5-7.566 20.569c9.388 14.372 39.561 3.423 32.862-6.833z" fill="#efefef"/></g><g><path d="m31.438 6.5c-.827 0-1.5-.673-1.5-1.5s.673-1.5 1.5-1.5 1.5.673 1.5 1.5-.672 1.5-1.5 1.5zm0-2c-.276 0-.5.224-.5.5s.224.5.5.5.5-.224.5-.5-.224-.5-.5-.5z" fill="#a4afc1"/></g><g><path d="m7.207 19.625h1v2h-1z" fill="#a4afc1"/></g><g><path d="m7.207 25.375h1v2h-1z" fill="#a4afc1"/></g><g><path d="m3.707 22.875h2v1h-2z" fill="#a4afc1"/></g><g><path d="m18.498 17.355 1.094-.497c.635-.288 1.381.021 1.625.673l.422 1.125c.122.325.379.582.704.704l1.125.422c.653.245.962.991.673 1.625l-.497 1.094c-.144.316-.144.68 0 .996l.497 1.094c.288.635-.021 1.381-.673 1.625l-1.125.422c-.325.122-.582.379-.704.704l-.422 1.125c-.245.653-.991.962-1.625.673l-1.094-.497c-.316-.144-.68-.144-.996 0l-1.094.497c-.635.288-1.381-.021-1.625-.673l-.422-1.125c-.122-.325-.379-.582-.704-.704l-1.125-.422c-.653-.245-.962-.991-.673-1.625l.497-1.094c.144-.316.144-.68 0-.996l-.497-1.094c-.288-.635.021-1.381.673-1.625l1.125-.422c.325-.122.582-.379.704-.704l.422-1.125c.245-.653.991-.962 1.625-.673l1.094.497c.316.144.68.144.996 0z" fill="#2fdf84"/></g><g><circle cx="18" cy="23" fill="#f3f3f1" r="3.25"/></g><g><path d="m19.163 16.845-5.913-10.095h-4.5l5.95 10.8z" fill="#f3f3f1"/></g><g><path d="m18.13 15.08 4.62-8.33h4.5l-5.95 10.8z" fill="#f3f3f1"/></g><g><path d="m10.75 6.75h-2l5.95 10.8 1.84-.291z" fill="#d5dbe1"/></g><g><path d="m20.707 17.088.593.462.179-.325z" fill="#d5dbe1"/></g><g><path d="m20.13 15.08 4.62-8.33h-2l-4.62 8.33 1.239.965z" fill="#d5dbe1"/></g><g><path d="m16.75 23c0-1.444.948-2.653 2.25-3.077-.317-.103-.649-.173-1-.173-1.795 0-3.25 1.455-3.25 3.25s1.455 3.25 3.25 3.25c.351 0 .683-.07 1-.173-1.302-.424-2.25-1.633-2.25-3.077z" fill="#d5dbe1"/></g><g><path d="m19.502 17.355c.317.144.68.144.996 0l.471-.214c-.341-.369-.89-.505-1.377-.283l-.592.269z" fill="#00b871"/></g><g><path d="m16.783 28.468-.422-1.125c-.122-.326-.379-.582-.704-.704l-1.125-.422c-.653-.245-.962-.991-.673-1.625l.497-1.094c.144-.317.144-.68 0-.996l-.497-1.094c-.288-.635.021-1.381.673-1.625l1.125-.422c.326-.122.582-.379.704-.704l.422-1.125c.057-.151.145-.279.248-.39l-.623-.283c-.635-.288-1.381.021-1.625.673l-.422 1.125c-.122.326-.379.582-.704.704l-1.125.422c-.653.245-.962.991-.673 1.625l.497 1.094c.144.317.144.68 0 .996l-.497 1.094c-.288.635.021 1.381.673 1.625l1.125.422c.326.122.582.379.704.704l.422 1.125c.245.653.991.962 1.625.673l.623-.283c-.103-.11-.192-.238-.248-.39z" fill="#00b871"/></g><g><path d="m20.498 28.645c-.317-.144-.68-.144-.996 0l-.502.228.592.269c.488.221 1.036.086 1.377-.283z" fill="#00b871"/></g><g><path d="m15.91 29.999c-.254 0-.509-.049-.748-.148-.498-.206-.893-.614-1.082-1.119l-.422-1.124c-.046-.123-.143-.22-.266-.266l-1.125-.422c-.504-.189-.913-.583-1.119-1.082-.207-.498-.197-1.065.026-1.557l.496-1.093c.055-.12.055-.256 0-.375l-.497-1.094c-.223-.491-.232-1.058-.026-1.556s.614-.893 1.119-1.082l1.124-.422c.123-.046.22-.143.266-.266l.422-1.125c.189-.504.583-.913 1.082-1.119.497-.208 1.065-.199 1.557.026l1.093.496c.12.055.256.054.375 0l1.094-.497c.49-.224 1.058-.233 1.556-.026.498.206.893.614 1.082 1.119l.422 1.124c.046.123.143.22.266.266l1.125.422c.504.189.913.583 1.119 1.082.207.498.197 1.065-.026 1.557l-.496 1.093c-.055.12-.055.256 0 .375l.497 1.094c.27.594.226 1.28-.117 1.836-.229.371-.567.648-.976.802l-1.124.422c-.123.046-.22.143-.266.266l-.422 1.125c-.189.504-.583.913-1.082 1.119-.497.206-1.066.197-1.557-.026l-1.093-.496c-.12-.055-.256-.054-.375 0l-1.094.497c-.255.116-.532.174-.808.174zm.001-12.499c-.075 0-.136.019-.175.035-.068.028-.191.099-.251.26l-.422 1.125c-.198.528-.615.945-1.144 1.143l-1.124.422c-.161.061-.232.183-.26.251s-.065.205.006.361l.497 1.094c.233.513.233 1.103 0 1.617l-.496 1.093c-.071.157-.035.294-.006.362.028.068.099.191.26.251l1.125.422c.528.198.945.615 1.143 1.144l.422 1.124c.061.161.183.232.251.26.068.029.206.065.361-.006l1.094-.497c.513-.233 1.103-.234 1.617 0l1.093.496c.158.072.295.035.362.006.068-.028.191-.099.251-.26l.422-1.125c.198-.528.615-.945 1.144-1.143l1.124-.422c.121-.045.19-.126.227-.186.08-.129.09-.29.028-.427l-.497-1.094c-.233-.513-.233-1.103 0-1.617l.496-1.093c.071-.157.035-.294.006-.362-.028-.068-.099-.191-.26-.251l-1.125-.422c-.528-.198-.945-.615-1.143-1.144l-.422-1.124c-.061-.161-.183-.232-.251-.26-.067-.028-.205-.064-.361.006l-1.094.497c-.514.233-1.103.234-1.617 0l-1.093-.496c-.068-.029-.132-.04-.188-.04z"/></g><g><path d="m18 27c-2.206 0-4-1.794-4-4 0-.535.104-1.054.309-1.544l1.384.579c-.128.305-.193.63-.193.965 0 1.378 1.122 2.5 2.5 2.5s2.5-1.122 2.5-2.5-1.122-2.5-2.5-2.5c-.573 0-1.112.188-1.559.545l-.937-1.172c.706-.563 1.592-.873 2.496-.873 2.206 0 4 1.794 4 4s-1.794 4-4 4z"/></g><g><path d="m14.043 17.912-5.95-10.8c-.128-.233-.124-.515.011-.743.135-.229.381-.369.646-.369h4.5c.266 0 .513.141.647.371l5.913 10.095-1.294.758-5.696-9.724h-2.8l5.337 9.688z"/></g><g><path d="m21.957 17.912-1.313-.724 5.336-9.688h-2.789l-4.406 7.944-1.312-.728 4.62-8.33c.134-.238.385-.386.657-.386h4.5c.265 0 .511.14.646.369.135.228.139.511.011.743z"/></g></svg>