<svg id="LINE" enable-background="new 0 0 36 36" height="512" viewBox="0 0 36 36" width="512" xmlns="http://www.w3.org/2000/svg"><g><path d="m13.411 34.999c6.298-2.859 12.105-1.559 15.14-2.936 3.035-1.378 8.617-6.016 2.28-19.978s-15.841-12.12-19.18-10.605c-15.632 7.095-9.395 38.582 1.76 33.519z" fill="#efefef"/></g><g><path d="m11.066 3.611h2v1h-2z" fill="#a4afc1" transform="matrix(.707 -.707 .707 .707 .627 9.736)"/></g><g><path d="m7 7.677h2v1h-2z" fill="#a4afc1" transform="matrix(.707 -.707 .707 .707 -3.439 8.052)"/></g><g><path d="m7.5 2.934h1v2h-1z" fill="#a4afc1" transform="matrix(.707 -.707 .707 .707 -.439 6.809)"/></g><g><path d="m31.528 23.415c-.827 0-1.5-.673-1.5-1.5s.673-1.5 1.5-1.5 1.5.673 1.5 1.5-.673 1.5-1.5 1.5zm0-2c-.275 0-.5.224-.5.5s.225.5.5.5.5-.224.5-.5-.224-.5-.5-.5z" fill="#a4afc1"/></g><g><path d="m13.997 16.859-5.247 9.438 3.585-.277 1.59 3.23 4.04-7.17z" fill="#f3f3f1"/></g><g><path d="m21.944 16.892 5.306 9.409-3.645-.281-1.6 3.23-4.04-7.17-1.631-2.878z" fill="#f3f3f1"/></g><g><path d="m19.965 22.08-1.778-3.137 4.352-.997-.229-.405-6.123 1.402 1.778 3.137 4.04 7.17.936-1.889z" fill="#d5dbe1"/></g><g><path d="m14.886 18.856-1.264-1.324-4.872 8.765 2.09-.161z" fill="#d5dbe1"/></g><g><path d="m18.498 7.356 1.094-.497c.635-.288 1.381.021 1.625.673l.422 1.125c.122.325.379.582.704.704l1.125.422c.653.245.962.991.673 1.625l-.497 1.094c-.144.316-.144.68 0 .996l.497 1.094c.288.635-.021 1.381-.673 1.625l-1.125.422c-.325.122-.582.379-.704.704l-.422 1.125c-.245.653-.991.962-1.625.673l-1.094-.497c-.316-.144-.68-.144-.996 0l-1.094.497c-.635.288-1.381-.021-1.625-.673l-.422-1.125c-.122-.325-.379-.582-.704-.704l-1.125-.422c-.653-.245-.962-.991-.673-1.625l.497-1.094c.144-.316.144-.68 0-.996l-.497-1.094c-.288-.635.021-1.381.673-1.625l1.125-.422c.325-.122.582-.379.704-.704l.422-1.125c.245-.653.991-.962 1.625-.673l1.094.497c.316.144.68.144.996 0z" fill="#2fdf84"/></g><g><path d="m18 15.14-2.009 1.111.384-2.352-1.625-1.666 2.246-.343 1.004-2.139 1.004 2.139 2.246.343-1.625 1.666.384 2.352z" fill="#f3f3f1"/></g><g><path d="m16.783 18.469-.422-1.125c-.122-.325-.379-.582-.704-.704l-1.125-.422c-.653-.245-.962-.991-.673-1.625l.497-1.094c.144-.316.144-.68 0-.996l-.497-1.094c-.288-.635.021-1.381.673-1.625l1.125-.422c.326-.122.582-.379.704-.704l.422-1.125c.057-.151.145-.279.248-.39l-.623-.283c-.635-.288-1.381.021-1.625.673l-.422 1.125c-.122.326-.379.582-.704.704l-1.125.422c-.653.245-.962.991-.673 1.625l.497 1.094c.144.317.144.68 0 .996l-.497 1.094c-.288.635.021 1.381.673 1.625l1.125.422c.326.122.582.379.704.704l.422 1.125c.245.653.991.962 1.625.673l.623-.283c-.103-.111-.192-.239-.248-.39z" fill="#00b871"/></g><g><path d="m19.502 7.356c.317.144.68.144.996 0l.471-.214c-.341-.369-.89-.505-1.377-.283l-.592.269z" fill="#00b871"/></g><g><path d="m20.498 18.645c-.317-.144-.68-.144-.996 0l-.502.228.592.269c.488.221 1.036.086 1.377-.283z" fill="#00b871"/></g><g><path d="m20.009 17c-.125 0-.25-.031-.363-.094l-1.646-.909-1.646.91c-.251.139-.561.123-.795-.043-.235-.166-.354-.451-.309-.734l.323-1.978-1.361-1.395c-.196-.201-.264-.496-.174-.762.089-.267.319-.46.598-.503l1.851-.283.834-1.777c.246-.527 1.111-.527 1.357 0l.834 1.777 1.851.283c.278.042.509.236.598.503.09.267.022.561-.174.762l-1.361 1.395.323 1.978c.046.283-.073.568-.309.734-.128.091-.28.136-.431.136zm-2.009-2.61c.125 0 .25.031.363.094l.656.363-.135-.827c-.038-.235.037-.474.203-.645l.606-.621-.804-.123c-.247-.038-.459-.196-.565-.423l-.324-.692-.325.692c-.106.227-.318.385-.565.423l-.804.123.606.621c.166.17.241.41.203.645l-.135.827.656-.363c.114-.063.239-.094.364-.094z"/></g><g><path d="m15.909 20c-.254 0-.508-.049-.747-.148-.498-.207-.893-.614-1.082-1.119l-.422-1.125c-.046-.123-.143-.22-.266-.266l-1.125-.422c-.504-.189-.912-.583-1.118-1.081-.206-.499-.197-1.066.026-1.557l.497-1.094c.054-.119.054-.256 0-.375l-.497-1.093c-.224-.492-.232-1.059-.026-1.558.206-.498.614-.892 1.118-1.081l1.125-.422c.123-.046.22-.143.266-.266l.422-1.125c.189-.505.584-.913 1.082-1.119.5-.207 1.066-.196 1.557.027l1.094.497c.118.053.255.054.375 0l1.094-.497c.49-.223 1.057-.233 1.557-.027.498.207.893.614 1.082 1.119l.422 1.125c.046.123.143.22.266.266l1.125.422c.504.189.912.583 1.118 1.081.206.499.197 1.066-.026 1.557l-.497 1.094c-.054.119-.054.256 0 .375l.497 1.093c.224.492.232 1.059.026 1.558-.206.498-.614.892-1.118 1.081l-1.125.422c-.123.046-.22.143-.266.266l-.422 1.125c-.189.505-.584.913-1.082 1.119-.501.206-1.066.195-1.557-.027l-1.093-.496c-.122-.055-.258-.054-.376 0l-1.095.497c-.255.115-.531.174-.809.174zm.002-12.5c-.075 0-.136.019-.175.035-.068.028-.191.099-.252.26l-.422 1.125c-.198.528-.614.945-1.143 1.143l-1.125.422c-.16.06-.231.183-.26.251s-.064.206.006.362l.497 1.093c.233.514.233 1.103 0 1.617l-.497 1.094c-.07.156-.034.294-.006.362s.1.191.26.251l1.125.422c.528.198.944.615 1.143 1.144l.422 1.124c.061.161.184.232.252.26s.203.066.361-.006l1.095-.497c.511-.233 1.102-.234 1.616 0l1.093.496c.159.072.295.034.362.006.068-.028.191-.099.252-.26l.422-1.125c.198-.528.614-.945 1.143-1.143l1.125-.422c.16-.06.231-.183.26-.251s.064-.206-.006-.362l-.497-1.093c-.233-.514-.233-1.103 0-1.617l.497-1.094c.07-.156.034-.294.006-.362s-.1-.191-.26-.251l-1.125-.422c-.528-.198-.944-.615-1.143-1.144l-.422-1.124c-.061-.161-.184-.232-.252-.26-.067-.028-.203-.066-.361.006l-1.094.497h-.001c-.514.232-1.102.232-1.615 0l-1.095-.498c-.066-.028-.13-.039-.186-.039z"/></g><g><path d="m13.925 30c-.007 0-.014 0-.021 0-.278-.007-.529-.168-.652-.418l-1.365-2.774-3.079.237c-.267.027-.54-.11-.688-.343-.149-.232-.159-.528-.024-.769l5.247-9.438 1.311.729-4.568 8.219 2.193-.169c.32-.035.596.142.73.417l.962 1.954 3.342-5.931 1.307.736-4.04 7.17c-.135.234-.385.38-.655.38z"/></g><g><path d="m22.005 30c-.271 0-.521-.146-.653-.382l-5.67-10.047 1.305-.739 4.976 8.814.972-1.959c.136-.273.418-.443.729-.415l2.243.172-4.617-8.184 1.307-.737 5.307 9.409c.136.241.128.538-.021.771-.148.233-.402.373-.69.345l-3.14-.242-1.376 2.776c-.123.249-.374.409-.652.417-.006.001-.013.001-.02.001z"/></g></svg>