<svg id="LINE" enable-background="new 0 0 512 512" height="512" viewBox="0 0 512 512" width="512" xmlns="http://www.w3.org/2000/svg"><g><g><path d="m14.265 203.534c46.265 86.812 33.052 170.396 55.339 212.238 22.286 41.843 93.17 116.879 285.625 14.337 192.455-102.543 157.724-235.791 133.191-281.814-114.802-215.481-556.089-98.517-474.155 55.239z" fill="#efefef"/></g><g><path d="m206.222 448.285h28.444v14.222h-28.444z" fill="#a4afc1"/></g><g><path d="m288 448.285h28.444v14.222h-28.444z" fill="#a4afc1"/></g><g><path d="m252.444 483.841h14.222v28.444h-14.222z" fill="#a4afc1"/></g><g><path d="m112.444 172.985c-11.762 0-21.333-9.571-21.333-21.334 0-11.762 9.571-21.333 21.333-21.333s21.333 9.571 21.333 21.333c.001 11.763-9.571 21.334-21.333 21.334zm0-28.444c-3.911 0-7.111 3.186-7.111 7.11 0 3.926 3.2 7.111 7.111 7.111s7.111-3.186 7.111-7.111c.001-3.925-3.2-7.11-7.111-7.11z" fill="#a4afc1"/></g><g><path d="m316.444 241.323v174.677l-60.444-46.222-60.444 46.222v-173.753z" fill="#efefef"/></g><g><path d="m224 253.369 92.444-.711v-.214l-120.889.925v162.631l28.445-21.745z" fill="#d5dbe1"/></g><g><path d="m284.444 369.778-14.222 10.88 46.222 35.342v-21.745z" fill="#d5dbe1"/></g><g><path d="m263.082 104.619 15.56-7.068c9.031-4.097 19.641.299 23.111 9.571l6.002 16c1.735 4.622 5.39 8.277 10.013 10.013l16 6.002c9.287 3.484 13.682 14.094 9.571 23.11l-7.068 15.56c-2.048 4.494-2.048 9.671 0 14.165l7.068 15.56c4.096 9.031-.299 19.641-9.571 23.11l-16 6.002c-4.623 1.735-8.277 5.391-10.013 10.013l-6.002 16c-3.484 9.287-14.095 13.682-23.111 9.571l-15.56-7.068c-4.494-2.048-9.67-2.048-14.165 0l-15.559 7.068c-9.031 4.097-19.641-.299-23.111-9.571l-6.002-16c-1.735-4.622-5.39-8.277-10.012-10.013l-16-6.002c-9.287-3.484-13.682-14.094-9.572-23.11l7.069-15.56c2.048-4.494 2.048-9.671 0-14.165l-7.069-15.56c-4.096-9.031.299-19.641 9.572-23.11l16-6.002c4.622-1.735 8.277-5.391 10.012-10.013l6.002-16c3.484-9.287 14.094-13.682 23.111-9.571l15.559 7.068c4.495 2.048 9.671 2.048 14.165 0z" fill="#2fdf84"/></g><g><path d="m256 215.325-28.572 15.801 5.461-33.451-23.111-23.694 31.943-4.878 14.279-30.423 14.279 30.422 31.943 4.878-23.111 23.694 5.461 33.451z" fill="#f3f3f1"/></g><g><path d="m238.691 262.671-6.001-16c-1.735-4.623-5.39-8.277-10.013-10.013l-16-6.002c-9.287-3.484-13.682-14.094-9.571-23.111l7.068-15.559c2.048-4.494 2.048-9.672 0-14.166l-7.068-15.559c-4.096-9.031.298-19.641 9.571-23.111l16-6.002c4.637-1.734 8.277-5.39 10.013-10.012l6.001-16c.811-2.148 2.063-3.969 3.527-5.547l-8.86-4.025c-9.031-4.096-19.641.299-23.111 9.572l-6.002 16c-1.735 4.636-5.39 8.277-10.012 10.012l-16 6.002c-9.287 3.484-13.682 14.095-9.572 23.111l7.069 15.559c2.048 4.509 2.048 9.672 0 14.166l-7.069 15.559c-4.096 9.031.299 19.642 9.572 23.111l16 6.002c4.636 1.735 8.277 5.39 10.012 10.013l6.002 16c3.484 9.287 14.094 13.682 23.111 9.571l8.86-4.025c-1.464-1.579-2.73-3.399-3.527-5.546z" fill="#00b871"/></g><g><path d="m277.361 104.619c4.509 2.048 9.672 2.048 14.166 0l6.698-3.044c-4.85-5.248-12.657-7.182-19.584-4.024l-8.419 3.825z" fill="#00b871"/></g><g><path d="m291.527 265.174c-4.509-2.048-9.672-2.048-14.166 0l-7.139 3.242 8.419 3.826c6.94 3.143 14.734 1.223 19.584-4.025z" fill="#00b871"/></g><g><path d="m284.572 241.778c-1.777 0-3.555-.441-5.162-1.337l-23.41-12.929-23.41 12.942c-3.57 1.978-7.979 1.735-11.307-.611-3.342-2.36-5.035-6.414-4.395-10.439l4.594-28.131-19.356-19.84c-2.787-2.859-3.754-7.055-2.475-10.838 1.266-3.797 4.537-6.542 8.505-7.153l26.326-4.025 11.861-25.272c3.499-7.495 15.801-7.495 19.299 0l11.861 25.272 26.325 4.025c3.954.597 7.239 3.356 8.505 7.153 1.28 3.798.313 7.979-2.475 10.838l-19.356 19.84 4.594 28.131c.654 4.025-1.038 8.079-4.395 10.439-1.819 1.294-3.981 1.935-6.129 1.935zm-28.572-37.12c1.777 0 3.556.44 5.162 1.337l9.33 5.162-1.92-11.762c-.54-3.342.526-6.741 2.887-9.173l8.619-8.832-11.435-1.749c-3.513-.541-6.528-2.788-8.036-6.017l-4.607-9.841-4.622 9.842c-1.508 3.229-4.523 5.476-8.036 6.017l-11.435 1.749 8.619 8.832c2.361 2.418 3.427 5.831 2.887 9.173l-1.92 11.762 9.33-5.162c1.621-.898 3.399-1.338 5.177-1.338z"/></g><g><path d="m226.261 284.444c-3.612 0-7.225-.696-10.624-2.104-7.083-2.944-12.7-8.732-15.388-15.915l-6.002-16c-.654-1.749-2.034-3.129-3.783-3.783l-16-6.001c-7.168-2.688-12.971-8.292-15.9-15.375-2.93-7.097-2.802-15.16.37-22.144l7.068-15.56c.768-1.692.768-3.641 0-5.333l-7.068-15.545c-3.186-6.997-3.3-15.062-.37-22.158 2.93-7.083 8.732-12.687 15.9-15.374l16-6.002c1.75-.654 3.129-2.034 3.783-3.783l6.002-16c2.688-7.182 8.306-12.984 15.388-15.914 7.111-2.944 15.161-2.773 22.144.384l15.559 7.068c1.678.754 3.626.768 5.333 0l15.559-7.068c6.969-3.157 15.033-3.314 22.145-.384 7.083 2.943 12.7 8.732 15.389 15.914l6.002 16c.653 1.749 2.033 3.129 3.782 3.783l16 6.002c7.168 2.688 12.971 8.291 15.9 15.374 2.931 7.097 2.803 15.161-.369 22.145l-7.068 15.559c-.769 1.692-.769 3.641 0 5.333l7.068 15.545c3.186 6.998 3.3 15.062.369 22.158-2.93 7.083-8.732 12.687-15.9 15.375l-16 6.001c-1.749.654-3.129 2.034-3.782 3.783l-6.002 16c-2.688 7.183-8.306 12.985-15.389 15.915-7.125 2.93-15.161 2.773-22.145-.384l-15.545-7.055c-1.734-.782-3.669-.768-5.347 0l-15.573 7.068c-3.626 1.636-7.552 2.475-11.506 2.475zm.029-177.777c-1.066 0-1.934.271-2.489.498-.967.397-2.716 1.407-3.584 3.697l-6.001 16c-2.816 7.51-8.733 13.44-16.256 16.256l-16 6.002c-2.275.854-3.285 2.603-3.698 3.57-.412.967-.91 2.93.085 5.148l7.068 15.545c3.314 7.31 3.314 15.687 0 22.997l-7.068 15.559c-.996 2.219-.483 4.182-.085 5.148.398.968 1.422 2.717 3.698 3.57l16 6.002c7.509 2.815 13.426 8.746 16.256 16.27l6.001 15.986c.868 2.29 2.617 3.3 3.584 3.697.967.398 2.887.925 5.134-.085l15.573-7.068c7.268-3.313 15.673-3.328 22.984 0l15.545 7.054c2.261 1.024 4.195.484 5.148.086.967-.398 2.716-1.408 3.584-3.698l6.001-16c2.816-7.509 8.732-13.439 16.256-16.256l16-6.002c2.275-.853 3.285-2.603 3.698-3.569.412-.967.91-2.93-.086-5.148l-7.068-15.545c-3.313-7.311-3.313-15.688 0-22.997l7.068-15.56c.996-2.219.484-4.182.086-5.148s-1.423-2.717-3.698-3.569l-16-6.002c-7.509-2.816-13.426-8.747-16.256-16.271l-6.001-15.985c-.868-2.29-2.617-3.3-3.584-3.698-.953-.398-2.888-.938-5.135.086l-15.559 7.068h-.015c-7.311 3.299-15.673 3.299-22.969 0l-15.573-7.083c-.937-.399-1.848-.555-2.644-.555z"/></g><g><path d="m316.444 426.667c-2.304 0-4.579-.739-6.485-2.19l-53.959-41.273-53.959 41.259c-3.243 2.475-7.581 2.887-11.207 1.095-3.641-1.792-5.945-5.504-5.945-9.558v-173.753h21.333v152.178l43.292-33.109c3.84-2.93 9.146-2.93 12.971 0l43.292 33.109v-153.102h21.334v174.677c0 4.054-2.304 7.766-5.945 9.558-1.493.753-3.114 1.109-4.722 1.109z"/></g></g></svg>