<svg id="LINE" enable-background="new 0 0 36 36" height="512" viewBox="0 0 36 36" width="512" xmlns="http://www.w3.org/2000/svg"><g><path d="m1.003 14.311c3.253 6.104 2.324 11.981 3.891 14.923s6.551 8.218 20.083 1.008 11.09-16.579 9.365-19.815c-8.072-15.151-39.1-6.927-33.339 3.884z" fill="#efefef"/></g><g><path d="m27.228 2.594h2v1h-2z" fill="#a4afc1" transform="matrix(.029 -1 1 .029 24.308 31.219)"/></g><g><path d="m30.396 4.924h1v2h-1z" fill="#a4afc1" transform="matrix(.029 -1 1 .029 24.07 36.633)"/></g><g><path d="m5.809 7.07c-.827 0-1.5-.673-1.5-1.5s.673-1.5 1.5-1.5 1.5.673 1.5 1.5-.673 1.5-1.5 1.5zm0-2c-.275 0-.5.224-.5.5s.225.5.5.5.5-.224.5-.5-.225-.5-.5-.5z" fill="#a4afc1"/></g><g><path d="m18.498 17.355 1.094-.497c.635-.288 1.381.021 1.625.673l.422 1.125c.122.325.379.582.704.704l1.125.422c.653.245.962.991.673 1.625l-.497 1.094c-.144.316-.144.68 0 .996l.497 1.094c.288.635-.021 1.381-.673 1.625l-1.125.422c-.325.122-.582.379-.704.704l-.422 1.125c-.245.653-.991.962-1.625.673l-1.094-.497c-.316-.144-.68-.144-.996 0l-1.094.497c-.635.288-1.381-.021-1.625-.673l-.422-1.125c-.122-.325-.379-.582-.704-.704l-1.125-.422c-.653-.245-.962-.991-.673-1.625l.497-1.094c.144-.316.144-.68 0-.996l-.497-1.094c-.288-.635.021-1.381.673-1.625l1.125-.422c.325-.122.582-.379.704-.704l.422-1.125c.245-.653.991-.962 1.625-.673l1.094.497c.316.144.68.144.996 0z" fill="#2fdf84"/></g><g><path d="m18 25.14-2.009 1.11.384-2.352-1.625-1.665 2.246-.343 1.004-2.14 1.004 2.14 2.246.343-1.625 1.665.384 2.352z" fill="#f3f3f1"/></g><g><path d="m19.163 16.845-5.913-10.095h-4.5l5.95 10.8z" fill="#f3f3f1"/></g><g><path d="m18.13 15.08 4.62-8.33h4.5l-5.95 10.8z" fill="#f3f3f1"/></g><g><path d="m10.75 6.75h-2l5.95 10.8 1.84-.291z" fill="#d5dbe1"/></g><g><path d="m20.13 15.08 4.62-8.33h-2l-4.62 8.33 1.435 1.118z" fill="#d5dbe1"/></g><g><path d="m16.783 28.468-.422-1.125c-.122-.326-.379-.582-.704-.704l-1.125-.422c-.653-.245-.962-.991-.673-1.625l.497-1.094c.144-.317.144-.68 0-.996l-.497-1.094c-.288-.635.021-1.381.673-1.625l1.125-.422c.326-.122.582-.379.704-.704l.422-1.125c.057-.151.145-.279.248-.39l-.623-.283c-.635-.288-1.381.021-1.625.673l-.422 1.125c-.122.326-.379.582-.704.704l-1.125.422c-.653.245-.962.991-.673 1.625l.497 1.094c.144.317.144.68 0 .996l-.497 1.094c-.288.635.021 1.381.673 1.625l1.125.422c.326.122.582.379.704.704l.422 1.125c.245.653.991.962 1.625.673l.623-.283c-.103-.11-.192-.238-.248-.39z" fill="#00b871"/></g><g><path d="m20.009 27c-.125 0-.25-.031-.363-.094l-1.646-.909-1.646.91c-.251.139-.561.123-.795-.043-.235-.166-.354-.451-.309-.734l.323-1.978-1.361-1.395c-.196-.201-.264-.496-.174-.762.089-.267.319-.46.598-.503l1.851-.283.834-1.777c.246-.527 1.111-.527 1.357 0l.834 1.777 1.851.283c.278.042.509.236.598.503.09.267.022.561-.174.762l-1.361 1.395.323 1.978c.046.283-.073.568-.309.734-.128.09-.28.136-.431.136zm-2.009-2.61c.125 0 .25.031.363.094l.656.363-.135-.827c-.038-.235.037-.474.203-.645l.606-.621-.804-.123c-.247-.038-.459-.196-.565-.423l-.324-.692-.325.692c-.106.227-.318.385-.565.423l-.804.123.606.621c.166.17.241.41.203.645l-.135.827.656-.363c.114-.063.239-.094.364-.094z"/></g><g><path d="m15.909 29.999c-.254 0-.508-.049-.747-.148-.498-.207-.893-.614-1.082-1.119l-.422-1.125c-.046-.123-.143-.22-.266-.266l-1.125-.422c-.504-.189-.912-.583-1.118-1.081-.206-.499-.197-1.066.026-1.557l.497-1.094c.054-.119.054-.256 0-.375l-.497-1.093c-.224-.492-.232-1.059-.026-1.558.206-.498.614-.892 1.118-1.081l1.125-.422c.123-.046.22-.143.266-.266l.422-1.125c.189-.505.584-.913 1.082-1.119.5-.207 1.066-.196 1.557.027l1.093.496c.122.055.258.054.376 0h.001l1.094-.497c.488-.222 1.056-.232 1.556-.026.498.207.893.614 1.082 1.119l.422 1.125c.046.123.143.22.266.266l1.125.422c.504.189.912.583 1.118 1.081.206.499.197 1.066-.026 1.557l-.497 1.094c-.054.119-.054.256 0 .375l.497 1.093c.224.492.232 1.059.026 1.558-.206.498-.614.892-1.118 1.081l-1.125.422c-.123.046-.22.143-.266.266l-.422 1.125c-.189.505-.584.913-1.082 1.119-.501.207-1.066.195-1.557-.027l-1.093-.496c-.122-.055-.258-.054-.376 0l-1.095.497c-.255.116-.531.174-.809.174zm.002-12.499c-.075 0-.136.019-.175.035-.068.028-.191.099-.252.26l-.422 1.125c-.198.528-.614.945-1.143 1.143l-1.125.422c-.16.06-.231.183-.26.251s-.064.206.006.362l.497 1.093c.233.514.233 1.103 0 1.617l-.497 1.094c-.07.156-.034.294-.006.362s.1.191.26.251l1.125.422c.528.198.944.615 1.143 1.144l.422 1.124c.061.161.184.232.252.26.068.029.203.066.361-.006l1.095-.497c.511-.233 1.102-.234 1.616 0l1.093.496c.159.072.295.035.362.006.068-.028.191-.099.252-.26l.422-1.125c.198-.528.614-.945 1.143-1.143l1.125-.422c.16-.06.231-.183.26-.251s.064-.206-.006-.362l-.497-1.093c-.233-.514-.233-1.103 0-1.617l.497-1.094c.07-.156.034-.294.006-.362s-.1-.191-.26-.251l-1.125-.422c-.528-.198-.944-.615-1.143-1.144l-.422-1.124c-.061-.161-.184-.232-.252-.26-.067-.028-.203-.065-.361.006l-1.095.497c-.513.234-1.104.233-1.616 0l-1.093-.496c-.067-.03-.131-.041-.187-.041z"/></g><g><path d="m14.043 17.912-5.95-10.8c-.128-.233-.123-.515.011-.743.135-.229.38-.369.646-.369h4.5c.267 0 .513.141.647.371l5.913 10.095-1.295.758-5.695-9.724h-2.8l5.338 9.688z"/></g><g><path d="m21.957 17.912-1.314-.724 5.337-9.688h-2.789l-4.405 7.944-1.312-.728 4.62-8.33c.133-.238.384-.386.656-.386h4.5c.266 0 .511.14.646.369.135.228.14.511.012.743z"/></g></svg>