<svg id="LINE" enable-background="new 0 0 36 36" height="512" viewBox="0 0 36 36" width="512" xmlns="http://www.w3.org/2000/svg"><g><path d="m13.411 34.999c6.298-2.859 12.105-1.559 15.14-2.936 3.035-1.378 8.617-6.016 2.28-19.978s-15.841-12.12-19.18-10.605c-15.632 7.095-9.395 38.582 1.76 33.519z" fill="#efefef"/></g><g><path d="m6.667 5.462h2v1h-2z" fill="#a4afc1" transform="matrix(.707 -.707 .707 .707 -1.97 7.168)"/></g><g><path d="m2.602 9.528h2v1h-2z" fill="#a4afc1" transform="matrix(.707 -.707 .707 .707 -6.036 5.484)"/></g><g><path d="m3.102 4.785h1v2h-1z" fill="#a4afc1" transform="matrix(.707 -.707 .707 .707 -3.036 4.239)"/></g><g><path d="m34.731 18.75c-.827 0-1.5-.673-1.5-1.5s.673-1.5 1.5-1.5 1.5.673 1.5 1.5-.672 1.5-1.5 1.5zm0-2c-.276 0-.5.225-.5.5s.224.5.5.5.5-.225.5-.5-.224-.5-.5-.5z" fill="#a4afc1"/></g><g><path d="m29.25 19.75v4.5c0 1.105-.895 2-2 2h-18.5c-1.105 0-2-.895-2-2v-12.5c0-1.105.895-2 2-2h5.25l2 2h3.25 10z" fill="#f3f3f1"/></g><g><circle cx="26" cy="10" fill="#2fdf84" r="3.25"/></g><g><path d="m27.75 12.739v4.511l-1.75-1.298-1.75 1.298v-4.473z" fill="#2fdf84"/></g><g><path d="m24.75 10c0-1.444.948-2.653 2.25-3.077-.317-.103-.649-.173-1-.173-1.795 0-3.25 1.455-3.25 3.25s1.455 3.25 3.25 3.25c.351 0 .683-.07 1-.173-1.302-.424-2.25-1.633-2.25-3.077z" fill="#00b871"/></g><g><path d="m26.25 12.777 1.5-.016v-.022l-3.5.038v4.473l1.75-1.298.25.186z" fill="#00b871"/></g><g><path d="m8.75 24.25v-12.5c0-1.105.895-2 2-2h-2c-1.105 0-2 .895-2 2v12.5c0 1.105.895 2 2 2h2c-1.105 0-2-.895-2-2z" fill="#d5dbe1"/></g><g><path d="m27.25 27h-18.5c-1.517 0-2.75-1.233-2.75-2.75v-12.5c0-1.517 1.233-2.75 2.75-2.75h5.25c.199 0 .39.079.53.22l1.78 1.78h2.939v1.5h-3.249c-.199 0-.39-.079-.53-.22l-1.78-1.78h-4.94c-.689 0-1.25.561-1.25 1.25v12.5c0 .689.561 1.25 1.25 1.25h18.5c.689 0 1.25-.561 1.25-1.25v-4.5h1.5v4.5c0 1.517-1.233 2.75-2.75 2.75z"/></g><g><path d="m26 14c-2.206 0-4-1.794-4-4s1.794-4 4-4 4 1.794 4 4-1.794 4-4 4zm0-6.5c-1.378 0-2.5 1.121-2.5 2.5s1.122 2.5 2.5 2.5 2.5-1.121 2.5-2.5-1.122-2.5-2.5-2.5z"/></g><g><path d="m27.75 18c-.158 0-.315-.05-.447-.147l-1.303-.967-1.303.967c-.228.169-.53.195-.784.067-.253-.127-.413-.387-.413-.67v-4.473h1.5v2.982l.553-.41c.266-.197.628-.197.894 0l.553.411v-3.021h1.5v4.512c0 .283-.16.543-.413.67-.107.053-.222.079-.337.079z"/></g></svg>