<svg id="LINE" enable-background="new 0 0 36 36" height="512" viewBox="0 0 36 36" width="512" xmlns="http://www.w3.org/2000/svg"><g><path d="m4.167 27.623c0-6.917-3.583-11.667-3.583-15s1.916-10.333 17.249-10.333 17.583 9.417 17.583 13.083c.001 17.167-31.249 24.5-31.249 12.25z" fill="#efefef"/></g><g><path d="m4.306 25.342h1v2h-1z" fill="#a4afc1" transform="matrix(.707 -.707 .707 .707 -17.219 11.114)"/></g><g><path d="m8.371 29.407h1v2h-1z" fill="#a4afc1" transform="matrix(.707 -.707 .707 .707 -18.903 15.179)"/></g><g><path d="m3.629 29.907h2v1h-2z" fill="#a4afc1" transform="matrix(.707 -.707 .707 .707 -20.145 12.179)"/></g><g><path d="m30 30.75c-.827 0-1.5-.673-1.5-1.5s.673-1.5 1.5-1.5 1.5.673 1.5 1.5-.673 1.5-1.5 1.5zm0-2c-.275 0-.5.225-.5.5s.225.5.5.5.5-.225.5-.5-.225-.5-.5-.5z" fill="#a4afc1"/></g><g><path d="m29.25 19.75v4.5c0 1.105-.895 2-2 2h-18.5c-1.105 0-2-.895-2-2v-12.5c0-1.105.895-2 2-2h5.25l2 2h3.25 10z" fill="#f3f3f1"/></g><g><path d="m8.75 24.25v-12.5c0-1.105.895-2 2-2h-2c-1.105 0-2 .895-2 2v12.5c0 1.105.895 2 2 2h2c-1.105 0-2-.895-2-2z" fill="#d5dbe1"/></g><g><circle cx="24.993" cy="10" fill="#2fdf84" r="3.25"/></g><g><path d="m22.813 12.42-2.063 3.51 1.613-.101.713 1.421 1.922-3.264z" fill="#2fdf84"/></g><g><path d="m27.181 12.409 2.069 3.521-1.613-.101-.717 1.421-1.922-3.264-.439-.76z" fill="#2fdf84"/></g><g><path d="m23.743 10c0-1.444.948-2.653 2.25-3.077-.317-.103-.649-.173-1-.173-1.795 0-3.25 1.455-3.25 3.25s1.455 3.25 3.25 3.25c.351 0 .683-.07 1-.173-1.302-.424-2.25-1.633-2.25-3.077z" fill="#00b871"/></g><g><path d="m27.25 27h-18.5c-1.517 0-2.75-1.233-2.75-2.75v-12.5c0-1.517 1.233-2.75 2.75-2.75h5.25c.199 0 .39.079.53.22l1.78 1.78h2.939v1.5h-3.249c-.199 0-.39-.079-.53-.22l-1.78-1.78h-4.94c-.689 0-1.25.561-1.25 1.25v12.5c0 .689.561 1.25 1.25 1.25h18.5c.689 0 1.25-.561 1.25-1.25v-4.5h1.5v4.5c0 1.517-1.233 2.75-2.75 2.75z"/></g><g><path d="m24.993 14c-2.206 0-4-1.794-4-4s1.794-4 4-4 4 1.794 4 4-1.794 4-4 4zm0-6.5c-1.379 0-2.5 1.121-2.5 2.5s1.121 2.5 2.5 2.5 2.5-1.121 2.5-2.5-1.121-2.5-2.5-2.5z"/></g><g><path d="m23.075 18c-.009 0-.017 0-.025 0-.274-.01-.522-.168-.646-.414l-.489-.978-1.118.07c-.275.019-.54-.119-.686-.355s-.148-.533-.008-.772l2.063-3.511 1.293.76-1.348 2.294.204-.013c.296-.035.583.143.718.412l.095.188 1.223-2.076 1.293.762-1.923 3.264c-.135.229-.381.369-.646.369z"/></g><g><path d="m26.92 18c-.265 0-.511-.14-.646-.369l-2.364-4.03 1.299-.75 1.661 2.835.098-.194c.135-.269.423-.443.717-.41l.205.013-1.354-2.306 1.293-.76 2.069 3.522c.141.239.138.536-.008.772-.145.236-.407.393-.686.355l-1.12-.07-.493.979c-.124.245-.371.402-.646.412-.008.001-.017.001-.025.001z"/></g></svg>