<svg id="LINE" enable-background="new 0 0 36 36" height="512" viewBox="0 0 36 36" width="512" xmlns="http://www.w3.org/2000/svg"><g><path d="m4.167 27.623c0-6.917-3.583-11.667-3.583-15s1.916-10.333 17.249-10.333 17.583 9.417 17.583 13.083c.001 17.167-31.249 24.5-31.249 12.25z" fill="#efefef"/></g><g><path d="m31.25 11.812c-.827 0-1.5-.673-1.5-1.5s.673-1.5 1.5-1.5 1.5.673 1.5 1.5-.673 1.5-1.5 1.5zm0-2c-.275 0-.5.225-.5.5s.225.5.5.5.5-.225.5-.5-.225-.5-.5-.5z" fill="#a4afc1"/></g><g><path d="m4.745 4.261h2v1h-2z" fill="#a4afc1" transform="matrix(.707 -.707 .707 .707 -1.684 5.457)"/></g><g><path d="m.68 8.327h2v1h-2z" fill="#a4afc1" transform="matrix(.707 -.707 .707 .707 -5.75 3.773)"/></g><g><path d="m1.18 3.584h1v2h-1z" fill="#a4afc1" transform="matrix(.707 -.707 .707 .707 -2.749 2.529)"/></g><g><path d="m5.245 7.65h1v2h-1z" fill="#a4afc1" transform="matrix(.707 -.707 .707 .707 -4.434 6.596)"/></g><g><path d="m26.25 29.25h-16.5c-.552 0-1-.448-1-1v-10h18.5v10c0 .552-.448 1-1 1z" fill="#f3f3f1"/></g><g><path d="m28.25 18.25h-20.5c-.552 0-1-.448-1-1v-2.5c0-.552.448-1 1-1h20.5c.552 0 1 .448 1 1v2.5c0 .552-.448 1-1 1z" fill="#2fdf84"/></g><g><path d="m18 13.294s.974-6.588 6.329-6.588 3.408 6.588-6.329 6.588z" fill="#2fdf84"/></g><g><path d="m18.001 13.294s-.974-6.588-6.329-6.588-3.407 6.588 6.329 6.588z" fill="#2fdf84"/></g><g><path d="m12.694 6.797c-.323-.056-.661-.091-1.022-.091-5.355 0-3.408 6.588 6.329 6.588 0 0-.008-.046-.02-.112-7.371-.775-9.036-5.674-5.287-6.385z" fill="#00b871"/></g><g><path d="m25.307 6.797c-.295-.056-.617-.091-.978-.091-5.355 0-6.329 6.588-6.329 6.588.72 0 1.384-.046 2.02-.112.139-.775 1.184-5.674 5.287-6.385z" fill="#00b871"/></g><g><path d="m10.75 28.25v-10h-2v10c0 .552.448 1 1 1h2c-.552 0-1-.448-1-1z" fill="#d5dbe1"/></g><g><path d="m8.75 17.25v-2.5c0-.552.448-1 1-1h-2c-.552 0-1 .448-1 1v2.5c0 .552.448 1 1 1h2c-.552 0-1-.448-1-1z" fill="#00b871"/></g><g><path d="m26.25 30h-16.5c-.965 0-1.75-.785-1.75-1.75v-10c0-.414.336-.75.75-.75h12.878v1.5h-12.128v9.25c0 .138.112.25.25.25h16.5c.138 0 .25-.112.25-.25v-9.25h-2.152v-1.5h2.902c.414 0 .75.336.75.75v10c0 .965-.785 1.75-1.75 1.75z"/></g><g><path d="m28.25 19h-3.871v-1.5h3.871c.138 0 .25-.112.25-.25v-2.5c0-.138-.112-.25-.25-.25h-20.5c-.138 0-.25.112-.25.25v2.5c0 .138.112.25.25.25h13.903v1.5h-13.903c-.965 0-1.75-.785-1.75-1.75v-2.5c0-.965.785-1.75 1.75-1.75h20.5c.965 0 1.75.785 1.75 1.75v2.5c0 .965-.785 1.75-1.75 1.75z"/></g><g><path d="m18 14.044c-.218 0-.426-.095-.567-.26-.143-.165-.206-.384-.175-.6.37-2.5 2.323-7.229 7.071-7.229 2.71.001 3.671 1.465 3.671 2.719 0 2.229-3.103 5.37-10 5.37zm6.329-6.588c-3.582 0-4.942 3.405-5.393 5.066 2.826-.132 4.608-.847 5.634-1.456 1.423-.845 1.93-1.79 1.93-2.393 0-.898-1.121-1.217-2.171-1.217z"/></g><g><path d="m18.001 14.044c-6.897 0-10-3.141-10-5.37 0-1.254.962-2.718 3.672-2.718 4.747 0 6.7 4.729 7.07 7.229.031.216-.032.435-.175.6-.141.164-.349.259-.567.259zm-6.328-6.588c-1.05 0-2.172.32-2.172 1.218 0 1.277 2.233 3.604 7.563 3.849-.45-1.662-1.81-5.067-5.391-5.067z"/></g><g><path d="m17.25 13.5h1.5v15.75h-1.5z"/></g></svg>