<svg id="LINE" enable-background="new 0 0 36 36" height="512" viewBox="0 0 36 36" width="512" xmlns="http://www.w3.org/2000/svg"><g><path d="m8.377 31.833c6.917 0 11.667 3.583 15 3.583s10.333-1.916 10.333-17.249-9.417-17.584-13.083-17.584c-17.167 0-24.5 31.25-12.25 31.25z" fill="#efefef"/></g><g><path d="m28.647 7.942c-.827 0-1.5-.673-1.5-1.5s.673-1.5 1.5-1.5 1.5.673 1.5 1.5-.673 1.5-1.5 1.5zm0-2c-.276 0-.5.225-.5.5s.224.5.5.5.5-.225.5-.5-.224-.5-.5-.5z" fill="#a4afc1"/></g><g><path d="m28.614 28.25h1v2h-1z" fill="#a4afc1"/></g><g><path d="m28.614 34h1v2h-1z" fill="#a4afc1"/></g><g><path d="m25.114 31.5h2v1h-2z" fill="#a4afc1"/></g><g><path d="m30.864 31.5h2v1h-2z" fill="#a4afc1"/></g><g><path d="m23.232 18.25h-10.464c-.685 0-1.174-.606-.972-1.203l1.574-4.643c.132-.389.526-.654.972-.654h7.316c.446 0 .84.265.972.654l1.574 4.643c.202.597-.287 1.203-.972 1.203z" fill="#2fdf84"/></g><g><path d="m17.32 25.25c.631 0 1.081-.604.899-1.207l-1.454-4.643c-.115-.381-.478-.65-.889-.65h-6.732c-.411 0-.775.269-.889.65l-1.455 4.643c-.182.604.268 1.207.899 1.207z" fill="#f3f3f1"/></g><g><path d="m18.01 24.95c.16.18.41.3.68.3h9.62c.63 0 1.08-.6.9-1.21l-1.45-4.64c-.12-.38-.48-.65-.89-.65h-6.74c-.41 0-.77.27-.89.65l-1.23 3.95z" fill="#f3f3f1"/></g><g><path d="m13.796 17.047 1.574-4.643c.132-.389.526-.654.972-.654h-2c-.446 0-.84.265-.972.654l-1.574 4.643c-.203.597.287 1.203.972 1.203h2c-.685 0-1.174-.606-.972-1.203z" fill="#00b871"/></g><g><path d="m8.8 24.043 1.454-4.643c.115-.381.478-.65.889-.65h-2c-.411 0-.775.269-.889.65l-1.454 4.643c-.182.604.268 1.207.899 1.207h2c-.631 0-1.08-.604-.899-1.207z" fill="#d5dbe1"/></g><g><path d="m20.01 23.35 1.23-3.95c.12-.38.48-.65.89-.65h-2c-.41 0-.77.27-.89.65l-1.23 3.95v1.6c.16.18.41.3.68.3h2c-.27 0-.52-.12-.68-.3z" fill="#d5dbe1"/></g><g><path d="m23.232 19h-10.464c-.585 0-1.132-.274-1.461-.733-.309-.431-.39-.964-.221-1.461l1.574-4.643c.236-.695.912-1.163 1.682-1.163h4.5v1.5h-4.5c-.138 0-.237.074-.261.145l-1.574 4.644c-.006.017-.018.053.019.104.018.025.089.107.242.107h10.464c.153 0 .224-.082.242-.107.037-.052.025-.088.019-.104l-1.574-4.643c-.024-.071-.124-.146-.261-.146h-.908v-1.5h.908c.771 0 1.447.468 1.682 1.164l1.574 4.642c.168.497.088 1.03-.221 1.461-.329.459-.876.733-1.461.733z"/></g><g><path d="m17.32 26h-9.621c-.541 0-1.035-.248-1.356-.681-.321-.432-.416-.976-.261-1.492l1.456-4.65c.208-.69.869-1.177 1.606-1.177h6.732c.736 0 1.397.487 1.607 1.184l1.451 4.636c.158.523.063 1.067-.257 1.5-.321.432-.816.68-1.357.68zm-8.176-6.5c-.078 0-.151.05-.171.117l-1.456 4.649c-.021.067.005.124.03.158s.072.076.152.076h9.621c.08 0 .127-.041.153-.075.025-.034.05-.09.028-.165l-1.452-4.636c-.022-.074-.096-.124-.173-.124z"/></g><g><path d="m28.31 26h-9.62c-.476 0-.928-.201-1.24-.551l1.12-.998c.017.02.064.049.12.049h9.62c.08 0 .127-.04.152-.074.026-.035.052-.093.028-.174l-1.447-4.628c-.022-.071-.096-.124-.174-.124h-6.74c-.078 0-.151.053-.174.125l-1.23 3.947-1.432-.445 1.23-3.949c.219-.695.879-1.178 1.607-1.178h6.74c.728 0 1.388.483 1.605 1.176l1.451 4.641c.157.531.06 1.076-.262 1.507-.321.43-.815.676-1.354.676z"/></g><g><path d="m15.462 16.485-1.425-.471.825-2.5c.102-.306.389-.514.713-.514h3.675v1.5h-3.132z"/></g><g><path d="m10.462 23.485-1.425-.471.825-2.5c.102-.306.389-.514.713-.514h3.675v1.5h-3.132z"/></g><g><path d="m21.462 23.485-1.425-.471.825-2.5c.102-.306.389-.514.713-.514h3.675v1.5h-3.132z"/></g></svg>