<svg id="LINE" enable-background="new 0 0 36 36" height="512" viewBox="0 0 36 36" width="512" xmlns="http://www.w3.org/2000/svg"><g><path d="m8.377 31.833c6.917 0 11.667 3.583 15 3.583s10.333-1.916 10.333-17.249-9.417-17.584-13.083-17.584c-17.167 0-24.5 31.25-12.25 31.25z" fill="#efefef"/></g><g><path d="m19.875 3.562h2v1h-2z" fill="#a4afc1"/></g><g><path d="m14.125 3.562h2v1h-2z" fill="#a4afc1"/></g><g><path d="m17.625.062h1v2h-1z" fill="#a4afc1"/></g><g><path d="m21.875 26.527c-.827 0-1.5-.673-1.5-1.5s.673-1.5 1.5-1.5 1.5.673 1.5 1.5-.673 1.5-1.5 1.5zm0-2c-.276 0-.5.224-.5.5s.224.5.5.5.5-.224.5-.5-.224-.5-.5-.5z" fill="#a4afc1"/></g><g><path d="m22.25 17.75v11.5l-4.25-3.25-4.25 3.25v-11.435z" fill="#efefef"/></g><g><path d="m18.25 16.25v-5.5h-.5z" fill="#2fdf84"/></g><g><path d="m15.75 17.815 6.5-.05v-.015l-8.5.065v11.435l2-1.529z" fill="#d5dbe1"/></g><g><path d="m20 26-1 .765 3.25 2.485v-1.529z" fill="#d5dbe1"/></g><g><circle cx="18" cy="13" fill="#2fdf84" r="6.25"/></g><g><path d="m13.75 13c0-3.111 2.275-5.683 5.25-6.163-.326-.053-.659-.087-1-.087-3.452 0-6.25 2.798-6.25 6.25s2.798 6.25 6.25 6.25c.341 0 .674-.035 1-.087-2.975-.48-5.25-3.052-5.25-6.163z" fill="#00b871"/></g><g><path d="m22.25 30c-.162 0-.322-.052-.456-.154l-3.794-2.902-3.794 2.901c-.227.174-.533.204-.788.077-.256-.126-.418-.387-.418-.672v-11.435h1.5v9.917l3.044-2.328c.269-.206.643-.206.911 0l3.044 2.328v-9.982h1.501v11.5c0 .285-.162.546-.418.672-.105.053-.219.078-.332.078z"/></g><g><path d="m19 17h-1.5v-5.5h-.5v-1.5h1.25c.414 0 .75.336.75.75z"/></g><g><path d="m17.989 20c-1.068 0-2.151-.245-3.167-.762-3.439-1.752-4.812-5.976-3.06-9.415 1.752-3.44 5.977-4.811 9.415-3.06.47.24.912.531 1.314.867l-.961 1.151c-.316-.264-.665-.493-1.035-.682-2.7-1.377-6.019-.299-7.395 2.404-1.377 2.703-.299 6.021 2.403 7.397 2.702 1.375 6.021.298 7.397-2.403.796-1.563.807-3.363.029-4.938l1.345-.664c.975 1.974.961 4.323-.037 6.283-1.235 2.425-3.698 3.822-6.248 3.822z"/></g></svg>