<svg id="LINE" enable-background="new 0 0 36 36" height="512" viewBox="0 0 36 36" width="512" xmlns="http://www.w3.org/2000/svg"><g><path d="m8.377 31.833c6.917 0 11.667 3.583 15 3.583s10.333-1.916 10.333-17.249-9.417-17.584-13.083-17.584c-17.167 0-24.5 31.25-12.25 31.25z" fill="#efefef"/></g><g><path d="m31 32.5c-.827 0-1.5-.673-1.5-1.5s.673-1.5 1.5-1.5 1.5.673 1.5 1.5-.673 1.5-1.5 1.5zm0-2c-.276 0-.5.224-.5.5s.224.5.5.5.5-.224.5-.5-.224-.5-.5-.5z" fill="#a4afc1"/></g><g><path d="m3.5 0h1v2h-1z" fill="#a4afc1"/></g><g><path d="m3.5 5.75h1v2h-1z" fill="#a4afc1"/></g><g><path d="m0 3.25h2v1h-2z" fill="#a4afc1"/></g><g><path d="m5.75 3.25h2v1h-2z" fill="#a4afc1"/></g><g><path d="m18.13 15.08 4.62-8.33h4.5l-5.95 10.8z" fill="#f3f3f1"/></g><g><circle cx="18" cy="23" fill="#2fdf84" r="6.25"/></g><g><path d="m18.25 26.25v-5.5h-.5z" fill="#2fdf84"/></g><g><path d="m13.75 23c0-3.111 2.275-5.683 5.25-6.163-.326-.053-.659-.087-1-.087-3.452 0-6.25 2.798-6.25 6.25s2.798 6.25 6.25 6.25c.341 0 .674-.035 1-.087-2.975-.48-5.25-3.052-5.25-6.163z" fill="#00b871"/></g><g><path d="m19.163 16.845-5.913-10.095h-4.5l5.95 10.8z" fill="#f3f3f1"/></g><g><path d="m10.75 6.75h-2l5.95 10.8 1.84-.291z" fill="#d5dbe1"/></g><g><path d="m20.13 15.08 4.62-8.33h-2l-4.62 8.33 1.401 1.092z" fill="#d5dbe1"/></g><g><path d="m14.701 18.299c-.265 0-.521-.14-.658-.388l-5.95-10.8c-.128-.232-.124-.514.011-.742.135-.229.381-.369.646-.369h4.5c.266 0 .513.141.647.371l5.913 10.095c.151.258.135.581-.042.822-.177.242-.481.354-.772.288-1.933-.439-3.917.621-3.936.632-.115.062-.237.091-.359.091zm-4.681-10.799 5.002 9.08c.628-.251 1.629-.568 2.761-.606l-4.963-8.474z"/></g><g><path d="m21.957 17.912-1.313-.724 5.336-9.688h-2.789l-4.406 7.944-1.312-.728 4.62-8.33c.134-.238.385-.386.657-.386h4.5c.265 0 .511.14.646.369.135.228.139.511.011.743z"/></g><g><path d="m18 30c-3.86 0-7-3.14-7-7s3.14-7 7-7 7 3.14 7 7c0 .527-.059 1.054-.175 1.564l-1.463-.333c.092-.401.138-.815.138-1.231 0-3.033-2.467-5.5-5.5-5.5s-5.5 2.467-5.5 5.5 2.467 5.5 5.5 5.5c1.754 0 3.362-.808 4.413-2.216l1.202.896c-1.316 1.766-3.415 2.82-5.615 2.82z"/></g><g><path d="m19 27h-1.5v-5.5h-.5v-1.5h1.25c.414 0 .75.336.75.75z"/></g></svg>