<svg id="LINE" enable-background="new 0 0 36 36" height="512" viewBox="0 0 36 36" width="512" xmlns="http://www.w3.org/2000/svg"><g><path d="m27.417 3.914c-6.915.129-11.732-3.365-15.064-3.302s-10.296 2.109-10.009 17.44 9.744 17.404 13.41 17.336c17.163-.321 23.911-31.703 11.663-31.474z" fill="#efefef"/></g><g><path d="m6.109 2.294h2v1h-2z" fill="#a4afc1" transform="matrix(.707 -.707 .707 .707 .106 5.845)"/></g><g><path d="m2.042 6.36h2v1h-2z" fill="#a4afc1" transform="matrix(.707 -.707 .707 .707 -3.96 4.161)"/></g><g><path d="m2.543 1.617h1v2h-1z" fill="#a4afc1" transform="matrix(.707 -.707 .707 .707 -.96 2.918)"/></g><g><path d="m32.136 22.375c-.827 0-1.5-.673-1.5-1.5s.673-1.5 1.5-1.5 1.5.673 1.5 1.5-.673 1.5-1.5 1.5zm0-2c-.276 0-.5.225-.5.5s.224.5.5.5.5-.225.5-.5-.224-.5-.5-.5z" fill="#a4afc1"/></g><g><path d="m6.75 23.25v4c0 1.105.895 2 2 2h18.5c1.105 0 2-.895 2-2v-4.001.001h-17.73z" fill="#2fdf84"/></g><g><path d="m29.25 11.75h-22.5v-3c0-1.105.895-2 2-2h18.5c1.105 0 2 .895 2 2z" fill="#2fdf84"/></g><g><path d="m8.75 18.5-2 4.749z" fill="#2fdf84"/></g><g><path d="m29.25 23.249-2-4.749z" fill="#2fdf84"/></g><g><path d="m8.75 18.5-2-6.75z" fill="#2fdf84"/></g><g><path d="m29.25 11.75-2 6.75z" fill="#2fdf84"/></g><g><path d="m8.75 18.5-2 4.749h22.5l-2-4.749z" fill="#f3f3f1"/></g><g><path d="m6.75 11.75 2 6.75h2l-2-6.75z" fill="#d5dbe1"/></g><g><path d="m8.75 18.5-2 4.749h2l2-4.749z" fill="#d5dbe1"/></g><g><path d="m6.75 23.25v4c0 1.105.895 2 2 2h18.5c1.105 0 2-.895 2-2v-4.001.001h-17.73z" fill="#2fdf84"/></g><g><path d="m29.25 11.75h-22.5v-3c0-1.105.895-2 2-2h18.5c1.105 0 2 .895 2 2z" fill="#2fdf84"/></g><g><path d="m10.75 6.75h-2c-1.105 0-2 .895-2 2v3h2v-3c0-1.105.895-2 2-2z" fill="#00b871"/></g><g><path d="m8.75 27.25v-4h-2v4c0 1.105.895 2 2 2h2c-1.105 0-2-.895-2-2z" fill="#00b871"/></g><g><path d="m20.78 20.796-1.028-1.092c.483-.455.749-1.075.749-1.746 0-1.355-1.122-2.458-2.5-2.458s-2.5 1.103-2.5 2.458c0 .671.266 1.291.749 1.746l-1.028 1.092c-.775-.73-1.22-1.765-1.22-2.838-.002-2.183 1.792-3.958 3.998-3.958s4 1.775 4 3.958c0 1.073-.445 2.107-1.22 2.838z"/></g><g><path d="m14 19.5h8v1.5h-8z"/></g><g><path d="m27.25 30h-18.5c-1.517 0-2.75-1.233-2.75-2.75v-4c0-.414.336-.75.75-.75h22.5c.414 0 .75.336.75.75v4c0 1.517-1.233 2.75-2.75 2.75zm-19.75-6v3.25c0 .689.561 1.25 1.25 1.25h18.5c.689 0 1.25-.561 1.25-1.25v-3.251z"/></g><g><path d="m5.174 20.124h5.153v1.5h-5.153z" transform="matrix(.388 -.922 .922 .388 -14.496 19.92)"/></g><g><path d="m27.5 18.298h1.5v5.153h-1.5z" transform="matrix(.922 -.388 .388 .922 -5.887 12.601)"/></g><g><path d="m7 11.605h1.5v7.04h-1.5z" transform="matrix(.959 -.284 .284 .959 -3.978 2.825)"/></g><g><path d="m24.73 14.375h7.04v1.5h-7.04z" transform="matrix(.284 -.959 .959 .284 5.729 37.921)"/></g><g><path d="m8.75 17.75h3.5v1.5h-3.5z"/></g><g><path d="m23.75 17.75h3.5v1.5h-3.5z"/></g><g><path d="m29.25 12.5h-22.5c-.414 0-.75-.336-.75-.75v-3c0-1.517 1.233-2.75 2.75-2.75h2.96v1.5h-2.96c-.689 0-1.25.561-1.25 1.25v2.25h21v-2.25c0-.689-.561-1.25-1.25-1.25h-12.965v-1.5h12.965c1.517 0 2.75 1.233 2.75 2.75v3c0 .414-.336.75-.75.75z"/></g></svg>