<svg id="LINE" enable-background="new 0 0 36 36" height="512" viewBox="0 0 36 36" width="512" xmlns="http://www.w3.org/2000/svg"><g><path d="m8.377 31.833c6.917 0 11.667 3.583 15 3.583s10.333-1.916 10.333-17.249-9.417-17.584-13.083-17.584c-17.167 0-24.5 31.25-12.25 31.25z" fill="#efefef"/></g><g><path d="m5.842 7.241h2v1h-2z" fill="#a4afc1" transform="matrix(.707 -.707 .707 .707 -3.47 7.105)"/></g><g><path d="m1.776 11.307h2v1h-2z" fill="#a4afc1" transform="matrix(.707 -.707 .707 .707 -7.536 5.421)"/></g><g><path d="m2.276 6.565h1v2h-1z" fill="#a4afc1" transform="matrix(.707 -.707 .707 .707 -4.536 4.178)"/></g><g><path d="m32.544 15.492c-.827 0-1.5-.673-1.5-1.5s.673-1.5 1.5-1.5 1.5.673 1.5 1.5-.672 1.5-1.5 1.5zm0-2c-.276 0-.5.224-.5.5s.224.5.5.5.5-.224.5-.5-.224-.5-.5-.5z" fill="#a4afc1"/></g><g><path d="m26.5 29.25h-17c-.966 0-1.75-.784-1.75-1.75 0-.966.784-1.75 1.75-1.75h17c.966 0 1.75.784 1.75 1.75 0 .967-.784 1.75-1.75 1.75z" fill="#f3f3f1"/></g><g><path d="m9.685 25.185-2.935-13.235 3.982 5c-.049.167-.068.343-.068.52 0 1.078.88 1.961 1.957 1.961s1.957-.882 1.957-1.961c0-.971-.714-1.784-1.653-1.931l-1.282-3.588 6.357-5.266 6.359 5.265-1.282 3.588c-.939.147-1.653.961-1.653 1.931 0 1.078.88 1.961 1.957 1.961 1.076 0 1.957-.882 1.957-1.961 0-.186-.029-.363-.078-.529v.01-.01l3.991-4.99-2.935 13.235z" fill="#2fdf84"/></g><g><path d="m18 11.25-1.25 2.25 1.25 2.25 1.25-2.25z" fill="#f3f3f1"/></g><g><path d="m25.337 17.469c0 .711-.387 1.331-.956 1.675.294.177.634.286 1 .286 1.076 0 1.957-.882 1.957-1.961 0-.186-.029-.363-.078-.529l1.224-1.531.767-3.46-3.991 4.99c.048.168.077.344.077.53z" fill="#2fdf84"/></g><g><path d="m14.576 17.469c0 .711-.387 1.331-.956 1.675.294.177.634.286 1 .286 1.076 0 1.957-.882 1.957-1.961 0-.971-.714-1.784-1.653-1.931l-1.282-3.588 5.358-4.437-1-.828-6.359 5.265 1.282 3.588c.939.147 1.653.961 1.653 1.931z" fill="#2fdf84"/></g><g><path d="m6.75 11.95 2.935 13.235h2l-2.163-9.754z" fill="#2fdf84"/></g><g><path d="m6.75 11.95 2.935 13.235h2l-2.163-9.754z" fill="#00b871"/></g><g><path d="m14.576 17.469c0 .711-.387 1.331-.956 1.675.294.177.634.286 1 .286 1.076 0 1.957-.882 1.957-1.961 0-.971-.714-1.784-1.653-1.931l-1.282-3.588 5.358-4.437-1-.828-6.359 5.265 1.282 3.588c.939.147 1.653.961 1.653 1.931z" fill="#00b871"/></g><g><path d="m9.75 27.5c0-.966.784-1.75 1.75-1.75h-2c-.966 0-1.75.784-1.75 1.75s.784 1.75 1.75 1.75h2c-.966 0-1.75-.784-1.75-1.75z" fill="#d5dbe1"/></g><g><path d="m26.5 30h-17c-1.378 0-2.5-1.122-2.5-2.5s1.122-2.5 2.5-2.5h17c1.378 0 2.5 1.122 2.5 2.5s-1.122 2.5-2.5 2.5zm-17-3.5c-.551 0-1 .449-1 1s.449 1 1 1h17c.551 0 1-.449 1-1s-.449-1-1-1z"/></g><g><path d="m27.048 25.347-1.465-.324 2.236-10.083-1.754 2.193c.015.112.022.225.022.336 0 1.495-1.214 2.711-2.707 2.711s-2.707-1.216-2.707-2.711c0-1.16.761-2.188 1.831-2.559l.971-2.718-5.475-4.533-1.701 1.408-.957-1.155 2.179-1.804c.278-.229.679-.229.957 0l6.359 5.265c.243.201.334.533.228.83l-1.282 3.588c-.092.259-.319.446-.59.489-.582.091-1.02.603-1.02 1.19 0 .667.541 1.211 1.207 1.211s1.207-.543 1.207-1.211c0-.087-.011-.173-.033-.263-.029-.08-.045-.166-.045-.256 0-.001 0-.003 0-.003v-.001c0-.001 0-.001 0-.002v-.001c0-.016.001-.033.002-.049v-.001c.011-.151.068-.302.162-.419l3.991-4.99c.218-.272.594-.359.91-.208.315.15.484.498.409.838z"/></g><g><path d="m8.952 25.347-2.934-13.235c-.075-.341.094-.688.409-.839.316-.15.692-.063.91.209l3.981 5c.152.191.202.444.133.678-.025.086-.038.19-.038.309 0 .667.541 1.211 1.207 1.211s1.207-.543 1.207-1.211c0-.587-.438-1.099-1.02-1.19-.271-.042-.498-.23-.59-.489l-1.282-3.588c-.106-.297-.015-.629.228-.83l2.092-1.732.957 1.155-1.688 1.397.971 2.718c1.07.37 1.831 1.398 1.831 2.559 0 1.495-1.214 2.711-2.707 2.711s-2.707-1.216-2.707-2.711c0-.11.006-.217.018-.321l-1.746-2.192 2.232 10.067z"/></g><g><path d="m18 16.5c-.272 0-.523-.147-.656-.386l-1.25-2.25c-.125-.227-.125-.502 0-.729l1.25-2.25c.265-.477 1.047-.477 1.312 0l1.25 2.25c.125.227.125.502 0 .729l-1.25 2.25c-.133.239-.384.386-.656.386zm-.392-3 .392.706.392-.706-.392-.706z"/></g></svg>