<svg id="LINE" enable-background="new 0 0 36 36" height="512" viewBox="0 0 36 36" width="512" xmlns="http://www.w3.org/2000/svg"><g><path d="m8.377 4.167c6.917 0 11.667-3.583 15-3.583s10.333 1.916 10.333 17.249-9.417 17.583-13.083 17.583c-17.167.001-24.5-31.249-12.25-31.249z" fill="#efefef"/></g><g><path d="m32.71 27.25c-.827 0-1.5-.673-1.5-1.5s.673-1.5 1.5-1.5 1.5.673 1.5 1.5-.673 1.5-1.5 1.5zm0-2c-.275 0-.5.224-.5.5s.225.5.5.5.5-.224.5-.5-.225-.5-.5-.5z" fill="#a4afc1"/></g><g><path d="m32.326 6.106h1v2h-1z" fill="#a4afc1" transform="matrix(.707 -.707 .707 .707 4.59 25.293)"/></g><g><path d="m28.261 2.04h1v2h-1z" fill="#a4afc1" transform="matrix(.707 -.707 .707 .707 6.274 21.227)"/></g><g><path d="m32.003 2.54h2v1h-2z" fill="#a4afc1" transform="matrix(.707 -.707 .707 .707 7.517 24.227)"/></g><g><path d="m8.275 25.822-1.525-15.177 2.935 4.868 2.445-6.816 2.935 5.842 2.935-7.789 2.935 7.789 2.935-5.842 2.445 6.816 2.935-4.868-1.52 15.129z" fill="#2fdf84"/></g><g><path d="m18 19.75-1.25 1.75 1.25 1.75 1.25-1.75z" fill="#f3f3f1"/></g><g><path d="m12 19.75-1.25 1.75 1.25 1.75 1.25-1.75z" fill="#f3f3f1"/></g><g><path d="m24 19.75-1.25 1.75 1.25 1.75 1.25-1.75z" fill="#f3f3f1"/></g><g><path d="m27.5 29.25h-19c-.966 0-1.75-.784-1.75-1.75 0-.966.784-1.75 1.75-1.75h19c.966 0 1.75.784 1.75 1.75 0 .967-.784 1.75-1.75 1.75z" fill="#f3f3f1"/></g><g><path d="m28.315 15.513.535-.887.4-3.981-1.681 2.788z" fill="#00b871"/></g><g><path d="m22.935 14.539 1.768-3.519-.833-2.323-1.792 3.568z" fill="#00b871"/></g><g><path d="m9.15 14.626-2.4-3.981 1.525 15.176 1.999-.004z" fill="#00b871"/></g><g><path d="m11.685 15.513 1.612-4.493-1.167-2.323-1.699 4.736z" fill="#00b871"/></g><g><path d="m17.065 14.539 1.935-5.135-1-2.654-2.078 5.514z" fill="#00b871"/></g><g><path d="m28.477 25.849-1.492-.15 1.187-11.811-1.214 2.012c-.149.248-.423.391-.717.359-.288-.028-.534-.22-.632-.493l-1.855-5.169-2.149 4.279c-.134.266-.409.425-.709.413-.298-.016-.558-.206-.663-.484l-2.233-5.928-2.232 5.927c-.105.278-.365.469-.663.484-.296.013-.575-.146-.709-.413l-2.149-4.279-1.855 5.169c-.098.272-.344.464-.632.493-.3.034-.569-.11-.718-.358l-1.213-2.012.333 3.312-1.492.151-.666-6.631c-.035-.349.177-.676.509-.786.332-.113.698.023.88.324l2.119 3.517 1.913-5.33c.102-.282.361-.477.661-.495.298-.018.58.144.715.412l2.166 4.312 2.331-6.188c.11-.293.39-.486.702-.486s.592.193.702.485l2.331 6.188 2.166-4.312c.135-.268.415-.431.715-.412.3.018.56.213.661.495l1.913 5.33 2.119-3.517c.182-.301.549-.437.88-.324.332.11.544.438.509.786z"/></g><g><path d="m7.181 18.958h1.5v6.88h-1.5z" transform="matrix(.995 -.1 .1 .995 -2.199 .905)"/></g><g><path d="m18 24c-.242 0-.47-.117-.61-.314l-1.25-1.75c-.187-.261-.187-.611 0-.872l1.25-1.75c.281-.394.939-.394 1.221 0l1.25 1.75c.187.261.187.611 0 .872l-1.25 1.75c-.141.197-.369.314-.611.314zm-.328-2.5.328.459.328-.459-.328-.459z"/></g><g><path d="m12 24c-.242 0-.47-.117-.61-.314l-1.25-1.75c-.187-.261-.187-.611 0-.872l1.25-1.75c.281-.394.939-.394 1.221 0l1.25 1.75c.187.261.187.611 0 .872l-1.25 1.75c-.141.197-.369.314-.611.314zm-.328-2.5.328.459.328-.459-.328-.459z"/></g><g><path d="m24 24c-.242 0-.47-.117-.61-.314l-1.25-1.75c-.187-.261-.187-.611 0-.872l1.25-1.75c.281-.394.939-.394 1.221 0l1.25 1.75c.187.261.187.611 0 .872l-1.25 1.75c-.141.197-.369.314-.611.314zm-.328-2.5.328.459.328-.459-.328-.459z"/></g><g><path d="m27.5 30h-19c-1.379 0-2.5-1.122-2.5-2.5s1.121-2.5 2.5-2.5h19c1.379 0 2.5 1.122 2.5 2.5s-1.121 2.5-2.5 2.5zm-19-3.5c-.552 0-1 .449-1 1s.448 1 1 1h19c.552 0 1-.449 1-1s-.448-1-1-1z"/></g></svg>