<svg id="LINE" enable-background="new 0 0 36 36" height="512" viewBox="0 0 36 36" width="512" xmlns="http://www.w3.org/2000/svg"><g><path d="m13.411 34.999c6.298-2.859 12.105-1.559 15.14-2.936 3.035-1.378 8.617-6.016 2.28-19.978s-15.841-12.12-19.18-10.605c-15.632 7.095-9.395 38.582 1.76 33.519z" fill="#efefef"/></g><g><path d="m32.273 11.216h1v2h-1z" fill="#a4afc1" transform="matrix(.707 -.707 .707 .707 .958 26.747)"/></g><g><path d="m28.207 7.151h1v2h-1z" fill="#a4afc1" transform="matrix(.707 -.707 .707 .707 2.645 22.686)"/></g><g><path d="m31.95 7.651h2v1h-2z" fill="#a4afc1" transform="matrix(.707 -.707 .707 .707 3.887 25.686)"/></g><g><path d="m7 28.75c-.827 0-1.5-.673-1.5-1.5s.673-1.5 1.5-1.5 1.5.673 1.5 1.5-.673 1.5-1.5 1.5zm0-2c-.276 0-.5.224-.5.5s.224.5.5.5.5-.224.5-.5-.224-.5-.5-.5z" fill="#a4afc1"/></g><g><path d="m9.724 25.25-.974-10.656 4.382 3.875 4.868-8.719 4.868 8.719 4.382-3.875-.974 10.656z" fill="#2fdf84"/></g><g><circle cx="18" cy="8" fill="#f3f3f1" r="1.25"/></g><g><circle cx="28" cy="13" fill="#2fdf84" r="1.25"/></g><g><circle cx="8" cy="13" fill="#f3f3f1" r="1.25"/></g><g><path d="m18 18.25-1.25 1.75 1.25 1.75 1.25-1.75z" fill="#f3f3f1"/></g><g><path d="m27.5 29.25h-19c-.966 0-1.75-.784-1.75-1.75 0-.966.784-1.75 1.75-1.75h19c.966 0 1.75.784 1.75 1.75 0 .967-.784 1.75-1.75 1.75z" fill="#f3f3f1"/></g><g><path d="m8.75 14.594.974 10.656h2l-.798-8.732z" fill="#00b871"/></g><g><path d="m27.023 25.318-1.494-.137.802-8.774-2.965 2.623c-.17.15-.4.216-.623.177-.224-.038-.418-.175-.529-.374l-2.028-3.632 1.31-.731 1.574 2.819 3.684-3.258c.231-.204.562-.246.836-.107s.436.431.408.737z"/></g><g><path d="m8.977 25.318-.974-10.656c-.028-.306.134-.599.408-.737s.606-.096.836.107l3.684 3.258 4.415-7.906c.265-.475 1.045-.475 1.31 0l1.926 3.45-1.31.731-1.272-2.276-4.214 7.546c-.111.198-.305.335-.529.374-.224.04-.453-.027-.623-.177l-2.965-2.623.802 8.774z"/></g><g><path d="m18 10c-1.103 0-2-.897-2-2s.897-2 2-2 2 .897 2 2-.897 2-2 2zm0-2.5c-.276 0-.5.224-.5.5s.224.5.5.5.5-.224.5-.5-.224-.5-.5-.5z"/></g><g><circle cx="28" cy="13" fill="#f3f3f1" r="1.25"/><path d="m28 15c-1.103 0-2-.897-2-2s.897-2 2-2 2 .897 2 2-.897 2-2 2zm0-2.5c-.276 0-.5.224-.5.5s.224.5.5.5.5-.224.5-.5-.224-.5-.5-.5z"/></g><g><path d="m8 15c-1.103 0-2-.897-2-2s.897-2 2-2 2 .897 2 2-.897 2-2 2zm0-2.5c-.276 0-.5.224-.5.5s.224.5.5.5.5-.224.5-.5-.224-.5-.5-.5z"/></g><g><path d="m18 22.5c-.242 0-.47-.117-.61-.314l-1.25-1.75c-.186-.261-.186-.611 0-.872l1.25-1.75c.281-.394.939-.394 1.221 0l1.25 1.75c.186.261.186.611 0 .872l-1.25 1.75c-.141.197-.369.314-.611.314zm-.328-2.5.328.459.328-.459-.328-.459z"/></g><g><path d="m27.5 30h-19c-1.378 0-2.5-1.122-2.5-2.5s1.122-2.5 2.5-2.5h19c1.378 0 2.5 1.122 2.5 2.5s-1.122 2.5-2.5 2.5zm-19-3.5c-.551 0-1 .449-1 1s.449 1 1 1h19c.551 0 1-.449 1-1s-.449-1-1-1z"/></g></svg>