<svg id="LINE" enable-background="new 0 0 36 36" height="512" viewBox="0 0 36 36" width="512" xmlns="http://www.w3.org/2000/svg"><g><path d="m34.904 20.355c-3.782-5.791-3.38-11.727-5.203-14.518s-7.256-7.603-20.093.782-9.572 17.5-7.566 20.569c9.388 14.372 39.561 3.423 32.862-6.833z" fill="#efefef"/></g><g><path d="m31.62 13.713c-.827 0-1.5-.673-1.5-1.5s.673-1.5 1.5-1.5 1.5.673 1.5 1.5-.673 1.5-1.5 1.5zm0-2c-.275 0-.5.224-.5.5s.225.5.5.5.5-.224.5-.5-.224-.5-.5-.5z" fill="#a4afc1"/></g><g><path d="m7.783 5.831h2v1h-2z" fill="#a4afc1" transform="matrix(.707 -.707 .707 .707 -1.904 8.065)"/></g><g><path d="m3.717 9.897h2v1h-2z" fill="#a4afc1" transform="matrix(.707 -.707 .707 .707 -5.97 6.38)"/></g><g><path d="m4.217 5.154h1v2h-1z" fill="#a4afc1" transform="matrix(.707 -.707 .707 .707 -2.97 5.138)"/></g><g><circle cx="18" cy="8" fill="#2fdf84" r="1.25"/></g><g><path d="m10.137 25.25-3.387-7.266c8.226 2.422 11.129-8.234 11.129-8.234s3.794 11.113 11.371 8.234l-2.836 7.266z" fill="#2fdf84"/></g><g><path d="m10.408 18.217c-.242-1.628-.774-4.631-1.723-7.498 1.548 1.579 4.365 3.565 6.135 4.766z" fill="#f3f3f1"/></g><g><path d="m25.592 18.217c.242-1.628.774-4.631 1.723-7.498-1.548 1.579-4.365 3.565-6.135 4.766z" fill="#f3f3f1"/></g><g><path d="m18 18.25-1.25 1.75 1.25 1.75 1.25-1.75z" fill="#f3f3f1"/></g><g><path d="m27.5 29.25h-19c-.966 0-1.75-.784-1.75-1.75 0-.966.784-1.75 1.75-1.75h19c.966 0 1.75.784 1.75 1.75 0 .967-.784 1.75-1.75 1.75z" fill="#f3f3f1"/></g><g><path d="m18.949 12.159c-.712-1.364-1.07-2.409-1.07-2.409s-2.102 7.703-7.79 8.518c4.81.645 7.563-3.368 8.86-6.109z" fill="#00b871"/></g><g><path d="m29.069 18.448.181-.464c-.496.188-.975.314-1.438.389.404.068.822.095 1.257.075z" fill="#00b871"/></g><g><path d="m6.75 17.984 3.387 7.266h2l-3.221-6.91c-.677-.018-1.398-.129-2.166-.356z" fill="#00b871"/></g><g><path d="m11.353 12.999c-1.005-.77-1.967-1.566-2.667-2.28.948 2.867 1.481 5.871 1.723 7.498l1.818-1.126c-.195-1.134-.478-2.57-.874-4.092z" fill="#d5dbe1"/></g><g><path d="m25.592 18.217c.242-1.628.774-4.631 1.723-7.498-1.548 1.579-4.365 3.565-6.135 4.766z" fill="#f3f3f1"/></g><g><path d="m8.75 27.5c0-.966.784-1.75 1.75-1.75h-2c-.966 0-1.75.784-1.75 1.75s.784 1.75 1.75 1.75h2c-.966 0-1.75-.784-1.75-1.75z" fill="#d5dbe1"/></g><g><path d="m18 10c-1.103 0-2-.897-2-2s.897-2 2-2 2 .897 2 2-.897 2-2 2zm0-2.5c-.275 0-.5.224-.5.5s.225.5.5.5.5-.224.5-.5-.225-.5-.5-.5z"/></g><g><path d="m9.457 25.567-3.387-7.266c-.125-.267-.081-.583.111-.806.191-.223.496-.315.78-.23 1.874.551 3.598.399 5.122-.45 3.593-2.002 5.057-7.21 5.071-7.263l1.447.395c-.064.238-1.637 5.86-5.782 8.175-1.462.816-3.056 1.118-4.757.904l2.753 5.907z"/></g><g><path d="m28.772 20.785-1.359-.634.523-1.125c-1.703.214-3.295-.088-4.757-.904-4.146-2.314-5.718-7.937-5.782-8.175l1.447-.395c.015.052 1.479 5.261 5.071 7.263 1.525.85 3.25 1.001 5.122.45.286-.085.589.007.78.23.192.224.236.539.111.806z"/></g><g><path d="m24.718 22.702h3.967v1.5h-3.967z" transform="matrix(.423 -.906 .906 .423 -5.838 37.742)"/></g><g><path d="m9.666 18.327c-.228-1.53-.75-4.523-1.692-7.373-.109-.331.023-.694.321-.876.298-.18.682-.133.926.116 1.124 1.146 3.206 2.761 6.021 4.67l-.842 1.241c-1.712-1.16-3.14-2.2-4.272-3.109.529 2.076.854 3.98 1.022 5.11z"/></g><g><path d="m26.334 18.327-1.484-.221c.169-1.13.493-3.034 1.022-5.11-1.133.91-2.561 1.949-4.272 3.109l-.842-1.241c2.815-1.909 4.897-3.524 6.021-4.67.244-.249.629-.297.926-.116.298.182.431.545.321.876-.942 2.85-1.464 5.843-1.692 7.373z"/></g><g><path d="m18 22.5c-.242 0-.47-.117-.61-.314l-1.25-1.75c-.187-.261-.187-.611 0-.872l1.25-1.75c.281-.394.939-.394 1.221 0l1.25 1.75c.187.261.187.611 0 .872l-1.25 1.75c-.141.197-.369.314-.611.314zm-.328-2.5.328.459.328-.459-.328-.459z"/></g><g><path d="m27.5 30h-19c-1.379 0-2.5-1.122-2.5-2.5s1.121-2.5 2.5-2.5h19c1.379 0 2.5 1.122 2.5 2.5s-1.121 2.5-2.5 2.5zm-19-3.5c-.552 0-1 .449-1 1s.448 1 1 1h19c.552 0 1-.449 1-1s-.448-1-1-1z"/></g></svg>