<svg id="LINE" enable-background="new 0 0 36 36" height="512" viewBox="0 0 36 36" width="512" xmlns="http://www.w3.org/2000/svg"><g><path d="m34.904 20.355c-3.782-5.791-3.38-11.727-5.203-14.518s-7.256-7.603-20.093.782-9.572 17.5-7.566 20.569c9.388 14.372 39.561 3.423 32.862-6.833z" fill="#efefef"/></g><g><path d="m20 3.5h2v1h-2z" fill="#a4afc1"/></g><g><path d="m14.25 3.5h2v1h-2z" fill="#a4afc1"/></g><g><path d="m17.75 0h1v2h-1z" fill="#a4afc1"/></g><g><path d="m33.185 29.792c-.827 0-1.5-.673-1.5-1.5s.673-1.5 1.5-1.5 1.5.673 1.5 1.5-.673 1.5-1.5 1.5zm0-2c-.276 0-.5.224-.5.5s.224.5.5.5.5-.224.5-.5-.224-.5-.5-.5z" fill="#a4afc1"/></g><g><path d="m27.5 29.25h-19c-.966 0-1.75-.784-1.75-1.75 0-.966.784-1.75 1.75-1.75h19c.966 0 1.75.784 1.75 1.75 0 .967-.784 1.75-1.75 1.75z" fill="#f3f3f1"/></g><g><path d="m8.707 25.25-1.957-13.632 6.359 3.895 4.891-8.763 4.891 8.763 6.359-3.895-1.957 13.632z" fill="#2fdf84"/></g><g><path d="m18 18.75-1.25 1.75 1.25 1.75 1.25-1.75z" fill="#f3f3f1"/></g><g><path d="m12 18.75-1.25 1.75 1.25 1.75 1.25-1.75z" fill="#f3f3f1"/></g><g><path d="m24 18.75-1.25 1.75 1.25 1.75 1.25-1.75z" fill="#f3f3f1"/></g><g><path d="m6.75 11.618 1.957 13.632h2l-1.764-12.289z" fill="#00b871"/></g><g><path d="m27.5 30h-19c-1.378 0-2.5-1.122-2.5-2.5s1.122-2.5 2.5-2.5h19c1.378 0 2.5 1.122 2.5 2.5s-1.122 2.5-2.5 2.5zm-19-3.5c-.551 0-1 .449-1 1s.449 1 1 1h19c.551 0 1-.449 1-1s-.449-1-1-1z"/></g><g><path d="m28.036 25.356-1.484-.213 1.729-12.052-4.998 3.061c-.173.106-.385.137-.582.086-.198-.052-.365-.182-.465-.36l-1.973-3.535 1.31-.731 1.592 2.853 5.693-3.487c.247-.151.561-.147.804.013s.372.445.33.733z"/></g><g><path d="m7.964 25.356-1.956-13.631c-.042-.288.087-.573.33-.733.244-.16.556-.165.804-.013l5.693 3.487 4.511-8.082c.265-.475 1.045-.475 1.31 0l1.798 3.222-1.31.731-1.144-2.048-4.236 7.59c-.1.178-.267.308-.465.36-.197.051-.408.021-.582-.086l-4.998-3.061 1.729 12.052z"/></g><g><path d="m18 23c-.242 0-.47-.117-.61-.314l-1.25-1.75c-.186-.261-.186-.611 0-.872l1.25-1.75c.281-.394.939-.394 1.221 0l1.25 1.75c.186.261.186.611 0 .872l-1.25 1.75c-.141.197-.369.314-.611.314zm-.328-2.5.328.459.328-.459-.328-.459z"/></g><g><path d="m12 23c-.242 0-.47-.117-.61-.314l-1.25-1.75c-.186-.261-.186-.611 0-.872l1.25-1.75c.281-.394.939-.394 1.221 0l1.25 1.75c.186.261.186.611 0 .872l-1.25 1.75c-.141.197-.369.314-.611.314zm-.328-2.5.328.459.328-.459-.328-.459z"/></g><g><path d="m24 23c-.242 0-.47-.117-.61-.314l-1.25-1.75c-.186-.261-.186-.611 0-.872l1.25-1.75c.281-.394.939-.394 1.221 0l1.25 1.75c.186.261.186.611 0 .872l-1.25 1.75c-.141.197-.369.314-.611.314zm-.328-2.5.328.459.328-.459-.328-.459z"/></g></svg>