<svg id="LINE" enable-background="new 0 0 36 36" height="512" viewBox="0 0 36 36" width="512" xmlns="http://www.w3.org/2000/svg"><g><path d="m8.377 31.833c6.917 0 11.667 3.583 15 3.583s10.333-1.916 10.333-17.249-9.417-17.584-13.083-17.584c-17.167 0-24.5 31.25-12.25 31.25z" fill="#efefef"/></g><g><path d="m31.06 21.92c-.827 0-1.5-.673-1.5-1.5s.673-1.5 1.5-1.5 1.5.673 1.5 1.5-.673 1.5-1.5 1.5zm0-2c-.276 0-.5.225-.5.5s.224.5.5.5.5-.225.5-.5-.224-.5-.5-.5z" fill="#a4afc1"/></g><g><path d="m6.87 2.929h1v2h-1z" fill="#a4afc1"/></g><g><path d="m6.87 8.679h1v2h-1z" fill="#a4afc1"/></g><g><path d="m3.37 6.179h2v1h-2z" fill="#a4afc1"/></g><g><path d="m9.12 6.179h2v1h-2z" fill="#a4afc1"/></g><g><path d="m8.75 11.75h18.5v12.5h-18.5z" fill="#f3f3f1"/></g><g><path d="m8.75 11.75h2v12.5h-2z" fill="#d5dbe1"/></g><g><circle cx="17.993" cy="10" fill="#2fdf84" r="3.25"/></g><g><path d="m15.813 12.42-2.063 3.51 1.613-.101.713 1.421 1.922-3.264z" fill="#2fdf84"/></g><g><path d="m20.181 12.409 2.069 3.521-1.613-.101-.717 1.421-1.922-3.264-.439-.76z" fill="#2fdf84"/></g><g><path d="m16.743 10c0-1.444.948-2.653 2.25-3.077-.317-.103-.649-.173-1-.173-1.795 0-3.25 1.455-3.25 3.25s1.455 3.25 3.25 3.25c.351 0 .683-.07 1-.173-1.302-.424-2.25-1.633-2.25-3.077z" fill="#00b871"/></g><g><path d="m6.75 23.5h22.5v1.5h-22.5z"/></g><g><path d="m28 24.25h-1.5v-11.5c0-.138-.112-.25-.25-.25h-2.5v-1.5h2.5c.965 0 1.75.785 1.75 1.75z"/></g><g><path d="m9.5 24.25h-1.5v-11.5c0-.965.785-1.75 1.75-1.75h2.5v1.5h-2.5c-.138 0-.25.112-.25.25z"/></g><g><path d="m17.993 14c-2.206 0-4-1.794-4-4s1.794-4 4-4 4 1.794 4 4-1.795 4-4 4zm0-6.5c-1.378 0-2.5 1.121-2.5 2.5s1.122 2.5 2.5 2.5 2.5-1.121 2.5-2.5-1.122-2.5-2.5-2.5z"/></g><g><path d="m16.076 18c-.008 0-.017 0-.025 0-.274-.01-.522-.168-.645-.414l-.49-.978-1.118.07c-.278.023-.541-.119-.687-.355-.145-.236-.148-.533-.007-.772l2.063-3.511 1.293.76-1.348 2.294.205-.013c.302-.037.582.144.717.412l.095.188 1.223-2.076 1.293.762-1.922 3.264c-.136.229-.382.369-.647.369z"/></g><g><path d="m19.92 18c-.265 0-.511-.14-.646-.369l-2.365-4.03 1.3-.75 1.66 2.835.098-.194c.135-.269.414-.452.716-.41l.205.013-1.354-2.306 1.293-.76 2.069 3.522c.141.239.138.536-.008.772-.145.236-.402.395-.686.355l-1.119-.07-.494.979c-.124.245-.371.402-.645.412-.008.001-.016.001-.024.001z"/></g></svg>