<svg id="LINE" enable-background="new 0 0 36 36" height="512" viewBox="0 0 36 36" width="512" xmlns="http://www.w3.org/2000/svg"><g><path d="m8.377 31.833c6.917 0 11.667 3.583 15 3.583s10.333-1.916 10.333-17.249-9.417-17.584-13.083-17.584c-17.167 0-24.5 31.25-12.25 31.25z" fill="#efefef"/></g><g><path d="m32.71 28.202c-.827 0-1.5-.673-1.5-1.5s.673-1.5 1.5-1.5 1.5.673 1.5 1.5-.673 1.5-1.5 1.5zm0-2c-.276 0-.5.225-.5.5s.224.5.5.5.5-.225.5-.5-.224-.5-.5-.5z" fill="#a4afc1"/></g><g><path d="m3.991.583h1v2h-1z" fill="#a4afc1"/></g><g><path d="m3.991 6.333h1v2h-1z" fill="#a4afc1"/></g><g><path d="m.491 3.833h2v1h-2z" fill="#a4afc1"/></g><g><path d="m6.241 3.833h2v1h-2z" fill="#a4afc1"/></g><g><path d="m8.75 24.25v-11.5c0-.552.448-1 1-1h2.5 11.5 2.5c.552 0 1 .448 1 1v11.5z" fill="#f3f3f1"/></g><g><circle cx="18" cy="10" fill="#2fdf84" r="3.25"/></g><g><path d="m19.75 12.739v4.511l-1.75-1.298-1.75 1.298v-4.473z" fill="#f3f3f1"/></g><g><path d="m11.75 11.75h-2c-.552 0-1 .448-1 1v11.5h2v-11.5c0-.552.448-1 1-1z" fill="#d5dbe1"/></g><g><path d="m16.75 10c0-1.444.948-2.653 2.25-3.077-.317-.103-.649-.173-1-.173-1.795 0-3.25 1.455-3.25 3.25s1.455 3.25 3.25 3.25c.351 0 .683-.07 1-.173-1.302-.424-2.25-1.633-2.25-3.077z" fill="#00b871"/></g><g><path d="m6.75 23.5h22.5v1.5h-22.5z"/></g><g><path d="m28 24.25h-1.5v-11.5c0-.138-.112-.25-.25-.25h-2.5v-1.5h2.5c.965 0 1.75.785 1.75 1.75z"/></g><g><path d="m9.5 24.25h-1.5v-11.5c0-.965.785-1.75 1.75-1.75h2.5v1.5h-2.5c-.138 0-.25.112-.25.25z"/></g><g><path d="m18 14c-2.206 0-4-1.794-4-4s1.794-4 4-4 4 1.794 4 4-1.794 4-4 4zm0-6.5c-1.378 0-2.5 1.121-2.5 2.5s1.122 2.5 2.5 2.5 2.5-1.121 2.5-2.5-1.122-2.5-2.5-2.5z"/></g><g><path d="m19.75 18c-.158 0-.315-.05-.447-.147l-1.303-.967-1.303.967c-.228.17-.53.195-.784.067-.253-.127-.413-.387-.413-.67v-4.473h1.5v2.982l.553-.41c.266-.197.628-.197.894 0l.553.411v-3.021h1.5v4.512c0 .283-.16.543-.413.67-.107.053-.222.079-.337.079z"/></g></svg>