<svg id="LINE" enable-background="new 0 0 36 36" height="512" viewBox="0 0 36 36" width="512" xmlns="http://www.w3.org/2000/svg"><g><path d="m26.982 3.914c-6.916.129-11.732-3.365-15.065-3.302s-10.296 2.109-10.009 17.44 9.744 17.404 13.41 17.336c17.164-.321 23.911-31.703 11.664-31.474z" fill="#efefef"/></g><g><path d="m18.538 30.75c-.827 0-1.5-.673-1.5-1.5s.673-1.5 1.5-1.5 1.5.673 1.5 1.5-.673 1.5-1.5 1.5zm0-2c-.275 0-.5.225-.5.5s.225.5.5.5.5-.225.5-.5-.225-.5-.5-.5z" fill="#a4afc1"/></g><g><path d="m24.642 0h1v2h-1z" fill="#a4afc1"/></g><g><path d="m21.142 3.25h2v1h-2z" fill="#a4afc1"/></g><g><path d="m26.892 3.25h2v1h-2z" fill="#a4afc1"/></g><g><path d="m23.173 12.827-2.758 2.758z" fill="#2fdf84"/></g><g><path d="m15.569 20.431-2.758 2.758z" fill="#2fdf84"/></g><g><path d="m18.608 14.655.007-.007 5.62-7.722c1.127-1.127 5.966 3.712 4.839 4.839l-7.722 5.62-.007.007z" fill="#f3f3f1"/></g><g><path d="m17.377 21.374-5.627 7.715c-1.127 1.127-5.966-3.712-4.839-4.839l7.715-5.627z" fill="#f3f3f1"/></g><g><circle cx="17.987" cy="18.013" fill="#2fdf84" r="3.422"/></g><g><path d="m17.983 21.491 1.069 3.797 1.103-1.258 1.611.569-1.097-3.911z" fill="#2fdf84"/></g><g><path d="m21.463 17.994 3.808 1.07-1.261 1.104.57 1.621-3.906-1.1z" fill="#2fdf84"/></g><g><path d="m8.911 24.25 6.558-4.784-.844-.844-7.714 5.628c-1.127 1.127 3.712 5.966 4.839 4.839l.247-.339c-1.739-1.106-3.875-3.711-3.086-4.5z" fill="#d5dbe1"/></g><g><path d="m20.608 14.655.007-.007 5.373-7.382c-.743-.473-1.416-.677-1.753-.339l-5.62 7.722-.007.007 2.737 2.737.007-.007 1.15-.837z" fill="#d5dbe1"/></g><g><path d="m17.568 20.432c-1.336-1.336-1.336-3.503 0-4.839.41-.41.901-.678 1.419-.837-1.171-.358-2.493-.09-3.419.837-1.336 1.336-1.336 3.503 0 4.839.926.926 2.248 1.195 3.419.837-.518-.159-1.009-.427-1.419-.837z" fill="#00b871"/></g><g><path d="m19.844 13.456h3.902v1.5h-3.902z" transform="matrix(.707 -.707 .707 .707 -3.661 19.572)"/></g><g><path d="m12.24 21.06h3.9v1.5h-3.9z" transform="matrix(.707 -.707 .707 .707 -11.265 16.422)"/></g><g><path d="m21.793 17.992-.424-.582-.555-.548c.027-.027.064-.06.096-.083l7.582-5.519c-.03-.307-.462-1.168-1.523-2.229s-1.923-1.493-2.229-1.523l-5.519 7.582c-.023.031-.049.062-.076.089l-.557-.55-.58-.422 5.62-7.722c.023-.031.049-.062.076-.089 1.273-1.273 3.633.883 4.325 1.574.686.686 1.249 1.416 1.586 2.056.643 1.223.349 1.909-.012 2.27-.027.027-.058.053-.089.076z"/></g><g><path d="m11.308 30.015c-1.262 0-2.813-1.431-3.353-1.97-.692-.692-2.851-3.049-1.574-4.325.027-.027.057-.053.088-.075l7.715-5.627.885 1.211-7.576 5.525c.03.308.461 1.168 1.523 2.23s1.923 1.493 2.23 1.523l1.092-1.497 1.211.885-1.193 1.636c-.022.031-.048.061-.075.088-.282.281-.616.396-.973.396z"/></g><g><path d="m13.08 22.808h5.407v1.501h-5.407z" transform="matrix(.59 -.808 .808 .59 -12.55 22.416)"/></g><g><path d="m17.987 22.185c-1.114 0-2.162-.435-2.949-1.223-.788-.787-1.223-1.835-1.223-2.949s.435-2.162 1.223-2.95c1.625-1.627 4.272-1.627 5.899 0 1.626 1.627 1.626 4.273 0 5.899-.788.788-1.835 1.223-2.95 1.223zm0-6.843c-.684 0-1.368.261-1.889.781-.505.505-.783 1.176-.783 1.89 0 .713.278 1.384.783 1.889 1.01 1.01 2.769 1.009 3.778 0 1.041-1.041 1.041-2.736 0-3.778-.521-.521-1.204-.782-1.889-.782z"/></g><g><path d="m19.052 26.038c-.055 0-.11-.006-.166-.019-.268-.061-.481-.264-.556-.528l-1.068-3.797 1.443-.406.694 2.466.19-.218c.203-.231.528-.316.813-.213l.25.088-.706-2.521 1.443-.404 1.097 3.91c.076.27-.005.559-.209.75-.205.19-.5.255-.762.159l-1.133-.399-.768.876c-.142.165-.348.256-.562.256z"/></g><g><path d="m24.58 22.539c-.067 0-.136-.009-.203-.028l-3.906-1.101.406-1.443 2.518.709-.092-.26c-.102-.289-.017-.61.214-.812l.219-.191-2.476-.696.406-1.443 3.808 1.07c.265.074.468.288.528.556.061.269-.03.549-.237.73l-.878.77.401 1.143c.093.264.03.558-.161.762-.144.15-.343.234-.547.234z"/></g></svg>