<svg id="LINE" enable-background="new 0 0 36 36" height="512" viewBox="0 0 36 36" width="512" xmlns="http://www.w3.org/2000/svg"><g><path d="m34.904 20.355c-3.782-5.791-3.38-11.727-5.203-14.518s-7.256-7.603-20.093.782-9.572 17.5-7.566 20.569c9.388 14.372 39.561 3.423 32.862-6.833z" fill="#efefef"/></g><g><path d="m13.089 10.759h2v1h-2z" fill="#a4afc1" transform="matrix(.707 -.707 .707 .707 -3.835 13.26)"/></g><g><path d="m9.024 14.824h2v1h-2z" fill="#a4afc1" transform="matrix(.707 -.707 .707 .707 -7.9 11.576)"/></g><g><path d="m9.523 10.082h1v2h-1z" fill="#a4afc1" transform="matrix(.707 -.707 .707 .707 -4.9 10.334)"/></g><g><path d="m26.687 27.243c-.827 0-1.5-.673-1.5-1.5s.673-1.5 1.5-1.5 1.5.673 1.5 1.5-.673 1.5-1.5 1.5zm0-2c-.275 0-.5.225-.5.5s.225.5.5.5.5-.225.5-.5-.225-.5-.5-.5z" fill="#a4afc1"/></g><g><path d="m23.177 12.823-2.426 2.426z" fill="#2fdf84"/></g><g><path d="m15.566 20.434-2.758 2.758z" fill="#2fdf84"/></g><g><circle cx="18.004" cy="18.019" fill="#2fdf84" r="3.422"/></g><g><path d="m21.38 18.63 3.168 3.168-2.42.346-.345 2.419-3.169-3.168z" fill="#2fdf84"/></g><g><path d="m18.608 14.655 5.627-7.728c1.127-1.127 5.966 3.712 4.839 4.839l-7.708 5.62z" fill="#f3f3f1"/></g><g><path d="m17.37 21.381-5.62 7.708c-1.127 1.127-5.966-3.712-4.839-4.839l7.728-5.627z" fill="#f3f3f1"/></g><g><path d="m8.911 24.25 6.558-4.784-.844-.844-7.714 5.628c-1.127 1.127 3.712 5.966 4.839 4.839l.247-.339c-1.739-1.106-3.875-3.711-3.086-4.5z" fill="#d5dbe1"/></g><g><path d="m20.608 14.655.007-.007 5.373-7.382c-.743-.473-1.416-.677-1.753-.339l-5.62 7.722-.007.007 2.737 2.737.007-.007 1.15-.837z" fill="#d5dbe1"/></g><g><path d="m17.568 20.432c-1.336-1.336-1.336-3.503 0-4.839.41-.41.901-.678 1.419-.837-1.171-.358-2.493-.09-3.419.837-1.336 1.336-1.336 3.503 0 4.839.926.926 2.248 1.195 3.419.837-.518-.159-1.009-.427-1.419-.837z" fill="#00b871"/></g><g><path d="m20.249 13.286h3.431v1.5h-3.431z" transform="matrix(.707 -.707 .707 .707 -3.492 19.642)"/></g><g><path d="m12.236 21.063h3.902v1.5h-3.902z" transform="matrix(.707 -.707 .707 .707 -11.269 16.421)"/></g><g><path d="m18.004 22.188c-1.068 0-2.137-.406-2.95-1.22-1.627-1.626-1.627-4.273 0-5.899 1.627-1.625 4.272-1.627 5.899 0 .788.788 1.223 1.835 1.223 2.949 0 1.115-.435 2.163-1.223 2.95-.813.814-1.881 1.22-2.949 1.22zm0-6.839c-.685 0-1.368.261-1.89.781-1.042 1.042-1.042 2.736 0 3.778 1.043 1.041 2.737 1.042 3.778 0 .505-.505.783-1.176.783-1.89 0-.713-.278-1.384-.783-1.889-.52-.52-1.204-.78-1.888-.78z"/></g><g><path d="m21.783 25.313c-.195 0-.388-.077-.53-.22l-3.169-3.169 1.061-1.061 2.108 2.108.134-.936c.047-.329.306-.589.636-.636l.935-.134-2.108-2.105 1.06-1.06 3.168 3.168c.201.201.271.498.182.768s-.324.465-.605.505l-1.862.267-.267 1.863c-.04.281-.235.516-.505.605-.079.025-.159.037-.238.037z"/></g><g><path d="m21.809 17.992-.885-1.213 7.568-5.518c-.03-.308-.461-1.168-1.523-2.23s-1.923-1.493-2.23-1.523l-5.524 7.589-1.213-.883 5.627-7.729c.023-.031.049-.062.076-.089 1.274-1.273 3.634.883 4.325 1.574.686.686 1.249 1.416 1.586 2.056.643 1.223.349 1.909-.012 2.27-.027.027-.057.053-.088.076z"/></g><g><path d="m11.308 30.015c-1.262 0-2.813-1.431-3.353-1.97-.692-.692-2.851-3.049-1.574-4.325.027-.027.057-.053.088-.075l7.715-5.627.885 1.211-7.576 5.525c.03.308.461 1.168 1.523 2.23s1.923 1.493 2.23 1.523l1.092-1.497 1.211.885-1.193 1.636c-.022.031-.048.061-.075.088-.282.281-.616.396-.973.396z"/></g><g><path d="m13.08 22.808h5.407v1.501h-5.407z" transform="matrix(.59 -.808 .808 .59 -12.55 22.416)"/></g></svg>