<svg id="LINE" enable-background="new 0 0 36 36" height="512" viewBox="0 0 36 36" width="512" xmlns="http://www.w3.org/2000/svg"><g><path d="m27.417 3.914c-6.915.129-11.732-3.365-15.064-3.302s-10.296 2.109-10.009 17.44 9.744 17.404 13.41 17.336c17.163-.321 23.911-31.703 11.663-31.474z" fill="#efefef"/></g><g><path d="m32.168 30.75c-.827 0-1.5-.673-1.5-1.5s.673-1.5 1.5-1.5 1.5.673 1.5 1.5-.673 1.5-1.5 1.5zm0-2c-.276 0-.5.225-.5.5s.224.5.5.5.5-.225.5-.5-.224-.5-.5-.5z" fill="#a4afc1"/></g><g><path d="m4.883 1h1v2h-1z" fill="#a4afc1"/></g><g><path d="m4.883 6.75h1v2h-1z" fill="#a4afc1"/></g><g><path d="m1.383 4.25h2v1h-2z" fill="#a4afc1"/></g><g><path d="m7.133 4.25h2v1h-2z" fill="#a4afc1"/></g><g><path d="m23.25 29.25h-10.5c-1.105 0-2-.895-2-2v-18.5c0-1.105.895-2 2-2h10.5c1.105 0 2 .895 2 2v18.5c0 1.105-.895 2-2 2z" fill="#f3f3f1"/></g><g><circle cx="17.993" cy="14" fill="#2fdf84" r="3.25"/></g><g><path d="m15.813 16.42-2.063 3.51 1.613-.101.713 1.421 1.922-3.264z" fill="#f3f3f1"/></g><g><path d="m20.181 16.409 2.069 3.521-1.613-.101-.717 1.421-1.922-3.264-.439-.76z" fill="#f3f3f1"/></g><g><path d="m16.743 14c0-1.444.948-2.653 2.25-3.077-.317-.103-.649-.173-1-.173-1.795 0-3.25 1.455-3.25 3.25s1.455 3.25 3.25 3.25c.351 0 .683-.07 1-.173-1.302-.424-2.25-1.633-2.25-3.077z" fill="#00b871"/></g><g><path d="m12.75 27.25v-18.5c0-1.105.895-2 2-2h-2c-1.105 0-2 .895-2 2v18.5c0 1.105.895 2 2 2h2c-1.105 0-2-.895-2-2z" fill="#d5dbe1"/></g><g><path d="m24.461 29.25h-12.922c-.436 0-.789-.353-.789-.789v-1.922c0-.436.353-.789.789-.789h12.922c.436 0 .789.353.789.789v1.922c0 .436-.353.789-.789.789z" fill="#2fdf84"/></g><g><path d="m12.75 28.461v-1.922c0-.436.353-.789.789-.789h-2c-.436 0-.789.353-.789.789v1.922c0 .436.353.789.789.789h2c-.436 0-.789-.353-.789-.789z" fill="#00b871"/></g><g><path d="m16.74 25h8.51v1.5h-8.51z"/></g><g><path d="m10.75 25h3.66v1.5h-3.66z"/></g><g><path d="m23.25 30h-10.5c-1.517 0-2.75-1.233-2.75-2.75v-18.5c0-1.517 1.233-2.75 2.75-2.75h10.5c1.517 0 2.75 1.233 2.75 2.75v18.5c0 1.517-1.233 2.75-2.75 2.75zm-10.5-22.5c-.689 0-1.25.561-1.25 1.25v18.5c0 .689.561 1.25 1.25 1.25h10.5c.689 0 1.25-.561 1.25-1.25v-18.5c0-.689-.561-1.25-1.25-1.25z"/></g><g><path d="m17.993 18c-2.206 0-4-1.794-4-4s1.794-4 4-4 4 1.794 4 4-1.795 4-4 4zm0-6.5c-1.378 0-2.5 1.121-2.5 2.5s1.122 2.5 2.5 2.5 2.5-1.121 2.5-2.5-1.122-2.5-2.5-2.5z"/></g><g><path d="m16.076 22c-.008 0-.017 0-.025 0-.274-.01-.522-.168-.645-.414l-.49-.978-1.118.07c-.283.019-.541-.119-.687-.355-.145-.236-.148-.533-.007-.772l2.063-3.511 1.293.76-1.348 2.294.205-.013c.297-.037.583.144.717.412l.095.188 1.223-2.076 1.293.762-1.922 3.264c-.136.229-.382.369-.647.369z"/></g><g><path d="m19.92 22c-.265 0-.511-.14-.646-.369l-2.365-4.03 1.3-.75 1.66 2.835.098-.194c.135-.269.413-.429.716-.41l.205.013-1.354-2.305 1.293-.76 2.069 3.521c.141.239.138.536-.008.772-.145.236-.399.372-.686.355l-1.119-.07-.494.979c-.124.245-.371.402-.645.412-.008.001-.016.001-.024.001z"/></g></svg>