<svg id="LINE" enable-background="new 0 0 36 36" height="512" viewBox="0 0 36 36" width="512" xmlns="http://www.w3.org/2000/svg"><g><path d="m27.417 3.914c-6.915.129-11.732-3.365-15.064-3.302s-10.296 2.109-10.009 17.44 9.744 17.404 13.41 17.336c17.163-.321 23.911-31.703 11.663-31.474z" fill="#efefef"/></g><g><path d="m29 8.25c-.827 0-1.5-.673-1.5-1.5s.673-1.5 1.5-1.5 1.5.673 1.5 1.5-.673 1.5-1.5 1.5zm0-2c-.275 0-.5.225-.5.5s.225.5.5.5.5-.225.5-.5-.225-.5-.5-.5z" fill="#a4afc1"/></g><g><path d="m28 28h1v2h-1z" fill="#a4afc1"/></g><g><path d="m28 33.75h1v2h-1z" fill="#a4afc1"/></g><g><path d="m24.5 31.25h2v1h-2z" fill="#a4afc1"/></g><g><path d="m30.25 31.25h2v1h-2z" fill="#a4afc1"/></g><g><path d="m23.25 29.25h-10.5c-1.105 0-2-.895-2-2v-18.5c0-1.105.895-2 2-2h10.5c1.105 0 2 .895 2 2v18.5c0 1.105-.895 2-2 2z" fill="#f3f3f1"/></g><g><path d="m12.75 27.25v-18.5c0-1.105.895-2 2-2h-2c-1.105 0-2 .895-2 2v18.5c0 1.105.895 2 2 2h2c-1.105 0-2-.895-2-2z" fill="#d5dbe1"/></g><g><path d="m24.461 29.25h-12.922c-.436 0-.789-.353-.789-.789v-1.922c0-.436.353-.789.789-.789h12.922c.436 0 .789.353.789.789v1.922c0 .436-.353.789-.789.789z" fill="#2fdf84"/></g><g><path d="m12.75 28.461v-1.922c0-.436.353-.789.789-.789h-2c-.436 0-.789.353-.789.789v1.922c0 .436.353.789.789.789h2c-.436 0-.789-.353-.789-.789z" fill="#00b871"/></g><g><circle cx="18" cy="14" fill="#2fdf84" r="3.25"/></g><g><path d="m19.75 16.739v4.511l-1.75-1.298-1.75 1.298v-4.473z" fill="#2fdf84"/></g><g><path d="m16.75 14c0-1.444.948-2.653 2.25-3.077-.317-.103-.649-.173-1-.173-1.795 0-3.25 1.455-3.25 3.25s1.455 3.25 3.25 3.25c.351 0 .683-.07 1-.173-1.302-.424-2.25-1.633-2.25-3.077z" fill="#00b871"/></g><g><path d="m23.25 30h-10.5c-1.517 0-2.75-1.233-2.75-2.75v-18.5c0-1.517 1.233-2.75 2.75-2.75h10.5c1.517 0 2.75 1.233 2.75 2.75v18.5c0 1.517-1.233 2.75-2.75 2.75zm-10.5-22.5c-.689 0-1.25.561-1.25 1.25v18.5c0 .689.561 1.25 1.25 1.25h10.5c.689 0 1.25-.561 1.25-1.25v-18.5c0-.689-.561-1.25-1.25-1.25z"/></g><g><path d="m18 18c-2.206 0-4-1.794-4-4s1.794-4 4-4 4 1.794 4 4-1.794 4-4 4zm0-6.5c-1.379 0-2.5 1.121-2.5 2.5s1.121 2.5 2.5 2.5 2.5-1.121 2.5-2.5-1.121-2.5-2.5-2.5z"/></g><g><path d="m19.75 22c-.158 0-.315-.05-.446-.147l-1.304-.967-1.304.967c-.226.168-.53.195-.783.067-.253-.127-.413-.387-.413-.67v-4.473h1.5v2.982l.554-.41c.264-.197.629-.197.893 0l.553.411v-3.021h1.5v4.512c0 .283-.16.543-.413.67-.107.053-.222.079-.337.079z"/></g><g><path d="m16.739 25h8.511v1.5h-8.511z"/></g><g><path d="m10.75 25h3.66v1.5h-3.66z"/></g></svg>