<svg id="LINE" enable-background="new 0 0 36 36" height="512" viewBox="0 0 36 36" width="512" xmlns="http://www.w3.org/2000/svg"><g><path d="m1.063 15.31c3.655 5.872 3.123 11.798 4.885 14.628s7.088 7.76 20.105-.343 9.951-17.286 8.014-20.399c-9.072-14.574-39.477-4.285-33.004 6.114z" fill="#efefef"/></g><g><path d="m31 6.735c-.827 0-1.5-.673-1.5-1.5s.673-1.5 1.5-1.5 1.5.673 1.5 1.5-.673 1.5-1.5 1.5zm0-2c-.275 0-.5.224-.5.5s.225.5.5.5.5-.224.5-.5-.225-.5-.5-.5z" fill="#a4afc1"/></g><g><path d="m3.5 0h1v2h-1z" fill="#a4afc1"/></g><g><path d="m3.5 5.75h1v2h-1z" fill="#a4afc1"/></g><g><path d="m0 3.25h2v1h-2z" fill="#a4afc1"/></g><g><path d="m5.75 3.25h2v1h-2z" fill="#a4afc1"/></g><g><path d="m26.25 29.25h-16.5v-2.5c0-1.105.895-2 2-2h12.5c1.105 0 2 .895 2 2z" fill="#f3f3f1"/></g><g><circle cx="18" cy="12" fill="#2fdf84" r="5.25"/></g><g><path d="m18 24.5v-7z" fill="#2fdf84"/></g><g><path d="m14.75 12c0-2.557 1.83-4.682 4.25-5.149-.324-.063-.657-.101-1-.101-2.899 0-5.25 2.351-5.25 5.25s2.351 5.25 5.25 5.25c.343 0 .676-.038 1-.101-2.42-.467-4.25-2.592-4.25-5.149z" fill="#00b871"/></g><g><path d="m13.75 24.75h-2c-1.105 0-2 .895-2 2v2.5h2v-2.5c0-1.105.895-2 2-2z" fill="#d5dbe1"/></g><g><path d="m26.25 30h-16.5c-.414 0-.75-.336-.75-.75v-2.5c0-1.517 1.233-2.75 2.75-2.75h12.5c1.517 0 2.75 1.233 2.75 2.75v2.5c0 .414-.336.75-.75.75zm-15.75-1.5h15v-1.75c0-.689-.561-1.25-1.25-1.25h-12.5c-.689 0-1.25.561-1.25 1.25z"/></g><g><path d="m18 18c-3.309 0-6-2.691-6-6 0-1.603.624-3.109 1.758-4.243l1.061 1.061c-.851.85-1.319 1.98-1.319 3.182 0 2.481 2.019 4.5 4.5 4.5s4.5-2.019 4.5-4.5-2.019-4.5-4.5-4.5c-.52 0-1.028.087-1.512.26l-.504-1.412c.645-.231 1.324-.348 2.016-.348 3.309 0 6 2.691 6 6s-2.691 6-6 6z"/></g><g><path d="m17.25 17.5h1.5v7h-1.5z"/></g><g><path d="m19.196 24.938-1.453-.375c.994-3.852 3.374-9.307 9.067-13.42l.879 1.216c-5.331 3.851-7.561 8.966-8.493 12.579z"/></g><g><path d="m16.804 24.938c-.932-3.613-3.162-8.728-8.493-12.58l.879-1.216c5.693 4.114 8.073 9.569 9.067 13.42z"/></g></svg>