<svg id="LINE" enable-background="new 0 0 36 36" height="512" viewBox="0 0 36 36" width="512" xmlns="http://www.w3.org/2000/svg"><g><path d="m13.411 34.999c6.298-2.859 12.105-1.559 15.14-2.936 3.035-1.378 8.617-6.016 2.28-19.978s-15.841-12.12-19.18-10.605c-15.632 7.095-9.395 38.582 1.76 33.519z" fill="#efefef"/></g><g><path d="m27.924 17.157c-.827 0-1.5-.673-1.5-1.5s.673-1.5 1.5-1.5 1.5.673 1.5 1.5-.673 1.5-1.5 1.5zm0-2c-.275 0-.5.224-.5.5s.225.5.5.5.5-.224.5-.5-.225-.5-.5-.5z" fill="#a4afc1"/></g><g><path d="m7.271 14.955h2v1h-2z" fill="#a4afc1" transform="matrix(.707 -.707 .707 .707 -8.506 10.375)"/></g><g><path d="m3.205 19.021h2v1h-2z" fill="#a4afc1" transform="matrix(.707 -.707 .707 .707 -12.572 8.691)"/></g><g><path d="m3.705 14.278h1v2h-1z" fill="#a4afc1" transform="matrix(.707 -.707 .707 .707 -9.572 7.448)"/></g><g><path d="m7.771 18.344h1v2h-1z" fill="#a4afc1" transform="matrix(.707 -.707 .707 .707 -11.259 11.521)"/></g><g><path d="m18.9 20.25.529 7.933c.038.577-.419 1.067-.998 1.067h-.862c-.578 0-1.036-.489-.998-1.067l.529-7.933z" fill="#f3f3f1"/></g><g><path d="m19.305 20.25h-2.797c-.397 0-.743-.273-.839-.663l-.432-1.75c-.136-.552.276-1.087.839-1.087h3.769c.583 0 .999.573.825 1.136l-.54 1.75c-.113.365-.447.614-.825.614z" fill="#f3f3f1"/></g><g><path d="m13.105 16.25c0-.009 0-.028 0-.038 0-2.97 1.653-3.091 1.653-7.562 0 0 2.308.846 2.308 3.325 0 0 1.283-2.907.462-5.225 0 0 5.078 1.824 5.078 9.5z" fill="#2fdf84"/></g><g><path d="m16.66 10.339c-.661-1.226-1.902-1.689-1.902-1.689 0 4.471-1.653 4.592-1.653 7.562v.038h2c0-.01 0-.029 0-.038 0-2.538 1.204-3.004 1.555-5.873z" fill="#00b871"/></g><g><path d="m17.669 19.587-.432-1.75c-.136-.552.276-1.087.839-1.087h-2c-.563 0-.975.535-.839 1.087l.432 1.75c.096.39.442.663.839.663h2c-.397 0-.743-.273-.839-.663z" fill="#d5dbe1"/></g><g><path d="m18.431 30h-.861c-.483 0-.949-.202-1.279-.555-.329-.353-.5-.831-.467-1.312l.528-7.933 1.496.1-.528 7.934c-.006.094.039.158.066.187.028.03.089.08.184.08h.861c.095 0 .155-.05.184-.08.027-.029.072-.093.066-.186l-.529-7.935 1.496-.1.528 7.934c.033.48-.138.958-.467 1.311s-.795.555-1.278.555z"/></g><g><path d="m19.305 21h-2.797c-.742 0-1.387-.506-1.566-1.232l-.434-1.75c-.12-.493-.011-1.002.3-1.399.308-.394.77-.619 1.267-.619h3.77c.517 0 .989.239 1.297.656.307.415.398.958.246 1.451l-.541 1.75c-.21.684-.83 1.143-1.542 1.143zm-3.23-3.5c-.104.067-.124.105-.11.158l.433 1.749c.013.054.059.093.11.093h2.797c.049 0 .093-.034.108-.084l.541-1.751c.017-.053-.001-.093-.02-.118-.022-.031-.053-.047-.09-.047z"/></g><g><path d="m10.75 16h14.5v1.5h-14.5z"/></g><g><path d="m23.355 16.25h-1.5c0-1.67-.254-3.178-.755-4.481l1.4-.538c.568 1.475.855 3.164.855 5.019z"/></g><g><path d="m12.355 16.25v-.038c0-1.491.389-2.375.764-3.231.437-.996.889-2.025.889-4.331 0-.245.12-.475.32-.615.202-.141.457-.173.688-.089.072.026 1.17.442 1.969 1.492.108-.782.112-1.658-.165-2.438-.097-.273-.027-.578.178-.782.206-.204.51-.272.783-.175.074.027 1.835.677 3.358 2.704l-1.199.902c-.468-.623-.961-1.087-1.395-1.424.075 2.051-.75 3.952-.794 4.053-.144.324-.491.503-.841.431-.348-.073-.596-.379-.596-.734 0-.938-.423-1.581-.86-1.995-.146 1.744-.575 2.721-.963 3.603-.355.811-.637 1.452-.637 2.628z"/></g></svg>