<svg id="LINE" enable-background="new 0 0 36 36" height="512" viewBox="0 0 36 36" width="512" xmlns="http://www.w3.org/2000/svg"><g><path d="m27.417 3.914c-6.915.129-11.732-3.365-15.064-3.302s-10.296 2.109-10.009 17.44 9.744 17.404 13.41 17.336c17.163-.321 23.911-31.703 11.663-31.474z" fill="#efefef"/></g><g><path d="m12.783 4.438h2v1h-2z" fill="#a4afc1" transform="matrix(.707 -.707 .707 .707 .546 11.192)"/></g><g><path d="m8.717 8.503h2v1h-2z" fill="#a4afc1" transform="matrix(.707 -.707 .707 .707 -3.52 9.508)"/></g><g><path d="m9.217 3.761h1v2h-1z" fill="#a4afc1" transform="matrix(.707 -.707 .707 .707 -.52 8.266)"/></g><g><path d="m27.69 21.653c-.827 0-1.5-.673-1.5-1.5s.673-1.5 1.5-1.5 1.5.673 1.5 1.5-.672 1.5-1.5 1.5zm0-2c-.276 0-.5.224-.5.5s.224.5.5.5.5-.224.5-.5-.224-.5-.5-.5z" fill="#a4afc1"/></g><g><path d="m21.127 17.169 3.036 8.118c.327 1.066-.298 2.211-1.375 2.484l-5.538 1.419c-.231.059-.471.078-.692.049s-.433-.098-.635-.196l-2.144-1.066c-.817-.411-1.24-1.36-1-2.25l1.828-6.26z" fill="#f3f3f1"/></g><g><path d="m17.214 19.153-.656 10.085v.01z" fill="#2fdf84"/></g><g><ellipse cx="18" cy="13.11" fill="#2fdf84" rx="8.542" ry="2.553" transform="matrix(.7 -.714 .714 .7 -3.961 16.793)"/></g><g><path d="m23.941 7.066s-7.695 2.199-11.882 12.087z" fill="#2fdf84"/></g><g><path d="m14.607 12.313s1.393.266 2.088 1.593z" fill="#2fdf84"/></g><g><path d="m16.695 10.189s1.393.266 2.088 1.593z" fill="#2fdf84"/></g><g><path d="m13.751 18.368c.219-7.779 2.845-10.947 9.857-11.528-.135-.059-.282-.092-.438-.088-8.191.239-11.184 3.283-11.418 11.615-.017.611.479 1.116 1.08 1.099.544-.016 1.062-.046 1.562-.088-.386-.166-.656-.558-.643-1.01z" fill="#00b871"/></g><g><path d="m15.779 27.977c-.817-.411-1.24-1.36-1-2.25l1.828-6.26 4.753-1.675-.233-.623-6.521 2.298-1.828 6.26c-.24.89.183 1.839 1 2.25l2.144 1.066c.202.098.413.166.635.196.221.029.462.01.692-.049l.639-.164z" fill="#d5dbe1"/></g><g><path d="m16.767 30.001c-.105 0-.208-.006-.308-.02-.29-.039-.581-.127-.862-.264l-2.152-1.07c-1.14-.573-1.723-1.883-1.39-3.116l1.833-6.275 1.439.421-1.828 6.26c-.144.534.114 1.116.617 1.369l2.142 1.065c.131.063.267.106.399.123.121.017.265.004.409-.032l5.537-1.417c.314-.08.576-.283.738-.572.166-.294.204-.646.106-.966l-3.021-8.076 1.405-.525 3.036 8.118c.232.753.148 1.533-.218 2.184-.365.65-.96 1.108-1.675 1.291l-5.537 1.417c-.225.057-.452.085-.67.085z"/></g><g><path d="m17.306 29.287-1.498-.039.657-10.144 1.497.098z"/></g><g><path d="m12.802 20.217c-.47 0-.929-.19-1.266-.526-.354-.354-.549-.844-.535-1.344.247-8.748 3.539-12.093 12.146-12.344.482-.013.968.177 1.317.525.354.354.549.843.535 1.344-.025.894-.082 1.733-.17 2.495l-1.49-.172c.083-.719.137-1.515.161-2.365.003-.123-.059-.203-.096-.24-.034-.035-.119-.099-.213-.088-7.77.227-10.468 2.974-10.691 10.887-.003.123.059.204.096.241.034.034.101.077.213.088 6.099-.178 8.923-1.882 10.076-6.08l1.446.397c-1.328 4.838-4.761 6.986-11.478 7.182-.017 0-.034 0-.051 0z"/></g><g><path d="m12.75 19.446-1.381-.585c4.277-10.102 12.038-12.423 12.366-12.516l.414 1.442c-.074.021-7.415 2.249-11.399 11.659z"/></g><g><path d="m16.378 14.918-.348-.664c-.501-.958-1.274-1.126-1.307-1.133l-.722-.149.26-1.452.727.124c.061.01 1.513.275 2.371 1.913l.348.665z"/></g><g><path d="m18.321 12.683-.348-.664c-.475-.907-1.183-.986-1.212-.989l-.73-.072.095-1.465.733.04c.576.032 1.739.444 2.444 1.79l.348.665z"/></g></svg>