<svg id="LINE" enable-background="new 0 0 36 36" height="512" viewBox="0 0 36 36" width="512" xmlns="http://www.w3.org/2000/svg"><g><path d="m8.377 31.833c6.917 0 11.667 3.583 15 3.583s10.333-1.916 10.333-17.249-9.417-17.584-13.083-17.584c-17.167 0-24.5 31.25-12.25 31.25z" fill="#efefef"/></g><g><path d="m19.875 4.147h2v1h-2z" fill="#a4afc1"/></g><g><path d="m14.125 4.147h2v1h-2z" fill="#a4afc1"/></g><g><path d="m17.625.647h1v2h-1z" fill="#a4afc1"/></g><g><path d="m31 29.357c-.827 0-1.5-.673-1.5-1.5s.673-1.5 1.5-1.5 1.5.673 1.5 1.5-.673 1.5-1.5 1.5zm0-2c-.276 0-.5.225-.5.5s.224.5.5.5.5-.225.5-.5-.224-.5-.5-.5z" fill="#a4afc1"/></g><g><path d="m16.75 10.75h10.5c1.105 0 2 .895 2 2v10.5c0 1.105-.895 2-2 2h-18.5c-1.105 0-2-.895-2-2v-2.5-9.717z" fill="#f3f3f1"/></g><g><path d="m28.62 11.3-9.306 8.064c-.753.653-1.873.651-2.624-.004l-1.525-1.33-8.415-7.245 20.5-.035z" fill="#2fdf84"/></g><g><path d="m11.75 13.772v4.478l-1.75-1.264-1.75 1.264v-4.439z" fill="#f3f3f1"/></g><g><path d="m8.75 23.25v-12.124h-2v12.124c0 1.1.9 2 2 2h2c-1.1 0-2-.9-2-2z" fill="#d5dbe1"/></g><g><path d="m10.25 13.811 1.5-.017v-.022l-3.5.039v4.439l1.75-1.264.25.18z" fill="#d5dbe1"/></g><g><path d="m11 17.708.75.542v-1.084z" fill="#d5dbe1"/></g><g><circle cx="10" cy="11.033" fill="#2fdf84" r="3.25"/></g><g><path d="m8.75 11.033c0-1.443.948-2.653 2.25-3.077-.317-.103-.649-.173-1-.173-1.795 0-3.25 1.455-3.25 3.25s1.455 3.25 3.25 3.25c.351 0 .683-.07 1-.173-1.302-.424-2.25-1.633-2.25-3.077z" fill="#00b871"/></g><g><path d="m10 15.033c-2.206 0-4-1.794-4-4s1.794-4 4-4 4 1.794 4 4-1.794 4-4 4zm0-6.5c-1.378 0-2.5 1.121-2.5 2.5s1.122 2.5 2.5 2.5 2.5-1.121 2.5-2.5-1.122-2.5-2.5-2.5z"/></g><g><path d="m11.75 19c-.155 0-.309-.048-.439-.143l-1.311-.946-1.311.946c-.228.167-.531.188-.781.061-.25-.128-.408-.387-.408-.668v-4.439h1.5v2.972l.561-.404c.263-.189.616-.189.879 0l.56.403v-3.011h1.5v4.479c0 .281-.158.54-.409.668-.107.055-.224.082-.341.082z"/></g><g><path d="m27.25 26h-18.5c-1.517 0-2.75-1.233-2.75-2.75v-2.5h1.5v2.5c0 .689.561 1.25 1.25 1.25h18.5c.689 0 1.25-.561 1.25-1.25v-10.5c0-.689-.561-1.25-1.25-1.25h-10.5v-1.5h10.5c1.517 0 2.75 1.233 2.75 2.75v10.5c0 1.517-1.233 2.75-2.75 2.75z"/></g><g><path d="m18.004 20.598c-.646 0-1.292-.225-1.807-.673l-1.525-1.329.985-1.131 1.525 1.329c.466.406 1.171.409 1.64.003l9.307-8.063.982 1.133-9.307 8.063c-.513.445-1.157.668-1.8.668z"/></g></svg>