<svg id="LINE" enable-background="new 0 0 36 36" height="512" viewBox="0 0 36 36" width="512" xmlns="http://www.w3.org/2000/svg"><g><path d="m8.114 5.564c-1.805 6.677-6.504 10.327-7.374 13.545s-.847 10.475 13.955 14.477 19.432-4.501 20.388-8.041c4.481-16.572-23.772-31.807-26.969-19.981z" fill="#efefef"/></g><g><path d="m28.208 2.866h2v1h-2z" fill="#a4afc1"/></g><g><path d="m22.458 2.866h2v1h-2z" fill="#a4afc1"/></g><g><path d="m25.958-.634h1v2h-1z" fill="#a4afc1"/></g><g><path d="m2.137 23.25c-.827 0-1.5-.673-1.5-1.5s.673-1.5 1.5-1.5 1.5.673 1.5 1.5-.673 1.5-1.5 1.5zm0-2c-.276 0-.5.225-.5.5s.224.5.5.5.5-.225.5-.5-.224-.5-.5-.5z" fill="#a4afc1"/></g><g><path d="m16.75 6.771h10 .5v.05z" fill="#2fdf84"/></g><g><path d="m8.75 24.271v-3.521z" fill="#2fdf84"/></g><g><path d="m24.25 10.771h5v-1.5c0-1.381-1.119-2.5-2.5-2.5-1.381 0-2.5 1.119-2.5 2.5z" fill="#2fdf84"/></g><g><path d="m24.25 6.821h-15.5v22.408h13.21c1.265 0 2.29-1.025 2.29-2.29z" fill="#f3f3f1"/></g><g><path d="m8.75 6.821h2v22.408h-2z" fill="#d5dbe1"/></g><g><circle cx="10" cy="10.033" fill="#2fdf84" r="3.25"/></g><g><path d="m21.875 29.229h-5.25-7.875c-1.105 0-2-.895-2-2v-2.958h12.5v2.333c0 1.45 1.175 2.625 2.625 2.625z" fill="#2fdf84"/></g><g><path d="m8.75 27.229v-2.958h-2v2.958c0 1.105.895 2 2 2h2c-1.105 0-2-.895-2-2z" fill="#00b871"/></g><g><path d="m8.75 10.033c0-1.443.948-2.653 2.25-3.077-.317-.103-.649-.173-1-.173-1.795 0-3.25 1.455-3.25 3.25s1.455 3.25 3.25 3.25c.351 0 .683-.07 1-.173-1.302-.423-2.25-1.633-2.25-3.077z" fill="#00b871"/></g><g><path d="m27.75 6.982c-.307-.134-.644-.211-1-.211-1.381 0-2.5 1.119-2.5 2.5v1.5h2v-1.5c0-1.025.618-1.903 1.5-2.289z" fill="#00b871"/></g><g><path d="m11.75 12.772v4.478l-1.75-1.264-1.75 1.264v-4.439z" fill="#f3f3f1"/></g><g><path d="m27.25 7.521h-10.5v-1.5h10.5c.414 0 .75.336.75.75l-.75.025z"/></g><g><path d="m8 20.75h1.5v3.521h-1.5z"/></g><g><path d="m29.25 11.521h-5c-.414 0-.75-.336-.75-.75v-1.5c0-1.792 1.458-3.25 3.25-3.25s3.25 1.458 3.25 3.25v1.5c0 .414-.336.75-.75.75zm-4.25-1.5h3.5v-.75c0-.965-.785-1.75-1.75-1.75s-1.75.785-1.75 1.75z"/></g><g><path d="m21.875 29.979h-13.125c-1.517 0-2.75-1.233-2.75-2.75v-2.959c0-.414.336-.75.75-.75h12.5c.414 0 .75.336.75.75v2.334c0 1.034.841 1.875 1.875 1.875.896 0 1.625-.729 1.625-1.625v-16.083h1.5v16.084c0 1.722-1.402 3.124-3.125 3.124zm-14.375-4.958v2.209c0 .689.561 1.25 1.25 1.25h10.32c-.36-.536-.57-1.182-.57-1.875v-1.584z"/></g><g><path d="m10 14.033c-2.206 0-4-1.794-4-4s1.794-4 4-4 4 1.794 4 4-1.794 4-4 4zm0-6.5c-1.378 0-2.5 1.121-2.5 2.5s1.122 2.5 2.5 2.5 2.5-1.121 2.5-2.5-1.122-2.5-2.5-2.5z"/></g><g><path d="m11.75 18c-.155 0-.309-.048-.439-.143l-1.311-.946-1.311.946c-.229.167-.53.188-.781.061-.25-.128-.408-.387-.408-.668v-4.439h1.5v2.972l.561-.404c.263-.189.616-.189.879 0l.56.403v-3.01h1.5v4.478c0 .281-.158.54-.409.668-.107.055-.224.082-.341.082z"/></g></svg>