<svg id="LINE" enable-background="new 0 0 36 36" height="512" viewBox="0 0 36 36" width="512" xmlns="http://www.w3.org/2000/svg"><g><path d="m26.982 3.914c-6.916.129-11.732-3.365-15.065-3.302s-10.296 2.109-10.009 17.44 9.744 17.404 13.41 17.336c17.164-.321 23.911-31.703 11.664-31.474z" fill="#efefef"/></g><g><path d="m6.371 4.306h2v1h-2z" fill="#a4afc1" transform="matrix(.707 -.707 .707 .707 -1.239 6.62)"/></g><g><path d="m2.306 8.371h2v1h-2z" fill="#a4afc1" transform="matrix(.707 -.707 .707 .707 -5.305 4.936)"/></g><g><path d="m2.806 3.629h1v2h-1z" fill="#a4afc1" transform="matrix(.707 -.707 .707 .707 -2.305 3.693)"/></g><g><path d="m31.229 27.264c-.827 0-1.5-.673-1.5-1.5s.673-1.5 1.5-1.5 1.5.673 1.5 1.5-.673 1.5-1.5 1.5zm0-2c-.275 0-.5.225-.5.5s.225.5.5.5.5-.225.5-.5-.225-.5-.5-.5z" fill="#a4afc1"/></g><g><path d="m24.25 6.821h-15.5v22.408h13.21c1.265 0 2.29-1.025 2.29-2.29z" fill="#f3f3f1"/></g><g><path d="m8.75 6.821h2v22.408h-2z" fill="#d5dbe1"/></g><g><circle cx="10.993" cy="10" fill="#2fdf84" r="3.25"/></g><g><path d="m8.813 12.42-2.063 3.51 1.613-.101.713 1.421 1.922-3.264z" fill="#f3f3f1"/></g><g><path d="m13.181 12.409 2.069 3.521-1.613-.101-.717 1.421-1.922-3.264-.439-.76z" fill="#f3f3f1"/></g><g><path d="m16.75 6.771h10 .5v.05z" fill="#2fdf84"/></g><g><path d="m8.75 24.271v-3.521z" fill="#2fdf84"/></g><g><path d="m24.25 10.771h5v-1.5c0-1.381-1.119-2.5-2.5-2.5-1.381 0-2.5 1.119-2.5 2.5z" fill="#2fdf84"/></g><g><path d="m21.875 29.229h-5.25-7.875c-1.105 0-2-.895-2-2v-2.958h12.5v2.333c0 1.45 1.175 2.625 2.625 2.625z" fill="#2fdf84"/></g><g><path d="m8.75 27.229v-2.958h-2v2.958c0 1.105.895 2 2 2h2c-1.105 0-2-.895-2-2z" fill="#00b871"/></g><g><path d="m9.743 10c0-1.444.948-2.653 2.25-3.077-.317-.103-.649-.173-1-.173-1.795 0-3.25 1.455-3.25 3.25s1.455 3.25 3.25 3.25c.351 0 .683-.07 1-.173-1.302-.424-2.25-1.633-2.25-3.077z" fill="#00b871"/></g><g><path d="m27.75 6.982c-.307-.134-.644-.211-1-.211-1.381 0-2.5 1.119-2.5 2.5v1.5h2v-1.5c0-1.025.618-1.903 1.5-2.289z" fill="#00b871"/></g><g><path d="m10.993 14c-2.206 0-4-1.794-4-4s1.794-4 4-4 4 1.794 4 4-1.794 4-4 4zm0-6.5c-1.379 0-2.5 1.121-2.5 2.5s1.121 2.5 2.5 2.5 2.5-1.121 2.5-2.5-1.121-2.5-2.5-2.5z"/></g><g><path d="m9.075 18c-.009 0-.017 0-.025 0-.274-.01-.522-.168-.646-.414l-.489-.978-1.118.07c-.277.019-.541-.119-.686-.355-.146-.236-.148-.533-.008-.772l2.063-3.511 1.294.76-1.348 2.294.204-.013c.298-.035.583.143.718.412l.095.188 1.223-2.076 1.293.762-1.923 3.264c-.136.229-.382.369-.647.369z"/></g><g><path d="m12.92 18c-.265 0-.511-.14-.646-.369l-2.364-4.03 1.299-.75 1.661 2.835.098-.194c.135-.269.415-.443.717-.41l.205.013-1.354-2.306 1.293-.76 2.069 3.522c.141.239.138.536-.008.772-.145.236-.41.393-.686.355l-1.12-.07-.493.979c-.124.245-.371.402-.646.412-.008.001-.017.001-.025.001z"/></g><g><path d="m27.25 7.521h-10.5v-1.5h10.5c.414 0 .75.336.75.75l-.75.025z"/></g><g><path d="m8 20.75h1.5v3.521h-1.5z"/></g><g><path d="m29.25 11.521h-5c-.414 0-.75-.336-.75-.75v-1.5c0-1.792 1.458-3.25 3.25-3.25s3.25 1.458 3.25 3.25v1.5c0 .414-.336.75-.75.75zm-4.25-1.5h3.5v-.75c0-.965-.785-1.75-1.75-1.75s-1.75.785-1.75 1.75z"/></g><g><path d="m21.875 29.979h-13.125c-1.517 0-2.75-1.233-2.75-2.75v-2.959c0-.414.336-.75.75-.75h12.5c.414 0 .75.336.75.75v2.334c0 1.034.841 1.875 1.875 1.875.896 0 1.625-.729 1.625-1.625v-16.083h1.5v16.084c0 1.722-1.402 3.124-3.125 3.124zm-14.375-4.958v2.209c0 .689.561 1.25 1.25 1.25h10.32c-.36-.536-.57-1.182-.57-1.875v-1.584z"/></g></svg>