<svg id="LINE" enable-background="new 0 0 36 36" height="512" viewBox="0 0 36 36" width="512" xmlns="http://www.w3.org/2000/svg"><g><path d="m8.114 5.564c-1.805 6.677-6.504 10.327-7.374 13.545s-.847 10.475 13.955 14.477 19.432-4.501 20.388-8.041c4.481-16.572-23.772-31.807-26.969-19.981z" fill="#efefef"/></g><g><path d="m19.875 3.5h2v1h-2z" fill="#a4afc1"/></g><g><path d="m14.125 3.5h2v1h-2z" fill="#a4afc1"/></g><g><path d="m17.625 0h1v2h-1z" fill="#a4afc1"/></g><g><path d="m17.846 30.19c-.827 0-1.5-.673-1.5-1.5s.673-1.5 1.5-1.5 1.5.673 1.5 1.5-.673 1.5-1.5 1.5zm0-2c-.276 0-.5.225-.5.5s.224.5.5.5.5-.225.5-.5-.224-.5-.5-.5z" fill="#a4afc1"/></g><g><path d="m22.25 29.25h-8.5v-.5c0-1.105.895-2 2-2h4.5c1.105 0 2 .895 2 2z" fill="#f3f3f1"/></g><g><path d="m24.283 6.75h-12.566c-.534 0-.967.435-.967.971v7.279c.039 5.823 7.25 8.25 7.25 8.25s7.25-2.426 7.25-8.25v-7.279c0-.536-.433-.971-.967-.971z" fill="#2fdf84"/></g><g><path d="m12.75 15v-7.279c0-.536.433-.971.967-.971h-2c-.534 0-.967.435-.967.971v7.279c.039 5.823 7.25 8.25 7.25 8.25s.401-.137 1.002-.412c-1.976-.906-6.222-3.368-6.252-7.838z" fill="#00b871"/></g><g><path d="m17.75 26.75h-2c-1.105 0-2 .895-2 2v.5h2v-.5c0-1.105.895-2 2-2z" fill="#d5dbe1"/></g><g><path d="m15 10.939h1.5v6.121h-1.5z"/></g><g><path d="m17.243 10.939h1.5v6.121h-1.5z"/></g><g><path d="m19.5 10.939h1.5v6.121h-1.5z"/></g><g><path d="m14.243 16.5h7.5v1.5h-7.5z"/></g><g><path d="m14.243 10h7.5v1.5h-7.5z"/></g><g><path d="m22.25 30h-8.5c-.414 0-.75-.336-.75-.75v-.5c0-1.517 1.233-2.75 2.75-2.75h4.5c1.517 0 2.75 1.233 2.75 2.75v.5c0 .414-.336.75-.75.75zm-7.725-1.5h6.95c-.116-.57-.622-1-1.225-1h-4.5c-.604 0-1.109.43-1.225 1z"/></g><g><path d="m17.25 23.25h1.5v3.5h-1.5z"/></g><g><path d="m18 24c-.081 0-.162-.013-.239-.039-.315-.106-7.719-2.67-7.761-8.956v-7.284c0-.95.77-1.721 1.717-1.721h12.566c.947 0 1.717.771 1.717 1.721v1.819h-1.5v-1.819c0-.122-.097-.221-.217-.221h-12.566c-.12 0-.217.099-.217.221v7.279c.031 4.653 5.303 6.981 6.5 7.45 1.199-.47 6.5-2.809 6.5-7.45v-4.25h1.5v4.25c0 6.291-7.445 8.855-7.762 8.961-.077.026-.157.039-.238.039z"/></g></svg>