<svg id="LINE" enable-background="new 0 0 36 36" height="512" viewBox="0 0 36 36" width="512" xmlns="http://www.w3.org/2000/svg"><g><path d="m34.904 20.355c-3.782-5.791-3.38-11.727-5.203-14.518s-7.256-7.603-20.093.782-9.572 17.5-7.566 20.569c9.388 14.372 39.561 3.423 32.862-6.833z" fill="#efefef"/></g><g><path d="m29 30.747c-.827 0-1.5-.673-1.5-1.5s.673-1.5 1.5-1.5 1.5.673 1.5 1.5-.673 1.5-1.5 1.5zm0-2c-.276 0-.5.224-.5.5s.224.5.5.5.5-.224.5-.5-.224-.5-.5-.5z" fill="#a4afc1"/></g><g><path d="m9.5 27.25h1v2h-1z" fill="#a4afc1"/></g><g><path d="m9.5 33h1v2h-1z" fill="#a4afc1"/></g><g><path d="m6 30.5h2v1h-2z" fill="#a4afc1"/></g><g><path d="m11.75 30.5h2v1h-2z" fill="#a4afc1"/></g><g><path d="m20.944 16.631 3.22 8.656c.326 1.066-.297 2.211-1.37 2.484l-5.52 1.418c-.23.059-.47.078-.69.049s-.431-.098-.632-.196l-2.137-1.066c-.815-.411-1.236-1.36-.997-2.25l2.672-8.864z" fill="#f3f3f1"/></g><g><path d="m16.583 29.248v-.01l.771-11.794z" fill="#2fdf84"/></g><g><ellipse cx="18.021" cy="12.124" fill="#2fdf84" rx="5.27" ry="5.372"/></g><g><path d="m21.691 15.973c-.795-1.065-1.274-2.403-1.274-3.849s.479-2.784 1.274-3.849z" fill="#2fdf84"/></g><g><path d="m14.351 8.276c.795 1.065 1.274 2.403 1.274 3.849s-.479 2.784-1.274 3.849z" fill="#2fdf84"/></g><g><path d="m15.146 12.124c0-2.545 1.741-4.666 4.073-5.22-.386-.092-.784-.152-1.198-.152-2.911 0-5.27 2.405-5.27 5.372s2.36 5.372 5.27 5.372c.414 0 .812-.06 1.198-.152-2.331-.554-4.073-2.674-4.073-5.22z" fill="#00b871"/></g><g><path d="m15.814 27.977c-.815-.411-1.236-1.36-.997-2.25l2.672-8.864 3.485-.148-.031-.084-5.454.232-2.672 8.864c-.24.89.182 1.839.997 2.25l2.137 1.066c.201.098.412.166.633.196s.46.01.69-.049l.641-.165z" fill="#d5dbe1"/></g><g><path d="m16.792 30.001c-.104 0-.207-.006-.307-.02-.289-.039-.579-.127-.86-.264l-2.145-1.07c-1.136-.572-1.718-1.882-1.386-3.115l2.678-8.886 1.437.433-2.672 8.864c-.142.528.114 1.111.616 1.363l2.134 1.065c.132.063.264.105.396.123.12.018.263.004.406-.032l5.519-1.418c.312-.08.571-.281.733-.569.166-.295.205-.648.106-.969l-3.206-8.614 1.406-.522 3.22 8.656c.231.753.146 1.534-.219 2.185-.365.649-.958 1.106-1.669 1.288l-5.519 1.418c-.224.056-.45.084-.668.084z"/></g><g><path d="m17.332 29.287-1.499-.049.772-11.842 1.497.097z"/></g><g><path d="m18.02 18.247c-1.61 0-3.124-.639-4.261-1.798-1.134-1.157-1.759-2.692-1.759-4.324 0-2.839 1.975-5.352 4.695-5.973l.334 1.462c-2.044.467-3.529 2.364-3.529 4.511 0 1.237.472 2.4 1.329 3.273.853.87 1.986 1.349 3.19 1.349h.001c2.492 0 4.52-2.073 4.52-4.622 0-2.134-1.413-3.979-3.435-4.488l.366-1.455c2.69.678 4.568 3.122 4.568 5.943.002 3.375-2.699 6.122-6.019 6.122.001 0 .001 0 0 0z"/></g><g><path d="m21.09 16.422c-.931-1.247-1.423-2.733-1.423-4.297 0-1.565.492-3.051 1.424-4.297l1.201.897c-.736.985-1.125 2.161-1.125 3.4s.389 2.414 1.125 3.4z"/></g><g><path d="m14.952 16.422-1.202-.897c.737-.986 1.126-2.162 1.126-3.4 0-1.239-.389-2.414-1.125-3.4l1.201-.897c.932 1.247 1.424 2.732 1.424 4.297-.001 1.563-.493 3.05-1.424 4.297z"/></g></svg>