<svg id="LINE" enable-background="new 0 0 36 36" height="512" viewBox="0 0 36 36" width="512" xmlns="http://www.w3.org/2000/svg"><g><path d="m8.377 4.167c6.917 0 11.667-3.583 15-3.583s10.333 1.916 10.333 17.249-9.417 17.583-13.083 17.583c-17.167.001-24.5-31.249-12.25-31.249z" fill="#efefef"/></g><g><path d="m5.828 5.556h2v1h-2z" fill="#a4afc1" transform="matrix(.707 -.707 .707 .707 -2.282 6.602)"/></g><g><path d="m1.763 9.621h2v1h-2z" fill="#a4afc1" transform="matrix(.707 -.707 .707 .707 -6.348 4.918)"/></g><g><path d="m2.263 4.879h1v2h-1z" fill="#a4afc1" transform="matrix(.707 -.707 .707 .707 -3.348 3.675)"/></g><g><path d="m28.731 13.377c-.827 0-1.5-.673-1.5-1.5s.673-1.5 1.5-1.5 1.5.673 1.5 1.5-.672 1.5-1.5 1.5zm0-2c-.275 0-.5.225-.5.5s.225.5.5.5.5-.225.5-.5-.224-.5-.5-.5z" fill="#a4afc1"/></g><g><path d="m29.25 19.253v-12.526s-1.5 5.01-6.25 5.01h-13.75v2.505h14c4.5 0 6 5.011 6 5.011z" fill="#2fdf84"/></g><g><path d="m8.25 15.244h-.5c-.552 0-1-.448-1-1v-2.509c0-.552.448-1 1-1h.5c.552 0 1 .448 1 1v2.509c0 .553-.448 1-1 1z" fill="#2fdf84"/></g><g><path d="m19.25 14.242v2.008c0 1.105-.895 2-2 2h-1.5c-1.105 0-2-.895-2-2v-2.008z" fill="#2fdf84"/></g><g><path d="m14.75 11.487v-2.004c0-.553-.448-1.002-1-1.002-.552 0-1 .449-1 1.002v2.004z" fill="#f3f3f1"/></g><g><path d="m18.25 11.487v-2.004c0-.553.448-1.002 1-1.002.552 0 1 .449 1 1.002v2.004z" fill="#f3f3f1"/></g><g><path d="m10.578 14.242-1.727 14.985 7.649-3.994 7.656 3.994-1.726-14.985z" fill="#f3f3f1"/></g><g><path d="m19.25 14.242v2.008c0 1.105-.895 2-2 2h-1.5c-1.105 0-2-.895-2-2v-2.008z" fill="#2fdf84"/></g><g><path d="m12.578 14.242h-2l-1.727 14.985 2.128-1.111z" fill="#d5dbe1"/></g><g><path d="m18.5 25.233-.999.522 6.655 3.472-.128-1.11z" fill="#d5dbe1"/></g><g><path d="m29.25 19.253v-12.526s-1.5 5.01-6.25 5.01h-13.75v2.505h14c4.5 0 6 5.011 6 5.011z" fill="#2fdf84"/></g><g><path d="m9.25 12.99v1.253h14c4.5 0 6 5.01 6 5.01v-6.263z" fill="#00b871"/></g><g><path d="m8.25 15.244h-.5c-.552 0-1-.448-1-1v-2.509c0-.552.448-1 1-1h.5c.552 0 1 .448 1 1v2.509c0 .553-.448 1-1 1z" fill="#2fdf84"/></g><g><path d="m6.75 12.958v1.286c0 .552.448 1 1 1h.5c.552 0 1-.448 1-1v-1.286z" fill="#00b871"/></g><g><path d="m15.75 16.251v-2.008h-2v2.008c0 1.105.895 2 2 2h1.5c.086 0 .167-.015.25-.025-.985-.125-1.75-.957-1.75-1.975z" fill="#00b871"/></g><g><path d="m29.249 20.002c-.325 0-.62-.213-.717-.532-.056-.183-1.405-4.478-5.282-4.478h-14c-.414 0-.75-.336-.75-.75v-2.505c0-.414.336-.75.75-.75h13.75c4.121 0 5.477-4.295 5.532-4.478.107-.355.469-.57.828-.524.368.055.64.37.64.742v12.526c0 .372-.272.687-.64.741-.037.006-.074.008-.111.008zm-19.249-6.51h13.25c2.533 0 4.207 1.365 5.25 2.741v-6.54c-1.158 1.471-2.964 2.794-5.5 2.794h-13z"/></g><g><path d="m8.25 15.994h-.5c-.965 0-1.75-.785-1.75-1.75v-2.509c0-.965.785-1.75 1.75-1.75h.5c.965 0 1.75.785 1.75 1.75v2.509c0 .965-.785 1.75-1.75 1.75zm-.5-4.509c-.138 0-.25.112-.25.25v2.509c0 .138.112.25.25.25h.5c.138 0 .25-.112.25-.25v-2.509c0-.138-.112-.25-.25-.25z"/></g><g><path d="m17.25 19.001h-1.5c-1.517 0-2.75-1.233-2.75-2.75v-2.009c0-.414.336-.75.75-.75h5.5c.414 0 .75.336.75.75v2.009c0 1.517-1.233 2.75-2.75 2.75zm-2.75-4.009v1.259c0 .689.561 1.25 1.25 1.25h1.5c.689 0 1.25-.561 1.25-1.25v-1.259z"/></g><g><path d="m15.5 11.486h-1.5v-2.004c0-.277-.5-.277-.5 0v2.004h-1.5v-2.004c0-.966.785-1.752 1.75-1.752s1.75.786 1.75 1.752z"/></g><g><path d="m21 11.486h-1.5v-2.004c0-.277-.5-.277-.5 0v2.004h-1.5v-2.004c0-.966.785-1.752 1.75-1.752s1.75.787 1.75 1.752z"/></g><g><path d="m21.911 14.229h1.5v4.035h-1.5z" transform="matrix(.993 -.115 .115 .993 -1.711 2.701)"/></g><g><path d="m24.156 29.977c-.119 0-.238-.028-.347-.085l-7.31-3.813-7.303 3.813c-.244.127-.543.111-.771-.047-.229-.157-.353-.428-.32-.704l1.728-14.984 1.49.172-1.565 13.578 6.396-3.34c.217-.113.477-.113.693 0l6.402 3.34-.898-7.799 1.49-.172 1.061 9.204c.031.276-.092.547-.32.704-.128.089-.276.133-.426.133z"/></g></svg>