<svg id="LINE" enable-background="new 0 0 36 36" height="512" viewBox="0 0 36 36" width="512" xmlns="http://www.w3.org/2000/svg"><g><path d="m34.904 20.355c-3.782-5.791-3.38-11.727-5.203-14.518s-7.256-7.603-20.093.782-9.572 17.5-7.566 20.569c9.388 14.372 39.561 3.423 32.862-6.833z" fill="#efefef"/></g><g><path d="m34.035 30.75c-.827 0-1.5-.673-1.5-1.5s.673-1.5 1.5-1.5 1.5.673 1.5 1.5-.673 1.5-1.5 1.5zm0-2c-.276 0-.5.225-.5.5s.224.5.5.5.5-.225.5-.5-.224-.5-.5-.5z" fill="#a4afc1"/></g><g><path d="m4.528.15h1v2h-1z" fill="#a4afc1"/></g><g><path d="m4.528 5.9h1v2h-1z" fill="#a4afc1"/></g><g><path d="m1.028 3.4h2v1h-2z" fill="#a4afc1"/></g><g><path d="m6.778 3.4h2v1h-2z" fill="#a4afc1"/></g><g><circle cx="26" cy="22" fill="#2fdf84" r="3.25"/></g><g><path d="m27.75 24.739v4.511l-1.75-1.298-1.75 1.298v-4.473z" fill="#d5dbe1"/></g><g><path d="m16.87 11.25 3.4-2.72c.74-.59.32-1.78-.62-1.78h-9.3c-.94 0-1.36 1.19-.62 1.78l3.4 2.72z" fill="#2fdf84"/></g><g><path d="m21.695 17c-1.144-2.451-2.821-4.65-4.695-5.75z" fill="#2fdf84"/></g><g><path d="m21.693 17.008.002-.008c-.046-.098-.097-.192-.145-.289-.07-.144-.141-.286-.214-.428-.076-.146-.154-.289-.234-.432-.078-.14-.157-.279-.238-.416-.082-.139-.166-.276-.252-.412-.085-.135-.172-.267-.26-.398s-.177-.26-.268-.387c-.093-.129-.188-.254-.283-.379-.092-.12-.184-.24-.279-.355-.101-.123-.204-.239-.307-.356-.095-.108-.19-.217-.287-.32-.11-.116-.222-.223-.335-.332-.095-.092-.189-.188-.286-.275-.125-.112-.253-.213-.381-.315-.089-.071-.175-.148-.265-.215-.183-.136-.369-.257-.556-.371-.036-.022-.07-.05-.106-.071h-.001-3.998-.001c-.036.021-.07.049-.106.071-.187.115-.374.236-.556.371-.09.066-.177.143-.265.215-.128.103-.256.203-.381.315-.097.087-.191.183-.286.275-.112.109-.225.216-.334.331-.098.103-.192.212-.288.32-.103.117-.206.233-.306.355-.095.116-.188.236-.28.357-.095.124-.19.249-.282.378-.091.126-.179.255-.267.386-.089.132-.176.265-.262.4-.085.135-.168.271-.25.409s-.161.278-.24.419c-.079.142-.156.284-.232.428-.074.143-.145.287-.216.432-.047.098-.099.192-.144.289l.003.008c-.967 2.073-1.557 4.323-1.557 6.242 0 3 1.5 6 5 6h.999 4.501.999c3.5 0 5-3 5-6 0-1.919-.59-4.169-1.556-6.242z" fill="#f3f3f1"/></g><g><path d="m8.75 23.25c0-1.919.59-4.169 1.557-6.242l-.003-.008c.045-.097.097-.191.144-.287.071-.145.142-.289.216-.432.075-.144.153-.286.232-.428.079-.141.158-.281.24-.419s.165-.274.25-.409c.086-.136.173-.269.262-.4.088-.131.176-.259.267-.386.092-.129.187-.253.282-.378.093-.121.185-.241.28-.357.1-.122.203-.238.306-.355.095-.108.19-.217.288-.32.11-.116.222-.223.334-.331.095-.092.189-.188.286-.275.125-.112.253-.213.381-.315.089-.071.175-.148.265-.215.183-.136.369-.257.556-.371.036-.022.07-.05.106-.071h-1.999-.001c-.036.021-.07.049-.106.071-.187.115-.374.236-.556.371-.09.066-.177.143-.265.215-.128.103-.256.203-.381.315-.097.087-.191.183-.286.275-.112.109-.225.216-.334.331-.098.103-.192.212-.288.32-.103.117-.206.233-.306.355-.095.116-.188.236-.28.357-.095.124-.19.249-.282.378-.091.126-.179.255-.267.386-.089.132-.176.265-.262.4-.085.135-.168.271-.25.409s-.161.278-.24.419c-.079.142-.156.284-.232.428-.074.143-.145.287-.216.432-.047.096-.099.19-.144.287l.003.008c-.967 2.073-1.557 4.323-1.557 6.242 0 3 1.5 6 5 6h.999 1.001c-3.5 0-5-3-5-6z" fill="#d5dbe1"/></g><g><path d="m12.35 6.75h-2c-.94 0-1.36 1.19-.62 1.78l3.4 2.72h2l-3.4-2.72c-.74-.59-.32-1.78.62-1.78z" fill="#00b871"/></g><g><path d="m24.75 22c0-1.444.948-2.653 2.25-3.077-.317-.103-.649-.173-1-.173-1.795 0-3.25 1.455-3.25 3.25s1.455 3.25 3.25 3.25c.351 0 .683-.07 1-.173-1.302-.424-2.25-1.633-2.25-3.077z" fill="#00b871"/></g><g><path d="m26 26c-2.206 0-4-1.794-4-4s1.794-4 4-4 4 1.794 4 4-1.794 4-4 4zm0-6.5c-1.378 0-2.5 1.121-2.5 2.5s1.122 2.5 2.5 2.5 2.5-1.121 2.5-2.5-1.122-2.5-2.5-2.5z"/></g><g><path d="m27.75 30c-.158 0-.315-.05-.447-.147l-1.303-.967-1.303.967c-.227.169-.53.194-.784.067-.253-.127-.413-.387-.413-.67v-4.473h1.5v2.982l.553-.41c.266-.197.628-.197.894 0l.553.411v-3.021h1.5v4.512c0 .283-.16.543-.413.67-.107.053-.222.079-.337.079z"/></g><g><path d="m17.338 11.836-.937-1.172 3.4-2.72c.115-.092.107-.201.08-.277-.026-.076-.088-.167-.231-.167h-9.3c-.144 0-.206.091-.232.167-.027.076-.035.186.08.277l3.4 2.72-.937 1.172-3.4-2.72c-.589-.47-.809-1.233-.56-1.944.25-.712.897-1.172 1.649-1.172h9.3c.752 0 1.399.46 1.648 1.172.249.711.029 1.475-.56 1.944z"/></g><g><path d="m9.75 10.5h10.5v1.5h-10.5z"/></g><g><path d="m21.016 17.317c-1.161-2.487-2.763-4.463-4.395-5.421l.759-1.293c1.889 1.107 3.709 3.323 4.996 6.079z"/></g><g><path d="m18.5 30h-6.75c-3.972 0-5.75-3.391-5.75-6.75 0-4.668 3.094-10.577 6.621-12.646l.759 1.293c-3.078 1.805-5.88 7.217-5.88 11.353 0 2.422 1.113 5.25 4.25 5.25h6.75c.817 0 1.521-.189 2.092-.562l.82 1.256c-.819.535-1.799.806-2.912.806z"/></g></svg>