<svg id="LINE" enable-background="new 0 0 36 36" height="512" viewBox="0 0 36 36" width="512" xmlns="http://www.w3.org/2000/svg"><g><path d="m13.411 34.999c6.298-2.859 12.105-1.559 15.14-2.936 3.035-1.378 8.617-6.016 2.28-19.978s-15.841-12.12-19.18-10.605c-15.632 7.095-9.395 38.582 1.76 33.519z" fill="#efefef"/></g><g><path d="m27.25 11.679c-.827 0-1.5-.673-1.5-1.5s.673-1.5 1.5-1.5 1.5.673 1.5 1.5-.673 1.5-1.5 1.5zm0-2c-.276 0-.5.225-.5.5s.224.5.5.5.5-.225.5-.5-.224-.5-.5-.5z" fill="#a4afc1"/></g><g><path d="m7.375 4.025h1v2h-1z" fill="#a4afc1"/></g><g><path d="m7.375 9.775h1v2h-1z" fill="#a4afc1"/></g><g><path d="m3.875 7.275h2v1h-2z" fill="#a4afc1"/></g><g><path d="m9.625 7.275h2v1h-2z" fill="#a4afc1"/></g><g><circle cx="24.993" cy="10" fill="#2fdf84" r="3.25"/></g><g><path d="m22.813 12.42-2.063 3.51 1.613-.101.713 1.421 1.922-3.264z" fill="#2fdf84"/></g><g><path d="m27.181 12.409 2.069 3.521-1.613-.101-.717 1.421-1.922-3.264-.439-.76z" fill="#2fdf84"/></g><g><path d="m6.75 18.75v8.5h2.75l2-7.386s-1.458-1.114-4.75-1.114z" fill="#f3f3f1"/></g><g><path d="m15.5 24.5s2.75 1 4.75 1 4.5-1.5 6.5-1.5 2.5 1.25 2.5 1.25-7.25 4-10.25 4c-2.39 0-7.31-2.22-9.22-3.12l1.49-5.42 9.63 1.97c.93.19 1.6 1.01 1.6 1.96v.45z" fill="#f3f3f1"/></g><g><path d="m26.89 24.011h-.272c-1.268.039-2.72.631-4.118 1.06v-.431c0-.219-.039-.43-.105-.629h-12.032l-.583 2.119c1.91.9 6.83 3.12 9.22 3.12 3 0 10.25-4 10.25-4s-.486-1.178-2.36-1.239zm-11.39.489 6.95.586c-.765.232-1.513.414-2.2.414-2 0-4.75-1-4.75-1z" fill="#d5dbe1"/></g><g><path d="m6.75 24.011v3.239h2.75l.877-3.239z" fill="#d5dbe1"/></g><g><path d="m23.743 10c0-1.444.948-2.653 2.25-3.077-.317-.103-.649-.173-1-.173-1.795 0-3.25 1.455-3.25 3.25s1.455 3.25 3.25 3.25c.351 0 .683-.07 1-.173-1.302-.424-2.25-1.633-2.25-3.077z" fill="#00b871"/></g><g><path d="m9.5 28h-2.75c-.414 0-.75-.336-.75-.75v-8.5c0-.414.336-.75.75-.75 3.505 0 5.138 1.217 5.205 1.269.242.185.349.498.269.792l-2 7.386c-.089.326-.385.553-.724.553zm-2-1.5h1.426l1.698-6.271c-.523-.247-1.546-.615-3.125-.707v6.978z"/></g><g><path d="m24.993 14c-2.206 0-4-1.794-4-4s1.794-4 4-4 4 1.794 4 4-1.795 4-4 4zm0-6.5c-1.378 0-2.5 1.121-2.5 2.5s1.122 2.5 2.5 2.5 2.5-1.121 2.5-2.5-1.122-2.5-2.5-2.5z"/></g><g><path d="m23.076 18c-.008 0-.017 0-.025 0-.274-.01-.522-.168-.645-.414l-.49-.978-1.118.07c-.277.022-.541-.119-.687-.355-.145-.236-.148-.533-.007-.772l2.063-3.511 1.293.76-1.348 2.294.205-.013c.303-.038.583.144.717.412l.095.188 1.223-2.076 1.293.762-1.922 3.264c-.136.229-.382.369-.647.369z"/></g><g><path d="m26.92 18c-.265 0-.511-.14-.646-.369l-2.365-4.03 1.3-.75 1.66 2.835.098-.194c.135-.269.411-.452.716-.41l.205.013-1.354-2.306 1.293-.76 2.069 3.522c.141.239.138.536-.008.772-.145.236-.401.394-.686.355l-1.119-.07-.494.979c-.124.245-.371.402-.645.412-.008.001-.016.001-.024.001z"/></g><g><path d="m12.783 28.272c-1.317-.537-2.534-1.093-3.323-1.464l.64-1.357c.772.364 1.962.908 3.25 1.433z"/></g><g><path d="m19 30c-1.076 0-2.615-.373-4.704-1.14l.517-1.408c2.359.866 3.579 1.048 4.187 1.048 2.028 0 6.632-2.19 9.044-3.454-.278-.159-.692-.296-1.294-.296-.878 0-1.963.361-3.013.712-1.163.388-2.366.788-3.487.788-2.108 0-4.889-1.003-5.006-1.045l.513-1.41c.026.01 2.652.955 4.494.955.878 0 1.963-.361 3.013-.712 1.163-.388 2.366-.788 3.487-.788 2.479 0 3.168 1.651 3.196 1.722.141.352-.002.752-.334.935-.303.167-7.456 4.093-10.613 4.093z"/></g><g><path d="m23.25 25.09h-1.5v-.45c0-.591-.421-1.106-1-1.226l-9.63-1.97.301-1.469 9.63 1.97c1.274.261 2.2 1.394 2.2 2.694v.451z"/></g></svg>