<svg id="LINE" enable-background="new 0 0 36 36" height="512" viewBox="0 0 36 36" width="512" xmlns="http://www.w3.org/2000/svg"><g><path d="m7.678 5.564c-1.805 6.677-6.504 10.327-7.374 13.545s-.847 10.475 13.955 14.477 19.432-4.501 20.388-8.041c4.481-16.572-23.772-31.807-26.969-19.981z" fill="#efefef"/></g><g><path d="m32.385 23.13c-.827 0-1.5-.673-1.5-1.5s.673-1.5 1.5-1.5 1.5.673 1.5 1.5-.673 1.5-1.5 1.5zm0-2c-.275 0-.5.225-.5.5s.225.5.5.5.5-.225.5-.5-.225-.5-.5-.5z" fill="#a4afc1"/></g><g><path d="m4.5.452h1v2h-1z" fill="#a4afc1"/></g><g><path d="m4.5 6.202h1v2h-1z" fill="#a4afc1"/></g><g><path d="m1 3.702h2v1h-2z" fill="#a4afc1"/></g><g><path d="m6.75 3.702h2v1h-2z" fill="#a4afc1"/></g><g><circle cx="26" cy="10" fill="#2fdf84" r="3.25"/></g><g><path d="m27.75 12.739v4.511l-1.75-1.298-1.75 1.298v-4.473z" fill="#2fdf84"/></g><g><path d="m6.75 18.75v8.5h2.75l2-7.386s-1.458-1.114-4.75-1.114z" fill="#f3f3f1"/></g><g><path d="m15.5 24.5s2.75 1 4.75 1 4.5-1.5 6.5-1.5 2.5 1.25 2.5 1.25-7.25 4-10.25 4c-2.39 0-7.31-2.22-9.22-3.12l1.49-5.42 9.63 1.97c.93.19 1.6 1.01 1.6 1.96v.45z" fill="#f3f3f1"/></g><g><path d="m26.89 24.011h-.272c-1.268.039-2.72.631-4.118 1.06v-.431c0-.219-.039-.43-.105-.629h-12.032l-.583 2.119c1.91.9 6.83 3.12 9.22 3.12 3 0 10.25-4 10.25-4s-.486-1.178-2.36-1.239zm-11.39.489 6.95.586c-.765.232-1.513.414-2.2.414-2 0-4.75-1-4.75-1z" fill="#d5dbe1"/></g><g><path d="m6.75 24.011v3.239h2.75l.877-3.239z" fill="#d5dbe1"/></g><g><path d="m24.75 10c0-1.444.948-2.653 2.25-3.077-.317-.103-.649-.173-1-.173-1.795 0-3.25 1.455-3.25 3.25s1.455 3.25 3.25 3.25c.351 0 .683-.07 1-.173-1.302-.424-2.25-1.633-2.25-3.077z" fill="#00b871"/></g><g><path d="m9.5 28h-2.75c-.414 0-.75-.336-.75-.75v-8.5c0-.414.336-.75.75-.75 3.506 0 5.138 1.217 5.205 1.269.242.185.349.498.269.792l-2 7.386c-.088.326-.385.553-.724.553zm-2-1.5h1.426l1.698-6.271c-.523-.247-1.545-.615-3.124-.707z"/></g><g><path d="m26 14c-2.206 0-4-1.794-4-4s1.794-4 4-4 4 1.794 4 4-1.794 4-4 4zm0-6.5c-1.379 0-2.5 1.121-2.5 2.5s1.121 2.5 2.5 2.5 2.5-1.121 2.5-2.5-1.121-2.5-2.5-2.5z"/></g><g><path d="m27.75 18c-.158 0-.315-.05-.446-.147l-1.304-.967-1.304.967c-.227.169-.53.195-.783.067-.253-.127-.413-.387-.413-.67v-4.473h1.5v2.982l.554-.41c.264-.197.629-.197.893 0l.553.411v-3.021h1.5v4.512c0 .283-.16.543-.413.67-.107.053-.222.079-.337.079z"/></g><g><path d="m12.782 28.272c-1.04-.424-2.189-.931-3.321-1.464l.639-1.357c1.109.522 2.232 1.018 3.249 1.433z"/></g><g><path d="m19 30c-1.076 0-2.615-.373-4.704-1.14l.518-1.408c2.358.866 3.578 1.048 4.186 1.048 2.028 0 6.632-2.19 9.045-3.454-.278-.159-.692-.296-1.295-.296-.878 0-1.964.361-3.013.712-1.163.388-2.365.788-3.487.788-2.107 0-4.889-1.003-5.006-1.045l.512-1.41c.026.01 2.652.955 4.494.955.878 0 1.964-.361 3.013-.712 1.163-.388 2.365-.788 3.487-.788 2.479 0 3.168 1.651 3.196 1.722.141.352-.003.752-.334.935-.302.167-7.455 4.093-10.612 4.093z"/></g><g><path d="m23.25 25.09h-1.5v-.45c0-.591-.421-1.106-1-1.226l-9.631-1.97.301-1.469 9.631 1.97c1.274.261 2.199 1.394 2.199 2.694z"/></g></svg>