<svg id="LINE" enable-background="new 0 0 36 36" height="512" viewBox="0 0 36 36" width="512" xmlns="http://www.w3.org/2000/svg"><g><path d="m34.904 20.355c-3.782-5.791-3.38-11.727-5.203-14.518s-7.256-7.603-20.093.782-9.572 17.5-7.566 20.569c9.388 14.372 39.561 3.423 32.862-6.833z" fill="#efefef"/></g><g><path d="m19.875 3.41h2v1h-2z" fill="#a4afc1"/></g><g><path d="m14.125 3.41h2v1h-2z" fill="#a4afc1"/></g><g><path d="m17.625-.09h1v2h-1z" fill="#a4afc1"/></g><g><path d="m31 8.5c-.827 0-1.5-.673-1.5-1.5s.673-1.5 1.5-1.5 1.5.673 1.5 1.5-.673 1.5-1.5 1.5zm0-2c-.276 0-.5.224-.5.5s.224.5.5.5.5-.224.5-.5-.224-.5-.5-.5z" fill="#a4afc1"/></g><g><path d="m16.75 10.751h1.25c.69 0 1.25.616 1.25 1.375 0 .759-.56 1.375-1.25 1.375-.69 0-1.25.616-1.25 1.375v1.375h2.5z" fill="#2fdf84"/></g><g><circle cx="18" cy="13" fill="#2fdf84" r="6.25"/></g><g><path d="m13.622 17.532-4.872 8.765 3.585-.277 1.59 3.23 4.04-7.17z" fill="#f3f3f1"/></g><g><path d="m22.31 17.541 4.94 8.76-3.645-.281-1.6 3.23-4.04-7.17-1.778-3.137z" fill="#f3f3f1"/></g><g><path d="m13.75 13c0-3.111 2.275-5.683 5.25-6.163-.326-.053-.659-.087-1-.087-3.452 0-6.25 2.798-6.25 6.25s2.798 6.25 6.25 6.25c.341 0 .674-.035 1-.087-2.975-.48-5.25-3.052-5.25-6.163z" fill="#00b871"/></g><g><path d="m19.965 22.08-1.778-3.137 4.352-.997-.229-.405-6.123 1.402 1.778 3.137 4.04 7.17.936-1.889z" fill="#d5dbe1"/></g><g><path d="m14.886 18.856-1.264-1.324-4.872 8.765 2.09-.161z" fill="#d5dbe1"/></g><g><path d="m20 17h-3.25c-.414 0-.75-.335-.75-.75v-1.375c0-1.172.897-2.125 2-2.125.271 0 .5-.286.5-.625s-.229-.625-.5-.625h-2v-1.5h2c1.103 0 2 .953 2 2.125s-.897 2.125-2 2.125c-.271 0-.5.286-.5.625v.625h2.5z"/></g><g><path d="m13.925 30c-.007 0-.014 0-.021 0-.278-.007-.529-.168-.652-.418l-1.366-2.774-3.079.237c-.274.02-.54-.11-.689-.343s-.158-.528-.024-.769l4.873-8.765 1.311.729-4.195 7.546 2.194-.169c.305-.027.595.142.73.417l.962 1.954 3.342-5.931 1.307.736-4.04 7.17c-.133.234-.383.38-.653.38z"/></g><g><path d="m22.005 30c-.271 0-.52-.146-.653-.382l-5.816-10.306 1.305-.739 5.123 9.073.971-1.959c.135-.274.414-.448.729-.415l2.244.172-4.25-7.536 1.307-.737 4.94 8.76c.136.241.128.538-.021.771s-.413.371-.69.345l-3.14-.242-1.375 2.776c-.123.249-.374.409-.652.417-.009.002-.016.002-.022.002z"/></g><g><path d="m17.989 20c-1.068 0-2.151-.245-3.167-.762-3.439-1.752-4.812-5.976-3.06-9.415 1.752-3.44 5.977-4.811 9.415-3.06.47.24.912.531 1.314.867l-.961 1.151c-.316-.264-.665-.493-1.035-.682-2.701-1.376-6.019-.299-7.395 2.404-1.377 2.703-.299 6.021 2.403 7.397 2.701 1.375 6.021.299 7.397-2.403.796-1.563.807-3.363.029-4.938l1.345-.664c.975 1.974.961 4.323-.037 6.283-1.235 2.425-3.698 3.822-6.248 3.822z"/></g></svg>