<svg id="LINE" enable-background="new 0 0 36 36" height="512" viewBox="0 0 36 36" width="512" xmlns="http://www.w3.org/2000/svg"><g><path d="m34.904 20.355c-3.782-5.791-3.38-11.727-5.203-14.518s-7.256-7.603-20.093.782-9.572 17.5-7.566 20.569c9.388 14.372 39.561 3.423 32.862-6.833z" fill="#efefef"/></g><g><path d="m29.25 13.449c-.827 0-1.5-.673-1.5-1.5s.673-1.5 1.5-1.5 1.5.673 1.5 1.5-.673 1.5-1.5 1.5zm0-2c-.275 0-.5.225-.5.5s.225.5.5.5.5-.225.5-.5-.225-.5-.5-.5z" fill="#a4afc1"/></g><g><path d="m5.112.324h1v2h-1z" fill="#a4afc1"/></g><g><path d="m5.112 6.074h1v2h-1z" fill="#a4afc1"/></g><g><path d="m1.612 3.574h2v1h-2z" fill="#a4afc1"/></g><g><path d="m7.362 3.574h2v1h-2z" fill="#a4afc1"/></g><g><path d="m23.25 29.25h-10.5c-1.105 0-2-.895-2-2v-18.5c0-1.105.895-2 2-2h10.5c1.105 0 2 .895 2 2v18.5c0 1.105-.895 2-2 2z" fill="#f3f3f1"/></g><g><path d="m12.75 27.25v-18.5c0-1.105.895-2 2-2h-2c-1.105 0-2 .895-2 2v18.5c0 1.105.895 2 2 2h2c-1.105 0-2-.895-2-2z" fill="#d5dbe1"/></g><g><circle cx="18" cy="16" fill="#2fdf84" r="3.25"/></g><g><path d="m19.75 18.739v4.511l-1.75-1.298-1.75 1.298v-4.473z" fill="#2fdf84"/></g><g><path d="m20.797 9.25h-5.607c-.247 0-.446-.2-.446-.446v-1.608c0-.247.2-.446.446-.446h5.607c.247 0 .446.2.446.446v1.607c0 .247-.2.447-.446.447z" fill="#2fdf84"/></g><g><path d="m16.743 8.804v-1.608c0-.247.2-.446.446-.446h-2c-.247 0-.446.2-.446.446v1.607c0 .247.2.446.446.446h2c-.246.001-.446-.199-.446-.445z" fill="#00b871"/></g><g><path d="m16.75 16c0-1.444.948-2.653 2.25-3.077-.317-.103-.649-.173-1-.173-1.795 0-3.25 1.455-3.25 3.25s1.455 3.25 3.25 3.25c.351 0 .683-.07 1-.173-1.302-.424-2.25-1.633-2.25-3.077z" fill="#00b871"/></g><g><path d="m20.25 10h-4.5c-.965 0-1.75-.785-1.75-1.75 0-.413-.337-.75-.75-.75h-.5v-1.5h.5c1.24 0 2.25 1.01 2.25 2.25 0 .138.112.25.25.25h4.5c.138 0 .25-.112.25-.25 0-1.24 1.01-2.25 2.25-2.25h.5v1.5h-.5c-.413 0-.75.337-.75.75 0 .965-.785 1.75-1.75 1.75z"/></g><g><path d="m18 20c-2.206 0-4-1.794-4-4s1.794-4 4-4 4 1.794 4 4-1.794 4-4 4zm0-6.5c-1.379 0-2.5 1.121-2.5 2.5s1.121 2.5 2.5 2.5 2.5-1.121 2.5-2.5-1.121-2.5-2.5-2.5z"/></g><g><path d="m19.75 24c-.158 0-.315-.05-.446-.147l-1.304-.967-1.304.967c-.227.169-.53.195-.783.067-.253-.127-.413-.387-.413-.67v-4.473h1.5v2.982l.554-.41c.264-.197.629-.197.893 0l.553.411v-3.021h1.5v4.512c0 .283-.16.543-.413.67-.107.053-.222.079-.337.079z"/></g><g><path d="m23.25 30h-10.5c-1.517 0-2.75-1.233-2.75-2.75v-18.5c0-1.517 1.233-2.75 2.75-2.75h10.5c1.517 0 2.75 1.233 2.75 2.75v4.295h-1.5v-4.295c0-.689-.561-1.25-1.25-1.25h-10.5c-.689 0-1.25.561-1.25 1.25v18.5c0 .689.561 1.25 1.25 1.25h10.5c.689 0 1.25-.561 1.25-1.25v-11.506h1.5v11.506c0 1.517-1.233 2.75-2.75 2.75z"/></g></svg>