<svg id="LINE" enable-background="new 0 0 36 36" height="512" viewBox="0 0 36 36" width="512" xmlns="http://www.w3.org/2000/svg"><g><path d="m3.442 23.883c6.061 3.333 8.497 8.761 11.417 10.367 2.921 1.606 9.978 3.299 17.366-10.137s.221-19.945-2.992-21.712c-15.042-8.27-36.525 15.58-25.791 21.482z" fill="#efefef"/></g><g><path d="m28.844 12.871c-.827 0-1.5-.673-1.5-1.5s.673-1.5 1.5-1.5 1.5.673 1.5 1.5-.673 1.5-1.5 1.5zm0-2c-.276 0-.5.224-.5.5s.224.5.5.5.5-.224.5-.5-.224-.5-.5-.5z" fill="#a4afc1"/></g><g><path d="m.406 11.871h2v1h-2z" fill="#a4afc1"/></g><g><path d="m6.156 11.871h2v1h-2z" fill="#a4afc1"/></g><g><path d="m3.656 14.371h1v2h-1z" fill="#a4afc1"/></g><g><path d="m3.656 8.621h1v2h-1z" fill="#a4afc1"/></g><g><path d="m26.25 29.25h-16.5v-2.5c0-1.105.895-2 2-2h12.5c1.105 0 2 .895 2 2z" fill="#f3f3f1"/></g><g><path d="m11.75 24.75v-17.003c0-.702.704-1.185 1.359-.933l10.5 4.69c.386.149.641.52.641.933v12.313z" fill="#2fdf84"/></g><g><path d="m18 12.75 1.159 2.469 2.591.396-1.875 1.921.443 2.714-2.318-1.281-2.318 1.281.443-2.714-1.875-1.921 2.591-.396z" fill="#f3f3f1"/></g><g><path d="m13.933 7.182-.824-.368c-.655-.252-1.359.232-1.359.933v17.003h2v-17.003c0-.216.072-.406.183-.565z" fill="#00b871"/></g><g><path d="m13.75 24.75h-2c-1.105 0-2 .895-2 2v2.5h2v-2.5c0-1.105.895-2 2-2z" fill="#d5dbe1"/></g><g><path d="m26.25 30h-16.5c-.414 0-.75-.336-.75-.75v-2.5c0-1.517 1.233-2.75 2.75-2.75h12.5c1.517 0 2.75 1.233 2.75 2.75v2.5c0 .414-.336.75-.75.75zm-15.75-1.5h15v-1.75c0-.689-.561-1.25-1.25-1.25h-12.5c-.689 0-1.25.561-1.25 1.25z"/></g><g><path d="m25 24.75h-1.5v-12.313c0-.103-.064-.197-.16-.233l-10.537-4.706c-.072-.022-.153.016-.195.042-.04.028-.108.092-.108.207v4.781h-1.5v-4.781c0-.577.284-1.116.759-1.443.476-.327 1.081-.398 1.619-.191l10.536 4.706c.635.242 1.086.899 1.086 1.618z"/></g><g><path d="m11 15.748h1.5v9.002h-1.5z"/></g><g><path d="m20.318 21c-.125 0-.25-.031-.363-.094l-1.955-1.08-1.955 1.081c-.251.14-.559.122-.795-.043-.234-.166-.354-.451-.308-.734l.381-2.34-1.61-1.651c-.196-.201-.264-.496-.175-.762.089-.267.32-.46.598-.503l2.196-.336.989-2.106c.247-.526 1.11-.526 1.357 0l.989 2.106 2.196.336c.278.042.509.236.598.503s.021.561-.175.762l-1.61 1.651.382 2.34c.046.283-.073.568-.308.734-.129.09-.28.136-.432.136zm-2.318-2.781c.125 0 .25.031.363.094l.966.534-.194-1.189c-.038-.235.037-.474.204-.645l.855-.877-1.148-.176c-.247-.038-.459-.196-.565-.422l-.481-1.023-.48 1.022c-.106.226-.318.385-.565.422l-1.148.176.855.877c.167.17.242.41.204.645l-.194 1.189.966-.534c.112-.062.237-.093.362-.093z"/></g><g><path d="m2 28.91h32v1.09h-32z"/></g></svg>