<svg id="LINE" enable-background="new 0 0 36 36" height="512" viewBox="0 0 36 36" width="512" xmlns="http://www.w3.org/2000/svg"><g><path d="m8.377 4.167c6.917 0 11.667-3.583 15-3.583s10.333 1.916 10.333 17.249-9.417 17.583-13.083 17.583c-17.167.001-24.5-31.249-12.25-31.249z" fill="#efefef"/></g><g><path d="m14.783 6.055h2v1h-2z" fill="#a4afc1" transform="matrix(.707 -.707 .707 .707 -.013 13.08)"/></g><g><path d="m10.717 10.121h2v1h-2z" fill="#a4afc1" transform="matrix(.707 -.707 .707 .707 -4.079 11.396)"/></g><g><path d="m11.217 5.379h1v2h-1z" fill="#a4afc1" transform="matrix(.707 -.707 .707 .707 -1.079 10.151)"/></g><g><path d="m29.25 11.25c-.827 0-1.5-.673-1.5-1.5s.673-1.5 1.5-1.5 1.5.673 1.5 1.5-.673 1.5-1.5 1.5zm0-2c-.275 0-.5.224-.5.5s.225.5.5.5.5-.224.5-.5-.225-.5-.5-.5z" fill="#a4afc1"/></g><g><path d="m24.25 29.25h-12.5v-2.5c0-.552.448-1 1-1h10.5c.552 0 1 .448 1 1z" fill="#f3f3f1"/></g><g><path d="m25.25 10.169c0 8.081-6 15.331-6 15.331h-5.5s3-5.25 3-15.301z" fill="#2fdf84"/></g><g><path d="m25.25 10.176c0-.002 0-.005 0-.007l-8.5.031c0 10.051-3 15.301-3 15.301h2s3-5.25 3-15.301z" fill="#00b871"/></g><g><path d="m14.75 25.75h-2c-.552 0-1 .448-1 1v2.5h2v-2.5c0-.552.448-1 1-1z" fill="#d5dbe1"/></g><g><path d="m21.013 13.791-2.622 1.459.491-3.074-2.132-2.168 2.935-.458 1.304-2.8 1.323 2.791 2.938.438-2.118 2.183.512 3.07z" fill="#f3f3f1"/></g><g><path d="m20.586 14.028.296-1.852-2.132-2.168 2.935-.459.313-.671-1.009-2.128-1.304 2.799-2.935.459 2.132 2.168-.491 3.074z" fill="#d5dbe1"/></g><g><path d="m24.25 30h-12.5c-.414 0-.75-.336-.75-.75v-2.5c0-.965.785-1.75 1.75-1.75h10.5c.965 0 1.75.785 1.75 1.75v2.5c0 .414-.336.75-.75.75zm-11.75-1.5h11v-1.75c0-.138-.112-.25-.25-.25h-10.5c-.138 0-.25.112-.25.25z"/></g><g><path d="m18.391 16c-.151 0-.302-.045-.43-.136-.235-.165-.356-.449-.311-.732l.431-2.7-1.866-1.898c-.197-.201-.266-.495-.177-.761.088-.267.318-.462.596-.506l2.54-.396 1.136-2.437c.123-.264.386-.433.677-.434h.002c.29 0 .554.167.678.429l1.151 2.429 2.542.379c.278.042.51.235.601.501.09.266.023.561-.173.763l-1.854 1.911.451 2.696c.047.283-.072.569-.306.735-.235.167-.545.184-.795.046l-2.269-1.242-2.26 1.258c-.113.064-.239.095-.364.095zm-.082-5.477 1.108 1.127c.167.17.243.409.205.644l-.247 1.549 1.272-.708c.227-.125.499-.126.726-.002l1.277.7-.259-1.547c-.039-.235.036-.475.202-.646l1.101-1.134-1.493-.223c-.248-.037-.46-.194-.567-.42l-.639-1.349-.631 1.353c-.105.227-.317.386-.563.424z"/></g><g><path d="m17.229 15.331-1.492-.162c.175-1.602.263-3.274.263-4.97h1.5c0 1.75-.091 3.476-.271 5.132z"/></g><g><path d="m19.25 26.25h-5.5c-.267 0-.514-.143-.647-.373-.135-.23-.136-.516-.005-.748.013-.021 1.214-2.171 2.061-6.255l1.469.305c-.544 2.625-1.225 4.487-1.688 5.571h3.947c1.051-1.372 5.614-7.727 5.614-14.581h1.499c0 8.256-5.92 15.505-6.172 15.809-.142.172-.354.272-.578.272z"/></g></svg>