<svg id="LINE" enable-background="new 0 0 36 36" height="512" viewBox="0 0 36 36" width="512" xmlns="http://www.w3.org/2000/svg"><g><path d="m8.114 5.564c-1.805 6.677-6.504 10.327-7.374 13.545s-.847 10.475 13.955 14.477 19.432-4.501 20.388-8.041c4.481-16.572-23.772-31.807-26.969-19.981z" fill="#efefef"/></g><g><path d="m9.033 5.293h2v1h-2z" fill="#a4afc1" transform="matrix(.707 -.707 .707 .707 -1.158 8.791)"/></g><g><path d="m4.967 9.359h2v1h-2z" fill="#a4afc1" transform="matrix(.707 -.707 .707 .707 -5.223 7.107)"/></g><g><path d="m5.467 4.616h1v2h-1z" fill="#a4afc1" transform="matrix(.707 -.707 .707 .707 -2.223 5.864)"/></g><g><path d="m28.854 24.5c-.827 0-1.5-.673-1.5-1.5s.673-1.5 1.5-1.5 1.5.673 1.5 1.5-.673 1.5-1.5 1.5zm0-2c-.276 0-.5.224-.5.5s.224.5.5.5.5-.224.5-.5-.225-.5-.5-.5z" fill="#a4afc1"/></g><g><path d="m11.75 18.48 8.97-8.58.01.01 2.88 1.34c.39.15.64.52.64.94v12.56h-12.5z" fill="#2fdf84"/></g><g><path d="m26.25 29.25h-16.5v-2.5c0-1.105.895-2 2-2h12.5c1.105 0 2 .895 2 2z" fill="#f3f3f1"/></g><g><path d="m15 9.25 1.004 2.14 2.246.343-1.625 1.665.384 2.352-2.009-1.11-2.009 1.11.384-2.352-1.625-1.665 2.246-.343z" fill="#2fdf84"/></g><g><path d="m22.062 10.53-1.332-.62-.01-.01-8.97 8.58v6.27h2v-6.27z" fill="#00b871"/></g><g><path d="m13.75 24.75h-2c-1.105 0-2 .895-2 2v2.5h2v-2.5c0-1.105.895-2 2-2z" fill="#d5dbe1"/></g><g><path d="m26.25 30h-16.5c-.414 0-.75-.336-.75-.75v-2.5c0-1.517 1.233-2.75 2.75-2.75h12.5c1.517 0 2.75 1.233 2.75 2.75v2.5c0 .414-.336.75-.75.75zm-15.75-1.5h15v-1.75c0-.689-.561-1.25-1.25-1.25h-12.5c-.689 0-1.25.561-1.25 1.25z"/></g><g><path d="m24.25 25.5h-12.5c-.414 0-.75-.336-.75-.75v-6.27c0-.205.083-.4.231-.542l8.97-8.58c.144-.138.34-.196.536-.208.134.003.264.042.376.112l2.812 1.308c.635.242 1.075.886 1.075 1.62v12.56c0 .414-.336.75-.75.75zm-11.75-1.5h11v-11.81c0-.11-.061-.202-.159-.24l-2.476-1.15-8.365 8z"/></g><g><circle cx="15" cy="13" fill="#f3f3f1" r="6.25"/></g><g><path d="m10.75 13c0-3.111 2.275-5.683 5.25-6.163-.326-.053-.659-.087-1-.087-3.452 0-6.25 2.798-6.25 6.25s2.798 6.25 6.25 6.25c.341 0 .674-.035 1-.087-2.975-.48-5.25-3.052-5.25-6.163z" fill="#d5dbe1"/></g><g><path d="m15 9.25 1.004 2.14 2.246.343-1.625 1.665.384 2.352-2.009-1.11-2.009 1.11.384-2.352-1.625-1.665 2.246-.343z" fill="#2fdf84"/><path d="m17.009 16.5c-.125 0-.25-.031-.363-.094l-1.646-.909-1.646.91c-.252.14-.561.122-.795-.043-.235-.166-.354-.451-.308-.734l.323-1.978-1.36-1.395c-.196-.201-.264-.496-.175-.762s.32-.46.598-.503l1.85-.283.834-1.777c.247-.526 1.11-.526 1.357 0l.834 1.777 1.85.283c.278.042.509.237.598.503.089.267.021.561-.175.762l-1.36 1.395.323 1.978c.046.283-.073.568-.308.734-.128.09-.279.136-.431.136zm-2.009-2.61c.125 0 .25.031.363.094l.657.363-.135-.827c-.038-.235.037-.474.204-.645l.605-.621-.803-.123c-.247-.038-.459-.196-.565-.422l-.326-.694-.326.693c-.106.226-.318.385-.565.422l-.803.123.605.621c.167.17.242.41.204.645l-.135.827.657-.363c.113-.062.238-.093.363-.093z"/></g><g><path d="m15 20c-3.86 0-7-3.14-7-7s3.14-7 7-7 7 3.14 7 7-3.14 7-7 7zm0-12.5c-3.033 0-5.5 2.467-5.5 5.5s2.467 5.5 5.5 5.5 5.5-2.467 5.5-5.5-2.467-5.5-5.5-5.5z"/></g><g><path d="m2 28.91h32v1.09h-32z"/></g></svg>