<svg id="LINE" enable-background="new 0 0 36 36" height="512" viewBox="0 0 36 36" width="512" xmlns="http://www.w3.org/2000/svg"><g><path d="m8.114 5.564c-1.805 6.677-6.504 10.327-7.374 13.545s-.847 10.475 13.955 14.477 19.432-4.501 20.388-8.041c4.481-16.572-23.772-31.807-26.969-19.981z" fill="#efefef"/></g><g><path d="m6.237 5.838h2v1h-2z" fill="#a4afc1" transform="matrix(.707 -.707 .707 .707 -2.362 6.974)"/></g><g><path d="m2.172 9.904h2v1h-2z" fill="#a4afc1" transform="matrix(.707 -.707 .707 .707 -6.428 5.29)"/></g><g><path d="m2.672 5.162h1v2h-1z" fill="#a4afc1" transform="matrix(.707 -.707 .707 .707 -3.428 4.048)"/></g><g><path d="m32.477 8.838c-.827 0-1.5-.673-1.5-1.5s.673-1.5 1.5-1.5 1.5.673 1.5 1.5-.673 1.5-1.5 1.5zm0-2c-.275 0-.5.224-.5.5s.225.5.5.5.5-.224.5-.5-.225-.5-.5-.5z" fill="#a4afc1"/></g><g><path d="m22.25 17.75v11.5l-4.25-3.25-4.25 3.25v-11.435z" fill="#f3f3f1"/></g><g><path d="m15.75 17.815 6.5-.05v-.015l-8.5.065v11.435l2-1.529z" fill="#d5dbe1"/></g><g><path d="m20 26-1 .765 3.25 2.485v-1.529z" fill="#d5dbe1"/></g><g><circle cx="18" cy="13" fill="#2fdf84" r="6.25"/></g><g><path d="m18 15.14-2.009 1.111.384-2.352-1.625-1.666 2.246-.343 1.004-2.139 1.004 2.139 2.246.343-1.625 1.666.384 2.352z" fill="#f3f3f1"/></g><g><path d="m13.75 13c0-3.111 2.275-5.683 5.25-6.163-.326-.053-.659-.087-1-.087-3.452 0-6.25 2.798-6.25 6.25s2.798 6.25 6.25 6.25c.341 0 .674-.035 1-.087-2.975-.48-5.25-3.052-5.25-6.163z" fill="#00b871"/></g><g><path d="m20.009 17c-.125 0-.25-.031-.363-.094l-1.646-.909-1.646.91c-.251.139-.56.122-.795-.043-.235-.166-.354-.451-.309-.734l.323-1.978-1.361-1.395c-.196-.201-.264-.496-.174-.762.089-.267.319-.46.598-.503l1.851-.283.834-1.777c.246-.527 1.111-.527 1.357 0l.834 1.777 1.851.283c.278.042.509.236.598.503.09.267.022.561-.174.762l-1.361 1.395.323 1.978c.046.283-.073.568-.309.734-.128.091-.28.136-.431.136zm-2.009-2.61c.125 0 .25.031.363.094l.656.363-.135-.827c-.038-.235.037-.474.203-.645l.606-.621-.804-.123c-.247-.038-.459-.196-.565-.423l-.324-.692-.325.692c-.106.227-.318.385-.565.423l-.804.123.606.621c.166.17.241.41.203.645l-.135.827.656-.363c.114-.063.239-.094.364-.094z"/></g><g><path d="m22.25 30c-.162 0-.322-.052-.456-.154l-3.794-2.902-3.794 2.901c-.229.174-.533.203-.788.077-.256-.126-.418-.387-.418-.672v-11.435h1.5v9.917l3.044-2.328c.27-.206.643-.206.912 0l3.044 2.328v-9.982h1.5v11.5c0 .285-.162.546-.418.672-.105.053-.219.078-.332.078z"/></g><g><path d="m17.992 20.004c-1.09 0-2.171-.257-3.171-.766-1.665-.849-2.901-2.296-3.479-4.074s-.429-3.675.421-5.341c.849-1.666 2.295-2.902 4.073-3.479 1.777-.579 3.674-.429 5.342.42.471.241.913.532 1.313.867l-.961 1.151c-.315-.263-.663-.493-1.034-.682-1.31-.666-2.799-.785-4.196-.33-1.397.454-2.534 1.425-3.201 2.734s-.784 2.8-.33 4.197c.453 1.397 1.424 2.534 2.733 3.201s2.8.785 4.196.331c1.397-.454 2.534-1.425 3.201-2.734.797-1.563.808-3.363.029-4.938l1.344-.665c.977 1.975.963 4.324-.037 6.284-.849 1.666-2.295 2.901-4.073 3.479-.711.23-1.442.345-2.17.345z"/></g></svg>