<svg id="LINE" enable-background="new 0 0 36 36" height="512" viewBox="0 0 36 36" width="512" xmlns="http://www.w3.org/2000/svg"><g><path d="m8.377 4.167c6.917 0 11.667-3.583 15-3.583s10.333 1.916 10.333 17.249-9.417 17.583-13.083 17.583c-17.167.001-24.5-31.249-12.25-31.249z" fill="#efefef"/></g><g><path d="m6.063 11.16h2v1h-2z" fill="#a4afc1" transform="matrix(.707 -.707 .707 .707 -6.176 8.409)"/></g><g><path d="m1.997 15.227h2v1h-2z" fill="#a4afc1" transform="matrix(.707 -.707 .707 .707 -10.243 6.726)"/></g><g><path d="m2.497 10.484h1v2h-1z" fill="#a4afc1" transform="matrix(.707 -.707 .707 .707 -7.242 5.483)"/></g><g><path d="m28.817 27.216c-.827 0-1.5-.673-1.5-1.5s.673-1.5 1.5-1.5 1.5.673 1.5 1.5-.672 1.5-1.5 1.5zm0-2c-.275 0-.5.225-.5.5s.225.5.5.5.5-.225.5-.5-.224-.5-.5-.5z" fill="#a4afc1"/></g><g><path d="m18.034 25.387-6.94 3.863 1.301-8.137-5.645-5.74 7.77-1.212 3.451-7.411 3.501 7.387 7.778 1.16-5.605 5.778 1.355 8.128z" fill="#2fdf84"/></g><g><path d="m13.29 28.028 1.105-6.915-5.645-5.74 7.77-1.212 2.46-5.283-1.009-2.128-3.451 7.411-7.77 1.212 5.645 5.74-1.301 8.137z" fill="#00b871"/></g><g><path d="m20.034 25.387-.992.552 5.958 3.264-.201-1.206z" fill="#00b871"/></g><g><path d="m18 23h-2v-1.5h2c.271 0 .5-.286.5-.625s-.229-.625-.5-.625h-1.25c-.414 0-.75-.336-.75-.75v-2.75c0-.414.336-.75.75-.75h3.25v1.5h-2.5v1.25h.5c1.103 0 2 .953 2 2.125s-.897 2.125-2 2.125z"/></g><g><path d="m11.095 30c-.151 0-.302-.046-.43-.136-.235-.164-.356-.449-.311-.732l1.239-7.763-5.379-5.471c-.196-.2-.266-.494-.177-.761.088-.268.318-.462.597-.506l7.374-1.151 3.282-7.047c.123-.263.388-.432.678-.433h.003c.29 0 .554.167.678.429l3.331 7.025 1.716.256-.221 1.484-2.112-.315c-.248-.037-.46-.195-.567-.421l-2.818-5.944-2.777 5.963c-.105.227-.317.386-.564.425l-6.326.987 4.621 4.699c.167.169.243.408.205.644l-1.056 6.612 5.59-3.112c.227-.126.499-.127.726-.003l5.611 3.075-1.102-6.605c-.039-.234.036-.475.202-.646l4.588-4.729-2.193-.327.221-1.484 3.639.543c.278.042.51.235.6.502.091.267.024.561-.172.763l-5.342 5.506 1.294 7.755c.047.283-.072.568-.306.734-.236.166-.545.184-.795.047l-6.603-3.618-6.577 3.662c-.116.062-.242.093-.367.093z"/></g></svg>