<svg id="LINE" enable-background="new 0 0 36 36" height="512" viewBox="0 0 36 36" width="512" xmlns="http://www.w3.org/2000/svg"><g><path d="m8.114 5.564c-1.805 6.677-6.504 10.327-7.374 13.545s-.847 10.475 13.955 14.477 19.432-4.501 20.388-8.041c4.481-16.572-23.772-31.807-26.969-19.981z" fill="#efefef"/></g><g><path d="m5.256 4.126h2v1h-2z" fill="#a4afc1" transform="matrix(.707 -.707 .707 .707 -1.438 5.778)"/></g><g><path d="m1.19 8.191h2v1h-2z" fill="#a4afc1" transform="matrix(.707 -.707 .707 .707 -5.505 4.094)"/></g><g><path d="m1.69 3.449h1v2h-1z" fill="#a4afc1" transform="matrix(.707 -.707 .707 .707 -2.505 2.851)"/></g><g><path d="m5.756 7.515h1v2h-1z" fill="#a4afc1" transform="matrix(.707 -.707 .707 .707 -4.189 6.917)"/></g><g><path d="m30.036 6.524c-.827 0-1.5-.673-1.5-1.5s.673-1.5 1.5-1.5 1.5.673 1.5 1.5-.673 1.5-1.5 1.5zm0-2c-.275 0-.5.224-.5.5s.225.5.5.5.5-.224.5-.5-.224-.5-.5-.5z" fill="#a4afc1"/></g><g><circle cx="18" cy="23" fill="#2fdf84" r="6.25"/></g><g><path d="m18 25.14-2.009 1.11.384-2.352-1.625-1.665 2.246-.343 1.004-2.14 1.004 2.14 2.246.343-1.625 1.665.384 2.352z" fill="#f3f3f1"/></g><g><path d="m19.163 16.845-5.913-10.095h-4.5l5.95 10.8z" fill="#f3f3f1"/></g><g><path d="m18.13 15.08 4.62-8.33h4.5l-5.95 10.8z" fill="#f3f3f1"/></g><g><path d="m10.75 6.75h-2l5.95 10.8 1.84-.291z" fill="#d5dbe1"/></g><g><path d="m20.13 15.08 4.62-8.33h-2l-4.62 8.33 1.41 1.098z" fill="#d5dbe1"/></g><g><path d="m13.75 23c0-3.111 2.275-5.683 5.25-6.163-.326-.053-.659-.087-1-.087-3.452 0-6.25 2.798-6.25 6.25s2.798 6.25 6.25 6.25c.341 0 .674-.035 1-.087-2.975-.48-5.25-3.052-5.25-6.163z" fill="#00b871"/></g><g><path d="m20.009 27c-.125 0-.25-.031-.363-.094l-1.646-.909-1.646.91c-.251.139-.56.123-.795-.043s-.354-.451-.309-.734l.323-1.978-1.361-1.395c-.196-.201-.264-.496-.174-.762.089-.267.319-.46.598-.503l1.851-.283.834-1.777c.246-.527 1.111-.527 1.357 0l.834 1.777 1.851.283c.278.042.509.236.598.503.09.267.022.561-.174.762l-1.361 1.395.323 1.978c.046.283-.073.568-.309.734-.128.09-.28.136-.431.136zm-2.009-2.61c.125 0 .25.031.363.094l.656.363-.135-.827c-.038-.235.037-.474.203-.645l.606-.621-.804-.123c-.247-.038-.459-.196-.565-.423l-.324-.692-.325.692c-.106.227-.318.385-.565.423l-.804.123.606.621c.166.17.241.41.203.645l-.135.827.656-.363c.114-.063.239-.094.364-.094z"/></g><g><path d="m14.043 17.912-5.95-10.8c-.128-.233-.123-.515.011-.743.135-.229.38-.369.646-.369h4.5c.267 0 .513.141.647.371l5.913 10.095-1.295.758-5.695-9.724h-2.8l5.338 9.688z"/></g><g><path d="m21.957 17.912-1.314-.724 5.337-9.688h-2.789l-4.405 7.944-1.312-.728 4.62-8.33c.133-.238.384-.386.656-.386h4.5c.266 0 .511.14.646.369.135.228.14.511.012.743z"/></g><g><path d="m18 30c-3.859 0-7-3.14-7-7s3.141-7 7-7 7 3.14 7 7c0 .526-.06 1.053-.176 1.564l-1.463-.333c.092-.403.139-.817.139-1.231 0-3.033-2.468-5.5-5.5-5.5s-5.5 2.467-5.5 5.5 2.468 5.5 5.5 5.5c1.754 0 3.362-.808 4.412-2.216l1.203.896c-1.317 1.766-3.416 2.82-5.615 2.82z"/></g></svg>