<svg id="LINE" enable-background="new 0 0 36 36" height="512" viewBox="0 0 36 36" width="512" xmlns="http://www.w3.org/2000/svg"><g><path d="m34.904 20.355c-3.782-5.791-3.38-11.727-5.203-14.518s-7.256-7.603-20.093.782-9.572 17.5-7.566 20.569c9.388 14.372 39.561 3.423 32.862-6.833z" fill="#efefef"/></g><g><path d="m10.342 3.006h2v1h-2z" fill="#a4afc1" transform="matrix(.707 -.707 .707 .707 .843 9.047)"/></g><g><path d="m6.276 7.072h2v1h-2z" fill="#a4afc1" transform="matrix(.707 -.707 .707 .707 -3.223 7.363)"/></g><g><path d="m6.776 2.329h1v2h-1z" fill="#a4afc1" transform="matrix(.707 -.707 .707 .707 -.224 6.118)"/></g><g><path d="m30.25 18.561c-.827 0-1.5-.673-1.5-1.5s.673-1.5 1.5-1.5 1.5.673 1.5 1.5-.673 1.5-1.5 1.5zm0-2c-.275 0-.5.225-.5.5s.225.5.5.5.5-.225.5-.5-.225-.5-.5-.5z" fill="#a4afc1"/></g><g><path d="m24.283 6.75h-12.566c-.534 0-.967.435-.967.971v7.279c.039 5.823 7.25 8.25 7.25 8.25s7.25-2.426 7.25-8.25v-7.279c0-.536-.433-.971-.967-.971z" fill="#2fdf84"/></g><g><path d="m18 16.798-2.627 1.452.502-3.075-2.125-2.178 2.937-.449 1.313-2.798 1.313 2.798 2.937.449-2.125 2.178.502 3.075z" fill="#f3f3f1"/></g><g><path d="m22.25 29.25h-8.5v-.5c0-1.105.895-2 2-2h4.5c1.105 0 2 .895 2 2z" fill="#f3f3f1"/></g><g><path d="m17.75 26.75h-2c-1.105 0-2 .895-2 2v.5h2v-.5c0-1.105.895-2 2-2z" fill="#d5dbe1"/></g><g><path d="m12.75 15v-7.279c0-.536.433-.971.967-.971h-2c-.534 0-.967.435-.967.971v7.279c.039 5.823 7.25 8.25 7.25 8.25s.401-.137 1.002-.412c-1.976-.906-6.222-3.368-6.252-7.838z" fill="#00b871"/></g><g><path d="m17.572 17.035.303-1.86-2.125-2.178 2.937-.449.313-.668-1-2.13-1.313 2.798-2.937.449 2.125 2.178-.502 3.075z" fill="#d5dbe1"/></g><g><path d="m20.627 19c-.125 0-.25-.031-.363-.094l-2.264-1.251-2.264 1.251c-.251.138-.561.123-.795-.043-.235-.166-.354-.45-.309-.734l.441-2.701-1.861-1.907c-.196-.201-.264-.495-.174-.762.089-.267.319-.461.598-.503l2.541-.389 1.144-2.436c.246-.527 1.111-.527 1.357 0l1.144 2.436 2.541.389c.278.042.509.236.598.503.09.267.022.561-.174.762l-1.861 1.907.441 2.701c.046.284-.073.568-.309.734-.128.091-.28.137-.431.137zm-2.627-2.952c.125 0 .25.031.363.094l1.274.705-.253-1.551c-.038-.235.037-.475.203-.645l1.106-1.134-1.493-.228c-.247-.038-.459-.196-.565-.423l-.635-1.351-.635 1.352c-.106.227-.318.385-.565.423l-1.494.229 1.106 1.134c.166.17.241.409.203.645l-.253 1.551 1.274-.705c.114-.065.239-.096.364-.096z"/></g><g><path d="m22.25 30h-8.5c-.414 0-.75-.336-.75-.75v-.5c0-1.517 1.233-2.75 2.75-2.75h4.5c1.517 0 2.75 1.233 2.75 2.75v.5c0 .414-.336.75-.75.75zm-7.725-1.5h6.949c-.116-.57-.621-1-1.225-1h-4.5c-.603 0-1.107.43-1.224 1z"/></g><g><path d="m17.25 23.25h1.5v3.5h-1.5z"/></g><g><path d="m18 24c-.081 0-.161-.013-.239-.039-.315-.106-7.719-2.67-7.761-8.956v-7.284c0-.95.771-1.721 1.717-1.721h12.566c.946 0 1.717.771 1.717 1.721v1.819h-1.5v-1.819c0-.122-.098-.221-.217-.221h-12.566c-.119 0-.217.099-.217.221v7.279c.031 4.639 5.304 6.979 6.501 7.449 1.2-.47 6.499-2.809 6.499-7.449v-4.25h1.5v4.25c0 6.291-7.445 8.855-7.762 8.961-.077.026-.158.039-.238.039z"/></g></svg>