<svg id="LINE" enable-background="new 0 0 36 36" height="512" viewBox="0 0 36 36" width="512" xmlns="http://www.w3.org/2000/svg"><g><path d="m26.982 3.914c-6.916.129-11.732-3.365-15.065-3.302s-10.296 2.109-10.009 17.44 9.744 17.404 13.41 17.336c17.164-.321 23.911-31.703 11.664-31.474z" fill="#efefef"/></g><g><path d="m29 24.75c-.827 0-1.5-.673-1.5-1.5s.673-1.5 1.5-1.5 1.5.673 1.5 1.5-.673 1.5-1.5 1.5zm0-2c-.275 0-.5.224-.5.5s.225.5.5.5.5-.224.5-.5-.225-.5-.5-.5z" fill="#a4afc1"/></g><g><path d="m3.5 18h1v2h-1z" fill="#a4afc1"/></g><g><path d="m3.5 23.75h1v2h-1z" fill="#a4afc1"/></g><g><path d="m0 21.25h2v1h-2z" fill="#a4afc1"/></g><g><path d="m5.75 21.25h2v1h-2z" fill="#a4afc1"/></g><g><path d="m24.25 29.25h-12.5v-2.5c0-.552.448-1 1-1h10.5c.552 0 1 .448 1 1z" fill="#f3f3f1"/></g><g><path d="m19.762 15.145-1.756 4.105-2.106-4.117-4.347-.671 2.988-3.191-.93-4.521 3.954 2.145 3.771-2.123-.545 4.517 3.262 3.209z" fill="#2fdf84"/></g><g><path d="m22.25 25.75h-8.5v-4c0-1.105.895-2 2-2h4.5c1.105 0 2 .895 2 2z" fill="#f3f3f1"/></g><g><path d="m19.565 8.895 1.626-.915.145-1.208-2.79 1.57z" fill="#00b871"/></g><g><path d="m17.9 15.133-4.347-.671 2.988-3.191-.679-3.3-2.251-1.221.93 4.521-2.988 3.191 4.347.671 2.106 4.117.911-2.129z" fill="#00b871"/></g><g><path d="m17.75 19.75h-2c-1.105 0-2 .895-2 2v4h2v-4c0-1.105.895-2 2-2z" fill="#d5dbe1"/></g><g><path d="m14.75 25.75h-2c-.552 0-1 .448-1 1v2.5h2v-2.5c0-.552.448-1 1-1z" fill="#d5dbe1"/></g><g><path d="m24.25 30h-12.5c-.414 0-.75-.336-.75-.75v-2.5c0-.965.785-1.75 1.75-1.75h10.5c.965 0 1.75.785 1.75 1.75v2.5c0 .414-.336.75-.75.75zm-11.75-1.5h11v-1.75c0-.138-.112-.25-.25-.25h-10.5c-.138 0-.25.112-.25.25z"/></g><g><path d="m18.007 20c-.281 0-.539-.157-.668-.408l-1.933-3.776-3.968-.613c-.275-.042-.504-.233-.595-.497-.091-.263-.028-.554.161-.757l2.724-2.908-.852-4.14c-.059-.286.054-.58.287-.753.234-.173.548-.197.805-.057l3.589 1.947 3.41-1.919c.247-.138.55-.127.785.03.234.157.361.433.327.713l-.5 4.15.282.277-1.053 1.069-.545-.536c-.165-.163-.246-.394-.218-.625l.367-3.047-2.481 1.396c-.225.126-.499.128-.726.005l-2.536-1.376.604 2.942c.049.238-.021.486-.187.664l-2.018 2.154 2.942.455c.238.037.443.186.554.399l1.379 2.694 1.127-2.636c.103-.239.32-.408.578-.447l2.806-.423-.453-.445 1.053-1.069 1.522 1.498c.202.199.274.496.187.766-.087.271-.32.468-.602.51l-3.876.584-1.592 3.721c-.114.268-.373.445-.664.455-.005.003-.013.003-.022.003z"/></g><g><path d="m22.25 26.5h-8.5c-.414 0-.75-.336-.75-.75v-4c0-1.517 1.233-2.75 2.75-2.75h4.5c1.517 0 2.75 1.233 2.75 2.75v4c0 .414-.336.75-.75.75zm-7.75-1.5h7v-3.25c0-.689-.561-1.25-1.25-1.25h-4.5c-.689 0-1.25.561-1.25 1.25z"/></g><g><path d="m2 28.91h32v1.09h-32z"/></g></svg>