<svg id="LINE" enable-background="new 0 0 36 36" height="512" viewBox="0 0 36 36" width="512" xmlns="http://www.w3.org/2000/svg"><g><path d="m34.904 20.355c-3.782-5.791-3.38-11.727-5.203-14.518s-7.256-7.603-20.093.782-9.572 17.5-7.566 20.569c9.388 14.372 39.561 3.423 32.862-6.833z" fill="#efefef"/></g><g><path d="m13.071 3.451h2v1h-2z" fill="#a4afc1" transform="matrix(.707 -.707 .707 .707 1.328 11.107)"/></g><g><path d="m9.005 7.517h2v1h-2z" fill="#a4afc1" transform="matrix(.707 -.707 .707 .707 -2.738 9.423)"/></g><g><path d="m9.505 2.774h1v2h-1z" fill="#a4afc1" transform="matrix(.707 -.707 .707 .707 .263 8.184)"/></g><g><path d="m27.789 27.301c-.827 0-1.5-.673-1.5-1.5s.673-1.5 1.5-1.5 1.5.673 1.5 1.5-.673 1.5-1.5 1.5zm0-2c-.275 0-.5.224-.5.5s.225.5.5.5.5-.224.5-.5-.225-.5-.5-.5z" fill="#a4afc1"/></g><g><path d="m18.019 17.104-3.855 2.146.722-4.52-3.136-3.189 4.316-.674 1.918-4.117 1.945 4.104 4.321.644-3.114 3.21.753 4.516z" fill="#2fdf84"/></g><g><path d="m24.25 29.25h-12.5v-2.5c0-.552.448-1 1-1h10.5c.552 0 1 .448 1 1z" fill="#f3f3f1"/></g><g><path d="m22.25 25.75h-8.5l.678-3.392c.187-.935 1.008-1.608 1.961-1.608h3.221c.953 0 1.774.673 1.961 1.608z" fill="#f3f3f1"/></g><g><path d="m16.359 18.028.527-3.298-3.136-3.189 4.316-.674.927-1.989-1.009-2.128-1.918 4.117-4.316.674 3.136 3.189-.722 4.52z" fill="#00b871"/></g><g><path d="m20.019 17.104-.992.552 2.862 1.568-.201-1.206z" fill="#00b871"/></g><g><path d="m18.39 20.75h-2c-.953 0-1.774.673-1.961 1.608l-.679 3.392h2l.678-3.392c.187-.935 1.008-1.608 1.962-1.608z" fill="#d5dbe1"/></g><g><path d="m14.75 25.75h-2c-.552 0-1 .448-1 1v2.5h2v-2.5c0-.552.448-1 1-1z" fill="#d5dbe1"/></g><g><path d="m14.164 20c-.151 0-.302-.045-.43-.136-.235-.165-.356-.449-.311-.732l.661-4.146-2.87-2.918c-.196-.201-.266-.495-.177-.761.088-.267.318-.462.597-.506l3.921-.612.392-.842 1.359.633-.561 1.205c-.105.227-.316.386-.564.425l-2.872.448 2.111 2.147c.167.17.243.409.205.644l-.478 2.996 2.505-1.395c.227-.125.499-.126.726-.002l2.516 1.378-.499-2.992c-.039-.235.036-.475.202-.646l2.097-2.161-2.876-.429c-.248-.037-.46-.194-.567-.42l-1.602-3.378-.806-.375.46-.988c.123-.267.387-.436.677-.437h.003c.29 0 .554.167.678.429l1.774 3.743 3.925.585c.278.042.51.235.6.501.091.266.024.561-.172.763l-2.851 2.938.691 4.141c.047.283-.072.569-.306.735-.236.167-.545.185-.795.046l-3.507-1.92-3.492 1.944c-.113.064-.239.095-.364.095z"/></g><g><path d="m24.25 30h-12.5c-.414 0-.75-.336-.75-.75v-2.5c0-.965.785-1.75 1.75-1.75h10.5c.965 0 1.75.785 1.75 1.75v2.5c0 .414-.336.75-.75.75zm-11.75-1.5h11v-1.75c0-.138-.112-.25-.25-.25h-10.5c-.138 0-.25.112-.25.25z"/></g><g><path d="m22.25 26.5h-8.5c-.225 0-.438-.101-.58-.274s-.199-.402-.155-.623l.679-3.392c.255-1.281 1.389-2.211 2.696-2.211h3.221c1.307 0 2.44.93 2.696 2.211l.679 3.392c.044.22-.013.449-.155.623s-.356.274-.581.274zm-7.585-1.5h6.67l-.499-2.495c-.116-.583-.632-1.005-1.226-1.005h-3.22c-.594 0-1.109.422-1.226 1.004z"/></g><g><path d="m17.267 17.268h1.5v3.232h-1.5z"/></g><g><path d="m2 28.91h32v1.09h-32z"/></g></svg>