<svg id="LINE" enable-background="new 0 0 36 36" height="512" viewBox="0 0 36 36" width="512" xmlns="http://www.w3.org/2000/svg"><g><path d="m8.114 5.564c-1.805 6.677-6.504 10.327-7.374 13.545s-.847 10.475 13.955 14.477 19.432-4.501 20.388-8.041c4.481-16.572-23.772-31.807-26.969-19.981z" fill="#efefef"/></g><g><path d="m7.323 9.305h2v1h-2z" fill="#a4afc1" transform="matrix(.707 -.707 .707 .707 -4.496 8.758)"/></g><g><path d="m3.258 13.371h2v1h-2z" fill="#a4afc1" transform="matrix(.707 -.707 .707 .707 -8.561 7.074)"/></g><g><path d="m3.758 8.629h1v2h-1z" fill="#a4afc1" transform="matrix(.707 -.707 .707 .707 -5.561 5.829)"/></g><g><path d="m34.5 27.25c-.827 0-1.5-.673-1.5-1.5s.673-1.5 1.5-1.5 1.5.673 1.5 1.5-.673 1.5-1.5 1.5zm0-2c-.276 0-.5.224-.5.5s.224.5.5.5.5-.224.5-.5-.224-.5-.5-.5z" fill="#a4afc1"/></g><g><path d="m13.75 11.75 1-3h6.5l1 3z" fill="#2fdf84"/></g><g><path d="m13.75 29.25h-6c-.552 0-1-.448-1-1v-10.5h7z" fill="#f3f3f1"/></g><g><path d="m13.75 11.75v6.25 11.25h8.5v-11.25-6.25z" fill="#2fdf84"/></g><g><path d="m6.75 17.75 1-3h6v3z" fill="#f3f3f1"/></g><g><path d="m22.25 29.25h6c.552 0 1-.448 1-1v-9.5h-7z" fill="#f3f3f1"/></g><g><path d="m29.25 18.75-1-3h-6v3z" fill="#f3f3f1"/></g><g><path d="m14.75 8.75-1 3h2l1-3z" fill="#00b871"/></g><g><path d="m15.75 11.75h-2v6.25 11.25h2v-11.25z" fill="#00b871"/></g><g><path d="m8.75 28.25v-10.5h-2v10.5c0 .552.448 1 1 1h2c-.552 0-1-.448-1-1z" fill="#d5dbe1"/></g><g><path d="m7.75 14.75-1 3h2l1-3z" fill="#d5dbe1"/></g><g><path d="m22.25 18.75h2v10.5h-2z" fill="#d5dbe1"/></g><g><path d="m22.25 15.75h2v3h-2z" fill="#d5dbe1"/></g><g><path d="m22.25 30h-8.5c-.414 0-.75-.336-.75-.75v-7h1.5v6.25h7v-16h-7v7.531h-1.5v-8.281c0-.414.336-.75.75-.75h8.5c.414 0 .75.336.75.75v17.5c0 .414-.336.75-.75.75z"/></g><g><path d="m21.539 11.987-.83-2.487h-5.419l-.829 2.487-1.423-.475 1-3c.103-.305.389-.512.712-.512h6.5c.323 0 .609.207.711.513l1 3z"/></g><g><path d="m13.75 30h-6c-.965 0-1.75-.785-1.75-1.75v-10.5c0-.414.336-.75.75-.75h7c.414 0 .75.336.75.75v2.25h-1.5v-1.5h-5.5v9.75c0 .138.112.25.25.25h5.25v-6.281h1.5v7.031c0 .414-.336.75-.75.75z"/></g><g><path d="m7.461 17.987-1.423-.475 1-3c.103-.305.389-.512.712-.512h6v1.5h-5.459z"/></g><g><path d="m28.25 30h-6c-.414 0-.75-.336-.75-.75v-10.5c0-.414.336-.75.75-.75h7c.414 0 .75.336.75.75v9.5c0 .965-.785 1.75-1.75 1.75zm-5.25-1.5h5.25c.138 0 .25-.112.25-.25v-8.75h-5.5z"/></g><g><path d="m28.539 18.987-.83-2.487h-5.459v-1.5h6c.323 0 .609.207.711.513l1 3z"/></g><g><path d="m2 28.91h32v1.09h-32z"/></g></svg>