<svg id="LINE" enable-background="new 0 0 36 36" height="512" viewBox="0 0 36 36" width="512" xmlns="http://www.w3.org/2000/svg"><g><path d="m8.377 4.167c6.917 0 11.667-3.583 15-3.583s10.333 1.916 10.333 17.249-9.417 17.583-13.083 17.583c-17.167.001-24.5-31.249-12.25-31.249z" fill="#efefef"/></g><g><path d="m7.076 3.356h2v1h-2z" fill="#a4afc1" transform="matrix(.707 -.707 .707 .707 -.361 6.84)"/></g><g><path d="m3.01 7.422h2v1h-2z" fill="#a4afc1" transform="matrix(.707 -.707 .707 .707 -4.427 5.156)"/></g><g><path d="m3.51 2.679h1v2h-1z" fill="#a4afc1" transform="matrix(.707 -.707 .707 .707 -1.427 3.913)"/></g><g><path d="m31.28 31.75c-.827 0-1.5-.673-1.5-1.5s.673-1.5 1.5-1.5 1.5.673 1.5 1.5-.673 1.5-1.5 1.5zm0-2c-.275 0-.5.225-.5.5s.225.5.5.5.5-.225.5-.5-.224-.5-.5-.5z" fill="#a4afc1"/></g><g><path d="m18 14.75c1.243 0 2.25 1.007 2.25 2.25v5.25h-4.5v-5.25c0-1.243 1.007-2.25 2.25-2.25z" fill="#2fdf84"/></g><g><path d="m26.684 28.25h-17.161c-1.018 0-1.867-.778-1.951-1.79l-.814-9.735c-.011-.126-.009-.252.005-.378l.764-6.86c.111-.989.949-1.737 1.946-1.737h17.053c.998 0 1.836.748 1.946 1.737l.767 6.881c.012.112.015.225.008.337l-.609 9.715c-.064 1.028-.92 1.83-1.954 1.83z" fill="#2fdf84"/></g><g><path d="m9.571 26.46-.813-9.735c-.011-.126-.009-.252.005-.378l.764-6.86c.11-.989.948-1.737 1.946-1.737h-2c-.998 0-1.836.748-1.946 1.737l-.764 6.86c-.014.125-.016.252-.005.378l.813 9.735c.085 1.012.933 1.79 1.951 1.79h2c-1.018 0-1.866-.778-1.951-1.79z" fill="#00b871"/></g><g><path d="m20.447 19h8.625v1.5h-8.625z"/></g><g><path d="m20.477 16h8.771v1.5h-8.771z"/></g><g><path d="m6.752 16h8.771v1.5h-8.771z"/></g><g><path d="m6.987 19h8.565v1.5h-8.565z"/></g><g><path d="m11 7.994h1.5v8.542h-1.5z"/></g><g><path d="m23.5 7.75h1.5v3.329h-1.5z"/></g><g><path d="m23.5 13.406h1.5v3.094h-1.5z"/></g><g><path d="m20.25 23h-4.5c-.414 0-.75-.336-.75-.75v-5.25c0-1.654 1.346-3 3-3s3 1.346 3 3v5.25c0 .414-.336.75-.75.75zm-3.75-1.5h3v-4.5c0-.827-.673-1.5-1.5-1.5s-1.5.673-1.5 1.5z"/></g><g><path d="m17.25 17.75h1.5v1.5h-1.5z"/></g><g><path d="m26.685 29h-17.163c-1.396 0-2.582-1.088-2.698-2.478l-.813-9.735c-.015-.173-.013-.347.006-.521l.766-6.862c.152-1.371 1.309-2.404 2.691-2.404h17.053c1.382 0 2.539 1.033 2.691 2.403l.767 6.881c.018.154.021.311.012.467l-.608 9.715c-.091 1.421-1.278 2.534-2.704 2.534zm-17.211-20.5c-.616 0-1.133.46-1.201 1.069l-.765 6.86c-.008.075-.01.153-.003.231l.813 9.736c.053.629.57 1.103 1.204 1.103h17.162c.637 0 1.166-.495 1.206-1.128l.608-9.714c.004-.067.003-.138-.005-.207l-.767-6.882c-.067-.608-.583-1.068-1.2-1.068z"/></g></svg>