<svg id="LINE" enable-background="new 0 0 36 36" height="512" viewBox="0 0 36 36" width="512" xmlns="http://www.w3.org/2000/svg"><g><path d="m8.377 31.833c6.917 0 11.667 3.583 15 3.583s10.333-1.916 10.333-17.249-9.417-17.584-13.083-17.584c-17.167 0-24.5 31.25-12.25 31.25z" fill="#efefef"/></g><g><path d="m5.773 10.66h2v1h-2z" fill="#a4afc1" transform="matrix(.707 -.707 .707 .707 -5.907 8.058)"/></g><g><path d="m1.707 14.726h2v1h-2z" fill="#a4afc1" transform="matrix(.707 -.707 .707 .707 -9.973 6.374)"/></g><g><path d="m2.207 9.983h1v2h-1z" fill="#a4afc1" transform="matrix(.707 -.707 .707 .707 -6.973 5.131)"/></g><g><path d="m31.895 7.25c-.827 0-1.5-.673-1.5-1.5s.673-1.5 1.5-1.5 1.5.673 1.5 1.5-.673 1.5-1.5 1.5zm0-2c-.276 0-.5.224-.5.5s.224.5.5.5.5-.224.5-.5-.225-.5-.5-.5z" fill="#a4afc1"/></g><g><path d="m17.5 29.25h-9.75c-.552 0-1-.448-1-1v-10.5h10.75z" fill="#2fdf84"/></g><g><path d="m17.5 9.75v11.25 8.25h10.75c.552 0 1-.448 1-1v-18.5z" fill="#f3f3f1"/></g><g><path d="m6.75 17.75 1-3h9.75v3z" fill="#2fdf84"/></g><g><path d="m28.25 6.75h-9.75l-1 3h11.75z" fill="#f3f3f1"/></g><g><path d="m19.5 9.75h-2v11.25 8.25h2v-8.25z" fill="#d5dbe1"/></g><g><path d="m18.5 6.75-1 3h2l1-3z" fill="#d5dbe1"/></g><g><path d="m8.75 28.25v-10.5h-2v10.5c0 .552.448 1 1 1h2c-.552 0-1-.448-1-1z" fill="#00b871"/></g><g><path d="m7.75 14.75-1 3h2l1-3z" fill="#00b871"/></g><g><path d="m17.5 30h-9.75c-.965 0-1.75-.785-1.75-1.75v-10.5c0-.414.336-.75.75-.75h10.75c.414 0 .75.336.75.75v11.5c0 .414-.336.75-.75.75zm-10-11.5v9.75c0 .138.112.25.25.25h9v-10z"/></g><g><path d="m28.25 30h-10.75c-.414 0-.75-.336-.75-.75v-19.5c0-.414.336-.75.75-.75h11.75c.414 0 .75.336.75.75v3.792h-1.5v-3.042h-10.25v18h10c.138 0 .25-.112.25-.25v-12h1.5v12c0 .965-.785 1.75-1.75 1.75z"/></g><g><path d="m7.461 17.987-1.423-.475 1-3c.103-.305.389-.512.712-.512h9.75v1.5h-9.209z"/></g><g><path d="m28.539 9.987-.83-2.487h-8.669l-.829 2.487-1.423-.475 1-3c.103-.305.389-.512.712-.512h9.75c.323 0 .609.207.711.513l1 3z"/></g><g><path d="m2 28.91h32v1.09h-32z"/></g></svg>