<svg id="LINE" enable-background="new 0 0 36 36" height="512" viewBox="0 0 36 36" width="512" xmlns="http://www.w3.org/2000/svg"><g><path d="m27.417 3.914c-6.915.129-11.732-3.365-15.064-3.302s-10.296 2.109-10.009 17.44 9.744 17.404 13.41 17.336c17.163-.321 23.911-31.703 11.663-31.474z" fill="#efefef"/></g><g><path d="m30.745 8.25c-.827 0-1.5-.673-1.5-1.5s.673-1.5 1.5-1.5 1.5.673 1.5 1.5-.673 1.5-1.5 1.5zm0-2c-.276 0-.5.224-.5.5s.224.5.5.5.5-.224.5-.5-.224-.5-.5-.5z" fill="#a4afc1"/></g><g><path d="m3.5 18.46h1v2h-1z" fill="#a4afc1"/></g><g><path d="m3.5 24.21h1v2h-1z" fill="#a4afc1"/></g><g><path d="m0 21.71h2v1h-2z" fill="#a4afc1"/></g><g><path d="m5.75 21.71h2v1h-2z" fill="#a4afc1"/></g><g><path d="m15.89 26.21c-2.74-2.82-4.81-10.68-5.17-17.4l-.05-1.03c-.02-.27.08-.53.27-.73.18-.19.44-.3.7-.3h12.72c.26 0 .52.11.7.3.19.2.29.46.27.73l-.05 1.03c-.36 6.72-2.43 14.58-5.17 17.4z" fill="#2fdf84"/></g><g><path d="m19.685 21.26c1.484-2.4 2.5-7.238 2.5-11.5z" fill="#2fdf84"/></g><g><path d="m13.75 29.25c0-1.933 1.903-3.5 4.25-3.5s4.25 1.567 4.25 3.5z" fill="#f3f3f1"/></g><g><path d="m12.67 7.78c-.02-.27.08-.53.27-.73.18-.19.44-.3.7-.3h-2c-.26 0-.52.11-.7.3-.19.2-.29.46-.27.73l.05 1.03c.36 6.72 2.43 14.58 5.17 17.4h2c-2.74-2.82-4.81-10.68-5.17-17.4z" fill="#00b871"/></g><g><path d="m19 25.858c-.322-.064-.654-.108-1-.108-2.347 0-4.25 1.567-4.25 3.5h2c0-1.648 1.388-3.02 3.25-3.392z" fill="#d5dbe1"/></g><g><path d="m15.352 26.732c-3.041-3.129-5.042-11.548-5.381-17.882l-.05-1.034c-.035-.461.134-.923.475-1.283.321-.339.775-.533 1.244-.533h1.576v1.5h-1.576c-.056 0-.119.026-.156.066-.033.035-.071.09-.066.158l.051 1.049c.375 7.008 2.554 14.439 4.959 16.914z"/></g><g><path d="m20.648 26.732-1.076-1.045c1.697-1.747 3.33-5.995 4.262-11.087l.491-3.338c.092-.83.163-1.677.206-2.492l.05-1.027c.006-.087-.032-.143-.065-.177-.038-.04-.1-.066-.156-.066h-7.714v-1.5h7.714c.469 0 .923.194 1.244.534.341.359.51.822.474 1.302l-.049 1.011c-.045.848-.118 1.724-.216 2.608l-.499 3.39c-1.002 5.475-2.745 9.91-4.666 11.887z"/></g><g><path d="m20.322 21.654-1.275-.789c1.383-2.236 2.388-6.907 2.388-11.105h1.5c0 4.517-1.075 9.408-2.613 11.894z"/></g><g><path d="m22.25 30h-8.5c-.414 0-.75-.336-.75-.75 0-2.343 2.243-4.25 5-4.25s5 1.907 5 4.25c0 .414-.336.75-.75.75zm-7.618-1.5h6.735c-.417-1.153-1.769-2-3.368-2s-2.95.847-3.367 2z"/></g><g><path d="m23.722 20.383-.702-1.325c2.873-1.523 4.808-4.007 5.448-6.995.087-.405-.005-.813-.255-1.122-.229-.285-.556-.441-.919-.441h-2.074v-1.5h2.074c.813 0 1.574.364 2.087.999.535.663.737 1.53.554 2.379-.735 3.428-2.941 6.271-6.213 8.005z"/></g><g><path d="m12.278 20.633c-3.272-1.734-5.479-4.577-6.213-8.005-.183-.848.019-1.715.554-2.378.513-.636 1.274-1 2.088-1h2.074v1.5h-2.074c-.363 0-.69.157-.919.441-.25.309-.342.717-.255 1.121.641 2.989 2.576 5.473 5.449 6.996z"/></g><g><path d="m2 28.91h32v1.09h-32z"/></g></svg>