<svg id="LINE" enable-background="new 0 0 36 36" height="512" viewBox="0 0 36 36" width="512" xmlns="http://www.w3.org/2000/svg"><g><path d="m13.411 34.999c6.298-2.859 12.105-1.559 15.14-2.936 3.035-1.378 8.617-6.016 2.28-19.978s-15.841-12.12-19.18-10.605c-15.632 7.095-9.395 38.582 1.76 33.519z" fill="#efefef"/></g><g><path d="m11.75 3.305h2v1h-2z" fill="#a4afc1" transform="matrix(.707 -.707 .707 .707 1.044 10.131)"/></g><g><path d="m7.685 7.371h2v1h-2z" fill="#a4afc1" transform="matrix(.707 -.707 .707 .707 -3.022 8.446)"/></g><g><path d="m8.185 2.629h1v2h-1z" fill="#a4afc1" transform="matrix(.707 -.707 .707 .707 -.023 7.202)"/></g><g><path d="m25.808 22.841c-.827 0-1.5-.673-1.5-1.5s.673-1.5 1.5-1.5 1.5.673 1.5 1.5-.673 1.5-1.5 1.5zm0-2c-.276 0-.5.224-.5.5s.224.5.5.5.5-.224.5-.5-.225-.5-.5-.5z" fill="#a4afc1"/></g><g><path d="m23.15 13.15h.01l-.01.02c-.05.24-.11.48-.19.7l-2.83 10.64c-.14.53-.06 1.09.22 1.55l1.95 3.19h-8.6l1.95-3.19c.28-.46.36-1.02.22-1.55l-2.82-10.59c-.08-.25-.16-.52-.21-.79v-.02c-.06-.32-.09-.65-.09-.98 0-2.94 2.31-5.34 5.17-5.38 2.35-.03 4.33 1.51 5.08 3.79.3.92.31 1.79.15 2.61z" fill="#2fdf84"/></g><g><ellipse cx="19.909" cy="14.087" fill="#2fdf84" rx="1.432" ry="1.467"/></g><g><path d="m21.341 14.087 1.821-2.935z" fill="#2fdf84"/></g><g><path d="m18.477 14.087-2.386-2.935s3.818 7.826-.322 14.674z" fill="#2fdf84"/></g><g><path d="m12.838 11.152s1.344 2.935 4.268 2.935z" fill="#2fdf84"/></g><g><path d="m17.87 24.51-2.82-10.59c-.08-.25-.16-.52-.21-.79v-.02c-.06-.32-.09-.65-.09-.98 0-2.61 1.824-4.785 4.234-5.27-.345-.068-.698-.114-1.064-.11-2.86.04-5.17 2.44-5.17 5.38 0 .33.03.66.09.98v.02c.05.27.13.54.21.79l2.82 10.59c.14.53.06 1.09-.22 1.55l-1.95 3.19h2l1.95-3.19c.28-.46.36-1.02.22-1.55z" fill="#00b871"/></g><g><path d="m22.295 30h-8.591c-.271 0-.521-.146-.654-.383s-.128-.526.014-.758l1.944-3.187c.175-.287.226-.64.138-.968l-1.455-5.47 1.449-.386 1.455 5.47c.192.722.081 1.5-.307 2.135l-1.247 2.047h5.919l-1.248-2.046c-.388-.636-.5-1.415-.307-2.136l2.833-10.637c.078-.236.133-.434.172-.636.002-.012.004-.024.006-.036.146-.781.103-1.511-.133-2.232-.659-2.019-2.349-3.298-4.349-3.275-2.445.034-4.434 2.111-4.434 4.628 0 .273.026.55.079.846.003.018.006.036.008.054.054.255.11.454.177.647l.736 2.759-1.449.386-.72-2.707c-.088-.248-.168-.551-.223-.848-.002-.011-.004-.022-.006-.034-.069-.381-.102-.742-.102-1.103 0-3.332 2.652-6.082 5.912-6.13 2.661-.034 4.929 1.653 5.796 4.309.305.932.371 1.91.194 2.907-.004.041-.011.081-.021.121-.047.249-.121.514-.207.773l-2.82 10.592c-.087.328-.037.681.138.969l1.943 3.187c.142.231.146.521.014.758s-.383.384-.654.384z"/></g><g><path d="m19.909 16.304c-1.203 0-2.182-.995-2.182-2.217s.979-2.217 2.182-2.217 2.182.995 2.182 2.217-.979 2.217-2.182 2.217zm0-2.934c-.376 0-.682.322-.682.717s.306.717.682.717.682-.322.682-.717-.306-.717-.682-.717z"/></g><g><path d="m20.525 11.87h3.454v1.5h-3.454z" transform="matrix(.527 -.85 .85 .527 -.205 24.87)"/></g><g><path d="m16.411 26.214-1.284-.776c3.884-6.424.326-13.882.29-13.957-.167-.343-.051-.756.27-.961.322-.204.745-.137.986.159l2.386 2.935-1.075.874c.688 3.04.966 7.527-1.573 11.726z"/></g><g><path d="m15.198 26.05h5.584v1.5h-5.584z"/></g><g><path d="m17.105 14.837c-3.367 0-4.886-3.235-4.95-3.373l1.364-.624-.682.312.681-.314c.048.102 1.193 2.499 3.587 2.499z"/></g><g><path d="m2 28.91h32v1.09h-32z"/></g></svg>