<svg id="bold" enable-background="new 0 0 32 32" height="512" viewBox="0 0 32 32" width="512" xmlns="http://www.w3.org/2000/svg"><path d="m26 32h-20c-3.314 0-6-2.686-6-6v-20c0-3.314 2.686-6 6-6h20c3.314 0 6 2.686 6 6v20c0 3.314-2.686 6-6 6z" fill="#e3f8fa"/><path d="m13.5 22.167c-1.654 0-3-1.346-3-3 0-.32.048-.625.141-.905.117-.349.495-.536.843-.421.349.117.538.494.421.843-.048.144-.072.306-.072.482 0 .919.748 1.667 1.667 1.667.764 0 1.444-.538 1.618-1.278.084-.359.444-.582.801-.497.358.084.581.442.497.801-.318 1.358-1.517 2.308-2.916 2.308z" fill="#8ce1eb"/><g fill="#26c6da"><path d="m23.5 22.333c-.047 0-.093-.007-.139-.02l-15-4.333c-.214-.061-.361-.257-.361-.48v-3c0-.223.147-.419.361-.48l15-4.333c.151-.042.314-.014.439.081.126.095.2.243.2.4v11.667c0 .157-.074.305-.2.4-.087.064-.193.098-.3.098z"/><path d="m23.333 22.833c-.368 0-.667-.299-.667-.667v-12.333c0-.368.299-.667.667-.667s.667.299.667.667v12.333c0 .369-.298.667-.667.667z"/><path d="m8.667 18.833c-.369 0-.667-.298-.667-.666v-4.333c0-.368.299-.667.667-.667s.667.299.667.667v4.333c-.001.368-.299.666-.667.666z"/></g></svg>