<svg id="bold" enable-background="new 0 0 32 32" height="512" viewBox="0 0 32 32" width="512" xmlns="http://www.w3.org/2000/svg"><path d="m26 32h-20c-3.314 0-6-2.686-6-6v-20c0-3.314 2.686-6 6-6h20c3.314 0 6 2.686 6 6v20c0 3.314-2.686 6-6 6z" fill="#fff9dd"/><path d="m21.5 8h-11c-.273 0-.5.227-.5.5v5.667c0 1.013.82 1.833 1.833 1.833h1.673c.54-.807 1.46-1.333 2.493-1.333s1.953.527 2.493 1.333h1.673c1.015 0 1.835-.82 1.835-1.833v-5.667c0-.273-.227-.5-.5-.5zm-2.5 4.167c0 .202-.122.384-.309.462-.062.026-.127.038-.191.038-.13 0-.258-.051-.354-.146l-.524-.524-.95.871c-.16.148-.397.175-.587.067l-.835-.477-1.397 1.396c-.097.097-.225.146-.353.146s-.256-.049-.354-.146c-.195-.195-.195-.512 0-.707l1.667-1.667c.159-.16.406-.193.602-.081l.849.485.651-.596-.434-.434c-.143-.143-.186-.358-.108-.545s.258-.309.46-.309h1.667c.276 0 .5.224.5.5z" fill="#ffe777"/><g fill="#ffd200"><circle cx="10.667" cy="18" r="1.333"/><path d="m12.447 20.267c-.673.507-1.113 1.32-1.113 2.233v.167h-2.834c-.273 0-.5-.227-.5-.5v-.333c0-1.014.82-1.834 1.833-1.834h1.667c.347 0 .673.1.947.267z"/><circle cx="21.333" cy="18" r="1.333"/><path d="m24 21.833v.333c0 .273-.227.5-.5.5h-2.833v-.166c0-.913-.44-1.727-1.113-2.233.273-.167.599-.267.946-.267h1.667c1.013 0 1.833.82 1.833 1.833z"/><circle cx="16" cy="17.667" r="2"/><path d="m17.833 20.667h-3.667c-1.011 0-1.833.822-1.833 1.833v1c0 .276.224.5.5.5h6.333c.276 0 .5-.224.5-.5v-1c.001-1.011-.822-1.833-1.833-1.833z"/></g><path d="m22.833 9h-13.666c-.276 0-.5-.224-.5-.5s.224-.5.5-.5h13.667c.276 0 .5.224.5.5s-.225.5-.501.5z" fill="#ffe777"/></svg>