<svg id="Capa_1" enable-background="new 0 0 512 512" height="512" viewBox="0 0 512 512" width="512" xmlns="http://www.w3.org/2000/svg"><g><g><g><path d="m99.091 412.468h-10.025c-18.721 0-33.898 15.177-33.898 33.898v58.134h203.325v-58.134c0-18.721-15.177-33.898-33.898-33.898z" fill="#c4e2ff"/><path d="m224.596 412.468h-28.101c18.721 0 33.898 15.177 33.898 33.898v58.134h28.1v-58.134c0-18.721-15.176-33.898-33.897-33.898z" fill="#b3dafe"/><path d="m125.425 347.188v50.91l31.29 20.86 31.29-20.86v-50.91z" fill="#ffbfb1"/><path d="m232.234 273.204c-.35 0-.697.012-1.043.026-5.977-35.736-37.043-62.973-74.476-62.973-37.433 0-68.5 27.237-74.476 62.973-.347-.014-.693-.026-1.043-.026-14.163 0-25.644 11.481-25.644 25.643s11.481 25.644 25.644 25.644c.35 0 .697-.012 1.043-.026 5.977 35.736 37.043 62.973 74.476 62.973 37.433 0 68.5-27.237 74.476-62.973.347.014.693.026 1.043.026 14.163 0 25.644-11.481 25.644-25.644s-11.481-25.643-25.644-25.643z" fill="#ffcebf"/><path d="m232.234 273.204c-.35 0-.697.012-1.043.026-5.977-35.736-37.043-62.973-74.476-62.973-3.821 0-7.571.298-11.24.846 32.27 4.818 57.869 30.039 63.236 62.127.347-.014.693-.026 1.043-.026 14.163 0 25.644 11.481 25.644 25.643 0 14.163-11.481 25.644-25.644 25.644-.35 0-.697-.012-1.043-.026-5.367 32.088-30.967 57.309-63.236 62.127 3.669.548 7.419.846 11.24.846 37.433 0 68.5-27.237 74.476-62.973.346.014.693.026 1.043.026 14.163 0 25.644-11.481 25.644-25.644s-11.481-25.643-25.644-25.643z" fill="#ffbfb1"/><path d="m208.434 185.339c-5.646-9.053-15.688-15.081-27.144-15.081h-61.429c-31.298 0-56.67 25.372-56.67 56.67v46.302h107.266c10.975 0 20.981-4.135 28.558-10.926 5.297 6.655 13.462 10.926 22.629 10.926h28.595v-45.495c-.001-23.22-18.663-42.07-41.805-42.396z" fill="#c4573a"/><path d="m156.715 418.958-16.039 16.746 5.814 22.78h20.45l5.813-22.78z" fill="#fd544d"/><path d="m146.49 458.484-9.04 46.016h38.526l-9.039-46.015h-20.447z" fill="#fd544d"/><g><path d="m208.795 338.209h-9.314c-3.391 0-6.14-2.749-6.14-6.14s2.749-6.14 6.14-6.14h9.314c3.391 0 6.14 2.749 6.14 6.14s-2.749 6.14-6.14 6.14z" fill="#ffb09e"/></g><g><path d="m114.406 338.209h-9.314c-3.391 0-6.14-2.749-6.14-6.14s2.749-6.14 6.14-6.14h9.314c3.391 0 6.14 2.749 6.14 6.14s-2.749 6.14-6.14 6.14z" fill="#ffb09e"/></g><path d="m125.424 398.098-26.449 14.37 37.316 27.814 20.424-21.324z" fill="#b3dafe"/><path d="m188.005 398.098 26.45 14.37-37.317 27.814-20.423-21.324z" fill="#b3dafe"/><g><path d="m208.434 185.339c-5.646-9.053-15.688-15.081-27.144-15.081h-28.1c11.455 0 21.498 6.028 27.144 15.081 23.142.326 41.804 19.176 41.804 42.396v45.495h28.1v-45.495c0-23.22-18.662-42.07-41.804-42.396z" fill="#a74b30"/></g><path d="m188.005 398.098-12.618 8.412 10.968 5.958-20.921 15.594 11.704 12.22 37.317-27.814z" fill="#8ac9fe"/></g><path d="m321.055 7.5c-74.987 0-135.777 53.592-135.777 119.702 0 23.854 7.917 46.077 21.557 64.742l-11.717 44.352c-.971 3.674 2.384 7.029 6.058 6.058l49.116-12.976c20.607 11.116 44.835 17.527 70.763 17.527 74.988 0 135.777-53.592 135.777-119.702s-60.79-119.703-135.777-119.703z" fill="#b3dafe"/><g><path d="m321.055 7.5c-4.744 0-9.431.216-14.05.635 68.386 6.198 121.727 57.14 121.727 119.067 0 61.921-53.331 112.859-121.707 119.065 4.613.418 9.293.637 14.031.637 74.988 0 135.777-53.592 135.777-119.702s-60.791-119.702-135.778-119.702z" fill="#8ac9fe"/></g><path d="m306.542 133.421h29.024c1.891-5.63 5.025-10.76 9.167-15.017 6.093-6.264 9.723-14.934 9.319-24.453-.724-17.056-14.642-30.913-31.701-31.566-18.832-.721-34.326 14.332-34.326 33.004 0 8.954 3.566 17.071 9.353 23.019 4.14 4.255 7.272 9.385 9.163 15.013z" fill="#fdb97e"/><path d="m306.542 133.421h29.024v11.886c0 8.015-6.497 14.512-14.512 14.512-8.015 0-14.512-6.497-14.512-14.512z" fill="#678d98"/></g><g><path d="m119.853 289.876c-4.143 0-7.5 3.358-7.5 7.5v13.907c0 4.142 3.357 7.5 7.5 7.5s7.5-3.358 7.5-7.5v-13.907c0-4.142-3.358-7.5-7.5-7.5z"/><path d="m193.577 289.876c-4.143 0-7.5 3.358-7.5 7.5v13.907c0 4.142 3.357 7.5 7.5 7.5s7.5-3.358 7.5-7.5v-13.907c0-4.142-3.357-7.5-7.5-7.5z"/><path d="m172.753 327.39c-4.143 0-7.5 3.358-7.5 7.5 0 4.708-3.83 8.539-8.538 8.539s-8.538-3.831-8.538-8.539c0-4.142-3.357-7.5-7.5-7.5s-7.5 3.358-7.5 7.5c0 12.979 10.56 23.539 23.538 23.539s23.538-10.56 23.538-23.539c0-4.142-3.357-7.5-7.5-7.5z"/><path d="m452.542 76.574c-1.818-3.721-6.309-5.264-10.032-3.444-3.721 1.819-5.263 6.31-3.444 10.032 6.813 13.936 10.267 28.753 10.267 44.04 0 61.869-57.545 112.203-128.277 112.203-23.799 0-47.037-5.75-67.202-16.627-1.676-.905-3.632-1.137-5.477-.65l-.045.012c-.003.001-.006.001-.009.002l-44.838 11.846c11.436-43.285 10.805-40.578 10.846-41.783.058-1.663-.44-3.316-1.44-4.685-12.879-17.62-20.113-38.551-20.113-60.316-.001-61.871 57.544-112.204 128.277-112.204 38.681 0 74.92 15.062 99.425 41.323 2.825 3.028 7.57 3.193 10.601.367 3.028-2.826 3.192-7.572.366-10.6-27.333-29.291-67.568-46.09-110.392-46.09-79.004 0-143.277 57.063-143.277 127.202 0 12.159 1.95 24.134 5.715 35.623-.733-.042-1.468-.067-2.202-.067h-61.428c-35.384 0-64.171 28.787-64.171 64.171v46.302c0 1.24.306 2.407.839 3.437-5.281 5.873-8.479 13.646-8.479 22.179 0 16.523 12.153 30.261 27.99 32.744 5.717 23.686 21.286 42.964 41.883 53.799v8.246l-20.857 11.332h-8.001c-22.827 0-41.398 18.571-41.398 41.397v58.135c0 4.142 3.357 7.5 7.5 7.5h23.411c4.143 0 7.5-3.358 7.5-7.5s-3.357-7.5-7.5-7.5h-15.912v-50.634c0-14.556 11.843-26.397 26.398-26.397h7.42l35.322 26.327c1.178.878 2.657 1.418 4.206 1.475l2.789 10.929-7.523 38.3h-17.7c-4.143 0-7.5 3.358-7.5 7.5s3.357 7.5 7.5 7.5h144.913c4.143 0 7.5-3.358 7.5-7.5v-58.134c0-22.827-18.571-41.397-41.397-41.397h-8.234l-20.857-11.332v-8.246c20.597-10.835 36.166-30.113 41.883-53.799 15.837-2.483 27.991-16.221 27.991-32.744 0-8.533-3.198-16.307-8.479-22.18.533-1.03.839-2.197.839-3.437v-31.891c19.603 8.573 41.257 13.065 63.316 13.065 79.004 0 143.277-57.063 143.277-127.203 0-17.59-3.967-34.623-11.79-50.628zm-381.851 150.355c0-27.113 22.058-49.171 49.171-49.171h61.428c3.173 0 6.237.596 9.14 1.776 2.463 4.84 5.603 10.025 8.258 13.885l-10.821 40.96c-2.404 9.086 5.873 17.705 15.226 15.226l39.646-10.474v26.6c-7.798 0-13.209 0-21.095 0-6.556 0-12.665-2.951-16.761-8.097-2.824-3.549-7.835-3.642-10.874-.914-6.482 5.811-14.847 9.011-23.552 9.011-15.228 0-84.574 0-99.766 0zm64.768 203.379-22.602-16.846 12.172-6.614 20.078 13.386zm21.256-20.364-23.79-15.86v-2.589c7.577 2.245 15.746 3.442 23.79 3.442 7.882 0 16.07-1.155 23.79-3.442v2.589zm7.741 27.94-3.343 13.1h-8.797l-3.343-13.1 7.741-8.083zm-17.89 59.116 6.093-31.015h8.108l6.093 31.015zm70.377-77.031h7.652c14.556 0 26.397 11.842 26.397 26.397v50.634h-68.846l-7.522-38.294 2.79-10.935c1.529-.055 3.014-.587 4.207-1.476zm-16.37-6.507-22.602 16.846-9.648-10.074 20.078-13.386zm31.661-96.471c-.25 0-.499-.011-.746-.021-3.811-.154-7.071 2.532-7.694 6.257-5.616 33.58-34.6 56.71-67.079 56.71-32.537 0-61.459-23.103-67.079-56.71-.606-3.626-3.746-6.263-7.394-6.263-.1 0-.199.002-.3.006-.248.01-.496.021-.747.021-10.004 0-18.144-8.139-18.144-18.144 0-9.721 7.567-17.652 17.254-18.117h90.151c9.99 0 19.665-2.958 27.879-8.434 6.483 5.423 14.666 8.434 23.308 8.434h11.48c9.687.464 17.255 8.396 17.255 18.117.001 10.005-8.139 18.144-18.144 18.144z"/><path d="m321.055 167.319c12.138 0 22.012-9.875 22.012-22.012v-10.558c1.554-4.126 3.966-7.953 7.043-11.116 7.854-8.074 11.915-18.729 11.437-30-.888-20.923-17.978-37.941-38.906-38.743-11.151-.418-21.677 3.586-29.687 11.295-8.014 7.713-12.427 18.084-12.427 29.204 0 10.609 4.076 20.642 11.478 28.249 3.074 3.159 5.485 6.983 7.038 11.11v10.56c-.001 12.136 9.874 22.011 22.012 22.011zm7.011-22.012c0 3.866-3.146 7.012-7.012 7.012-3.867 0-7.013-3.146-7.013-7.012v-4.386h14.024v4.386zm-32.54-49.918c0-14.493 12.025-26.088 26.539-25.509 13.176.504 23.936 11.218 24.494 24.39.302 7.106-2.256 13.82-7.202 18.905-3.615 3.716-6.616 8.055-8.838 12.747h-18.93c-2.222-4.692-5.222-9.031-8.835-12.744-4.66-4.792-7.228-11.109-7.228-17.789z"/><path d="m328.555 36.108v-13.571c0-4.142-3.357-7.5-7.5-7.5s-7.5 3.358-7.5 7.5v13.571c0 4.142 3.357 7.5 7.5 7.5s7.5-3.358 7.5-7.5z"/><path d="m283.903 50.446c2.93 2.929 7.678 2.929 10.607 0s2.929-7.678 0-10.606l-9.597-9.597c-2.93-2.929-7.678-2.929-10.607 0s-2.929 7.678 0 10.606z"/><path d="m358.207 50.446 9.596-9.597c2.929-2.929 2.929-7.678-.001-10.607-2.928-2.929-7.677-2.928-10.606 0l-9.596 9.598c-2.929 2.929-2.929 7.678.001 10.607 2.926 2.927 7.675 2.929 10.606-.001z"/><path d="m395.554 71.973c0-4.142-3.357-7.5-7.5-7.5h-13.571c-4.143 0-7.5 3.358-7.5 7.5s3.357 7.5 7.5 7.5h13.571c4.142 0 7.5-3.358 7.5-7.5z"/><path d="m254.056 64.473c-4.143 0-7.5 3.358-7.5 7.5s3.357 7.5 7.5 7.5h13.571c4.143 0 7.5-3.358 7.5-7.5s-3.357-7.5-7.5-7.5z"/><path d="m285.329 139.294c-3.288-2.521-7.997-1.896-10.516 1.39l-22.031 28.745c-3.773 4.925-.254 12.063 5.953 12.063h7.108l-13.127 17.653c-2.472 3.324-1.78 8.022 1.543 10.494 3.327 2.473 8.024 1.779 10.494-1.543l22.031-29.628c3.676-4.944.132-11.975-6.019-11.975h-6.833l12.786-16.682c2.521-3.29 1.898-7.998-1.389-10.517z"/><path d="m390.099 177.311c1.264-2.561.964-5.616-.772-7.882l-22.03-28.745c-2.52-3.287-7.227-3.912-10.516-1.39-3.287 2.52-3.91 7.227-1.391 10.515l12.786 16.682h-6.833c-2.835 0-5.428 1.599-6.701 4.132s-1.009 5.568.683 7.843l22.03 29.628c2.47 3.322 7.167 4.016 10.494 1.543 3.323-2.472 4.015-7.17 1.543-10.494l-13.126-17.653h7.107c2.855.001 5.462-1.619 6.726-4.179z"/></g></g></svg>