<svg id="bold" enable-background="new 0 0 32 32" height="512" viewBox="0 0 32 32" width="512" xmlns="http://www.w3.org/2000/svg"><path d="m26 32h-20c-3.314 0-6-2.686-6-6v-20c0-3.314 2.686-6 6-6h20c3.314 0 6 2.686 6 6v20c0 3.314-2.686 6-6 6z" fill="#ffe6e2"/><path d="m24 19.667v.5c0 .133-.053.26-.147.353l-3.333 3.333c-.093.094-.22.147-.353.147h-.5v-3.833c0-.273.227-.5.5-.5z" fill="#fd907e"/><path d="m22.167 11.333h-5v1.5c0 .644-.524 1.167-1.167 1.167s-1.167-.523-1.167-1.167v-1.5h-5c-1.013 0-1.833.82-1.833 1.834v9c0 1.013.82 1.833 1.833 1.833h9.167v-3.833c0-.644.523-1.167 1.167-1.167h3.833v-5.833c0-1.014-.82-1.834-1.833-1.834zm-4.834 9.667h-6.167c-.276 0-.5-.224-.5-.5s.224-.5.5-.5h6.167c.276 0 .5.224.5.5s-.224.5-.5.5zm3.5-2.667h-9.667c-.276 0-.5-.224-.5-.5s.224-.5.5-.5h9.667c.276 0 .5.224.5.5s-.224.5-.5.5zm0-2.666h-9.667c-.276 0-.5-.224-.5-.5s.224-.5.5-.5h9.667c.276 0 .5.224.5.5s-.224.5-.5.5z" fill="#fc573b"/><g fill="#fd907e"><path d="m16 13.333c-.276 0-.5-.224-.5-.5v-2.5c0-.276.224-.5.5-.5s.5.224.5.5v2.5c0 .276-.224.5-.5.5z"/><path d="m16 10.667c-.735 0-1.333-.598-1.333-1.333 0-.736.598-1.334 1.333-1.334s1.333.598 1.333 1.333-.598 1.334-1.333 1.334z"/></g></svg>