<svg enable-background="new 0 0 32 32" height="512" viewBox="0 0 32 32" width="512" xmlns="http://www.w3.org/2000/svg"><path d="m26 32h-20c-3.314 0-6-2.686-6-6v-20c0-3.314 2.686-6 6-6h20c3.314 0 6 2.686 6 6v20c0 3.314-2.686 6-6 6z" fill="#fff9dd"/><path d="m16 8c-4.411 0-8 3.589-8 8s3.589 8 8 8 8-3.589 8-8-3.589-8-8-8zm0 12.667c-.368 0-.667-.298-.667-.667 0-.368.298-.667.667-.667.368 0 .667.298.667.667 0 .368-.299.667-.667.667zm.667-3.334c0 .369-.299.667-.667.667s-.667-.299-.667-.667v-5.333c0-.368.299-.667.667-.667s.667.299.667.667z" fill="#ffd200"/></svg>